<svg id="กล่องที่1" xmlns="http://www.w3.org/2000/svg" viewBox="0 0 238 165"><defs><style>.cls-1{fill:#49433b;}.cls-2{fill:#ac3e24;}.cls-3{fill:#e7ccbd;}.cls-4{fill:#f3e7df;}.cls-5{fill:#efa233;}.cls-6{fill:#ecb45b;}.cls-7{fill:#fdc56a;}.cls-8{fill:#dd4036;}.cls-9{fill:#fac2c5;}.cls-10{fill:#f69ea6;}.cls-11{fill:#f0555c;}.cls-12{fill:#f38085;}.cls-13{fill:#392a13;}.cls-14{fill:#e7a431;}</style></defs><title>กล่องดวงใจ</title><g id="พื้น"><path class="cls-1" d="M18.24,31.5H218S193.83,101,202.17,142l-170,2.42S43.47,43,18.24,31.5Z"/></g><g id="ลาย3"><g id="Layer_10_copy" data-name="Layer 10 copy"><path class="cls-2" d="M95.53,64.5s-3.5-17-34-18.75c0,0-20.75-1.25-29.75,9.38L42.53,105s16.75,14,32,17.25l-22.75,12,.25,2s35.25-4.5,48.25-21.75Z"/><path class="cls-3" d="M79.28,55.25S54,45.75,46.53,57c0,0,8.91,40.62,5,46.25,0,0,24.5,17.5,43,7.75C94.53,111,87,57.51,79.28,55.25Z"/></g><g id="Layer_10" data-name="Layer 10"><path class="cls-2" d="M144,64.5s3.5-17,34-18.75c0,0,20.75-1.25,29.75,9.38L197,105s-16.75,14-32,17.25l22.75,12-.25,2s-35.25-4.5-48.25-21.75Z"/><path class="cls-3" d="M160.29,55.25S185.54,45.75,193,57c0,0-5.62,28.5-5.35,41.06a34.79,34.79,0,0,0,.35,5.19s-24.5,17.5-43,7.75C145,111,152.57,57.52,160.29,55.25Z"/></g></g><g id="ลาย2"><path class="cls-4" d="M176.25,80.5s0-22-25-28c0,0-1.25-10.75,5-11.5h-8.13L119.75,66.5,91.38,41H83.25c6.25.75,5,11.5,5,11.5-25,6-25,28-25,28-3.5,27.5,32.25,31,32.25,31,12.75,7.5,5,22,5,22,5,0,19.25-9,19.25-9s14.25,9,19.25,9c0,0-7.75-14.5,5-22C144,111.5,179.75,108,176.25,80.5Z"/></g><g id="กรอบ"><path class="cls-5" d="M12,41s33,46.5,6,105.5L40,149S62,83,35.5,41Z"/><path class="cls-5" d="M227,41s-38.5,34.5-9.5,110.5H200S172,94,200,41Z"/><polygon class="cls-5" points="12.15 22.04 230.15 22.04 227.15 41.04 12.15 41.04 12.15 22.04"/><polygon class="cls-5" points="212 134.83 212 154 25.5 154 28 134.83 212 134.83"/><g id="Layer_4" data-name="Layer 4"><polygon class="cls-6" points="26.5 142 196.17 142 193.84 134.83 26.5 134.83 26.5 142"/></g><g id="Layer_5" data-name="Layer 5"><path class="cls-7" d="M30.28,22S75.39,2,92.95,8C92.95,8,125,19,143,9c0,0,22-7,38,.5L212,22Z"/></g></g><g id="หัวใจ"><path class="cls-8" d="M151.5,71s-12.75-17-32.75-2.25c0,0-22.5-18-33.75,0-2.53,4-3.92,6.21-4.56,7.13a5.05,5.05,0,0,1-.48.73c-.11.38-.21.76-.35,1.14s-.19.46-.3.68c-1.11,5.78.53,13,10.94,19.32,0,0,26.5,9.75,27,17.75,0,0,15.25-14,24.5-15.75C141.75,99.75,161.75,88.75,151.5,71Z"/></g><g id="ลาย"><path class="cls-9" d="M141.57,67.21s-22,.84-25,12.88c0,0,8.69,14.55,12.16,12.16,0,0,7.58,1.72,11.65-11.65Z"/><path class="cls-9" d="M94.83,112.51s22-.84,25-12.88c0,0-8.69-14.55-12.16-12.16,0,0-7.58-1.72-11.65,11.65Z"/><path class="cls-9" d="M95.65,65.5s22,.84,25,12.88c0,0-8.69,14.55-12.16,12.16,0,0-7.58,1.72-11.65-11.65Z"/><path class="cls-9" d="M140,112.51s-22-.84-25-12.88c0,0,8.69-14.55,12.16-12.16,0,0,7.58-1.72,11.65,11.65Z"/><path class="cls-10" d="M118.87,121.17s15-16.18,8.59-26.82c0,0-16.43-4.15-17.19,0,0,0-6.58,4.15,0,16.48Z"/><path class="cls-10" d="M86.33,88s16.18-15,26.82-8.59c0,0,4.15,16.43,0,17.19,0,0-4.15,6.58-16.48,0Z"/><path class="cls-10" d="M150.51,88.34s-16.18-15-26.82-8.59c0,0-4.15,16.43,0,17.19,0,0,4.15,6.58,16.48,0Z"/><path class="cls-10" d="M118.35,57.38s-15,16.18-8.59,26.82c0,0,16.43,4.15,17.19,0,0,0,6.58-4.15,0-16.48Z"/><circle class="cls-11" cx="118.2" cy="87.98" r="9.97" transform="translate(-4.34 6.16) rotate(-2.93)"/><circle class="cls-12" cx="118.2" cy="89" r="6.45" transform="translate(-28.67 71.02) rotate(-30)"/></g><g id="จุด4"><path class="cls-13" d="M35.57,41.46l-25,.49S9.94,39,9.37,35.24a71.21,71.21,0,0,1-.89-9.85c0-3.1.42-5.64,1.64-6.43,0,0,14.89-5.79,21.5-.42,0,0,.64,1.34,1.47,3.41a51.8,51.8,0,0,1,3.4,12.26C36.82,37,36.65,39.62,35.57,41.46Z"/><path class="cls-13" d="M200.77,42.23l26.63,1.07s.73-3.11,1.43-7.12A75.9,75.9,0,0,0,230,25.7c.08-3.3-.32-6-1.61-6.89,0,0-15.74-6.5-22.9-.92,0,0-.71,1.41-1.64,3.6a55.22,55.22,0,0,0-3.89,13C199.53,37.45,199.65,40.24,200.77,42.23Z"/><g id="Layer_6" data-name="Layer 6"><path class="cls-14" d="M36.48,34.2c-6.44-2.57-21.65,0-27.11,1a71.21,71.21,0,0,1-.89-9.85C14.54,21.2,29,21.71,33.08,21.94a47.32,47.32,0,0,1,2.19,6A34.39,34.39,0,0,1,36.48,34.2Z"/><path class="cls-14" d="M200,34.47c6.92-2.6,23.08.47,28.87,1.71A75.9,75.9,0,0,0,230,25.7c-6.37-4.59-21.82-4.37-26.15-4.21A55.22,55.22,0,0,0,200,34.47Z"/></g><g id="Layer_7" data-name="Layer 7"><path class="cls-13" d="M191.83,126.07s-10.5,20,0,30.5c0,0,19.5,8.5,27-6l-9-24.5S195.83,123.57,191.83,126.07Z"/><path class="cls-14" d="M188.6,134.5s20.59.43,23.41-2.5l5.29,14.39s-13.8,11.17-30.13,2.67C187.17,149.07,186.38,134.48,188.6,134.5Z"/><path class="cls-13" d="M42.88,127s10.5,20,0,30.5c0,0-19.5,8.5-27-6l9-24.5S38.88,124.5,42.88,127Z"/><path class="cls-14" d="M46.11,135.44s-20.59.43-23.41-2.5l-5.29,14.39S31.22,158.5,47.55,150C47.55,150,48.34,135.41,46.11,135.44Z"/></g></g></svg>