<?xml version="1.0" encoding="utf-8"?>
<!-- Generator: Adobe Illustrator 21.0.2, SVG Export Plug-In . SVG Version: 6.00 Build 0)  -->
<svg version="1.1" xmlns="http://www.w3.org/2000/svg" xmlns:xlink="http://www.w3.org/1999/xlink" x="0px" y="0px"
	 viewBox="0 0 771 312" style="enable-background:new 0 0 771 312;" xml:space="preserve">
<style type="text/css">
	.st0{fill:#FFFFFF;}
	.st1{fill:#FFFFFF;stroke:#FFFFFF;stroke-miterlimit:10;}
	.st2{fill:#FFFFFF;stroke:#FFFFFF;stroke-width:3;stroke-miterlimit:10;}
</style>
<g id="Layer_1">
	<rect x="739.6" y="766.1" width="1408.4" height="795"/>
	
		<text transform="matrix(0.9218 0 0 1 1115.1855 1111.9863)" class="st1" style="font-family:'SNTAnouvong-BoldItalic'; font-size:41.2912px;">Ways to IT Professionals Camp</text>
	<path class="st0" d="M1271.7,1239.1c8.8,1.1,15.9,2.2,21.1,3.1c3.8,0.6,7.3,1.3,9.2,1.6c7,1.3,12.6,2.4,14.7,2.8
		c19.4,3.9,28.1,6.9,34.4,11.7c3.9,2.9,8.4,7.7,5.8,12.6c0,0-5.4,10.3,13,14.8c0,0-36-6.3-32.3-13.9c0,0,3.4-0.2,0.6-2.2
		c0,0-5.8-0.5-6.4,3.1c-3.8-1.3-9.3-3.9-10.1-7.9c-0.2-1.1,0-2.4,0.7-3.3c0.9-1.4,2.2-1.8,3.8-2.2c1.4-0.4,2.8-0.6,4.2-0.6
		c2.8-0.1,5.7,0.5,8.2,1.8c0.5,0.3,1.1,0.6,1.3,1.2c0.2,0.6-0.1,1.2-0.6,1.5c-0.2,0.2-2.9,1.1-2.9,1c0,0-0.3,1.6,3.1,1.5
		c1.6,0,3.2-0.3,4.8-0.7c0.3-0.1,0.7-0.2,0.9-0.3c1.7-1.1,0.6-4.6-0.9-5.4C1341.6,1257.5,1322.9,1246.5,1271.7,1239.1z"/>
	<path class="st0" d="M1280.9,1237.7c0,0,18.9,1.4,21.9,3.8c0,0,44.3,0.1,63.7,18.1c0,0,10.3,0.1,12.5,3.2c0,0,1.7,2.7-2.7,1
		c0,0-5.6-3.1-11.5-1.2c0,0-5.4,3.1,0.8,5.9c6.2,2.8,11.1,3.2,11.1,3.2c0.8,0,2,0.1,3.4,0.2c1.9,0.2,2.8,0.3,3,0
		c0.3-0.5-1.2-1.6-1.3-1.8c-0.4-0.3-0.7-0.5-1-0.6c-0.4-0.5-0.5-1.1-0.3-1.5c0.2-0.3,0.7-0.4,1.7-0.3c3,0.4,4.1,2.8,4.1,2.8
		s8.2,1.9,13,0c0,0,9.2-2.5,15.9,0.8c0,0,0.3-4-11.5-4.5c0,0-3.5-0.2-5.9,0.3c-14.9-9.9-41.8-24.7-78.5-28.9
		C1304.7,1236.3,1291.7,1236.6,1280.9,1237.7z"/>
	<path class="st0" d="M1305.7,1235c3.1,0.1,6.3-0.5,9.4-0.6c8.1-0.3,16.2-0.2,24.2,0.4c19.3,1.5,36.4,6.6,53,15.1
		c13.1,6.7,26.5,13.1,39,20.5c0.7,0.4,1.4,0.8,2.1,1.2c12.4,7.6,35.1,7.6,35.1,7.6s21.2,0.9,33.6-3.3c0,0,16.2,1.6,25.7-6.5
		c9.5-8.1,12.1-10.3,12.2-15.7c0.2-5.5-2.5-9.2-8.1-8.9c0,0-1.9-0.2,0.9,3.7c2.8,3.9-1.3,9-1.3,9s-11.2,5.8-15.3-4.8
		s3.2-22.2,3.2-22.2s5.1-7.8,12.7-9.4c0,0-2.2,4-0.7,5.4c0,0,4.5,2.6,2.8,4.6c0,0,5.2-1.2,4-4.6c0,0-7-22.3,42.4-22
		c0,0-23.2,6.2-22.9,27.3c0,0,2.2,33.5-30.9,48.4c0,0-11.1,6.8-28.3,3.2c0,0-39.7,3.4-55.8-4.4c-25.8-12.5-50.7-28.7-78.9-36.9
		C1345.8,1237,1324.7,1235.7,1305.7,1235z"/>
	<path class="st0" d="M1585.8,1247.5c-2.8-0.5-3.8,0.1-4.2,0.7c-0.7,0.9,0.1,1.8-0.6,3.4c-0.7,1.6-2,1.9-1.9,2.8
		c0.1,0.4,0.5,0.9,2,1.4c1.1-0.1,2.7-0.3,4.3-1.1c2.1-1,2.3-1.9,3.6-2.2c1.3-0.3,3.2,0,8.1,4.1c1.5,1.3,2.6,2.3,3.4,3.1
		c2.9,3,4.2,4.1,4.8,4.6c1.9,1.7,5.7,3.3,13.5,2.2c-0.4,0.8-1.1,2-2.4,3.1c-1.4,1.3-2.8,1.9-3.1,2c-2.1,0.8-3.9,0.7-6.4,0.5
		c-6.4-0.6-7.7-2.2-10.7-2c-4.8,0.3-7.9,5-9,6.6c-8.9,12.1-34.8,24.5-52.7,28.9c-5.5,1.4-19.4,4.7-36.6,1.6
		c-21.7-3.9-35.2-15.7-40.3-20.6c2.4,0.7,9.4,2.5,14.5,2.5c1.6,0,5.4,0.1,7.3-0.1c0.6-0.1,1.3-0.1,2.6-0.1c0.6,0,0.9,0,1.2,0.1
		c0.9,0.2,1.3,0.7,1.9,1.2c0.4,0.3,1.1,0.7,2.6,1.3c2.4,1.1,5.7,2.1,7.2,2.5c12.9,3.3,26.9,1,26.9,1c5.7-0.9,18.3-2.9,28.9-12
		c4.7-4,7.6-8.2,9.2-11.1c3.9,1.7,8.4,1.4,11.2-0.8c2.4-1.9,2.8-4.5,2.8-5.3c-0.6,0.6-2.8,2.4-5.9,2.4c-3.9,0-6.4-3-7.3-4.1
		c-0.5-0.6-2.1-2.6-2.3-5.4c-0.5-5.7,5-9.7,5.8-10.3c5.1-3.7,11.2-3.4,13-3.2C1581.5,1245.1,1584.4,1246.6,1585.8,1247.5z"/>
	<path class="st0" d="M1732.5,1214.6c-0.7,1-2.1,2.5-4.4,3.5c-1.5,0.6-2.8,0.7-6,1.1c-5.4,0.6-8.1,0.8-8.5,0.9
		c-3.1,0.8-3.3,2.2-9,6.9c-4,3.4-6,5-8.8,6.3c-5.1,2.2-10.2,2.3-12.2,2.2c-5.6-0.1-9.7-1.8-11.6-2.6c-2.3,0.5-2.9,1.2-3.1,1.7
		c-0.5,1.3,1.5,2.4,2.3,5.5c0.2,0.7,0.2,1.3,0.3,1.7c-2.2,0.5-5.3,1.5-8.8,3.1c-5.3,2.5-6.4,4.5-10.3,6.6c-12.1,6.6-25,6.7-37.1,0
		c-3.3-1.8-6.3-4.1-9.2-6.2c-7.2-5.4-8.6-5.5-16.6-1c-2.8-7.9,2.9-12.6,19.1-15.7c-9.8-7.3-23.4-3.3-34.4,10.3
		c-3.1-0.2-6.3-0.3-9.9-0.5c0.2-5.7,2.7-11.1,7.5-15.7c12.2-11.7,28.5-16.7,48.1-14.3c4.4,0.5,9,2.8,12.4,5.1c2.9,2,4.9,2.1,8,0.9
		c4.7-1.9,9.2-2.6,13.2,1.7c-8.3,0.9-7.4,10.3-17.8,9.2c-0.1,0.4-0.2,0.9-0.3,1.3c2,0.9,3.9,2.4,6,2.7c5.2,0.7,9.5-1,12.7-4.2
		c2.8-2.8,5.4-5.8,8.8-8.2c7.6-5.4,15-5.5,23.3-0.8c9.3,5.2,9.3,5.3,16.5-1.7c1.8-1.7,3.8-2.8,6-3.4c3-0.7,5.7-0.2,7.3,0.1
		c1.6,0.3,2.1,0.6,7.5,2.3c1.5,0.5,2.8,0.9,3.6,1.1C1729.1,1214.5,1730.8,1214.5,1732.5,1214.6z"/>
	<path class="st0" d="M1094.2,1159.2c-8.7-4.9-12.5-15.8-13-25.2c-0.2-3.4,0-6.8,0.5-10.2c0.5-2.9,0.9-6.3,3.6-8.2
		c0.5-0.3,0.1-2,0-2.4c-0.4-1.6-1.5-2-2.3-3.2c-0.5-0.8-0.6-2.2-0.3-3.1c0.1-0.2,0.7-1.1,0.6-1.2c0.6,1.2,1.4,2.4,2.3,3.4
		c0.6,0.7,1.4,1.5,2.2,2c1,0.5,2.3,0.5,3.2,1.2c1.4,1,1.1,3,1,4.5c0,0,2.6-0.7,2.9-0.9c0.5-0.4,0.7-1.1,0.4-1.7
		c2.1,3.5,3.5,9.4-1.8,10.7c-1.1,0.3-2.3-0.7-3-1.4c-0.7-0.7-0.8-2-1.6-2.5c-0.1-0.1-0.2-0.1-0.3-0.1c-0.2,0-0.3,0.3-0.3,0.5
		c-0.2,1.9-0.2,3.9-0.6,5.8c-0.4,2-1.4,3.9-1.8,5.9c-0.9,4.7,0.5,9.5,2.4,13.8c0.9,2,1.9,4.1,2.9,6.1c0.5,1,1,2,1.5,2.9
		C1092.9,1156.6,1093.6,1158.8,1094.2,1159.2z"/>
	<path class="st0" d="M1092.4,1144.2c0,0-3.3-15.1,7.2-20.2c10.5-5.1,10.2-5.1,10-12.4c0,0,6.7,11.8-2.7,16.3c0,0-2,3.9,2.8,2.1
		c0,0,0.7,9.3-10.8,6.8c0,0-1.8-4.2,0.1-4.3c0,0,4.3,1.4,2.9-2.4c0,0-2.9-2.5-5.1,1.3S1092.4,1137.9,1092.4,1144.2z"/>
	<path class="st0" d="M1100.1,1120.2c0,0,6-12.8-0.8-16.3c0,0,0.1,6-3,8.8c0,0,0.7-4.6-4-5.6c-4.6-1-7.1-5.8-7.1-5.8
		s-2.9-11.7,2.1-14.6c0,0,2.7,0,2.3-1.4c-0.4-1.4-1.4-1.6-1.4-1.6s-3.5-3.1-2.7-6.5c0.8-3.4,3.7-5.8,3.7-5.8s1-3.2,0-4.2
		c-1-1.1-1.5-4.4-0.7-5.3c0,0,1.2,3.2,2.4,4.3c0,0,3.2,4.9,0.2,6.9s2.8,3.8,2.8,3.8s2.7,3.5,2.7,6.6c0,0-0.1,3.6-3.2,6.2
		c0,0-1,4.8,2.3,5.8c0,0,1.7,0.1,1.4-2.2c-0.3-2.3,2.7-5.2,2.7-5.2s-1.7,5.9,0.3,6.6c2,0.7,4.1,2.7,4.1,2.7s4.1,5.1,3.6,10.9
		C1107.5,1114.2,1100.1,1120.2,1100.1,1120.2z"/>
	<path class="st1" d="M1201.9,1148.9c2.6-3,6.6-6.7,12.2-9.3c4-1.8,7.5-2.4,9.2-2.8c3.9-0.7,6.9-0.7,9.8-0.6
		c5.6,0.1,11.3-0.2,16.9,0.1c6.7,0.3,18.2,0.3,39.4-1.3c10.4-1,18.3-3.9,23.2-6.2c5.3-2.4,11.4-5.3,16.9-11.8
		c2.7-3.2,4.4-6.2,5.5-8.4c-2.2,3.3-5.7,7.8-11.1,11.9c-7.8,6-20,11.9-37.9,11.9c-35.7,0-59.5,1.3-59.5,1.3
		c-2.6,0.1-6.3,0.5-10.3,2.2C1207.8,1139.6,1203.5,1146.3,1201.9,1148.9z"/>
	<path class="st1" d="M1200.2,1152c0,0-0.3-26.1,32.9-28c38.3-2.2,75.9,1.5,114,4.3c52.4,3.9,107.6,7.6,159.4-2.7
		c4.9-1,9.8-2.1,14.7-3.4c8.9-2.4,17.8-5.4,25.1-10.9c7.4-5.5,13.1-13.8,13.6-23c-1.1,2.5-2.8,5.8-5.4,9.4
		c-1.4,1.9-7.8,10.3-20,16.2c-5.5,2.7-11.9,3.9-24.7,6.3c-5.1,1-10.9,2-21,3.3c-15.2,2.1-27.5,3.3-31.3,3.6
		c-21.6,1.9-64.5,1.8-118-4c-16.8-1.8-34.4-3-69.4-5.5c0,0-9.6-0.7-24.8,0.2c-25.1,1.5-32.8,5.9-37.5,9.3c-3.3,2.4-9.3,7.3-10,15
		C1197.7,1146.5,1199.1,1150,1200.2,1152z"/>
	<path class="st0" d="M1119.6,1225c0,0-2.8,17.1-28.3,8c0,0-13.1-5.2-15.1-8.5c0,0-2.8,5.1-8.2,1.4c2.5,0.2,4.7-0.7,5.6-2.4
		c0.2-0.4,0.5-1,0.5-1.9c0.3-0.4,1.1-1.2,2.3-1.6c2.6-0.8,4.9,1.4,4.9,1.5c0-0.1,0.9-1.7,0-3.2c-0.8-1.3-2.2-1.5-2.3-1.5
		c0.3-0.4,1-1.3,2.2-1.7c2.5-0.9,4.8,0.9,4.9,1c1.8,0.9,2.5,3.1,1.7,4.8c-0.7,1.6-2.4,2.5-4.2,2.2c0,0-1.7,0.9,1.4,2.1
		C1088.1,1226.5,1108.5,1236.7,1119.6,1225z"/>
	<path class="st0" d="M1080.6,1213.3c0,0,3-1.1,4.2,0.2c0,0-0.3-12.6-18.8-10.5c0,0-5.6,1.3-6.2,5.3c0,0-5-2.6-6.4-0.7
		c0,0,2.9,1,2.6,2.3c0,0,0.1,1.8,3.7,1.2c0,0-0.7,5.9-7.7,0.8c-7-5.1-9.4-2.4-9.4-2.4s-3.3,6.2-6.6,2.3c0,0-4.7-3.1-11.5,2.4
		c0,0,8.6-1.3,12.3,2.2c0,0,6.2,4.5,10.6,0.7c0,0,9.1,11.6,18.3,6.1c0,0,5.5-2.3,7-6.8c0,0,2.8-1.9,3.9,0.1c0,0-0.1-5.2-6.3-3.4
		c0,0-3.8-2.3-0.7-3.3c3.1-0.9,6.4-0.6,6.4-0.6S1080.2,1210.3,1080.6,1213.3z"/>
	<path class="st2" d="M1161.3,1143.5c-1.1,0.5-2.8,1.3-4.6,2.9c-1.5,1.3-2.8,2.9-3.9,4.8c-1.1,1.9-1.9,4.1-2.4,6.7l-8.9,52.5
		c-0.5,2.7-1.4,4.7-2.8,6.1c-1.4,1.4-3.2,2.1-5.4,2.1c-2.1,0-3.7-0.7-4.6-2.1c-0.9-1.4-1.2-3.4-0.8-6l9.6-56.1c0.4-2,0.8-4,1.3-6
		c0.5-2,1.1-3.9,1.9-5.8c-1.4,0-2.9,0.3-4.4,0.9c-1.6,0.6-3.1,1.6-4.6,2.9s-2.8,2.9-3.9,4.8c-1.1,1.9-1.9,4.1-2.4,6.7l-9.1,52.6
		c-0.4,2.6-1.3,4.6-2.7,6c-1.4,1.4-3.2,2.1-5.4,2.1c-4.4,0-6.2-2.8-5.3-8.3l9.5-56c0,0,0,0,0-0.1c0.4-2.2,0.6-2.8,0.5-2.8
		c-0.2-0.1-0.7,1.6-2.3,2.9c-0.8,0.6-1.5,0.9-2.1,1.1c-0.5,0.2-1.7,0.6-3.2,0.5c-2.1-0.1-2.7-1-3.6-0.6c-0.5,0.2-1.1,0.8-1.4,2.6
		l-8.9,51.9c-0.8,5,0.1,8.7,2.9,11.4c2.8,2.6,7.1,3.9,12.8,3.9c5.2,0,9.5-1.1,13-3.2c2.8,2.1,6.8,3.2,12,3.2
		c5.7,0,10.4-1.3,14.1-3.9c3.6-2.6,5.9-6.4,6.7-11.4l9.5-55.4c0.4-2,0.8-4,1.3-6c0.3-1.1,0.4-1.5,0.5-2c0.8-2.2,2.1-3.8,3-4.7
		C1164.7,1142.1,1162.7,1142.8,1161.3,1143.5z"/>
	<path class="st2" d="M1179.4,1158.4c-0.5,0.2-0.9,0.4-1.4,0.7c-2.2,1.2-4.3,3.5-4.8,5.9c-1.7,8.4-6.3,35.3-6.3,35.3
		c-1,9.3-3.9,17.5-10.8,24.4c3.9-0.2,6.7-0.6,7.6-0.8c0.9-0.2,1.7-0.5,1.7-0.5c0.2-0.1,0.4-0.1,0.6-0.2c1.6-0.6,3.1-1.5,4.5-2.8
		c1.5-1.2,2.7-2.8,3.8-4.6c1.1-1.8,1.9-4,2.4-6.4c3.2-17.6,6.4-35.2,9.6-52.8C1184.8,1156.9,1181.7,1157.5,1179.4,1158.4z"/>
	<path class="st2" d="M1239.8,1174.6c-0.5,2.5-1.3,4.9-2.6,7.2c-1.3,2.3-3,4.3-5.1,6c-2.1,1.7-4.7,3.1-7.8,4.1
		c-3.1,1-6.6,1.5-10.6,1.5c-4.3,0-8-0.6-11-1.9l-3.2,18.2c-0.5,2.5-1.2,4.7-2.4,6.7c-1.1,1.9-2.4,3.5-3.8,4.8
		c-0.6,0.5-2.2,1.8-4.5,2.9c-3.4,1.5-6.5,1.6-8.5,1.6c1.4-1.1,4-3.3,5.7-7c0.9-2.1,1.3-4,1.5-5.4l8.9-51.9c0.5-2.5,1.3-4.9,2.6-7.2
		c1.3-2.3,3-4.3,5.1-6c2.1-1.7,4.7-3.1,7.8-4.1c3.7-1.2,7.6-1.9,11.5-1.3c3.6,0.6,6.5,2.5,9.8,3.8c2.9,1.2,4.3,1.8,5.7,1.6
		c0.8-0.1,2.2-1.1,3.5-2.2c0.9-0.8,1.4-1.4,1.7-1.3c0.4,0.2,0,1.8-0.2,2.3c-0.8,2.9-1.6,5.8-2,8.8
		C1241.1,1162.1,1240.9,1168.4,1239.8,1174.6z M1205.5,1175.2c-0.2,1.3-0.3,2.7-0.3,4.1c0,1.4,0.4,2.6,1,3.8c0.6,1.1,1.6,2.1,3,2.8
		c1.3,0.7,3.2,1.1,5.6,1.1c2.4,0,4.4-0.4,6-1.1c1.6-0.7,2.9-1.7,4-2.8c1-1.1,1.8-2.4,2.4-3.8c0.5-1.4,0.9-2.7,1.1-4.1l2.5-14.4
		c0.2-1.3,0.3-2.7,0.2-4.1c-0.1-1.4-0.4-2.6-1.1-3.8c-0.7-1.1-1.6-2.1-3-2.8c-1.3-0.7-3.2-1.1-5.6-1.1c-2.4,0-4.3,0.4-5.9,1.1
		c-1.6,0.7-2.9,1.7-3.9,2.8c-1,1.1-1.8,2.4-2.4,3.8c-0.5,1.4-0.9,2.7-1.1,4.1L1205.5,1175.2z"/>
	<path class="st2" d="M1280.1,1206.8c-0.2,1.3-0.3,2.7-0.3,4.1c0,1.4,0.4,2.6,1,3.8c0.6,1.1,1.6,2.1,3,2.8c1.3,0.7,3.2,1.1,5.6,1.1
		c2.5,0,4.6-0.3,6.2-0.9c1.6-0.6,2.9-1.5,3.8-2.5c1-1.1,1.7-2.3,2.2-3.7c0.5-1.4,0.9-2.9,1.2-4.5v-0.5c0.2-1.3,0.9-2.4,2-3.5
		c1.1-1.1,2.4-2.1,3.7-2.9s2.8-1.5,4.2-1.9c1.5-0.4,2.6-0.6,3.6-0.6c-0.5,2-1,3.8-1.3,5.4c-0.3,1.6-0.7,3.4-1,5.5
		c-0.4,2.3-1.2,4.4-2.6,6.5c-1.3,2-3.1,3.8-5.3,5.4c-2.2,1.5-4.8,2.7-7.8,3.6c-3,0.9-6.4,1.3-10,1.3c-4,0-7.3-0.5-10-1.5
		c-2.7-1-4.9-2.4-6.4-4.1c-1.6-1.7-2.6-3.7-3.1-6c-0.5-2.3-0.5-4.7-0.1-7.2l7.7-44.8c0.5-2.5,1.3-4.9,2.6-7.2c1.3-2.3,3-4.3,5.1-6
		c2.1-1.7,4.7-3.1,7.8-4.1c3.1-1,6.6-1.5,10.6-1.5c3.7,0,6.9,0.4,9.6,1.3c2.7,0.9,4.9,2.1,6.5,3.6c1.6,1.5,2.8,3.3,3.4,5.4
		c0.6,2,0.8,4.2,0.4,6.5c-0.4,2-0.7,3.9-0.9,5.5c-0.2,1.6-0.4,3.4-0.5,5.4c-0.9,0-2-0.2-3.3-0.6c-1.3-0.4-2.5-1.1-3.6-1.9
		c-1.1-0.8-2-1.8-2.8-2.9c-0.7-1.1-1-2.3-0.7-3.5l0.1-0.5c0.2-1.6,0.3-3.1,0.3-4.5c0-1.4-0.3-2.7-0.9-3.7c-0.6-1.1-1.6-1.9-3-2.5
		c-1.4-0.6-3.3-0.9-5.9-0.9c-2.4,0-4.3,0.4-5.9,1.1c-1.6,0.7-2.9,1.7-3.9,2.8c-1,1.1-1.8,2.4-2.4,3.8c-0.5,1.4-0.9,2.7-1.1,4.1
		L1280.1,1206.8z"/>
	<path class="st2" d="M1331,1176.4c0.4-2.3,1.2-4.4,2.6-6.5c1.3-2,3.1-3.8,5.3-5.4c2.2-1.5,4.8-2.7,7.8-3.6c3-0.9,6.4-1.3,10-1.3
		c4,0,7.3,0.5,10,1.5c2.7,1,4.9,2.4,6.4,4.1c1.6,1.7,2.6,3.7,3.1,6c0.5,2.3,0.5,4.7,0.1,7.2l-7.9,46.6c-1.4,0-2.7-0.3-3.9-0.9
		c-1.2-0.6-2.1-1.6-2.8-2.9c-2.1,1.3-4.5,2.2-7.2,2.9c-2.7,0.7-5.7,1-9,1c-4,0-7.3-0.5-10-1.5c-2.7-1-4.9-2.4-6.4-4.1
		c-1.6-1.7-2.6-3.7-3.1-6c-0.5-2.3-0.5-4.7-0.1-7.2l0.6-3.7c0.5-2.5,1.3-4.9,2.6-7.2c1.3-2.3,3-4.3,5.1-6c2.1-1.7,4.7-3.1,7.8-4.1
		c3.1-1,6.6-1.5,10.6-1.5c1.8,0,3.7,0.3,5.9,1c2.1,0.7,3.8,1.6,4.9,2.7l1.6-9.4c0.2-1.3,0.3-2.7,0.2-4.1c-0.1-1.4-0.4-2.6-1-3.8
		c-0.6-1.1-1.6-2.1-2.9-2.8c-1.3-0.7-3.2-1.1-5.6-1.1c-2.5,0-4.6,0.3-6.2,0.9c-1.6,0.6-2.9,1.5-3.9,2.5c-1,1.1-1.7,2.3-2.2,3.7
		c-0.5,1.4-0.8,2.9-1.1,4.5v0.5c-0.2,1.3-0.9,2.4-2,3.5c-1.1,1.1-2.4,2.1-3.7,2.9s-2.8,1.5-4.2,1.9c-1.5,0.4-2.6,0.6-3.6,0.6
		c0.5-2,1-3.8,1.3-5.4C1330.2,1180.2,1330.6,1178.4,1331,1176.4z M1337.3,1206.8c-0.2,1.3-0.3,2.7-0.3,4.1c0,1.4,0.4,2.6,1,3.8
		c0.6,1.1,1.6,2.1,3,2.8c1.3,0.7,3.2,1.1,5.6,1.1c2.5,0,4.6-0.3,6.2-0.9c1.6-0.6,2.9-1.5,3.8-2.5c1-1.1,1.7-2.3,2.2-3.7
		c0.5-1.4,0.9-2.9,1.2-4.5l0.8-5c0.2-1.3,0.3-2.7,0.2-4.1c-0.1-1.4-0.4-2.6-1-3.8c-0.6-1.1-1.6-2.1-2.9-2.8
		c-1.3-0.7-3.2-1.1-5.6-1.1c-2.4,0-4.4,0.4-6,1.1c-1.6,0.7-2.9,1.7-4,2.8c-1,1.1-1.8,2.4-2.4,3.8c-0.5,1.4-0.9,2.7-1.1,4.1
		L1337.3,1206.8z"/>
	<path class="st2" d="M1449.2,1245.2c3.5-12.5,11.4-67.1,12.7-73.8c0.1-0.6,0.6-2.9,0.8-6c0.2-2,0.2-3.9,0-5.8
		c1.4,0,2.8,0.4,4.1,1.1c1.4,0.7,2.6,1.7,3.7,3.1c2.1-1.3,4.4-2.4,7.1-3.1c2.7-0.7,5.7-1.1,9.1-1.1c4,0,7.3,0.5,10,1.5
		c2.7,1,4.9,2.4,6.4,4.1c1.6,1.7,2.6,3.7,3.1,6c0.5,2.3,0.5,4.7,0.1,7.2l-4.7,27.7c-0.5,2.5-1.3,4.9-2.6,7.2c-1.3,2.3-3,4.3-5.1,6
		c-2.1,1.7-4.7,3.1-7.8,4.1c-3.1,1-6.6,1.5-10.6,1.5c-2.2,0-4.2-0.2-6.1-0.5c-1.8-0.3-3.5-0.8-5-1.4l-3,17.9
		c-0.5,2.5-1.3,4.7-2.4,6.7c-0.9,1.5-1.9,3.3-3.9,4.8c-1.6,1.3-3.2,1.8-4.4,2.3c-1.7,0.6-4.5,1.3-8.2,1.1c1.3-1.2,2.9-2.8,4.3-5.2
		C1448.3,1248.5,1448.9,1246.4,1449.2,1245.2z M1467.3,1206.8c-0.2,1.3-0.3,2.7-0.3,4.1c0,1.4,0.4,2.6,1,3.8c0.6,1.1,1.6,2.1,3,2.8
		c1.3,0.7,3.2,1.1,5.6,1.1c2.4,0,4.4-0.4,6-1.1c1.6-0.7,2.9-1.7,4-2.8c1-1.1,1.8-2.4,2.4-3.8c0.5-1.4,0.9-2.7,1.1-4.1l4.9-28.9
		c0.2-1.3,0.3-2.7,0.2-4.1c-0.1-1.4-0.4-2.6-1-3.8c-0.6-1.1-1.6-2.1-2.9-2.8c-1.3-0.7-3.2-1.1-5.6-1.1c-2.2,0-4.1,0.3-5.7,1
		c-1.6,0.7-2.9,1.5-3.9,2.6c-1,1.1-1.9,2.2-2.5,3.5c-0.6,1.3-1,2.6-1.3,3.8L1467.3,1206.8z"/>
	<text transform="matrix(1 0 0 1 1539.0483 1201)" class="st2" style="font-family:'SNTAnouvong-BoldItalic'; font-size:120px;">#</text>
	<path class="st2" d="M1627.4,1133.8c-2.4,1.6-4.8,2.3-7.2,2.3c-3,0-5.8-1.3-8.3-3.8l19.8-12.6c1.1-0.7,2-1.4,2.9-1.8
		c0.9-0.5,1.7-0.9,2.6-1.1c0.9-0.2,1.7-0.4,2.6-0.5c0.9-0.1,1.9-0.1,3.1-0.1l-12.4,70c-0.2,1.4-0.6,4.2-2.5,6.9
		c-0.5,0.7-1.9,2.7-4.4,4.3c-2,1.3-3.8,1.8-4.9,2.1c-2.9,0.7-5.5,0.7-7.4,0.4c0.9-0.9,1.9-2,2.8-3.3c1.8-2.4,2.9-4.8,3.6-6.7
		L1627.4,1133.8z"/>
	<path class="st2" d="M1700,1127.2c-0.5-2.4-1.6-4.5-3.3-6.3c-1.7-1.8-4-3.2-6.9-4.3c-2.9-1.1-6.5-1.6-10.7-1.6
		c-4.3,0-8,0.5-11.3,1.6c-3.3,1.1-6.1,2.5-8.3,4.3c-2.3,1.8-4.1,3.9-5.5,6.3c-1.3,2.4-2.3,4.9-2.8,7.5l-8.2,46.6
		c-0.5,2.6-0.5,5.1,0.1,7.5c0.5,2.4,1.6,4.5,3.3,6.3c1.7,1.8,4,3.2,6.9,4.3c2.9,1.1,6.5,1.6,10.7,1.6c4.3,0,8-0.5,11.3-1.6
		c3.3-1.1,6.1-2.5,8.3-4.3c2.3-1.8,4.1-3.9,5.5-6.3c1.3-2.4,2.3-4.9,2.8-7.5l8.2-46.6C1700.6,1132.1,1700.6,1129.6,1700,1127.2z
		 M1688.1,1134.1c-0.4,4.1-1.5,8.3-2.2,12.2c-1,5.8-2.2,11.6-3.2,17.5c-1.1,6-2.1,12.1-3.2,18.1c0,0,0,0.1,0,0.1
		c-0.2,1.4-0.7,2.8-1.2,4.2c-0.6,1.4-1.4,2.7-2.5,3.9c-1.1,1.2-2.5,2.2-4.2,2.9c-1.7,0.8-3.8,1.2-6.4,1.2c-2.5,0-4.5-0.4-6-1.2
		c-1.4-0.8-2.5-1.8-3.2-2.9c-1.5-2.5-1.2-5.2-0.7-8.8c1.2-8.9,2.8-17.7,4.5-26.5c1-5.1,1.7-10.3,2.8-15.4c0.9-4.6,1.6-9.9,4.9-13.5
		c1.1-1.2,2.5-2.2,4.2-2.9c1.7-0.8,3.8-1.2,6.3-1.2c2.5,0,4.5,0.4,6,1.2c1.4,0.8,2.5,1.8,3.2,2.9c0.7,1.2,1.1,2.5,1.2,3.9
		C1688.3,1131.3,1688.2,1132.7,1688.1,1134.1z"/>
	<path class="st0" d="M1114.1,1153.3c1.9-4.4,1.5-8.7-0.8-10.7c-0.5-0.4-1.4-1-2.8-1.3c0,0-10,1.1-12.3-3.9c-0.9,4-1.5,9.3,1.6,12.5
		c1.8,1.9,5.9,3.6,8.4,2.1c2.4-1.5,1.5-5.1,1.5-5.1c0.8-0.2,1.7,0,2.2,0.5c0.9,1,0,2.8-0.3,3.4c-0.3,0.7-0.7,1.1-0.9,1.4
		c-0.8,0.9-1.7,1.5-2.3,1.8C1110.2,1153.8,1112.1,1153.5,1114.1,1153.3z"/>
	<path class="st2" d="M1175,1164.9c1.7-0.6,3.1-0.5,4.8-0.7c1.6-0.2,3.2-0.5,4.8-0.7l1.8-7c0,0,0,0,0-0.1c0.6-2.1,0.9-2.7,0.8-2.8
		c-0.2-0.1-0.8,1.6-2.5,2.7c-0.8,0.5-1.6,0.8-2.1,0.9c-0.5,0.1-1.7,0.5-3.2,0.3c-2.1-0.2-2.6-1.2-3.6-0.9c-0.5,0.2-1.2,0.7-1.6,2.4
		c-0.4,2.3-0.8,4.5-1.1,6.8C1173.4,1165.6,1174.1,1165.2,1175,1164.9z"/>
	<path class="st0" d="M1188.1,1155.5c2.3-4.2,2.2-8.5,0-10.8c-0.5-0.5-1.3-1.1-2.7-1.5c0,0-10,0.4-12-4.8c-1.2,3.9-2.2,9.1,0.6,12.6
		c1.6,2,5.6,4,8.2,2.7c2.5-1.3,1.9-4.9,1.9-4.9c0.8-0.1,1.7,0.1,2.2,0.7c0.8,1-0.3,2.8-0.6,3.4c-0.4,0.6-0.8,1-1,1.3
		c-0.9,0.9-1.8,1.4-2.4,1.6C1184.2,1155.7,1186.1,1155.6,1188.1,1155.5z"/>
	<path class="st1" d="M1491.1,1159.3c0.1,0.2,0.2,0.5,0.3,0.7c1.2,0.2,2.2,1,3,2.5c0.1,0.2,0.2,0.4,0.3,0.5c1.6,0.4,3.1,1.5,3.6,3.3
		c0.9,3.1,1.9,6.2,2.7,9.3c0.2,0.7,0.2,1.4,0.1,2.1c0.9,0.5,2,1.1,3.1,2c0.9,0.8,1.7,1.5,2.3,2.2c0.2-0.8,0.5-2,0.8-3.5
		c0.8-3.9,0.6-4.3,1.3-7.3c1.5-7.4,1.9-8.9,1.9-8.9c0.2-0.6,0.6-2.1,0.2-2.3c-0.3-0.1-0.8,0.5-1.7,1.3c-1.3,1.1-2.7,2-3.5,2.2
		c-1.9,0.3-3.4-0.5-5.7-1.6C1497.7,1161.1,1494.9,1160,1491.1,1159.3z"/>
	<path class="st1" d="M1431.1,1214.9c-1.9,6.6-1,11.8,1.4,12.9c0.8,0.3,1.5,0.2,3.5-0.5c2.6-0.8,6-2,10.1-3.8
		c-0.5,0-1.2-0.1-1.8-0.6c-0.5-0.4-0.9-1.1-0.9-3.3c0-2,0.4-3.4,0.8-4.9c0.3-1.2,0.6-3,0.9-5.2
		C1440.4,1211.3,1435.7,1213.1,1431.1,1214.9z"/>
	<path class="st2" d="M1447.1,1165.2c-2.8-2.6-7-3.9-12.7-3.9c-5.1,0-9.4,1.1-12.8,3.2c-2.8-2.1-6.8-3.2-12-3.2
		c-4.7,0-8.9,1-12.5,2.9c-1-1-2.1-1.8-3.3-2.2c-1.2-0.5-2.4-0.7-3.6-0.7c0.2,1.9,0.2,3.8,0,5.8c-0.2,2-0.4,4-0.8,6l-7.2,41.8
		c-0.7,4.2-1.7,8.1-3.1,11.8c1.4,0,2.8-0.3,4.4-0.9c1.6-0.6,3.1-1.6,4.5-2.9c1.5-1.3,2.7-2.9,3.8-4.8c1.1-1.9,1.9-4.1,2.4-6.7
		l6.1-35.5c0.5-2.6,1.4-4.6,2.8-6c1.4-1.4,3.2-2.1,5.4-2.1c2.1,0,3.7,0.7,4.5,2.1c0.9,1.4,1.1,3.4,0.7,6l-6.7,39
		c-0.7,4.2-1.7,8.1-3.1,11.8c1.4,0,2.8-0.3,4.4-0.9c1.6-0.6,3.1-1.6,4.5-2.9c1.5-1.3,2.7-2.9,3.8-4.8c1.1-1.9,1.9-4.1,2.4-6.7
		l6.1-35.5c0.5-2.6,1.4-4.6,2.8-6c1.4-1.4,3.2-2.1,5.4-2.1c4.4,0,6.2,2.8,5.3,8.3l-6.7,38.9c0,0.1,0,0.1,0,0.2
		c0.4-0.1,0.9-0.2,1.4-0.2c2.7-0.1,5.5-0.8,8.4,0.1c0.2,0.1,0.3,0.1,0.4,0.1c0.1-0.5,0.2-1.2,0.6-1.9c0.3-0.7,0.7-1.3,1.1-1.6
		c2-11.6,4.1-23.3,6.1-34.9C1450.8,1171.6,1449.8,1167.8,1447.1,1165.2z"/>
	<path class="st1" d="M1439.6,1161.3c0.9,0.3,2,0.6,3.2,0.7c4.1,0.3,7.2-1.5,8.5-2.3c0,0,1.6,4.6-0.2,15.1
		C1447.3,1170.2,1443.5,1165.8,1439.6,1161.3z"/>
	<path class="st1" d="M1365.6,1162.1c1.1,0.3,2.4,0.5,4,0.5c3.9,0,6.9-1.4,8.5-2.3c0.2,1.1,0.5,2.3,0.6,3.6
		c0.5,4.6-0.2,8.6-1.1,11.5c-0.9-1.9-2.2-4.4-4.4-7C1370.5,1165.2,1367.6,1163.2,1365.6,1162.1z"/>
	<path class="st0" d="M1703.4,1159.6c0.2-0.7,0-1.6,0-2.3c0.1-1.8,0.4-3.7,0.8-5.4c1.1-4.6,3.6-9.1,8-11.3c1.5-0.8,3.2-1.3,4.9-1.4
		c1.5-0.1,2.9,0.3,4.4,0.4c2.2,0.2,5.5,0.3,6.9-1.9c0,0-0.5,8.3-8.3,6.6c0.6,0.1,0.3,2.1,0.1,2.4c-0.9,2-3.2,2.2-5.1,1.5
		c-2-0.7-2.5-2.4-1.6-4.2c0,0,1.9,1.6,3,0.3c0,0,1.3-3.2-2.2-3.1C1714.5,1141.2,1707.3,1143,1703.4,1159.6z"/>
	<path class="st0" d="M1700.8,1158.4c0,0-5.2-22.4,12.1-29.7c0,0,2.7,0.1,3.5-6.3c0,0,2.7,5.9,2.2,7.9c0,0-1.9-0.7-1.5,1.8
		s2.2,0.9,2.2,0.9s1.8,6-4.2,4.1c0,0-2.1-1.2-1.3-5.4c-3.6,2.9-7,6.3-9.6,10.2c-1.6,2.4-2.1,4.9-2.6,7.6
		C1701,1152.5,1700.7,1155.5,1700.8,1158.4z"/>
	<path class="st0" d="M1721.1,1135.9c0,0,7.3-2.9,7.3-6.5c0,0-1.2-4.2-3.1,0.6c-0.2,0.3-1.4,2-2.9,1.9c-0.7-0.1-1.4-0.6-1.3-0.8
		c0-0.1,0.2-0.1,0.8-0.2c0.3-0.1,0.6-0.2,0.8-0.2c0.1-0.3,0.7-1.8-0.1-3.3c-0.2-0.4-0.6-0.7-0.8-0.9c-0.5-0.7-1.6-2.6-1.4-5.1
		c0.2-1.9,1-3.2,1.5-3.9c0.7-1,1.8-2.7,3.9-3.4c1.6-0.6,3.1-0.3,3.9-0.1c-0.1-0.4-0.8-2.5,0.2-4.8c1.2-2.5,3.6-3.3,4-3.4
		c0,0,3.9-0.3,3.8-5.1c0,0,1.6,7.6-2.9,7.7c0,0,2.6,9.6-4.7,10c0,0-3.6,1.2-0.2,3.8c0,0,3.7-0.2,3.7-3.3c0,0,1.6,4.3-1.6,5.5
		c0,0,1.8,1.6,1.8,3.9c0,1.8-1,3-1.6,3.7C1728.7,1135.7,1722.5,1135.9,1721.1,1135.9z"/>
</g>
<g id="Layer_2">
	<g>
		<path class="st1" d="M131.3,81.9c0.7,0,1.2-0.2,1.6-0.7c0.4-0.5,0.7-1.1,0.8-2l2.7-16.7c0.1-0.8,0.4-1.5,0.7-2.1
			c0.3-0.6,0.7-1.1,1.2-1.5c0.4-0.4,0.9-0.7,1.4-0.9c0.5-0.2,0.9-0.3,1.3-0.3c-0.2,0.6-0.4,1.2-0.6,1.8c-0.2,0.6-0.3,1.3-0.4,1.9
			l-2.9,17.6c-0.3,1.6-0.9,2.8-2,3.6S132.7,84,131,84c-1.6,0-2.8-0.3-3.6-1c-1,0.7-2.3,1-3.9,1c-1.7,0-3-0.4-3.9-1.3
			c-0.8-0.8-1.1-2-0.9-3.6l2.7-16.5c0.1-0.8,0.4-1.5,0.7-2.1s0.7-1.1,1.2-1.5c0.4-0.4,0.9-0.7,1.4-0.9c0.5-0.2,0.9-0.3,1.3-0.3
			c-0.2,0.6-0.4,1.2-0.6,1.8c-0.2,0.6-0.3,1.3-0.4,1.9l-2.9,17.8c-0.3,1.8,0.3,2.6,1.6,2.6c0.7,0,1.2-0.2,1.6-0.7
			c0.4-0.5,0.7-1.1,0.8-1.9l2.7-16.7c0.1-0.8,0.4-1.5,0.7-2.1c0.3-0.6,0.7-1.1,1.2-1.5c0.5-0.4,0.9-0.7,1.4-0.9
			c0.5-0.2,0.9-0.3,1.3-0.3c-0.2,0.6-0.4,1.2-0.6,1.8c-0.2,0.6-0.3,1.3-0.4,1.9l-2.9,17.9c-0.1,0.8,0,1.5,0.2,1.9
			C130.2,81.7,130.6,81.9,131.3,81.9z"/>
		<path class="st1" d="M142.6,68.5c0.1-0.7,0.4-1.4,0.8-2.1c0.4-0.7,0.9-1.2,1.6-1.7c0.7-0.5,1.4-0.9,2.4-1.1c0.9-0.3,1.9-0.4,3-0.4
			c1.2,0,2.2,0.2,3,0.5c0.8,0.3,1.5,0.8,1.9,1.3c0.5,0.6,0.8,1.2,0.9,1.9c0.1,0.7,0.2,1.5,0,2.3L153.9,84c-0.4,0-0.8-0.1-1.2-0.3
			c-0.4-0.2-0.6-0.5-0.8-0.9c-0.6,0.4-1.3,0.7-2.2,0.9c-0.8,0.2-1.7,0.3-2.7,0.3c-1.2,0-2.2-0.2-3-0.5c-0.8-0.3-1.5-0.8-1.9-1.3
			c-0.5-0.6-0.8-1.2-0.9-1.9c-0.2-0.7-0.2-1.5,0-2.3l0.2-1.2c0.1-0.8,0.4-1.6,0.8-2.3c0.4-0.7,0.9-1.4,1.5-1.9
			c0.6-0.5,1.4-1,2.4-1.3c0.9-0.3,2-0.5,3.2-0.5c0.5,0,1.1,0.1,1.8,0.3c0.6,0.2,1.1,0.5,1.5,0.8l0.5-3c0.1-0.4,0.1-0.9,0.1-1.3
			c0-0.4-0.1-0.8-0.3-1.2c-0.2-0.4-0.5-0.7-0.9-0.9c-0.4-0.2-1-0.4-1.7-0.4c-0.8,0-1.4,0.1-1.9,0.3s-0.9,0.5-1.2,0.8
			c-0.3,0.3-0.5,0.7-0.7,1.2c-0.1,0.5-0.3,0.9-0.3,1.4v0.2c-0.1,0.4-0.3,0.8-0.6,1.1c-0.3,0.4-0.7,0.7-1.1,0.9s-0.8,0.5-1.3,0.6
			c-0.4,0.1-0.8,0.2-1.1,0.2c0.2-0.6,0.3-1.2,0.4-1.7C142.4,69.7,142.5,69.1,142.6,68.5z M144.5,78.2c-0.1,0.4-0.1,0.9-0.1,1.3
			c0,0.4,0.1,0.8,0.3,1.2c0.2,0.4,0.5,0.7,0.9,0.9c0.4,0.2,1,0.4,1.7,0.4c0.8,0,1.4-0.1,1.9-0.3c0.5-0.2,0.9-0.5,1.2-0.8
			c0.3-0.3,0.5-0.7,0.7-1.2c0.1-0.5,0.3-0.9,0.4-1.4l0.2-1.6c0.1-0.4,0.1-0.9,0.1-1.3c0-0.4-0.1-0.8-0.3-1.2
			c-0.2-0.4-0.5-0.7-0.9-0.9c-0.4-0.2-1-0.4-1.7-0.4c-0.7,0-1.3,0.1-1.8,0.4s-0.9,0.5-1.2,0.9c-0.3,0.4-0.5,0.8-0.7,1.2
			c-0.2,0.4-0.3,0.9-0.3,1.3L144.5,78.2z"/>
		<path class="st1" d="M170.2,68c0.1-0.8,0.4-1.5,0.7-2.1c0.3-0.6,0.7-1.1,1.2-1.5c0.4-0.4,0.9-0.7,1.4-0.9c0.5-0.2,0.9-0.3,1.3-0.3
			c-0.4,1.2-0.7,2.4-0.9,3.8L170.5,88c-0.1,0.8-0.4,1.6-0.8,2.3c-0.4,0.7-0.9,1.4-1.5,1.9c-0.6,0.6-1.4,1-2.4,1.3
			c-0.9,0.3-2,0.5-3.2,0.5c-1.1,0-2.1-0.1-2.9-0.4c-0.8-0.3-1.5-0.7-2-1.1c-0.5-0.5-0.8-1.1-1-1.7c-0.2-0.7-0.2-1.3-0.1-2.1
			c0.1-0.7,0.2-1.2,0.3-1.7c0.1-0.5,0.1-1.1,0.2-1.7c0.3,0,0.6,0.1,1,0.2c0.4,0.1,0.7,0.3,1.1,0.6c0.3,0.3,0.6,0.6,0.8,0.9
			s0.3,0.7,0.2,1.1v0.1c-0.1,0.5-0.1,1-0.1,1.4c0,0.5,0.1,0.8,0.3,1.2c0.2,0.3,0.5,0.6,0.9,0.8c0.4,0.2,1,0.3,1.8,0.3
			c0.7,0,1.3-0.1,1.8-0.4c0.5-0.2,0.9-0.5,1.2-0.9c0.3-0.4,0.5-0.8,0.7-1.2c0.2-0.4,0.3-0.9,0.3-1.3l0.8-4.8c-0.5,0.2-1,0.4-1.6,0.5
			c-0.6,0.1-1.2,0.2-1.9,0.2c-1.2,0-2.2-0.2-3-0.5c-0.8-0.3-1.5-0.8-1.9-1.3c-0.5-0.6-0.8-1.2-0.9-1.9c-0.2-0.7-0.2-1.5,0-2.3
			l1.6-9.9c0.1-0.8,0.4-1.5,0.7-2.1c0.3-0.6,0.7-1.1,1.2-1.5c0.4-0.4,0.9-0.7,1.4-0.9c0.5-0.2,0.9-0.3,1.3-0.3
			c-0.4,1.2-0.7,2.4-0.9,3.8l-1.8,11.3c-0.1,0.4-0.1,0.9-0.1,1.3c0,0.4,0.1,0.8,0.3,1.2c0.2,0.4,0.5,0.7,0.9,0.9
			c0.4,0.2,1,0.4,1.7,0.4c0.7,0,1.3-0.1,1.8-0.4c0.5-0.2,0.9-0.5,1.2-0.9c0.3-0.4,0.5-0.8,0.7-1.2c0.2-0.4,0.3-0.9,0.3-1.3L170.2,68
			z"/>
		<path class="st1" d="M181.8,81.9c0.7,0,1.3-0.1,1.8-0.4c0.5-0.2,0.9-0.5,1.2-0.9c0.3-0.4,0.5-0.8,0.7-1.2c0.2-0.4,0.3-0.9,0.3-1.3
			l0.3-1.7c0-0.3-0.2-0.6-0.6-0.8c-0.5-0.3-1.1-0.5-1.8-0.7s-1.5-0.4-2.4-0.7c-0.9-0.2-1.6-0.4-2.4-0.7c-0.7-0.2-1.3-0.5-1.8-0.8
			c-0.5-0.3-0.7-0.6-0.6-0.9l0.4-2.7c0.1-0.8,0.4-1.6,0.8-2.3c0.4-0.7,0.9-1.4,1.5-1.9c0.6-0.5,1.4-1,2.4-1.3c0.9-0.3,2-0.5,3.2-0.5
			c1.1,0,2.1,0.1,2.9,0.4c0.8,0.3,1.5,0.7,2,1.1c0.5,0.5,0.8,1.1,1,1.7c0.2,0.7,0.2,1.3,0.1,2.1c-0.1,0.7-0.2,1.2-0.3,1.7
			c-0.1,0.5-0.1,1.1-0.2,1.7c-0.3,0-0.6-0.1-1-0.2c-0.4-0.1-0.7-0.3-1.1-0.6c-0.3-0.3-0.6-0.6-0.8-0.9c-0.2-0.4-0.3-0.7-0.2-1.1
			v-0.2c0.1-0.5,0.1-1,0.1-1.4c0-0.5-0.1-0.8-0.3-1.2c-0.2-0.3-0.5-0.6-0.9-0.8c-0.4-0.2-1-0.3-1.8-0.3c-0.7,0-1.3,0.1-1.8,0.4
			c-0.5,0.2-0.9,0.5-1.2,0.9c-0.3,0.4-0.5,0.8-0.7,1.2c-0.2,0.4-0.3,0.9-0.3,1.3l-0.3,1.7c0,0.3,0.2,0.6,0.6,0.9
			c0.5,0.3,1.1,0.5,1.8,0.7c0.7,0.2,1.5,0.4,2.4,0.7c0.9,0.2,1.6,0.4,2.4,0.7s1.3,0.5,1.8,0.8c0.5,0.3,0.7,0.6,0.6,0.9l-0.4,2.7
			c-0.1,0.8-0.4,1.6-0.8,2.3c-0.4,0.7-0.9,1.4-1.5,1.9c-0.6,0.6-1.4,1-2.4,1.3c-0.9,0.3-2,0.5-3.2,0.5c-1.1,0-2.1-0.1-2.9-0.4
			c-0.8-0.3-1.5-0.7-2-1.1c-0.5-0.5-0.8-1.1-1-1.7c-0.2-0.7-0.2-1.3-0.1-2.1c0.1-0.7,0.2-1.2,0.3-1.7c0.1-0.5,0.1-1.1,0.2-1.7
			c0.3,0,0.6,0.1,1,0.2c0.4,0.1,0.7,0.3,1.1,0.6c0.3,0.3,0.6,0.6,0.8,0.9c0.2,0.4,0.3,0.7,0.2,1.1v0.2c-0.1,0.5-0.1,1-0.1,1.4
			c0,0.5,0.1,0.8,0.3,1.2c0.2,0.3,0.5,0.6,0.9,0.8C180.4,81.8,181,81.9,181.8,81.9z"/>
		<path class="st1" d="M207.3,65.4L205,79.1c-0.1,0.8-0.4,1.5-0.7,2.1c-0.3,0.6-0.7,1.1-1.2,1.5c-0.4,0.4-0.9,0.7-1.4,0.9
			c-0.5,0.2-0.9,0.3-1.3,0.3c0.4-1.2,0.7-2.4,0.9-3.8l2.4-14.8H200c0.1-0.3,0.2-0.5,0.4-0.8c0.1-0.3,0.3-0.5,0.4-0.7
			c0.2-0.2,0.4-0.4,0.6-0.5c0.2-0.1,0.5-0.2,0.8-0.2h2L205,58c0.1-0.8,0.4-1.5,0.7-2.1s0.7-1.1,1.2-1.5c0.4-0.4,0.9-0.7,1.4-0.9
			c0.5-0.2,0.9-0.3,1.3-0.3c-0.4,1.2-0.7,2.4-0.9,3.8l-1,6.2h3.8c-0.1,0.3-0.2,0.5-0.3,0.8c-0.1,0.3-0.3,0.5-0.4,0.7
			c-0.2,0.2-0.4,0.4-0.6,0.5c-0.2,0.1-0.5,0.2-0.8,0.2H207.3z"/>
		<path class="st1" d="M224.4,78c-0.1,0.8-0.4,1.6-0.8,2.3c-0.4,0.7-0.9,1.4-1.5,1.9c-0.6,0.6-1.4,1-2.4,1.3c-0.9,0.3-2,0.5-3.2,0.5
			c-1.2,0-2.2-0.2-3-0.5c-0.8-0.3-1.5-0.8-1.9-1.3c-0.5-0.6-0.8-1.2-0.9-1.9c-0.2-0.7-0.2-1.5,0-2.3l1.4-8.8
			c0.1-0.8,0.4-1.6,0.8-2.3c0.4-0.7,0.9-1.4,1.5-1.9c0.6-0.5,1.4-1,2.4-1.3c0.9-0.3,2-0.5,3.2-0.5c1.2,0,2.2,0.2,3,0.5
			c0.8,0.3,1.5,0.8,1.9,1.3c0.5,0.6,0.8,1.2,0.9,1.9c0.1,0.7,0.2,1.5,0,2.3L224.4,78z M214,78.2c-0.1,0.4-0.1,0.9-0.1,1.3
			c0,0.4,0.1,0.8,0.3,1.2c0.2,0.4,0.5,0.7,0.9,0.9c0.4,0.2,1,0.4,1.7,0.4c0.7,0,1.3-0.1,1.8-0.4c0.5-0.2,0.9-0.5,1.2-0.9
			c0.3-0.4,0.5-0.8,0.7-1.2c0.2-0.4,0.3-0.9,0.3-1.3l1.5-9.2c0.1-0.4,0.1-0.9,0.1-1.3c0-0.4-0.1-0.8-0.3-1.2
			c-0.2-0.4-0.5-0.7-0.9-0.9c-0.4-0.2-1-0.4-1.7-0.4c-0.7,0-1.3,0.1-1.8,0.4c-0.5,0.2-0.9,0.5-1.2,0.9c-0.3,0.4-0.5,0.8-0.7,1.2
			c-0.2,0.4-0.3,0.9-0.3,1.3L214,78.2z"/>
		<path class="st1" d="M237.3,62.6c0.1-0.8,0.4-1.5,0.7-2.1s0.7-1.1,1.2-1.5c0.4-0.4,0.9-0.7,1.4-0.9c0.5-0.2,0.9-0.3,1.3-0.3
			c-0.2,0.6-0.4,1.2-0.6,1.8c-0.2,0.6-0.3,1.3-0.4,1.9L238,79.1c-0.1,0.8-0.4,1.5-0.7,2.1c-0.3,0.6-0.7,1.1-1.2,1.5
			c-0.4,0.4-0.9,0.7-1.4,0.9c-0.5,0.2-0.9,0.3-1.3,0.3c0.4-1.2,0.7-2.4,0.9-3.8L237.3,62.6z"/>
		<path class="st1" d="M252.9,60l-3.1,19.1c-0.1,0.8-0.4,1.5-0.7,2.1c-0.3,0.6-0.7,1.1-1.2,1.5c-0.4,0.4-0.9,0.7-1.4,0.9
			c-0.5,0.2-0.9,0.3-1.3,0.3c0.4-1.2,0.7-2.4,0.9-3.8l3.3-20.3h-5.9c0.1-0.3,0.2-0.5,0.4-0.8c0.1-0.3,0.3-0.5,0.5-0.7
			c0.2-0.2,0.4-0.4,0.6-0.5c0.2-0.1,0.5-0.2,0.8-0.2h13.4c-0.1,0.3-0.2,0.5-0.4,0.8c-0.1,0.3-0.3,0.5-0.4,0.7
			c-0.2,0.2-0.4,0.4-0.6,0.5c-0.2,0.1-0.5,0.2-0.8,0.2H252.9z"/>
		<path class="st1" d="M280.1,67.9c-0.1,0.8-0.4,1.6-0.8,2.3c-0.4,0.7-0.9,1.4-1.5,1.9c-0.6,0.6-1.4,1-2.4,1.3
			c-0.9,0.3-2,0.5-3.2,0.5c-1.3,0-2.4-0.2-3.3-0.6l-1,5.8c-0.1,0.8-0.4,1.5-0.7,2.1c-0.3,0.6-0.7,1.1-1.2,1.5
			c-0.4,0.4-0.9,0.7-1.4,0.9c-0.5,0.2-0.9,0.3-1.3,0.3c0.4-1.2,0.7-2.4,0.9-3.8l2.7-16.5c0.1-0.8,0.4-1.6,0.8-2.3
			c0.4-0.7,0.9-1.4,1.5-1.9c0.6-0.5,1.4-1,2.4-1.3c0.9-0.3,2-0.5,3.2-0.5c1.2,0,2.2,0.2,3,0.5s1.5,0.8,1.9,1.3
			c0.5,0.6,0.8,1.2,0.9,1.9c0.1,0.7,0.2,1.5,0,2.3L280.1,67.9z M269.7,68.1c-0.1,0.4-0.1,0.9-0.1,1.3c0,0.4,0.1,0.8,0.3,1.2
			c0.2,0.4,0.5,0.7,0.9,0.9c0.4,0.2,1,0.4,1.7,0.4c0.7,0,1.3-0.1,1.8-0.4c0.5-0.2,0.9-0.5,1.2-0.9c0.3-0.4,0.5-0.8,0.7-1.2
			c0.2-0.4,0.3-0.9,0.3-1.3l0.8-4.6c0.1-0.4,0.1-0.9,0.1-1.3c0-0.4-0.1-0.8-0.3-1.2c-0.2-0.4-0.5-0.7-0.9-0.9
			c-0.4-0.2-1-0.4-1.7-0.4c-0.7,0-1.3,0.1-1.8,0.4c-0.5,0.2-0.9,0.5-1.2,0.9c-0.3,0.4-0.5,0.8-0.7,1.2c-0.2,0.4-0.3,0.9-0.3,1.3
			L269.7,68.1z"/>
		<path class="st1" d="M285.2,79.1c-0.1,0.8-0.4,1.5-0.7,2.1c-0.3,0.6-0.7,1.1-1.2,1.5c-0.4,0.4-0.9,0.7-1.4,0.9
			c-0.5,0.2-0.9,0.3-1.3,0.3c0.4-1.2,0.7-2.4,0.9-3.8l2.2-13.3c0.1-0.7,0.2-1.3,0.2-1.9c0-0.6,0-1.2,0-1.8c0.4,0,0.8,0.1,1.2,0.3
			c0.4,0.2,0.8,0.6,1.1,1c0.6-0.4,1.3-0.8,2.1-1c0.8-0.2,1.7-0.3,2.7-0.3c0,0.3-0.1,0.5-0.1,0.7c0,0.2-0.2,0.4-0.3,0.7
			c-0.1,0.2-0.3,0.3-0.5,0.5c-0.2,0.2-0.4,0.3-0.6,0.3c-0.9,0.3-1.5,0.7-1.9,1.4c-0.4,0.7-0.7,1.3-0.8,2L285.2,79.1z"/>
		<path class="st1" d="M304.2,78c-0.1,0.8-0.4,1.6-0.8,2.3c-0.4,0.7-0.9,1.4-1.5,1.9c-0.6,0.6-1.4,1-2.4,1.3c-0.9,0.3-2,0.5-3.2,0.5
			c-1.2,0-2.2-0.2-3-0.5c-0.8-0.3-1.5-0.8-1.9-1.3c-0.5-0.6-0.8-1.2-0.9-1.9c-0.2-0.7-0.2-1.5,0-2.3l1.4-8.8
			c0.1-0.8,0.4-1.6,0.8-2.3c0.4-0.7,0.9-1.4,1.5-1.9c0.6-0.5,1.4-1,2.4-1.3c0.9-0.3,2-0.5,3.2-0.5c1.2,0,2.2,0.2,3,0.5
			c0.8,0.3,1.5,0.8,1.9,1.3c0.5,0.6,0.8,1.2,0.9,1.9c0.1,0.7,0.2,1.5,0,2.3L304.2,78z M293.8,78.2c-0.1,0.4-0.1,0.9-0.1,1.3
			c0,0.4,0.1,0.8,0.3,1.2c0.2,0.4,0.5,0.7,0.9,0.9c0.4,0.2,1,0.4,1.7,0.4c0.7,0,1.3-0.1,1.8-0.4c0.5-0.2,0.9-0.5,1.2-0.9
			c0.3-0.4,0.5-0.8,0.7-1.2c0.2-0.4,0.3-0.9,0.3-1.3l1.5-9.2c0.1-0.4,0.1-0.9,0.1-1.3c0-0.4-0.1-0.8-0.3-1.2
			c-0.2-0.4-0.5-0.7-0.9-0.9c-0.4-0.2-1-0.4-1.7-0.4c-0.7,0-1.3,0.1-1.8,0.4c-0.5,0.2-0.9,0.5-1.2,0.9c-0.3,0.4-0.5,0.8-0.7,1.2
			c-0.2,0.4-0.3,0.9-0.3,1.3L293.8,78.2z"/>
		<path class="st1" d="M307.9,65.4c0-0.3,0.1-0.5,0.2-0.8c0.1-0.3,0.3-0.5,0.4-0.7c0.2-0.2,0.4-0.4,0.6-0.5c0.2-0.1,0.4-0.2,0.7-0.2
			h1l0.7-4c0.1-0.8,0.4-1.6,0.8-2.3c0.4-0.7,0.9-1.4,1.5-1.9c0.6-0.5,1.4-1,2.4-1.3c0.9-0.3,2-0.5,3.2-0.5h1.1
			c0,0.2-0.1,0.5-0.2,0.7c-0.1,0.2-0.2,0.5-0.3,0.7c-0.1,0.2-0.3,0.4-0.4,0.5c-0.2,0.1-0.3,0.2-0.5,0.2c-0.7,0-1.3,0.1-1.8,0.4
			s-0.9,0.5-1.2,0.9s-0.5,0.8-0.7,1.2c-0.2,0.4-0.3,0.9-0.3,1.3l-0.7,4.2h4.3c0,0.3-0.1,0.5-0.2,0.8c-0.1,0.3-0.2,0.5-0.4,0.7
			c-0.2,0.2-0.4,0.4-0.6,0.5c-0.2,0.1-0.4,0.2-0.7,0.2H314l-2.2,13.7c-0.1,0.8-0.4,1.5-0.7,2.1c-0.3,0.6-0.7,1.1-1.2,1.5
			c-0.4,0.4-0.9,0.7-1.4,0.9c-0.5,0.2-0.9,0.3-1.3,0.3c0.4-1.2,0.7-2.4,0.9-3.8l2.4-14.8H307.9z"/>
		<path class="st1" d="M331.8,78.7c-0.1,0.7-0.4,1.4-0.8,2.1c-0.4,0.7-0.9,1.2-1.6,1.7c-0.7,0.5-1.4,0.9-2.4,1.1
			c-0.9,0.3-1.9,0.4-3,0.4c-1.2,0-2.2-0.2-3-0.5c-0.8-0.3-1.5-0.8-1.9-1.3c-0.5-0.6-0.8-1.2-0.9-1.9c-0.2-0.7-0.2-1.5,0-2.3l1.4-8.8
			c0.1-0.8,0.4-1.6,0.8-2.3c0.4-0.7,0.9-1.4,1.5-1.9c0.6-0.5,1.4-1,2.4-1.3c0.9-0.3,2-0.5,3.2-0.5c1.2,0,2.2,0.2,3,0.5
			c0.8,0.3,1.5,0.8,1.9,1.3c0.5,0.6,0.8,1.2,0.9,1.9c0.1,0.7,0.2,1.5,0,2.3l-0.2,1.2c-0.1,0.8-0.4,1.6-0.8,2.3
			c-0.4,0.7-0.9,1.4-1.6,1.9c-0.7,0.6-1.4,1-2.4,1.3c-0.9,0.3-2,0.5-3.2,0.5c-0.5,0-1.1-0.1-1.7-0.3c-0.6-0.2-1.1-0.5-1.5-0.8
			l-0.5,3c-0.1,0.4-0.1,0.9-0.1,1.3c0,0.4,0.1,0.8,0.3,1.2c0.2,0.4,0.5,0.7,0.9,0.9c0.4,0.2,1,0.4,1.7,0.4c0.8,0,1.4-0.1,1.9-0.3
			c0.5-0.2,0.9-0.5,1.2-0.8c0.3-0.3,0.5-0.7,0.7-1.2c0.1-0.5,0.3-0.9,0.4-1.4v-0.2c0.1-0.4,0.3-0.8,0.6-1.1c0.3-0.4,0.7-0.7,1.1-0.9
			c0.4-0.3,0.8-0.5,1.3-0.6c0.4-0.1,0.8-0.2,1.1-0.2c-0.2,0.6-0.3,1.2-0.4,1.7C332,77.4,331.9,78,331.8,78.7z M325.5,74.3
			c0.7,0,1.3-0.1,1.8-0.4s0.9-0.5,1.2-0.9s0.5-0.8,0.7-1.2c0.2-0.4,0.3-0.9,0.3-1.3l0.2-1.5c0.1-0.4,0.1-0.9,0.1-1.3
			c0-0.4-0.1-0.8-0.3-1.2c-0.2-0.4-0.5-0.7-0.9-0.9c-0.4-0.2-1-0.4-1.7-0.4c-0.7,0-1.3,0.1-1.8,0.4c-0.5,0.2-0.9,0.5-1.2,0.9
			c-0.3,0.4-0.5,0.8-0.7,1.2c-0.2,0.4-0.3,0.9-0.3,1.3l-0.2,1.5c-0.1,0.4-0.1,0.9-0.1,1.3c0,0.4,0.1,0.8,0.3,1.2
			c0.2,0.4,0.5,0.7,0.9,0.9C324.2,74.1,324.8,74.3,325.5,74.3z"/>
		<path class="st1" d="M341.5,81.9c0.7,0,1.3-0.1,1.8-0.4c0.5-0.2,0.9-0.5,1.2-0.9c0.3-0.4,0.5-0.8,0.7-1.2c0.2-0.4,0.3-0.9,0.3-1.3
			l0.3-1.7c0-0.3-0.2-0.6-0.6-0.8c-0.5-0.3-1.1-0.5-1.8-0.7s-1.5-0.4-2.4-0.7c-0.9-0.2-1.6-0.4-2.4-0.7c-0.7-0.2-1.3-0.5-1.8-0.8
			c-0.5-0.3-0.7-0.6-0.6-0.9l0.4-2.7c0.1-0.8,0.4-1.6,0.8-2.3c0.4-0.7,0.9-1.4,1.5-1.9c0.6-0.5,1.4-1,2.4-1.3c0.9-0.3,2-0.5,3.2-0.5
			c1.1,0,2.1,0.1,2.9,0.4c0.8,0.3,1.5,0.7,2,1.1c0.5,0.5,0.8,1.1,1,1.7c0.2,0.7,0.2,1.3,0.1,2.1c-0.1,0.7-0.2,1.2-0.3,1.7
			c-0.1,0.5-0.1,1.1-0.2,1.7c-0.3,0-0.6-0.1-1-0.2c-0.4-0.1-0.7-0.3-1.1-0.6c-0.3-0.3-0.6-0.6-0.8-0.9c-0.2-0.4-0.3-0.7-0.2-1.1
			v-0.2c0.1-0.5,0.1-1,0.1-1.4c0-0.5-0.1-0.8-0.3-1.2c-0.2-0.3-0.5-0.6-0.9-0.8c-0.4-0.2-1-0.3-1.8-0.3c-0.7,0-1.3,0.1-1.8,0.4
			c-0.5,0.2-0.9,0.5-1.2,0.9c-0.3,0.4-0.5,0.8-0.7,1.2c-0.2,0.4-0.3,0.9-0.3,1.3l-0.3,1.7c0,0.3,0.2,0.6,0.6,0.9
			c0.5,0.3,1.1,0.5,1.8,0.7c0.7,0.2,1.5,0.4,2.4,0.7c0.9,0.2,1.6,0.4,2.4,0.7s1.3,0.5,1.8,0.8c0.5,0.3,0.7,0.6,0.6,0.9l-0.4,2.7
			c-0.1,0.8-0.4,1.6-0.8,2.3c-0.4,0.7-0.9,1.4-1.5,1.9c-0.6,0.6-1.4,1-2.4,1.3c-0.9,0.3-2,0.5-3.2,0.5c-1.1,0-2.1-0.1-2.9-0.4
			c-0.8-0.3-1.5-0.7-2-1.1c-0.5-0.5-0.8-1.1-1-1.7c-0.2-0.7-0.2-1.3-0.1-2.1c0.1-0.7,0.2-1.2,0.3-1.7c0.1-0.5,0.1-1.1,0.2-1.7
			c0.3,0,0.6,0.1,1,0.2c0.4,0.1,0.7,0.3,1.1,0.6c0.3,0.3,0.6,0.6,0.8,0.9c0.2,0.4,0.3,0.7,0.2,1.1v0.2c-0.1,0.5-0.1,1-0.1,1.4
			c0,0.5,0.1,0.8,0.3,1.2c0.2,0.3,0.5,0.6,0.9,0.8C340.2,81.8,340.7,81.9,341.5,81.9z"/>
		<path class="st1" d="M358.7,81.9c0.7,0,1.3-0.1,1.8-0.4c0.5-0.2,0.9-0.5,1.2-0.9c0.3-0.4,0.5-0.8,0.7-1.2c0.2-0.4,0.3-0.9,0.3-1.3
			l0.3-1.7c0-0.3-0.2-0.6-0.6-0.8c-0.5-0.3-1.1-0.5-1.8-0.7s-1.5-0.4-2.4-0.7c-0.9-0.2-1.6-0.4-2.4-0.7c-0.7-0.2-1.3-0.5-1.8-0.8
			c-0.5-0.3-0.7-0.6-0.6-0.9l0.4-2.7c0.1-0.8,0.4-1.6,0.8-2.3c0.4-0.7,0.9-1.4,1.5-1.9c0.6-0.5,1.4-1,2.4-1.3c0.9-0.3,2-0.5,3.2-0.5
			c1.1,0,2.1,0.1,2.9,0.4c0.8,0.3,1.5,0.7,2,1.1c0.5,0.5,0.8,1.1,1,1.7c0.2,0.7,0.2,1.3,0.1,2.1c-0.1,0.7-0.2,1.2-0.3,1.7
			c-0.1,0.5-0.1,1.1-0.2,1.7c-0.3,0-0.6-0.1-1-0.2c-0.4-0.1-0.7-0.3-1.1-0.6c-0.3-0.3-0.6-0.6-0.8-0.9c-0.2-0.4-0.3-0.7-0.2-1.1
			v-0.2c0.1-0.5,0.1-1,0.1-1.4c0-0.5-0.1-0.8-0.3-1.2c-0.2-0.3-0.5-0.6-0.9-0.8c-0.4-0.2-1-0.3-1.8-0.3c-0.7,0-1.3,0.1-1.8,0.4
			c-0.5,0.2-0.9,0.5-1.2,0.9c-0.3,0.4-0.5,0.8-0.7,1.2c-0.2,0.4-0.3,0.9-0.3,1.3l-0.3,1.7c0,0.3,0.2,0.6,0.6,0.9
			c0.5,0.3,1.1,0.5,1.8,0.7c0.7,0.2,1.5,0.4,2.4,0.7c0.9,0.2,1.6,0.4,2.4,0.7s1.3,0.5,1.8,0.8c0.5,0.3,0.7,0.6,0.6,0.9l-0.4,2.7
			c-0.1,0.8-0.4,1.6-0.8,2.3c-0.4,0.7-0.9,1.4-1.5,1.9c-0.6,0.6-1.4,1-2.4,1.3c-0.9,0.3-2,0.5-3.2,0.5c-1.1,0-2.1-0.1-2.9-0.4
			c-0.8-0.3-1.5-0.7-2-1.1c-0.5-0.5-0.8-1.1-1-1.7c-0.2-0.7-0.2-1.3-0.1-2.1c0.1-0.7,0.2-1.2,0.3-1.7c0.1-0.5,0.1-1.1,0.2-1.7
			c0.3,0,0.6,0.1,1,0.2c0.4,0.1,0.7,0.3,1.1,0.6c0.3,0.3,0.6,0.6,0.8,0.9c0.2,0.4,0.3,0.7,0.2,1.1v0.2c-0.1,0.5-0.1,1-0.1,1.4
			c0,0.5,0.1,0.8,0.3,1.2c0.2,0.3,0.5,0.6,0.9,0.8C357.4,81.8,358,81.9,358.7,81.9z"/>
		<path class="st1" d="M373,79.1c-0.1,0.8-0.4,1.5-0.7,2.1c-0.3,0.6-0.7,1.1-1.2,1.5c-0.4,0.4-0.9,0.7-1.4,0.9
			c-0.5,0.2-0.9,0.3-1.3,0.3c0.4-1.2,0.7-2.4,0.9-3.8l2.5-15c0-0.3,0.2-0.5,0.5-0.8c0.3-0.2,0.6-0.5,1-0.7c0.4-0.2,0.8-0.3,1.2-0.5
			c0.4-0.1,0.8-0.2,1.1-0.2L373,79.1z M372.7,59.5c0.3-1.6,1.6-2.5,3.9-2.7l-0.5,2.8c-0.3,1.6-1.6,2.5-3.9,2.6L372.7,59.5z"/>
		<path class="st1" d="M390.4,78c-0.1,0.8-0.4,1.6-0.8,2.3c-0.4,0.7-0.9,1.4-1.5,1.9c-0.6,0.6-1.4,1-2.4,1.3c-0.9,0.3-2,0.5-3.2,0.5
			c-1.2,0-2.2-0.2-3-0.5c-0.8-0.3-1.5-0.8-1.9-1.3c-0.5-0.6-0.8-1.2-0.9-1.9c-0.2-0.7-0.2-1.5,0-2.3l1.4-8.8
			c0.1-0.8,0.4-1.6,0.8-2.3c0.4-0.7,0.9-1.4,1.5-1.9c0.6-0.5,1.4-1,2.4-1.3c0.9-0.3,2-0.5,3.2-0.5c1.2,0,2.2,0.2,3,0.5
			c0.8,0.3,1.5,0.8,1.9,1.3c0.5,0.6,0.8,1.2,0.9,1.9c0.1,0.7,0.2,1.5,0,2.3L390.4,78z M380.1,78.2c-0.1,0.4-0.1,0.9-0.1,1.3
			c0,0.4,0.1,0.8,0.3,1.2c0.2,0.4,0.5,0.7,0.9,0.9c0.4,0.2,1,0.4,1.7,0.4c0.7,0,1.3-0.1,1.8-0.4c0.5-0.2,0.9-0.5,1.2-0.9
			c0.3-0.4,0.5-0.8,0.7-1.2c0.2-0.4,0.3-0.9,0.3-1.3l1.5-9.2c0.1-0.4,0.1-0.9,0.1-1.3c0-0.4-0.1-0.8-0.3-1.2
			c-0.2-0.4-0.5-0.7-0.9-0.9c-0.4-0.2-1-0.4-1.7-0.4c-0.7,0-1.3,0.1-1.8,0.4c-0.5,0.2-0.9,0.5-1.2,0.9c-0.3,0.4-0.5,0.8-0.7,1.2
			c-0.2,0.4-0.3,0.9-0.3,1.3L380.1,78.2z"/>
		<path class="st1" d="M397.1,79.1c-0.1,0.8-0.4,1.5-0.7,2.1c-0.3,0.6-0.7,1.1-1.2,1.5c-0.4,0.4-0.9,0.7-1.4,0.9
			c-0.5,0.2-0.9,0.3-1.3,0.3c0.4-1.2,0.7-2.4,0.9-3.8l2.2-13.3c0.1-0.7,0.2-1.3,0.2-1.9c0-0.6,0-1.2,0-1.8c0.4,0,0.8,0.1,1.2,0.3
			c0.4,0.2,0.8,0.5,1.1,1c0.6-0.4,1.3-0.7,2.1-1c0.8-0.2,1.7-0.4,2.8-0.4c1.2,0,2.2,0.2,3,0.5c0.8,0.3,1.4,0.8,1.9,1.3
			c0.5,0.6,0.8,1.2,0.9,1.9c0.1,0.7,0.2,1.5,0,2.3l-1.6,10c-0.1,0.8-0.4,1.5-0.7,2.1c-0.3,0.6-0.7,1.1-1.2,1.5
			c-0.4,0.4-0.9,0.7-1.4,0.9c-0.5,0.2-0.9,0.3-1.3,0.3c0.4-1.2,0.7-2.4,0.9-3.8l1.8-11.3c0.1-0.4,0.1-0.9,0.1-1.3
			c0-0.4-0.1-0.8-0.3-1.2c-0.2-0.4-0.5-0.7-0.9-0.9c-0.4-0.2-1-0.4-1.7-0.4c-0.7,0-1.2,0.1-1.7,0.3c-0.5,0.2-0.9,0.5-1.2,0.8
			c-0.3,0.3-0.6,0.7-0.7,1.1c-0.2,0.4-0.3,0.8-0.4,1.2L397.1,79.1z"/>
		<path class="st1" d="M412.6,68.5c0.1-0.7,0.4-1.4,0.8-2.1c0.4-0.7,0.9-1.2,1.6-1.7c0.7-0.5,1.4-0.9,2.4-1.1c0.9-0.3,1.9-0.4,3-0.4
			c1.2,0,2.2,0.2,3,0.5c0.8,0.3,1.5,0.8,1.9,1.3c0.5,0.6,0.8,1.2,0.9,1.9c0.1,0.7,0.2,1.5,0,2.3L423.9,84c-0.4,0-0.8-0.1-1.2-0.3
			c-0.4-0.2-0.6-0.5-0.8-0.9c-0.6,0.4-1.3,0.7-2.2,0.9c-0.8,0.2-1.7,0.3-2.7,0.3c-1.2,0-2.2-0.2-3-0.5c-0.8-0.3-1.5-0.8-1.9-1.3
			c-0.5-0.6-0.8-1.2-0.9-1.9c-0.2-0.7-0.2-1.5,0-2.3l0.2-1.2c0.1-0.8,0.4-1.6,0.8-2.3c0.4-0.7,0.9-1.4,1.5-1.9
			c0.6-0.5,1.4-1,2.4-1.3c0.9-0.3,2-0.5,3.2-0.5c0.5,0,1.1,0.1,1.8,0.3c0.6,0.2,1.1,0.5,1.5,0.8l0.5-3c0.1-0.4,0.1-0.9,0.1-1.3
			c0-0.4-0.1-0.8-0.3-1.2c-0.2-0.4-0.5-0.7-0.9-0.9c-0.4-0.2-1-0.4-1.7-0.4c-0.8,0-1.4,0.1-1.9,0.3s-0.9,0.5-1.2,0.8
			c-0.3,0.3-0.5,0.7-0.7,1.2c-0.1,0.5-0.3,0.9-0.3,1.4v0.2c-0.1,0.4-0.3,0.8-0.6,1.1c-0.3,0.4-0.7,0.7-1.1,0.9s-0.8,0.5-1.3,0.6
			c-0.4,0.1-0.8,0.2-1.1,0.2c0.2-0.6,0.3-1.2,0.4-1.7C412.4,69.7,412.5,69.1,412.6,68.5z M414.5,78.2c-0.1,0.4-0.1,0.9-0.1,1.3
			c0,0.4,0.1,0.8,0.3,1.2c0.2,0.4,0.5,0.7,0.9,0.9c0.4,0.2,1,0.4,1.7,0.4c0.8,0,1.4-0.1,1.9-0.3c0.5-0.2,0.9-0.5,1.2-0.8
			c0.3-0.3,0.5-0.7,0.7-1.2c0.1-0.5,0.3-0.9,0.4-1.4l0.2-1.6c0.1-0.4,0.1-0.9,0.1-1.3c0-0.4-0.1-0.8-0.3-1.2
			c-0.2-0.4-0.5-0.7-0.9-0.9c-0.4-0.2-1-0.4-1.7-0.4c-0.7,0-1.3,0.1-1.8,0.4s-0.9,0.5-1.2,0.9c-0.3,0.4-0.5,0.8-0.7,1.2
			c-0.2,0.4-0.3,0.9-0.3,1.3L414.5,78.2z"/>
		<path class="st1" d="M431.6,79.1c-0.1,0.8-0.4,1.5-0.7,2.1c-0.3,0.6-0.7,1.1-1.2,1.5c-0.4,0.4-0.9,0.7-1.4,0.9
			c-0.5,0.2-0.9,0.3-1.3,0.3c0.4-1.2,0.7-2.4,0.9-3.8l3.6-22.2c0.1-0.8,0.4-1.5,0.7-2.1c0.3-0.6,0.7-1.1,1.2-1.5
			c0.4-0.4,0.9-0.7,1.4-0.9c0.5-0.2,0.9-0.3,1.3-0.3c-0.4,1.2-0.7,2.4-0.9,3.8L431.6,79.1z"/>
		<path class="st1" d="M441.5,81.9c0.7,0,1.3-0.1,1.8-0.4c0.5-0.2,0.9-0.5,1.2-0.9c0.3-0.4,0.5-0.8,0.7-1.2c0.2-0.4,0.3-0.9,0.3-1.3
			l0.3-1.7c0-0.3-0.2-0.6-0.6-0.8c-0.5-0.3-1.1-0.5-1.8-0.7s-1.5-0.4-2.4-0.7c-0.9-0.2-1.6-0.4-2.4-0.7c-0.7-0.2-1.3-0.5-1.8-0.8
			c-0.5-0.3-0.7-0.6-0.6-0.9l0.4-2.7c0.1-0.8,0.4-1.6,0.8-2.3c0.4-0.7,0.9-1.4,1.5-1.9c0.6-0.5,1.4-1,2.4-1.3c0.9-0.3,2-0.5,3.2-0.5
			c1.1,0,2.1,0.1,2.9,0.4c0.8,0.3,1.5,0.7,2,1.1c0.5,0.5,0.8,1.1,1,1.7c0.2,0.7,0.2,1.3,0.1,2.1c-0.1,0.7-0.2,1.2-0.3,1.7
			c-0.1,0.5-0.1,1.1-0.2,1.7c-0.3,0-0.6-0.1-1-0.2c-0.4-0.1-0.7-0.3-1.1-0.6c-0.3-0.3-0.6-0.6-0.8-0.9c-0.2-0.4-0.3-0.7-0.2-1.1
			v-0.2c0.1-0.5,0.1-1,0.1-1.4c0-0.5-0.1-0.8-0.3-1.2c-0.2-0.3-0.5-0.6-0.9-0.8c-0.4-0.2-1-0.3-1.8-0.3c-0.7,0-1.3,0.1-1.8,0.4
			c-0.5,0.2-0.9,0.5-1.2,0.9c-0.3,0.4-0.5,0.8-0.7,1.2c-0.2,0.4-0.3,0.9-0.3,1.3l-0.3,1.7c0,0.3,0.2,0.6,0.6,0.9
			c0.5,0.3,1.1,0.5,1.8,0.7c0.7,0.2,1.5,0.4,2.4,0.7c0.9,0.2,1.6,0.4,2.4,0.7s1.3,0.5,1.8,0.8c0.5,0.3,0.7,0.6,0.6,0.9L449,78
			c-0.1,0.8-0.4,1.6-0.8,2.3c-0.4,0.7-0.9,1.4-1.5,1.9c-0.6,0.6-1.4,1-2.4,1.3c-0.9,0.3-2,0.5-3.2,0.5c-1.1,0-2.1-0.1-2.9-0.4
			c-0.8-0.3-1.5-0.7-2-1.1c-0.5-0.5-0.8-1.1-1-1.7c-0.2-0.7-0.2-1.3-0.1-2.1c0.1-0.7,0.2-1.2,0.3-1.7c0.1-0.5,0.1-1.1,0.2-1.7
			c0.3,0,0.6,0.1,1,0.2c0.4,0.1,0.7,0.3,1.1,0.6c0.3,0.3,0.6,0.6,0.8,0.9c0.2,0.4,0.3,0.7,0.2,1.1v0.2c-0.1,0.5-0.1,1-0.1,1.4
			c0,0.5,0.1,0.8,0.3,1.2c0.2,0.3,0.5,0.6,0.9,0.8C440.2,81.8,440.7,81.9,441.5,81.9z"/>
		<path class="st1" d="M462.9,78.2c-0.1,0.4-0.1,0.9-0.1,1.3c0,0.4,0.1,0.8,0.3,1.2c0.2,0.4,0.5,0.7,0.9,0.9c0.4,0.2,1,0.4,1.7,0.4
			c0.8,0,1.4-0.1,1.9-0.3c0.5-0.2,0.9-0.5,1.2-0.8c0.3-0.3,0.5-0.7,0.7-1.2c0.1-0.5,0.3-0.9,0.4-1.4v-0.2c0.1-0.4,0.3-0.8,0.6-1.1
			c0.3-0.4,0.7-0.7,1.1-0.9c0.4-0.3,0.8-0.5,1.3-0.6c0.4-0.1,0.8-0.2,1.1-0.2c-0.2,0.6-0.3,1.2-0.4,1.7c-0.1,0.5-0.2,1.1-0.3,1.7
			c-0.1,0.7-0.4,1.4-0.8,2.1c-0.4,0.7-0.9,1.2-1.6,1.7c-0.7,0.5-1.4,0.9-2.4,1.1c-0.9,0.3-1.9,0.4-3,0.4c-1.2,0-2.2-0.2-3-0.5
			c-0.8-0.3-1.5-0.8-1.9-1.3c-0.5-0.6-0.8-1.2-0.9-1.9c-0.2-0.7-0.2-1.5,0-2.3l2.3-14.3c0.1-0.8,0.4-1.6,0.8-2.3
			c0.4-0.7,0.9-1.4,1.5-1.9c0.6-0.5,1.4-1,2.4-1.3c0.9-0.3,2-0.5,3.2-0.5c1.1,0,2.1,0.1,2.9,0.4c0.8,0.3,1.5,0.7,2,1.1
			c0.5,0.5,0.8,1.1,1,1.7c0.2,0.7,0.2,1.3,0.1,2.1c-0.1,0.7-0.2,1.2-0.3,1.7c-0.1,0.5-0.1,1.1-0.2,1.7c-0.3,0-0.6-0.1-1-0.2
			c-0.4-0.1-0.8-0.3-1.1-0.6c-0.3-0.3-0.6-0.6-0.8-0.9c-0.2-0.4-0.3-0.7-0.2-1.1l0-0.2c0.1-0.5,0.1-1,0.1-1.4c0-0.5-0.1-0.8-0.3-1.2
			c-0.2-0.3-0.5-0.6-0.9-0.8c-0.4-0.2-1-0.3-1.8-0.3c-0.7,0-1.3,0.1-1.8,0.4c-0.5,0.2-0.9,0.5-1.2,0.9c-0.3,0.4-0.5,0.8-0.7,1.2
			c-0.2,0.4-0.3,0.9-0.3,1.3L462.9,78.2z"/>
		<path class="st1" d="M478.2,68.5c0.1-0.7,0.4-1.4,0.8-2.1c0.4-0.7,0.9-1.2,1.6-1.7c0.7-0.5,1.4-0.9,2.4-1.1c0.9-0.3,1.9-0.4,3-0.4
			c1.2,0,2.2,0.2,3,0.5c0.8,0.3,1.5,0.8,1.9,1.3c0.5,0.6,0.8,1.2,0.9,1.9c0.1,0.7,0.2,1.5,0,2.3L489.5,84c-0.4,0-0.8-0.1-1.2-0.3
			c-0.4-0.2-0.6-0.5-0.8-0.9c-0.6,0.4-1.3,0.7-2.2,0.9c-0.8,0.2-1.7,0.3-2.7,0.3c-1.2,0-2.2-0.2-3-0.5c-0.8-0.3-1.5-0.8-1.9-1.3
			c-0.5-0.6-0.8-1.2-0.9-1.9c-0.1-0.7-0.2-1.5,0-2.3l0.2-1.2c0.1-0.8,0.4-1.6,0.8-2.3c0.4-0.7,0.9-1.4,1.5-1.9
			c0.6-0.5,1.4-1,2.4-1.3s2-0.5,3.2-0.5c0.5,0,1.1,0.1,1.8,0.3c0.6,0.2,1.1,0.5,1.5,0.8l0.5-3c0.1-0.4,0.1-0.9,0.1-1.3
			c0-0.4-0.1-0.8-0.3-1.2c-0.2-0.4-0.5-0.7-0.9-0.9c-0.4-0.2-1-0.4-1.7-0.4c-0.8,0-1.4,0.1-1.9,0.3s-0.9,0.5-1.2,0.8
			c-0.3,0.3-0.5,0.7-0.7,1.2c-0.1,0.5-0.3,0.9-0.3,1.4v0.2c-0.1,0.4-0.3,0.8-0.6,1.1c-0.3,0.4-0.7,0.7-1.1,0.9
			c-0.4,0.3-0.8,0.5-1.3,0.6c-0.4,0.1-0.8,0.2-1.1,0.2c0.2-0.6,0.3-1.2,0.4-1.7C478,69.7,478.1,69.1,478.2,68.5z M480.1,78.2
			c-0.1,0.4-0.1,0.9-0.1,1.3c0,0.4,0.1,0.8,0.3,1.2c0.2,0.4,0.5,0.7,0.9,0.9c0.4,0.2,1,0.4,1.7,0.4c0.8,0,1.4-0.1,1.9-0.3
			c0.5-0.2,0.9-0.5,1.2-0.8c0.3-0.3,0.5-0.7,0.7-1.2c0.1-0.5,0.3-0.9,0.4-1.4l0.2-1.6c0.1-0.4,0.1-0.9,0.1-1.3
			c0-0.4-0.1-0.8-0.3-1.2c-0.2-0.4-0.5-0.7-0.9-0.9c-0.4-0.2-1-0.4-1.7-0.4s-1.3,0.1-1.8,0.4s-0.9,0.5-1.2,0.9
			c-0.3,0.4-0.5,0.8-0.7,1.2c-0.2,0.4-0.3,0.9-0.3,1.3L480.1,78.2z"/>
		<path class="st1" d="M497.1,79.1c-0.1,0.8-0.4,1.5-0.7,2.1c-0.3,0.6-0.7,1.1-1.2,1.5c-0.4,0.4-0.9,0.7-1.4,0.9
			c-0.5,0.2-0.9,0.3-1.3,0.3c0.4-1.2,0.7-2.4,0.9-3.8l2.2-13.3c0.1-0.7,0.2-1.3,0.2-1.9c0-0.6,0-1.2,0-1.8c0.3,0,0.7,0.1,1.1,0.2
			c0.4,0.1,0.7,0.4,1,0.7c1.1-0.6,2.3-0.9,3.8-0.9c1.6,0,2.8,0.3,3.6,1c1-0.7,2.3-1,3.9-1c1.7,0,3,0.4,3.8,1.3
			c0.8,0.8,1.1,2,0.9,3.6l-1.8,11.1c-0.1,0.8-0.4,1.5-0.7,2.1c-0.3,0.6-0.7,1.1-1.2,1.5c-0.4,0.4-0.9,0.7-1.4,0.9
			c-0.5,0.2-0.9,0.3-1.3,0.3c0.4-1.2,0.7-2.4,0.9-3.8l2-12.4c0.3-1.8-0.3-2.6-1.6-2.6c-0.7,0-1.2,0.2-1.6,0.7
			c-0.4,0.5-0.7,1.1-0.8,1.9l-1.8,11.3c-0.1,0.8-0.4,1.5-0.7,2.1s-0.7,1.1-1.2,1.5c-0.4,0.4-0.9,0.7-1.4,0.9
			c-0.5,0.2-0.9,0.3-1.3,0.3c0.4-1.2,0.7-2.4,0.9-3.8l2-12.4c0.1-0.8,0-1.5-0.2-1.9c-0.3-0.5-0.7-0.7-1.4-0.7
			c-0.7,0-1.2,0.2-1.6,0.7c-0.4,0.5-0.7,1.1-0.8,1.9L497.1,79.1z"/>
		<path class="st1" d="M513.9,90.2l3.8-23.3c0.1-0.7,0.2-1.3,0.2-1.9c0-0.6,0-1.2,0-1.8c0.4,0,0.8,0.1,1.2,0.3
			c0.4,0.2,0.8,0.6,1.1,1c0.6-0.4,1.3-0.8,2.1-1c0.8-0.2,1.7-0.3,2.7-0.3c1.2,0,2.2,0.2,3,0.5c0.8,0.3,1.5,0.8,1.9,1.3
			c0.5,0.6,0.8,1.2,0.9,1.9c0.1,0.7,0.2,1.5,0,2.3l-1.4,8.8c-0.1,0.8-0.4,1.6-0.8,2.3c-0.4,0.7-0.9,1.4-1.5,1.9
			c-0.6,0.6-1.4,1-2.4,1.3s-2,0.5-3.2,0.5c-0.7,0-1.3,0-1.8-0.2c-0.6-0.1-1.1-0.2-1.5-0.5l-0.9,5.7c-0.1,0.8-0.4,1.5-0.7,2.1
			c-0.3,0.6-0.7,1.1-1.2,1.5c-0.4,0.4-0.9,0.7-1.4,0.9c-0.5,0.2-0.9,0.3-1.3,0.3C513.4,92.7,513.7,91.5,513.9,90.2z M519.3,78.2
			c-0.1,0.4-0.1,0.9-0.1,1.3c0,0.4,0.1,0.8,0.3,1.2c0.2,0.4,0.5,0.7,0.9,0.9c0.4,0.2,1,0.4,1.7,0.4c0.7,0,1.3-0.1,1.8-0.4
			c0.5-0.2,0.9-0.5,1.2-0.9c0.3-0.4,0.5-0.8,0.7-1.2c0.2-0.4,0.3-0.9,0.3-1.3l1.5-9.2c0.1-0.4,0.1-0.9,0.1-1.3
			c0-0.4-0.1-0.8-0.3-1.2c-0.2-0.4-0.5-0.7-0.9-0.9c-0.4-0.2-1-0.4-1.7-0.4c-0.7,0-1.2,0.1-1.7,0.3c-0.5,0.2-0.9,0.5-1.2,0.8
			s-0.6,0.7-0.7,1.1c-0.2,0.4-0.3,0.8-0.4,1.2L519.3,78.2z"/>
	</g>
	<path class="st0" d="M272.7,211.1c8.8,1.1,15.9,2.2,21.1,3.1c3.8,0.6,7.3,1.3,9.2,1.6c7,1.3,12.6,2.4,14.7,2.8
		c19.4,3.9,28.1,6.9,34.4,11.7c3.9,2.9,8.4,7.7,5.8,12.6c0,0-5.4,10.3,13,14.8c0,0-36-6.3-32.3-13.9c0,0,3.4-0.2,0.6-2.2
		c0,0-5.8-0.5-6.4,3.1c-3.8-1.3-9.3-3.9-10.1-7.9c-0.2-1.1,0-2.4,0.7-3.3c0.9-1.4,2.2-1.8,3.8-2.2c1.4-0.4,2.8-0.6,4.2-0.6
		c2.8-0.1,5.7,0.5,8.2,1.8c0.5,0.3,1.1,0.6,1.3,1.2c0.2,0.6-0.1,1.2-0.6,1.5c-0.2,0.2-2.9,1.1-2.9,1c0,0-0.3,1.6,3.1,1.5
		c1.6,0,3.2-0.3,4.8-0.7c0.3-0.1,0.7-0.2,0.9-0.3c1.7-1.1,0.6-4.6-0.9-5.4C342.6,229.5,323.9,218.5,272.7,211.1z"/>
	<path class="st0" d="M281.9,209.7c0,0,18.9,1.4,21.9,3.8c0,0,44.3,0.1,63.7,18.1c0,0,10.3,0.1,12.5,3.2c0,0,1.7,2.7-2.7,1
		c0,0-5.6-3.1-11.5-1.2c0,0-5.4,3.1,0.8,5.9c6.2,2.8,11.1,3.2,11.1,3.2c0.8,0,2,0.1,3.4,0.2c1.9,0.2,2.8,0.3,3,0
		c0.3-0.5-1.2-1.6-1.3-1.8c-0.4-0.3-0.7-0.5-1-0.6c-0.4-0.5-0.5-1.1-0.3-1.5c0.2-0.3,0.7-0.4,1.7-0.3c3,0.4,4.1,2.8,4.1,2.8
		s8.2,1.9,13,0c0,0,9.2-2.5,15.9,0.8c0,0,0.3-4-11.5-4.5c0,0-3.5-0.2-5.9,0.3c-14.9-9.9-41.8-24.7-78.5-28.9
		C305.7,208.3,292.7,208.6,281.9,209.7z"/>
	<path class="st0" d="M306.7,207c3.1,0.1,6.3-0.5,9.4-0.6c8.1-0.3,16.2-0.2,24.2,0.4c19.3,1.5,36.4,6.6,53,15.1
		c13.1,6.7,26.5,13.1,39,20.5c0.7,0.4,1.4,0.8,2.1,1.2c12.4,7.6,35.1,7.6,35.1,7.6s21.2,0.9,33.6-3.3c0,0,16.2,1.6,25.7-6.5
		c9.5-8.1,12.1-10.3,12.2-15.7s-2.5-9.2-8.1-8.9c0,0-1.9-0.2,0.9,3.7c2.8,3.9-1.3,9-1.3,9s-11.2,5.8-15.3-4.8
		c-4-10.6,3.2-22.2,3.2-22.2s5.1-7.8,12.7-9.4c0,0-2.2,4-0.7,5.4c0,0,4.5,2.6,2.8,4.6c0,0,5.2-1.2,4-4.6c0,0-7-22.3,42.4-22
		c0,0-23.2,6.2-22.9,27.3c0,0,2.2,33.5-30.9,48.4c0,0-11.1,6.8-28.3,3.2c0,0-39.7,3.4-55.8-4.4c-25.8-12.5-50.7-28.7-78.9-36.9
		C346.8,209,325.7,207.7,306.7,207z"/>
	<path class="st0" d="M586.8,219.5c-2.8-0.5-3.8,0.1-4.2,0.7c-0.7,0.9,0.1,1.8-0.6,3.4c-0.7,1.6-2,1.9-1.9,2.8
		c0.1,0.4,0.5,0.9,2,1.4c1.1-0.1,2.7-0.3,4.3-1.1c2.1-1,2.3-1.9,3.6-2.2c1.3-0.3,3.2,0,8.1,4.1c1.5,1.3,2.6,2.3,3.4,3.1
		c2.9,3,4.2,4.1,4.8,4.6c1.9,1.7,5.7,3.3,13.5,2.2c-0.4,0.8-1.1,2-2.4,3.1c-1.4,1.3-2.8,1.9-3.1,2c-2.1,0.8-3.9,0.7-6.4,0.5
		c-6.4-0.6-7.7-2.2-10.7-2c-4.8,0.3-7.9,5-9,6.6c-8.9,12.1-34.8,24.5-52.7,28.9c-5.5,1.4-19.4,4.7-36.6,1.6
		c-21.7-3.9-35.2-15.7-40.3-20.6c2.4,0.7,9.4,2.5,14.5,2.5c1.6,0,5.4,0.1,7.3-0.1c0.6-0.1,1.3-0.1,2.6-0.1c0.6,0,0.9,0,1.2,0.1
		c0.9,0.2,1.3,0.7,1.9,1.2c0.4,0.3,1.1,0.7,2.6,1.3c2.4,1.1,5.7,2.1,7.2,2.5c12.9,3.3,26.9,1,26.9,1c5.7-0.9,18.3-2.9,28.9-12
		c4.7-4,7.6-8.2,9.2-11.1c3.9,1.7,8.4,1.4,11.2-0.8c2.4-1.9,2.8-4.5,2.8-5.3c-0.6,0.6-2.8,2.4-5.9,2.4c-3.9,0-6.4-3-7.3-4.1
		c-0.5-0.6-2.1-2.6-2.3-5.4c-0.5-5.7,5-9.7,5.8-10.3c5.1-3.7,11.2-3.4,13-3.2C582.5,217.1,585.4,218.6,586.8,219.5z"/>
	<path class="st0" d="M733.5,186.6c-0.7,1-2.1,2.5-4.4,3.5c-1.5,0.6-2.8,0.7-6,1.1c-5.4,0.6-8.1,0.8-8.5,0.9c-3.1,0.8-3.3,2.2-9,6.9
		c-4,3.4-6,5-8.8,6.3c-5.1,2.2-10.2,2.3-12.2,2.2c-5.6-0.1-9.7-1.8-11.6-2.6c-2.3,0.5-2.9,1.2-3.1,1.7c-0.5,1.3,1.5,2.4,2.3,5.5
		c0.2,0.7,0.2,1.3,0.3,1.7c-2.2,0.5-5.3,1.5-8.8,3.1c-5.3,2.5-6.4,4.5-10.3,6.6c-12.1,6.6-25,6.7-37.1,0c-3.3-1.8-6.3-4.1-9.2-6.2
		c-7.2-5.4-8.6-5.5-16.6-1c-2.8-7.9,2.9-12.6,19.1-15.7c-9.8-7.3-23.4-3.3-34.4,10.3c-3.1-0.2-6.3-0.3-9.9-0.5
		c0.2-5.7,2.7-11.1,7.5-15.7c12.2-11.7,28.5-16.7,48.1-14.3c4.4,0.5,9,2.8,12.4,5.1c2.9,2,4.9,2.1,8,0.9c4.7-1.9,9.2-2.6,13.2,1.7
		c-8.3,0.9-7.4,10.3-17.8,9.2c-0.1,0.4-0.2,0.9-0.3,1.3c2,0.9,3.9,2.4,6,2.7c5.2,0.7,9.5-1,12.7-4.2c2.8-2.8,5.4-5.8,8.8-8.2
		c7.6-5.4,15-5.5,23.3-0.8c9.3,5.2,9.3,5.3,16.5-1.7c1.8-1.7,3.8-2.8,6-3.4c3-0.7,5.7-0.2,7.3,0.1c1.6,0.3,2.1,0.6,7.5,2.3
		c1.5,0.5,2.8,0.9,3.6,1.1C730.1,186.5,731.8,186.5,733.5,186.6z"/>
	<path class="st0" d="M95.2,131.2c-8.7-4.9-12.5-15.8-13-25.2c-0.2-3.4,0-6.8,0.5-10.2c0.5-2.9,0.9-6.3,3.6-8.2c0.5-0.3,0.1-2,0-2.4
		c-0.4-1.6-1.5-2-2.3-3.2c-0.5-0.8-0.6-2.2-0.3-3.1c0.1-0.2,0.7-1.1,0.6-1.2c0.6,1.2,1.4,2.4,2.3,3.4c0.6,0.7,1.4,1.5,2.2,2
		c1,0.5,2.3,0.5,3.2,1.2c1.4,1,1.1,3,1,4.5c0,0,2.6-0.7,2.9-0.9c0.5-0.4,0.7-1.1,0.4-1.7c2.1,3.5,3.5,9.4-1.8,10.7
		c-1.1,0.3-2.3-0.7-3-1.4c-0.7-0.7-0.8-2-1.6-2.5C89.7,93,89.6,93,89.5,93c-0.2,0-0.3,0.3-0.3,0.5c-0.2,1.9-0.2,3.9-0.6,5.8
		c-0.4,2-1.4,3.9-1.8,5.9c-0.9,4.7,0.5,9.5,2.4,13.8c0.9,2,1.9,4.1,2.9,6.1c0.5,1,1,2,1.5,2.9C93.9,128.6,94.6,130.8,95.2,131.2z"/>
	<path class="st0" d="M93.4,116.2c0,0-3.3-15.1,7.2-20.2c10.5-5.1,10.2-5.1,10-12.4c0,0,6.7,11.8-2.7,16.3c0,0-2,3.9,2.8,2.1
		c0,0,0.7,9.3-10.8,6.8c0,0-1.8-4.2,0.1-4.3c0,0,4.3,1.4,2.9-2.4c0,0-2.9-2.5-5.1,1.3C95.6,107.3,93.4,109.9,93.4,116.2z"/>
	<path class="st0" d="M101.1,92.2c0,0,6-12.8-0.8-16.3c0,0,0.1,6-3,8.8c0,0,0.7-4.6-4-5.6c-4.6-1-7.1-5.8-7.1-5.8
		s-2.9-11.7,2.1-14.6c0,0,2.7,0,2.3-1.4s-1.4-1.6-1.4-1.6s-3.5-3.1-2.7-6.5c0.8-3.4,3.7-5.8,3.7-5.8s1-3.2,0-4.2
		c-1-1.1-1.5-4.4-0.7-5.3c0,0,1.2,3.2,2.4,4.3c0,0,3.2,4.9,0.2,6.9c-3,2,2.8,3.8,2.8,3.8s2.7,3.5,2.7,6.6c0,0-0.1,3.6-3.2,6.2
		c0,0-1,4.8,2.3,5.8c0,0,1.7,0.1,1.4-2.2c-0.3-2.3,2.7-5.2,2.7-5.2s-1.7,5.9,0.3,6.6c2,0.7,4.1,2.7,4.1,2.7s4.1,5.1,3.6,10.9
		C108.5,86.2,101.1,92.2,101.1,92.2z"/>
	<path class="st1" d="M202.9,120.9c2.6-3,6.6-6.7,12.2-9.3c4-1.8,7.5-2.4,9.2-2.8c3.9-0.7,6.9-0.7,9.8-0.6
		c5.6,0.1,11.3-0.2,16.9,0.1c6.7,0.3,18.2,0.3,39.4-1.3c10.4-1,18.3-3.9,23.2-6.2c5.3-2.4,11.4-5.3,16.9-11.8
		c2.7-3.2,4.4-6.2,5.5-8.4c-2.2,3.3-5.7,7.8-11.1,11.9c-7.8,6-20,11.9-37.9,11.9c-35.7,0-59.5,1.3-59.5,1.3
		c-2.6,0.1-6.3,0.5-10.3,2.2C208.8,111.6,204.5,118.3,202.9,120.9z"/>
	<path class="st1" d="M201.2,124c0,0-0.3-26.1,32.9-28c38.3-2.2,75.9,1.5,114,4.3c52.4,3.9,107.6,7.6,159.4-2.7
		c4.9-1,9.8-2.1,14.7-3.4c8.9-2.4,17.8-5.4,25.1-10.9c7.4-5.5,13.1-13.8,13.6-23c-1.1,2.5-2.8,5.8-5.4,9.4
		c-1.4,1.9-7.8,10.3-20,16.2c-5.5,2.7-11.9,3.9-24.7,6.3c-5.1,1-10.9,2-21,3.3c-15.2,2.1-27.5,3.3-31.3,3.6
		c-21.6,1.9-64.5,1.8-118-4c-16.8-1.8-34.4-3-69.4-5.5c0,0-9.6-0.7-24.8,0.2c-25.1,1.5-32.8,5.9-37.5,9.3c-3.3,2.4-9.3,7.3-10,15
		C198.7,118.5,200.1,122,201.2,124z"/>
	<path class="st0" d="M120.6,197c0,0-2.8,17.1-28.3,8c0,0-13.1-5.2-15.1-8.5c0,0-2.8,5.1-8.2,1.4c2.5,0.2,4.7-0.7,5.6-2.4
		c0.2-0.4,0.5-1,0.5-1.9c0.3-0.4,1.1-1.2,2.3-1.6c2.6-0.8,4.9,1.4,4.9,1.5c0-0.1,0.9-1.7,0-3.2c-0.8-1.3-2.2-1.5-2.3-1.5
		c0.3-0.4,1-1.3,2.2-1.7c2.5-0.9,4.8,0.9,4.9,1c1.8,0.9,2.5,3.1,1.7,4.8c-0.7,1.6-2.4,2.5-4.2,2.2c0,0-1.7,0.9,1.4,2.1
		C89.1,198.5,109.5,208.7,120.6,197z"/>
	<path class="st0" d="M81.6,185.3c0,0,3-1.1,4.2,0.2c0,0-0.3-12.6-18.8-10.5c0,0-5.6,1.3-6.2,5.3c0,0-5-2.6-6.4-0.7
		c0,0,2.9,1,2.6,2.3c0,0,0.1,1.8,3.7,1.2c0,0-0.7,5.9-7.7,0.8c-7-5.1-9.4-2.4-9.4-2.4s-3.3,6.2-6.6,2.3c0,0-4.7-3.1-11.5,2.4
		c0,0,8.6-1.3,12.3,2.2c0,0,6.2,4.5,10.6,0.7c0,0,9.1,11.6,18.3,6.1c0,0,5.5-2.3,7-6.8c0,0,2.8-1.9,3.9,0.1c0,0-0.1-5.2-6.3-3.4
		c0,0-3.8-2.3-0.7-3.3c3.1-0.9,6.4-0.6,6.4-0.6S81.2,182.3,81.6,185.3z"/>
	<path class="st2" d="M162.3,115.5c-1.1,0.5-2.8,1.3-4.6,2.9c-1.5,1.3-2.8,2.9-3.9,4.8c-1.1,1.9-1.9,4.1-2.4,6.7l-8.9,52.5
		c-0.5,2.7-1.4,4.7-2.8,6.1c-1.4,1.4-3.2,2.1-5.4,2.1c-2.1,0-3.7-0.7-4.6-2.1c-0.9-1.4-1.2-3.4-0.8-6l9.6-56.1c0.4-2,0.8-4,1.3-6
		c0.5-2,1.1-3.9,1.9-5.8c-1.4,0-2.9,0.3-4.4,0.9c-1.6,0.6-3.1,1.6-4.6,2.9s-2.8,2.9-3.9,4.8c-1.1,1.9-1.9,4.1-2.4,6.7l-9.1,52.6
		c-0.4,2.6-1.3,4.6-2.7,6c-1.4,1.4-3.2,2.1-5.4,2.1c-4.4,0-6.2-2.8-5.3-8.3l9.5-56c0,0,0,0,0-0.1c0.4-2.2,0.6-2.8,0.5-2.8
		c-0.2-0.1-0.7,1.6-2.3,2.9c-0.8,0.6-1.5,0.9-2.1,1.1c-0.5,0.2-1.7,0.6-3.2,0.5c-2.1-0.1-2.7-1-3.6-0.6c-0.5,0.2-1.1,0.8-1.4,2.6
		l-8.9,51.9c-0.8,5,0.1,8.7,2.9,11.4c2.8,2.6,7.1,3.9,12.8,3.9c5.2,0,9.5-1.1,13-3.2c2.8,2.1,6.8,3.2,12,3.2
		c5.7,0,10.4-1.3,14.1-3.9c3.6-2.6,5.9-6.4,6.7-11.4l9.5-55.4c0.4-2,0.8-4,1.3-6c0.3-1.1,0.4-1.5,0.5-2c0.8-2.2,2.1-3.8,3-4.7
		C165.7,114.1,163.7,114.8,162.3,115.5z"/>
	<path class="st2" d="M180.4,130.4c-0.5,0.2-0.9,0.4-1.4,0.7c-2.2,1.2-4.3,3.5-4.8,5.9c-1.7,8.4-6.3,35.3-6.3,35.3
		c-1,9.3-3.9,17.5-10.8,24.4c3.9-0.2,6.7-0.6,7.6-0.8c0.9-0.2,1.7-0.5,1.7-0.5c0.2-0.1,0.4-0.1,0.6-0.2c1.6-0.6,3.1-1.5,4.5-2.8
		c1.5-1.2,2.7-2.8,3.8-4.6c1.1-1.8,1.9-4,2.4-6.4c3.2-17.6,6.4-35.2,9.6-52.8C185.8,128.9,182.7,129.5,180.4,130.4z"/>
	<path class="st2" d="M240.8,146.6c-0.5,2.5-1.3,4.9-2.6,7.2c-1.3,2.3-3,4.3-5.1,6c-2.1,1.7-4.7,3.1-7.8,4.1
		c-3.1,1-6.6,1.5-10.6,1.5c-4.3,0-8-0.6-11-1.9l-3.2,18.2c-0.5,2.5-1.2,4.7-2.4,6.7c-1.1,1.9-2.4,3.5-3.8,4.8
		c-0.6,0.5-2.2,1.8-4.5,2.9c-3.4,1.5-6.5,1.6-8.5,1.6c1.4-1.1,4-3.3,5.7-7c0.9-2.1,1.3-4,1.5-5.4l8.9-51.9c0.5-2.5,1.3-4.9,2.6-7.2
		c1.3-2.3,3-4.3,5.1-6c2.1-1.7,4.7-3.1,7.8-4.1c3.7-1.2,7.6-1.9,11.5-1.3c3.6,0.6,6.5,2.5,9.8,3.8c2.9,1.2,4.3,1.8,5.7,1.6
		c0.8-0.1,2.2-1.1,3.5-2.2c0.9-0.8,1.4-1.4,1.7-1.3c0.4,0.2,0,1.8-0.2,2.3c-0.8,2.9-1.6,5.8-2,8.8
		C242.1,134.1,241.9,140.4,240.8,146.6z M206.5,147.2c-0.2,1.3-0.3,2.7-0.3,4.1c0,1.4,0.4,2.6,1,3.8c0.6,1.1,1.6,2.1,3,2.8
		c1.3,0.7,3.2,1.1,5.6,1.1c2.4,0,4.4-0.4,6-1.1c1.6-0.7,2.9-1.7,4-2.8c1-1.1,1.8-2.4,2.4-3.8c0.5-1.4,0.9-2.7,1.1-4.1l2.5-14.4
		c0.2-1.3,0.3-2.7,0.2-4.1c-0.1-1.4-0.4-2.6-1.1-3.8c-0.7-1.1-1.6-2.1-3-2.8c-1.3-0.7-3.2-1.1-5.6-1.1c-2.4,0-4.3,0.4-5.9,1.1
		c-1.6,0.7-2.9,1.7-3.9,2.8c-1,1.1-1.8,2.4-2.4,3.8c-0.5,1.4-0.9,2.7-1.1,4.1L206.5,147.2z"/>
	<path class="st2" d="M281.1,178.8c-0.2,1.3-0.3,2.7-0.3,4.1c0,1.4,0.4,2.6,1,3.8c0.6,1.1,1.6,2.1,3,2.8c1.3,0.7,3.2,1.1,5.6,1.1
		c2.5,0,4.6-0.3,6.2-0.9c1.6-0.6,2.9-1.5,3.8-2.5c1-1.1,1.7-2.3,2.2-3.7c0.5-1.4,0.9-2.9,1.2-4.5v-0.5c0.2-1.3,0.9-2.4,2-3.5
		c1.1-1.1,2.4-2.1,3.7-2.9s2.8-1.5,4.2-1.9c1.5-0.4,2.6-0.6,3.6-0.6c-0.5,2-1,3.8-1.3,5.4c-0.3,1.6-0.7,3.4-1,5.5
		c-0.4,2.3-1.2,4.4-2.6,6.5c-1.3,2-3.1,3.8-5.3,5.4c-2.2,1.5-4.8,2.7-7.8,3.6c-3,0.9-6.4,1.3-10,1.3c-4,0-7.3-0.5-10-1.5
		c-2.7-1-4.9-2.4-6.4-4.1c-1.6-1.7-2.6-3.7-3.1-6c-0.5-2.3-0.5-4.7-0.1-7.2l7.7-44.8c0.5-2.5,1.3-4.9,2.6-7.2c1.3-2.3,3-4.3,5.1-6
		c2.1-1.7,4.7-3.1,7.8-4.1c3.1-1,6.6-1.5,10.6-1.5c3.7,0,6.9,0.4,9.6,1.3c2.7,0.9,4.9,2.1,6.5,3.6c1.6,1.5,2.8,3.3,3.4,5.4
		c0.6,2,0.8,4.2,0.4,6.5c-0.4,2-0.7,3.9-0.9,5.5c-0.2,1.6-0.4,3.4-0.5,5.4c-0.9,0-2-0.2-3.3-0.6c-1.3-0.4-2.5-1.1-3.6-1.9
		c-1.1-0.8-2-1.8-2.8-2.9c-0.7-1.1-1-2.3-0.7-3.5l0.1-0.5c0.2-1.6,0.3-3.1,0.3-4.5c0-1.4-0.3-2.7-0.9-3.7c-0.6-1.1-1.6-1.9-3-2.5
		c-1.4-0.6-3.3-0.9-5.9-0.9c-2.4,0-4.3,0.4-5.9,1.1c-1.6,0.7-2.9,1.7-3.9,2.8c-1,1.1-1.8,2.4-2.4,3.8c-0.5,1.4-0.9,2.7-1.1,4.1
		L281.1,178.8z"/>
	<path class="st2" d="M332,148.4c0.4-2.3,1.2-4.4,2.6-6.5c1.3-2,3.1-3.8,5.3-5.4c2.2-1.5,4.8-2.7,7.8-3.6c3-0.9,6.4-1.3,10-1.3
		c4,0,7.3,0.5,10,1.5c2.7,1,4.9,2.4,6.4,4.1c1.6,1.7,2.6,3.7,3.1,6c0.5,2.3,0.5,4.7,0.1,7.2l-7.9,46.6c-1.4,0-2.7-0.3-3.9-0.9
		c-1.2-0.6-2.1-1.6-2.8-2.9c-2.1,1.3-4.5,2.2-7.2,2.9c-2.7,0.7-5.7,1-9,1c-4,0-7.3-0.5-10-1.5c-2.7-1-4.9-2.4-6.4-4.1
		c-1.6-1.7-2.6-3.7-3.1-6c-0.5-2.3-0.5-4.7-0.1-7.2l0.6-3.7c0.5-2.5,1.3-4.9,2.6-7.2c1.3-2.3,3-4.3,5.1-6c2.1-1.7,4.7-3.1,7.8-4.1
		c3.1-1,6.6-1.5,10.6-1.5c1.8,0,3.7,0.3,5.9,1c2.1,0.7,3.8,1.6,4.9,2.7l1.6-9.4c0.2-1.3,0.3-2.7,0.2-4.1c-0.1-1.4-0.4-2.6-1-3.8
		c-0.6-1.1-1.6-2.1-2.9-2.8c-1.3-0.7-3.2-1.1-5.6-1.1c-2.5,0-4.6,0.3-6.2,0.9c-1.6,0.6-2.9,1.5-3.9,2.5c-1,1.1-1.7,2.3-2.2,3.7
		c-0.5,1.4-0.8,2.9-1.1,4.5v0.5c-0.2,1.3-0.9,2.4-2,3.5c-1.1,1.1-2.4,2.1-3.7,2.9c-1.4,0.8-2.8,1.5-4.2,1.9
		c-1.5,0.4-2.6,0.6-3.6,0.6c0.5-2,1-3.8,1.3-5.4C331.2,152.2,331.6,150.4,332,148.4z M338.3,178.8c-0.2,1.3-0.3,2.7-0.3,4.1
		c0,1.4,0.4,2.6,1,3.8c0.6,1.1,1.6,2.1,3,2.8c1.3,0.7,3.2,1.1,5.6,1.1c2.5,0,4.6-0.3,6.2-0.9c1.6-0.6,2.9-1.5,3.8-2.5
		c1-1.1,1.7-2.3,2.2-3.7c0.5-1.4,0.9-2.9,1.2-4.5l0.8-5c0.2-1.3,0.3-2.7,0.2-4.1c-0.1-1.4-0.4-2.6-1-3.8c-0.6-1.1-1.6-2.1-2.9-2.8
		c-1.3-0.7-3.2-1.1-5.6-1.1c-2.4,0-4.4,0.4-6,1.1c-1.6,0.7-2.9,1.7-4,2.8c-1,1.1-1.8,2.4-2.4,3.8c-0.5,1.4-0.9,2.7-1.1,4.1
		L338.3,178.8z"/>
	<path class="st2" d="M450.2,217.2c3.5-12.5,11.4-67.1,12.7-73.8c0.1-0.6,0.6-2.9,0.8-6c0.2-2,0.2-3.9,0-5.8c1.4,0,2.8,0.4,4.1,1.1
		c1.4,0.7,2.6,1.7,3.7,3.1c2.1-1.3,4.4-2.4,7.1-3.1c2.7-0.7,5.7-1.1,9.1-1.1c4,0,7.3,0.5,10,1.5c2.7,1,4.9,2.4,6.4,4.1
		c1.6,1.7,2.6,3.7,3.1,6c0.5,2.3,0.5,4.7,0.1,7.2l-4.7,27.7c-0.5,2.5-1.3,4.9-2.6,7.2c-1.3,2.3-3,4.3-5.1,6
		c-2.1,1.7-4.7,3.1-7.8,4.1c-3.1,1-6.6,1.5-10.6,1.5c-2.2,0-4.2-0.2-6.1-0.5c-1.8-0.3-3.5-0.8-5-1.4l-3,17.9
		c-0.5,2.5-1.3,4.7-2.4,6.7c-0.9,1.5-1.9,3.3-3.9,4.8c-1.6,1.3-3.2,1.8-4.4,2.3c-1.7,0.6-4.5,1.3-8.2,1.1c1.3-1.2,2.9-2.8,4.3-5.2
		C449.3,220.5,449.9,218.4,450.2,217.2z M468.3,178.8c-0.2,1.3-0.3,2.7-0.3,4.1c0,1.4,0.4,2.6,1,3.8c0.6,1.1,1.6,2.1,3,2.8
		c1.3,0.7,3.2,1.1,5.6,1.1c2.4,0,4.4-0.4,6-1.1c1.6-0.7,2.9-1.7,4-2.8c1-1.1,1.8-2.4,2.4-3.8c0.5-1.4,0.9-2.7,1.1-4.1l4.9-28.9
		c0.2-1.3,0.3-2.7,0.2-4.1c-0.1-1.4-0.4-2.6-1-3.8c-0.6-1.1-1.6-2.1-2.9-2.8c-1.3-0.7-3.2-1.1-5.6-1.1c-2.2,0-4.1,0.3-5.7,1
		c-1.6,0.7-2.9,1.5-3.9,2.6c-1,1.1-1.9,2.2-2.5,3.5c-0.6,1.3-1,2.6-1.3,3.8L468.3,178.8z"/>
	<g>
		<path class="st2" d="M568.5,117.7l5.2-14.5c0.2-0.7,0.7-1.3,1.5-1.8s1.6-1,2.6-1.5c1-0.4,2-0.7,3.1-0.9c1.1-0.2,2.1-0.2,3.1-0.1
			l-6.8,18.8h11.2l5.1-14.5c0.2-0.7,0.7-1.3,1.5-1.8s1.6-1,2.6-1.5c1-0.4,2-0.7,3.1-0.9c1.1-0.2,2.1-0.2,3.1-0.1l-6.7,18.8h9.5
			c-0.1,0.9-0.5,1.9-1,2.9c-0.5,1-1.2,1.9-1.9,2.7c-0.7,0.8-1.5,1.5-2.2,2s-1.5,0.8-2.1,0.8h-5.2l-5.9,17h9.5
			c-0.2,0.9-0.6,1.9-1.1,2.9c-0.5,1-1.2,1.9-1.9,2.7c-0.7,0.8-1.4,1.5-2.2,2s-1.5,0.8-2.1,0.8h-5.2l-5.9,16.8
			c-0.3,0.7-0.8,1.3-1.6,1.9c-0.8,0.6-1.6,1.1-2.6,1.5c-1,0.4-2,0.7-3.1,0.9c-1.1,0.2-2.1,0.2-3-0.1l7.4-21.1h-11.1l-6,16.8
			c-0.2,0.7-0.7,1.3-1.5,1.9c-0.8,0.6-1.6,1.1-2.6,1.5c-1,0.4-2,0.7-3.1,0.9c-1.1,0.2-2.1,0.2-3-0.1l7.4-21.1h-8.5
			c0.1-0.9,0.5-1.9,1-2.9c0.5-1,1.2-1.9,1.9-2.7c0.7-0.8,1.5-1.5,2.2-2c0.8-0.5,1.5-0.8,2.1-0.8h4.1l6-17H556c0.1-0.9,0.5-1.9,1-2.9
			c0.5-1,1.2-1.9,1.9-2.7c0.7-0.8,1.5-1.5,2.3-2c0.8-0.5,1.5-0.8,2.2-0.8H568.5z M568.3,143.2h11.2l5.9-17h-11.1L568.3,143.2z"/>
	</g>
	<path class="st2" d="M628.4,105.8c-2.4,1.6-4.8,2.3-7.2,2.3c-3,0-5.8-1.3-8.3-3.8l19.8-12.6c1.1-0.7,2-1.4,2.9-1.8
		c0.9-0.5,1.7-0.9,2.6-1.1c0.9-0.2,1.7-0.4,2.6-0.5c0.9-0.1,1.9-0.1,3.1-0.1l-12.4,70c-0.2,1.4-0.6,4.2-2.5,6.9
		c-0.5,0.7-1.9,2.7-4.4,4.3c-2,1.3-3.8,1.8-4.9,2.1c-2.9,0.7-5.5,0.7-7.4,0.4c0.9-0.9,1.9-2,2.8-3.3c1.8-2.4,2.9-4.8,3.6-6.7
		L628.4,105.8z"/>
	<path class="st2" d="M701,99.2c-0.5-2.4-1.6-4.5-3.3-6.3c-1.7-1.8-4-3.2-6.9-4.3c-2.9-1.1-6.5-1.6-10.7-1.6c-4.3,0-8,0.5-11.3,1.6
		c-3.3,1.1-6.1,2.5-8.3,4.3c-2.3,1.8-4.1,3.9-5.5,6.3c-1.3,2.4-2.3,4.9-2.8,7.5l-8.2,46.6c-0.5,2.6-0.5,5.1,0.1,7.5
		c0.5,2.4,1.6,4.5,3.3,6.3c1.7,1.8,4,3.2,6.9,4.3c2.9,1.1,6.5,1.6,10.7,1.6c4.3,0,8-0.5,11.3-1.6c3.3-1.1,6.1-2.5,8.3-4.3
		c2.3-1.8,4.1-3.9,5.5-6.3c1.3-2.4,2.3-4.9,2.8-7.5l8.2-46.6C701.6,104.1,701.6,101.6,701,99.2z M689.1,106.1
		c-0.4,4.1-1.5,8.3-2.2,12.2c-1,5.8-2.2,11.6-3.2,17.5c-1.1,6-2.1,12.1-3.2,18.1c0,0,0,0.1,0,0.1c-0.2,1.4-0.7,2.8-1.2,4.2
		c-0.6,1.4-1.4,2.7-2.5,3.9c-1.1,1.2-2.5,2.2-4.2,2.9c-1.7,0.8-3.8,1.2-6.4,1.2c-2.5,0-4.5-0.4-6-1.2c-1.4-0.8-2.5-1.8-3.2-2.9
		c-1.5-2.5-1.2-5.2-0.7-8.8c1.2-8.9,2.8-17.7,4.5-26.5c1-5.1,1.7-10.3,2.8-15.4c0.9-4.6,1.6-9.9,4.9-13.5c1.1-1.2,2.5-2.2,4.2-2.9
		c1.7-0.8,3.8-1.2,6.3-1.2c2.5,0,4.5,0.4,6,1.2c1.4,0.8,2.5,1.8,3.2,2.9c0.7,1.2,1.1,2.5,1.2,3.9
		C689.3,103.3,689.2,104.7,689.1,106.1z"/>
	<path class="st0" d="M115.1,125.3c1.9-4.4,1.5-8.7-0.8-10.7c-0.5-0.4-1.4-1-2.8-1.3c0,0-10,1.1-12.3-3.9c-0.9,4-1.5,9.3,1.6,12.5
		c1.8,1.9,5.9,3.6,8.4,2.1c2.4-1.5,1.5-5.1,1.5-5.1c0.8-0.2,1.7,0,2.2,0.5c0.9,1,0,2.8-0.3,3.4c-0.3,0.7-0.7,1.1-0.9,1.4
		c-0.8,0.9-1.7,1.5-2.3,1.8C111.2,125.8,113.1,125.5,115.1,125.3z"/>
	<path class="st2" d="M176,136.9c1.7-0.6,3.1-0.5,4.8-0.7c1.6-0.2,3.2-0.5,4.8-0.7l1.8-7c0,0,0,0,0-0.1c0.6-2.1,0.9-2.7,0.8-2.8
		c-0.2-0.1-0.8,1.6-2.5,2.7c-0.8,0.5-1.6,0.8-2.1,0.9c-0.5,0.1-1.7,0.5-3.2,0.3c-2.1-0.2-2.6-1.2-3.6-0.9c-0.5,0.2-1.2,0.7-1.6,2.4
		c-0.4,2.3-0.8,4.5-1.1,6.8C174.4,137.6,175.1,137.2,176,136.9z"/>
	<path class="st0" d="M189.1,127.5c2.3-4.2,2.2-8.5,0-10.8c-0.5-0.5-1.3-1.1-2.7-1.5c0,0-10,0.4-12-4.8c-1.2,3.9-2.2,9.1,0.6,12.6
		c1.6,2,5.6,4,8.2,2.7c2.5-1.3,1.9-4.9,1.9-4.9c0.8-0.1,1.7,0.1,2.2,0.7c0.8,1-0.3,2.8-0.6,3.4c-0.4,0.6-0.8,1-1,1.3
		c-0.9,0.9-1.8,1.4-2.4,1.6C185.2,127.7,187.1,127.6,189.1,127.5z"/>
	<path class="st1" d="M492.1,131.3c0.1,0.2,0.2,0.5,0.3,0.7c1.2,0.2,2.2,1,3,2.5c0.1,0.2,0.2,0.4,0.3,0.5c1.6,0.4,3.1,1.5,3.6,3.3
		c0.9,3.1,1.9,6.2,2.7,9.3c0.2,0.7,0.2,1.4,0.1,2.1c0.9,0.5,2,1.1,3.1,2c0.9,0.8,1.7,1.5,2.3,2.2c0.2-0.8,0.5-2,0.8-3.5
		c0.8-3.9,0.6-4.3,1.3-7.3c1.5-7.4,1.9-8.9,1.9-8.9c0.2-0.6,0.6-2.1,0.2-2.3c-0.3-0.1-0.8,0.5-1.7,1.3c-1.3,1.1-2.7,2-3.5,2.2
		c-1.9,0.3-3.4-0.5-5.7-1.6C498.7,133.1,495.9,132,492.1,131.3z"/>
	<path class="st1" d="M432.1,186.9c-1.9,6.6-1,11.8,1.4,12.9c0.8,0.3,1.5,0.2,3.5-0.5c2.6-0.8,6-2,10.1-3.8c-0.5,0-1.2-0.1-1.8-0.6
		c-0.5-0.4-0.9-1.1-0.9-3.3c0-2,0.4-3.4,0.8-4.9c0.3-1.2,0.6-3,0.9-5.2C441.4,183.3,436.7,185.1,432.1,186.9z"/>
	<path class="st2" d="M448.1,137.2c-2.8-2.6-7-3.9-12.7-3.9c-5.1,0-9.4,1.1-12.8,3.2c-2.8-2.1-6.8-3.2-12-3.2c-4.7,0-8.9,1-12.5,2.9
		c-1-1-2.1-1.8-3.3-2.2c-1.2-0.5-2.4-0.7-3.6-0.7c0.2,1.9,0.2,3.8,0,5.8c-0.2,2-0.4,4-0.8,6l-7.2,41.8c-0.7,4.2-1.7,8.1-3.1,11.8
		c1.4,0,2.8-0.3,4.4-0.9c1.6-0.6,3.1-1.6,4.5-2.9c1.5-1.3,2.7-2.9,3.8-4.8c1.1-1.9,1.9-4.1,2.4-6.7l6.1-35.5c0.5-2.6,1.4-4.6,2.8-6
		c1.4-1.4,3.2-2.1,5.4-2.1c2.1,0,3.7,0.7,4.5,2.1c0.9,1.4,1.1,3.4,0.7,6l-6.7,39c-0.7,4.2-1.7,8.1-3.1,11.8c1.4,0,2.8-0.3,4.4-0.9
		c1.6-0.6,3.1-1.6,4.5-2.9c1.5-1.3,2.7-2.9,3.8-4.8c1.1-1.9,1.9-4.1,2.4-6.7l6.1-35.5c0.5-2.6,1.4-4.6,2.8-6
		c1.4-1.4,3.2-2.1,5.4-2.1c4.4,0,6.2,2.8,5.3,8.3l-6.7,38.9c0,0.1,0,0.1,0,0.2c0.4-0.1,0.9-0.2,1.4-0.2c2.7-0.1,5.5-0.8,8.4,0.1
		c0.2,0.1,0.3,0.1,0.4,0.1c0.1-0.5,0.2-1.2,0.6-1.9c0.3-0.7,0.7-1.3,1.1-1.6c2-11.6,4.1-23.3,6.1-34.9
		C451.8,143.6,450.8,139.8,448.1,137.2z"/>
	<path class="st1" d="M440.6,133.3c0.9,0.3,2,0.6,3.2,0.7c4.1,0.3,7.2-1.5,8.5-2.3c0,0,1.6,4.6-0.2,15.1
		C448.3,142.2,444.5,137.8,440.6,133.3z"/>
	<path class="st1" d="M366.6,134.1c1.1,0.3,2.4,0.5,4,0.5c3.9,0,6.9-1.4,8.5-2.3c0.2,1.1,0.5,2.3,0.6,3.6c0.5,4.6-0.2,8.6-1.1,11.5
		c-0.9-1.9-2.2-4.4-4.4-7C371.5,137.2,368.6,135.2,366.6,134.1z"/>
	<path class="st0" d="M704.4,131.6c0.2-0.7,0-1.6,0-2.3c0.1-1.8,0.4-3.7,0.8-5.4c1.1-4.6,3.6-9.1,8-11.3c1.5-0.8,3.2-1.3,4.9-1.4
		c1.5-0.1,2.9,0.3,4.4,0.4c2.2,0.2,5.5,0.3,6.9-1.9c0,0-0.5,8.3-8.3,6.6c0.6,0.1,0.3,2.1,0.1,2.4c-0.9,2-3.2,2.2-5.1,1.5
		c-2-0.7-2.5-2.4-1.6-4.2c0,0,1.9,1.6,3,0.3c0,0,1.3-3.2-2.2-3.1C715.5,113.2,708.3,115,704.4,131.6z"/>
	<path class="st0" d="M701.8,130.4c0,0-5.2-22.4,12.1-29.7c0,0,2.7,0.1,3.5-6.3c0,0,2.7,5.9,2.2,7.9c0,0-1.9-0.7-1.5,1.8
		c0.4,2.5,2.2,0.9,2.2,0.9s1.8,6-4.2,4.1c0,0-2.1-1.2-1.3-5.4c-3.6,2.9-7,6.3-9.6,10.2c-1.6,2.4-2.1,4.9-2.6,7.6
		C702,124.5,701.7,127.5,701.8,130.4z"/>
	<path class="st0" d="M722.1,107.9c0,0,7.3-2.9,7.3-6.5c0,0-1.2-4.2-3.1,0.6c-0.2,0.3-1.4,2-2.9,1.9c-0.7-0.1-1.4-0.6-1.3-0.8
		c0-0.1,0.2-0.1,0.8-0.2c0.3-0.1,0.6-0.2,0.8-0.2c0.1-0.3,0.7-1.8-0.1-3.3c-0.2-0.4-0.6-0.7-0.8-0.9c-0.5-0.7-1.6-2.6-1.4-5.1
		c0.2-1.9,1-3.2,1.5-3.9c0.7-1,1.8-2.7,3.9-3.4c1.6-0.6,3.1-0.3,3.9-0.1c-0.1-0.4-0.8-2.5,0.2-4.8c1.2-2.5,3.6-3.3,4-3.4
		c0,0,3.9-0.3,3.8-5.1c0,0,1.6,7.6-2.9,7.7c0,0,2.6,9.6-4.7,10c0,0-3.6,1.2-0.2,3.8c0,0,3.7-0.2,3.7-3.3c0,0,1.6,4.3-1.6,5.5
		c0,0,1.8,1.6,1.8,3.9c0,1.8-1,3-1.6,3.7C729.7,107.7,723.5,107.9,722.1,107.9z"/>
</g>
</svg>
