<?xml version="1.0" encoding="utf-8"?>
<!-- Generator: Adobe Illustrator 21.0.2, SVG Export Plug-In . SVG Version: 6.00 Build 0)  -->
<svg version="1.1" id="Layer_1" xmlns="http://www.w3.org/2000/svg" xmlns:xlink="http://www.w3.org/1999/xlink" x="0px" y="0px"
	 viewBox="0 0 841.9 226" style="enable-background:new 0 0 841.9 226;" xml:space="preserve">
<style type="text/css">
	.st0{fill:#FFFFFF;}
	.st1{fill:none;stroke:#FFFFFF;stroke-width:0.25;stroke-miterlimit:10;}
	.st2{fill:none;stroke:#FFFFFF;stroke-width:3;stroke-miterlimit:10;}
	.st3{fill:none;stroke:#FFFFFF;stroke-miterlimit:10;}
	.st4{display:none;}
	.st5{display:inline;}
</style>
<g id="logo2">
	
		<image style="overflow:visible;opacity:0.75;" width="696" height="215" xlink:href="644B50F8.png"  transform="matrix(1 0 0 1 77.3047 13)">
	</image>
	<g>
		<g>
			<g>
				<path class="st0" d="M106.7,156.6l2.6-15.8c0.5-3.1,2.8-4.6,4.4-4.6c-0.4,1.1-0.7,2.3-0.9,3.6l-2.7,16.7c-0.5,3-2.7,4.6-5.9,4.6
					c-1.5,0-2.7-0.3-3.4-1c-1,0.6-2.2,1-3.7,1c-3.2,0-4.9-1.7-4.5-4.6l2.6-15.6c0.5-3.1,2.8-4.6,4.4-4.6c-0.4,1.1-0.7,2.3-0.9,3.6
					l-2.7,16.9c-0.3,1.6,0.3,2.5,1.5,2.5c1.2,0,2.1-0.9,2.3-2.5l2.6-15.9c0.5-3.1,2.8-4.6,4.4-4.6c-0.4,1.1-0.7,2.3-0.9,3.6
					l-2.8,16.9c-0.2,1.6,0.3,2.5,1.5,2.5C105.6,159.1,106.4,158.2,106.7,156.6z"/>
				<path class="st0" d="M122.4,141.3c4.6,0,6.1,2.6,5.6,5.7l-2.3,14c-0.8,0-1.6-0.4-1.9-1.2c-1.2,0.7-2.8,1.2-4.6,1.2
					c-4.6,0-6.1-2.6-5.6-5.7l0.2-1.1c0.5-3.1,2.9-5.7,7.4-5.7c1,0,2.4,0.5,3.1,1.1l0.5-2.8c0.3-1.6,0-3.6-2.7-3.6
					c-2.9,0-3.5,1.6-3.8,3.5v0.1c-0.3,1.5-2.8,2.7-3.9,2.7c0.3-1.2,0.5-2.1,0.7-3.3C115.6,143.6,118.2,141.3,122.4,141.3z
					 M116.9,155.6c-0.3,1.6,0,3.6,2.7,3.6c2.9,0,3.5-1.6,3.8-3.5l0.2-1.5c0.3-1.6,0-3.6-2.7-3.6c-2.7,0-3.6,2-3.8,3.6L116.9,155.6z"
					/>
				<path class="st0" d="M141.3,146c0.5-3.1,2.8-4.6,4.4-4.6c-0.4,1.1-0.7,2.3-0.9,3.6l-3.2,20c-0.5,3.1-2.9,5.7-7.4,5.7
					c-4.2,0-6.2-2.3-5.7-5.1c0.2-1.2,0.3-2.1,0.4-3.3c1,0,3.2,1.2,2.9,2.7v0.1c-0.3,1.9-0.2,3.5,2.7,3.5c2.7,0,3.6-2,3.8-3.6
					l0.7-4.5c-0.9,0.4-2,0.6-3.3,0.6c-4.6,0-6.1-2.6-5.6-5.7l1.5-9.4c0.5-3.1,2.8-4.6,4.4-4.6c-0.4,1.1-0.7,2.3-0.9,3.6l-1.7,10.7
					c-0.3,1.6,0,3.6,2.7,3.6c2.7,0,3.6-2,3.8-3.6L141.3,146z"/>
				<path class="st0" d="M156,155.6l0.3-1.6c0.3-1.8-9.4-2.4-9-4.4l0.4-2.5c0.5-3.1,2.9-5.7,7.4-5.7c4.2,0,6.2,2.3,5.7,5.1
					c-0.2,1.2-0.3,2.1-0.4,3.3c-1,0-3.2-1.2-3-2.7v-0.1c0.3-1.9,0.2-3.5-2.7-3.5c-2.7,0-3.6,2-3.8,3.6l-0.3,1.6
					c-0.3,1.8,9.4,2.4,9,4.4l-0.4,2.5c-0.5,3.1-2.9,5.7-7.4,5.7c-4.2,0-6.2-2.3-5.7-5.1c0.2-1.2,0.3-2.1,0.4-3.3
					c1,0,3.2,1.2,2.9,2.7v0.1c-0.3,1.9-0.2,3.5,2.7,3.5C154.9,159.1,155.8,157.2,156,155.6z"/>
				<path class="st0" d="M176.4,143.5l-2.1,13c-0.5,3.1-2.8,4.6-4.3,4.6c0.4-1.1,0.7-2.3,0.9-3.6l2.3-14h-3.6c0.4-1,0.9-2.1,2.1-2.1
					h1.9l0.8-4.8c0.5-3.1,2.8-4.6,4.4-4.6c-0.4,1.1-0.7,2.3-0.9,3.6l-1,5.9h3.6c-0.4,1-0.9,2.1-2.1,2.1H176.4z"/>
				<path class="st0" d="M192.6,155.4c-0.5,3.1-2.9,5.7-7.4,5.7c-4.6,0-6.1-2.6-5.6-5.7l1.3-8.4c0.5-3.1,2.9-5.7,7.4-5.7
					c4.6,0,6.1,2.6,5.6,5.7L192.6,155.4z M182.8,155.6c-0.3,1.6,0,3.6,2.7,3.6c2.7,0,3.6-2,3.8-3.6l1.4-8.7c0.3-1.6,0-3.6-2.7-3.6
					s-3.6,2-3.8,3.6L182.8,155.6z"/>
				<path class="st0" d="M204.8,140.8c0.5-3.1,2.8-4.6,4.4-4.6c-0.4,1.1-0.7,2.3-0.9,3.6l-2.7,16.7c-0.5,3.1-2.8,4.6-4.3,4.6
					c0.4-1.1,0.7-2.3,0.9-3.6L204.8,140.8z"/>
				<path class="st0" d="M219.6,138.3l-2.9,18.1c-0.5,3.1-2.8,4.6-4.3,4.6c0.4-1.1,0.7-2.3,0.9-3.6l3.1-19.2h-5.6
					c0.4-1,0.9-2.1,2.1-2.1h12.7c-0.4,1-0.9,2.1-2.1,2.1H219.6z"/>
				<path class="st0" d="M245.3,145.9c-0.5,3.1-2.9,5.7-7.4,5.7c-1.3,0-2.3-0.2-3.1-0.6l-0.9,5.5c-0.5,3.1-2.8,4.6-4.3,4.6
					c0.4-1.1,0.7-2.3,0.9-3.6l2.6-15.7c0.5-3.1,2.9-5.7,7.4-5.7c4.6,0,6.1,2.6,5.6,5.7L245.3,145.9z M235.5,146
					c-0.3,1.6,0,3.6,2.7,3.6s3.6-2,3.8-3.6l0.7-4.3c0.3-1.6,0-3.6-2.7-3.6s-3.5,2-3.8,3.6L235.5,146z"/>
				<path class="st0" d="M250.2,156.5c-0.5,3.1-2.8,4.6-4.3,4.6c0.4-1.1,0.7-2.3,0.9-3.6l2.1-12.6c0.2-1.2,0.3-2.4,0.2-3.6
					c0.8,0,1.6,0.4,2.2,1.2c1.2-0.8,2.7-1.2,4.6-1.2c0,0.5-0.1,0.9-0.4,1.3c-0.2,0.3-0.8,0.7-1.1,0.8c-1.7,0.5-2.4,1.9-2.6,3.2
					L250.2,156.5z"/>
				<path class="st0" d="M268.2,155.4c-0.5,3.1-2.9,5.7-7.4,5.7c-4.6,0-6.1-2.6-5.6-5.7l1.3-8.4c0.5-3.1,2.9-5.7,7.4-5.7
					c4.6,0,6.1,2.6,5.6,5.7L268.2,155.4z M258.4,155.6c-0.3,1.6,0,3.6,2.7,3.6c2.7,0,3.6-2,3.8-3.6l1.4-8.7c0.3-1.6,0-3.6-2.7-3.6
					s-3.6,2-3.8,3.6L258.4,155.6z"/>
				<path class="st0" d="M271.7,143.5c0.1-0.9,0.9-2.1,1.8-2.1h1l0.6-3.8c0.5-3.1,2.9-5.7,7.4-5.7h1c-0.1,0.8-0.7,2-1.3,2
					c-2.7,0-3.6,2-3.8,3.6l-0.7,3.9h4c-0.1,0.9-0.9,2.1-1.8,2.1h-2.6l-2.1,13c-0.5,3.1-2.8,4.6-4.3,4.6c0.4-1.1,0.7-2.3,0.9-3.6
					l2.3-14H271.7z"/>
				<path class="st0" d="M286.9,161.1c-4.6,0-6.1-2.6-5.6-5.7l1.3-8.4c0.5-3.1,2.9-5.7,7.4-5.7c4.6,0,6.1,2.6,5.6,5.7l-0.2,1.1
					c-0.5,3.1-2.9,5.7-7.5,5.7c-1,0-2.4-0.5-3-1.1l-0.5,2.8c-0.3,1.6,0,3.6,2.7,3.6c2.9,0,3.5-1.6,3.8-3.5v-0.1
					c0.3-1.5,2.8-2.7,3.9-2.7c-0.3,1.2-0.5,2.1-0.7,3.3C293.8,158.8,291.1,161.1,286.9,161.1z M292.2,148.3l0.2-1.5
					c0.3-1.6,0-3.6-2.7-3.6s-3.6,2-3.8,3.6l-0.2,1.5c-0.3,1.6,0,3.6,2.7,3.6C291.1,151.9,292,149.9,292.2,148.3z"/>
				<path class="st0" d="M307.4,155.6l0.3-1.6c0.3-1.8-9.4-2.4-9-4.4l0.4-2.5c0.5-3.1,2.9-5.7,7.4-5.7c4.2,0,6.2,2.3,5.7,5.1
					c-0.2,1.2-0.3,2.1-0.4,3.3c-1,0-3.2-1.2-2.9-2.7v-0.1c0.3-1.9,0.2-3.5-2.7-3.5c-2.7,0-3.6,2-3.8,3.6l-0.3,1.6
					c-0.3,1.8,9.4,2.4,9,4.4l-0.4,2.5c-0.5,3.1-2.9,5.7-7.4,5.7c-4.2,0-6.2-2.3-5.7-5.1c0.2-1.2,0.3-2.1,0.4-3.3
					c1,0,3.2,1.2,2.9,2.7v0.1c-0.3,1.9-0.2,3.5,2.7,3.5C306.2,159.1,307.1,157.2,307.4,155.6z"/>
				<path class="st0" d="M323.7,155.6l0.3-1.6c0.3-1.8-9.4-2.4-9-4.4l0.4-2.5c0.5-3.1,2.9-5.7,7.4-5.7c4.2,0,6.2,2.3,5.7,5.1
					c-0.2,1.2-0.3,2.1-0.4,3.3c-1,0-3.2-1.2-3-2.7v-0.1c0.3-1.9,0.2-3.5-2.7-3.5c-2.7,0-3.6,2-3.8,3.6l-0.3,1.6
					c-0.3,1.8,9.4,2.4,9,4.4l-0.4,2.5c-0.5,3.1-2.9,5.7-7.4,5.7c-4.2,0-6.2-2.3-5.7-5.1c0.2-1.2,0.3-2.1,0.4-3.3
					c1,0,3.2,1.2,2.9,2.7v0.1c-0.3,1.9-0.2,3.5,2.7,3.5C322.5,159.1,323.4,157.2,323.7,155.6z"/>
				<path class="st0" d="M333.4,156.5c-0.5,3.1-2.8,4.6-4.3,4.6c0.4-1.1,0.7-2.3,0.9-3.6l2.3-14.2c0.2-1,2.4-2,3.6-2L333.4,156.5z
					 M333.1,137.9c0.3-1.5,1.5-2.4,3.7-2.5l-0.4,2.7c-0.3,1.5-1.5,2.4-3.7,2.5L333.1,137.9z"/>
				<path class="st0" d="M349.9,155.4c-0.5,3.1-2.9,5.7-7.4,5.7c-4.6,0-6.1-2.6-5.6-5.7l1.3-8.4c0.5-3.1,2.9-5.7,7.4-5.7
					c4.6,0,6.1,2.6,5.6,5.7L349.9,155.4z M340.1,155.6c-0.3,1.6,0,3.6,2.7,3.6s3.6-2,3.8-3.6l1.4-8.7c0.3-1.6,0-3.6-2.7-3.6
					s-3.6,2-3.8,3.6L340.1,155.6z"/>
				<path class="st0" d="M356.2,156.5c-0.5,3.1-2.8,4.6-4.3,4.6c0.4-1.1,0.7-2.3,0.9-3.6l2.1-12.6c0.2-1.2,0.3-2.4,0.2-3.6
					c0.8,0,1.6,0.4,2.2,1.2c1.2-0.7,2.7-1.2,4.7-1.2c4.6,0,6.1,2.6,5.6,5.7l-1.5,9.5c-0.5,3.1-2.8,4.6-4.3,4.6
					c0.4-1.1,0.7-2.3,0.9-3.6l1.7-10.7c0.3-1.6,0-3.6-2.7-3.6c-2.6,0-3.5,1.8-3.8,3.3L356.2,156.5z"/>
				<path class="st0" d="M378.3,141.3c4.6,0,6.1,2.6,5.6,5.7l-2.3,14c-0.8,0-1.6-0.4-1.9-1.2c-1.2,0.7-2.8,1.2-4.6,1.2
					c-4.6,0-6.1-2.6-5.6-5.7l0.2-1.1c0.5-3.1,2.9-5.7,7.4-5.7c1,0,2.4,0.5,3.1,1.1l0.5-2.8c0.3-1.6,0-3.6-2.7-3.6
					c-2.9,0-3.5,1.6-3.8,3.5v0.1c-0.3,1.5-2.8,2.7-3.9,2.7c0.3-1.2,0.5-2.1,0.7-3.3C371.4,143.6,374,141.3,378.3,141.3z
					 M372.7,155.6c-0.3,1.6,0,3.6,2.7,3.6c2.9,0,3.5-1.6,3.8-3.5l0.2-1.5c0.3-1.6,0-3.6-2.7-3.6c-2.7,0-3.6,2-3.8,3.6L372.7,155.6z"
					/>
				<path class="st0" d="M388.9,156.5c-0.5,3.1-2.8,4.6-4.3,4.6c0.4-1.1,0.7-2.3,0.9-3.6l3.4-21.1c0.5-3.1,2.8-4.6,4.3-4.6
					c-0.4,1.1-0.7,2.3-0.9,3.6L388.9,156.5z"/>
				<path class="st0" d="M402.1,155.6l0.3-1.6c0.3-1.8-9.4-2.4-9-4.4l0.4-2.5c0.5-3.1,2.9-5.7,7.4-5.7c4.2,0,6.2,2.3,5.7,5.1
					c-0.2,1.2-0.3,2.1-0.4,3.3c-1,0-3.2-1.2-3-2.7v-0.1c0.3-1.9,0.2-3.5-2.7-3.5c-2.7,0-3.6,2-3.8,3.6l-0.3,1.6
					c-0.3,1.8,9.4,2.4,9,4.4l-0.4,2.5c-0.5,3.1-2.9,5.7-7.4,5.7c-4.2,0-6.2-2.3-5.7-5.1c0.2-1.2,0.3-2.1,0.4-3.3
					c1,0,3.2,1.2,2.9,2.7v0.1c-0.3,1.9-0.2,3.5,2.7,3.5C401,159.1,401.8,157.2,402.1,155.6z"/>
				<path class="st0" d="M418.5,155.6c-0.3,1.6,0,3.6,2.7,3.6c2.9,0,3.5-1.6,3.8-3.5v-0.1c0.3-1.5,2.8-2.7,3.9-2.7
					c-0.3,1.2-0.5,2.1-0.7,3.3c-0.5,2.8-3.1,5.1-7.3,5.1c-4.6,0-6.1-2.6-5.6-5.7l2.2-13.5c0.5-3.1,2.9-5.7,7.4-5.7
					c4.2,0,6.2,2.3,5.7,5.1c-0.2,1.2-0.3,2.1-0.4,3.3c-1.1,0-3.2-1.2-3-2.7l0-0.1c0.3-1.9,0.2-3.5-2.7-3.5c-2.7,0-3.5,2-3.8,3.6
					L418.5,155.6z"/>
				<path class="st0" d="M440.4,141.3c4.6,0,6.1,2.6,5.6,5.7l-2.3,14c-0.8,0-1.6-0.4-1.9-1.2c-1.2,0.7-2.8,1.2-4.6,1.2
					c-4.6,0-6.1-2.6-5.6-5.7l0.2-1.1c0.5-3.1,2.9-5.7,7.4-5.7c1,0,2.4,0.5,3.1,1.1l0.5-2.8c0.3-1.6,0-3.6-2.7-3.6
					c-2.9,0-3.5,1.6-3.8,3.5v0.1c-0.3,1.5-2.8,2.7-3.9,2.7c0.3-1.2,0.5-2.1,0.7-3.3C433.5,143.6,436.1,141.3,440.4,141.3z
					 M434.8,155.6c-0.3,1.6,0,3.6,2.7,3.6c2.9,0,3.5-1.6,3.8-3.5l0.2-1.5c0.3-1.6,0-3.6-2.7-3.6c-2.7,0-3.6,2-3.8,3.6L434.8,155.6z"
					/>
				<path class="st0" d="M451,156.5c-0.5,3.1-2.8,4.6-4.3,4.6c0.4-1.1,0.7-2.3,0.9-3.6l2.1-12.6c0.2-1.2,0.3-2.4,0.2-3.6
					c0.7,0,1.4,0.3,2,0.9c1-0.6,2.2-0.9,3.6-0.9c1.5,0,2.7,0.3,3.4,1c1-0.6,2.2-1,3.7-1c3.2,0,4.9,1.7,4.5,4.6l-1.7,10.5
					c-0.5,3.1-2.8,4.6-4.3,4.6c0.4-1.1,0.7-2.3,0.9-3.6l1.9-11.7c0.3-1.6-0.3-2.5-1.5-2.5c-1.2,0-2.1,0.9-2.4,2.5l-1.7,10.7
					c-0.5,3.1-2.8,4.6-4.3,4.6c0.4-1.1,0.7-2.3,0.9-3.6l1.9-11.8c0.2-1.6-0.3-2.5-1.5-2.5c-1.2,0-2.1,0.9-2.4,2.5L451,156.5z"/>
				<path class="st0" d="M470.5,144.9c0.2-1.2,0.3-2.4,0.2-3.6c0.8,0,1.6,0.4,2.2,1.2c1.2-0.8,2.7-1.2,4.6-1.2
					c4.6,0,6.1,2.6,5.6,5.7l-1.3,8.4c-0.5,3.1-2.9,5.7-7.4,5.7c-1.3,0-2.3-0.2-3.2-0.6l-0.9,5.4c-0.5,3.1-2.8,4.6-4.3,4.6
					c0.4-1.1,0.7-2.3,0.9-3.6L470.5,144.9z M472,155.6c-0.3,1.6,0,3.6,2.7,3.6s3.6-2,3.8-3.6l1.4-8.7c0.3-1.6,0-3.6-2.7-3.6
					c-2.6,0-3.5,1.8-3.8,3.3L472,155.6z"/>
			</g>
			<g>
				<path class="st1" d="M103,158.5c-0.3-0.4-0.3-1-0.2-1.8l2.8-16.9c0.1-0.6,0.2-1.2,0.4-1.8c0.1-0.6,0.3-1.2,0.5-1.7
					c-0.4,0-0.8,0.1-1.3,0.3c-0.4,0.2-0.9,0.5-1.3,0.9c-0.4,0.4-0.8,0.9-1.1,1.5c-0.3,0.6-0.5,1.3-0.7,2l-2.6,15.9
					c-0.1,0.8-0.4,1.4-0.8,1.8c-0.4,0.4-0.9,0.6-1.6,0.6c-1.3,0-1.8-0.8-1.5-2.5l2.7-16.9c0.1-0.6,0.2-1.2,0.4-1.8
					c0.1-0.6,0.3-1.2,0.5-1.7c-0.4,0-0.8,0.1-1.3,0.3c-0.4,0.2-0.9,0.5-1.3,0.9c-0.4,0.4-0.8,0.9-1.1,1.5c-0.3,0.6-0.5,1.3-0.7,2
					l-2.6,15.6c-0.2,1.5,0,2.6,0.8,3.4c0.8,0.8,2,1.2,3.7,1.2c1.5,0,2.7-0.3,3.7-1c0.8,0.6,1.9,1,3.4,1c1.6,0,3-0.4,4-1.2
					c1-0.8,1.7-1.9,1.9-3.4l2.7-16.7c0.1-0.6,0.2-1.2,0.4-1.8c0.1-0.6,0.3-1.2,0.5-1.7c-0.4,0-0.8,0.1-1.3,0.3
					c-0.4,0.2-0.9,0.5-1.3,0.9c-0.4,0.4-0.8,0.9-1.1,1.5c-0.3,0.6-0.5,1.3-0.7,2l-2.6,15.8c-0.1,0.8-0.4,1.4-0.8,1.8
					c-0.4,0.4-0.9,0.6-1.6,0.6C103.7,159.1,103.3,158.9,103,158.5z"/>
				<path class="st1" d="M117.1,154.1c0.1-0.4,0.2-0.8,0.3-1.2c0.2-0.4,0.4-0.8,0.7-1.1c0.3-0.3,0.7-0.6,1.1-0.9
					c0.5-0.2,1-0.3,1.7-0.3c0.7,0,1.2,0.1,1.6,0.3c0.4,0.2,0.7,0.5,0.8,0.9c0.2,0.3,0.3,0.7,0.3,1.1c0,0.4,0,0.8-0.1,1.2l-0.2,1.5
					c-0.1,0.5-0.2,0.9-0.3,1.4c-0.1,0.4-0.3,0.8-0.6,1.1c-0.3,0.3-0.6,0.6-1.1,0.8c-0.5,0.2-1.1,0.3-1.8,0.3c-0.7,0-1.2-0.1-1.6-0.3
					c-0.4-0.2-0.7-0.5-0.9-0.9c-0.2-0.3-0.3-0.7-0.3-1.1c0-0.4,0-0.8,0.1-1.2L117.1,154.1z M114.8,148c-0.1,0.5-0.2,1-0.4,1.6
					c0.3,0,0.6-0.1,1-0.2c0.4-0.1,0.8-0.3,1.2-0.6c0.4-0.2,0.7-0.5,1.1-0.9c0.3-0.3,0.5-0.7,0.6-1.1v-0.1c0.1-0.5,0.2-0.9,0.3-1.4
					c0.1-0.4,0.3-0.8,0.6-1.1c0.3-0.3,0.7-0.6,1.1-0.8c0.5-0.2,1-0.3,1.8-0.3c0.7,0,1.2,0.1,1.6,0.3c0.4,0.2,0.7,0.5,0.8,0.9
					c0.2,0.3,0.3,0.7,0.3,1.1c0,0.4,0,0.8-0.1,1.2l-0.5,2.8c-0.3-0.3-0.8-0.6-1.4-0.8c-0.6-0.2-1.2-0.3-1.7-0.3
					c-1.1,0-2.1,0.2-3,0.5c-0.9,0.3-1.6,0.7-2.2,1.2c-0.6,0.5-1.1,1.1-1.5,1.8c-0.4,0.7-0.6,1.4-0.7,2.2l-0.2,1.1
					c-0.1,0.8-0.1,1.5,0,2.2c0.1,0.7,0.4,1.3,0.9,1.8c0.4,0.5,1.1,0.9,1.8,1.2c0.8,0.3,1.7,0.5,2.9,0.5c0.9,0,1.8-0.1,2.6-0.3
					c0.8-0.2,1.5-0.5,2-0.9c0.2,0.4,0.4,0.7,0.8,0.9c0.4,0.2,0.7,0.3,1.1,0.3l2.3-14c0.1-0.8,0.1-1.5,0-2.2
					c-0.1-0.7-0.4-1.3-0.9-1.8c-0.4-0.5-1.1-0.9-1.8-1.2c-0.8-0.3-1.7-0.5-2.9-0.5c-1,0-2,0.1-2.9,0.4c-0.9,0.3-1.6,0.6-2.2,1.1
					c-0.6,0.5-1.1,1-1.5,1.6c-0.4,0.6-0.6,1.3-0.7,2C115,147,114.9,147.6,114.8,148z"/>
				<path class="st1" d="M139.7,155.6c-0.1,0.4-0.2,0.8-0.3,1.2c-0.2,0.4-0.4,0.8-0.7,1.1c-0.3,0.3-0.7,0.6-1.1,0.9
					c-0.5,0.2-1,0.3-1.7,0.3c-0.7,0-1.2-0.1-1.6-0.3c-0.4-0.2-0.7-0.5-0.9-0.9c-0.2-0.3-0.3-0.7-0.3-1.1c0-0.4,0-0.8,0.1-1.2
					l1.7-10.7c0.2-1.3,0.5-2.4,0.9-3.6c-0.4,0-0.8,0.1-1.3,0.3c-0.4,0.2-0.9,0.5-1.3,0.9c-0.4,0.4-0.8,0.9-1.1,1.5
					c-0.3,0.6-0.6,1.3-0.7,2l-1.5,9.4c-0.1,0.8-0.1,1.5,0,2.2c0.1,0.7,0.4,1.3,0.9,1.8c0.4,0.5,1.1,0.9,1.8,1.2
					c0.8,0.3,1.7,0.5,2.9,0.5c0.6,0,1.2,0,1.8-0.1c0.6-0.1,1.1-0.2,1.5-0.4l-0.7,4.5c-0.1,0.4-0.2,0.8-0.3,1.2
					c-0.2,0.4-0.4,0.8-0.7,1.1c-0.3,0.3-0.7,0.6-1.1,0.9c-0.5,0.2-1,0.3-1.7,0.3c-0.7,0-1.3-0.1-1.7-0.3c-0.4-0.2-0.7-0.4-0.9-0.8
					c-0.2-0.3-0.3-0.7-0.3-1.1c0-0.4,0-0.9,0.1-1.4v-0.1c0.1-0.4,0-0.7-0.2-1.1c-0.2-0.3-0.5-0.6-0.8-0.9c-0.3-0.2-0.7-0.4-1-0.6
					c-0.4-0.1-0.7-0.2-0.9-0.2c0,0.6-0.1,1.1-0.1,1.6c-0.1,0.5-0.1,1-0.2,1.7c-0.1,0.7-0.1,1.3,0.1,2c0.2,0.6,0.5,1.2,1,1.6
					c0.5,0.5,1.1,0.8,1.9,1.1c0.8,0.3,1.7,0.4,2.7,0.4c1.1,0,2.1-0.2,3-0.5c0.9-0.3,1.6-0.7,2.2-1.2c0.6-0.5,1.1-1.1,1.5-1.8
					c0.4-0.7,0.6-1.4,0.7-2.2l3.2-20c0.2-1.3,0.5-2.4,0.9-3.6c-0.4,0-0.8,0.1-1.3,0.3c-0.4,0.2-0.9,0.5-1.3,0.9
					c-0.4,0.4-0.8,0.9-1.1,1.5c-0.3,0.6-0.6,1.3-0.7,2L139.7,155.6z"/>
				<path class="st1" d="M150.5,158.8c-0.4-0.2-0.7-0.4-0.9-0.8c-0.2-0.3-0.3-0.7-0.3-1.1c0-0.4,0-0.9,0.1-1.4v-0.1
					c0.1-0.4,0-0.7-0.2-1.1c-0.2-0.3-0.5-0.6-0.8-0.9c-0.3-0.2-0.7-0.4-1-0.6c-0.4-0.1-0.7-0.2-0.9-0.2c0,0.6-0.1,1.1-0.1,1.6
					c-0.1,0.5-0.1,1-0.2,1.7c-0.1,0.7-0.1,1.3,0.1,2c0.2,0.6,0.5,1.2,1,1.6c0.5,0.5,1.1,0.8,1.9,1.1c0.8,0.3,1.7,0.4,2.7,0.4
					c1.1,0,2.1-0.2,3-0.5c0.9-0.3,1.6-0.7,2.2-1.2c0.6-0.5,1.1-1.1,1.5-1.8c0.4-0.7,0.6-1.4,0.7-2.2l0.4-2.5c0-0.3-0.2-0.6-0.6-0.9
					c-0.4-0.3-1-0.5-1.7-0.7c-0.7-0.2-1.4-0.4-2.2-0.6c-0.8-0.2-1.6-0.4-2.2-0.6c-0.7-0.2-1.3-0.4-1.7-0.7c-0.4-0.2-0.6-0.5-0.6-0.8
					l0.3-1.6c0.1-0.4,0.2-0.8,0.3-1.2c0.2-0.4,0.4-0.8,0.7-1.1c0.3-0.3,0.7-0.6,1.1-0.9c0.5-0.2,1-0.3,1.7-0.3
					c0.7,0,1.3,0.1,1.7,0.3c0.4,0.2,0.7,0.4,0.9,0.8c0.2,0.3,0.3,0.7,0.3,1.1c0,0.4,0,0.9-0.1,1.4v0.1c-0.1,0.4,0,0.7,0.2,1.1
					c0.2,0.3,0.5,0.6,0.8,0.9c0.3,0.2,0.7,0.4,1,0.6c0.4,0.1,0.7,0.2,0.9,0.2c0-0.6,0.1-1.1,0.1-1.6c0.1-0.5,0.1-1,0.2-1.7
					c0.1-0.7,0.1-1.3-0.1-2c-0.2-0.6-0.5-1.2-1-1.6c-0.5-0.5-1.1-0.8-1.9-1.1c-0.8-0.3-1.7-0.4-2.7-0.4c-1.1,0-2.1,0.2-3,0.5
					c-0.9,0.3-1.6,0.7-2.2,1.2c-0.6,0.5-1.1,1.1-1.5,1.8c-0.4,0.7-0.6,1.4-0.7,2.2l-0.4,2.5c-0.1,0.3,0.1,0.6,0.6,0.9
					c0.4,0.3,1,0.5,1.7,0.7c0.7,0.2,1.4,0.4,2.2,0.6c0.8,0.2,1.6,0.4,2.2,0.6c0.7,0.2,1.3,0.4,1.7,0.7c0.4,0.2,0.6,0.5,0.6,0.8
					l-0.3,1.6c-0.1,0.4-0.2,0.8-0.3,1.2c-0.2,0.4-0.4,0.8-0.7,1.1c-0.3,0.3-0.7,0.6-1.1,0.9c-0.5,0.2-1,0.3-1.7,0.3
					C151.5,159.1,150.9,159,150.5,158.8z"/>
				<path class="st1" d="M178.2,143.5c0.3,0,0.5-0.1,0.8-0.2c0.2-0.1,0.4-0.3,0.6-0.5c0.2-0.2,0.3-0.4,0.4-0.7
					c0.1-0.2,0.2-0.5,0.3-0.7h-3.6l1-5.9c0.2-1.3,0.5-2.4,0.9-3.6c-0.4,0-0.8,0.1-1.3,0.3c-0.4,0.2-0.9,0.5-1.3,0.9
					c-0.4,0.4-0.8,0.9-1.1,1.5c-0.3,0.6-0.6,1.3-0.7,2l-0.8,4.8h-1.9c-0.3,0-0.6,0.1-0.8,0.2c-0.2,0.1-0.4,0.3-0.5,0.5
					c-0.2,0.2-0.3,0.4-0.4,0.7c-0.1,0.2-0.2,0.5-0.3,0.7h3.6l-2.3,14c-0.2,1.3-0.5,2.4-0.9,3.6c0.4,0,0.8-0.1,1.3-0.3
					c0.4-0.2,0.9-0.5,1.3-0.9c0.4-0.4,0.8-0.9,1.1-1.5c0.3-0.6,0.5-1.3,0.7-2l2.1-13H178.2z"/>
				<path class="st1" d="M184.2,146.9c0.1-0.4,0.2-0.8,0.3-1.2c0.2-0.4,0.4-0.8,0.7-1.1c0.3-0.3,0.7-0.6,1.1-0.9
					c0.5-0.2,1-0.3,1.7-0.3c0.7,0,1.2,0.1,1.6,0.3c0.4,0.2,0.7,0.5,0.8,0.9c0.2,0.3,0.3,0.7,0.3,1.1c0,0.4,0,0.8-0.1,1.2l-1.4,8.7
					c-0.1,0.4-0.2,0.8-0.3,1.2c-0.2,0.4-0.4,0.8-0.7,1.1c-0.3,0.3-0.7,0.6-1.1,0.9c-0.5,0.2-1,0.3-1.7,0.3c-0.7,0-1.2-0.1-1.6-0.3
					c-0.4-0.2-0.7-0.5-0.9-0.9c-0.2-0.3-0.3-0.7-0.3-1.1c0-0.4,0-0.8,0.1-1.2L184.2,146.9z M193.9,147c0.1-0.8,0.1-1.5,0-2.2
					c-0.1-0.7-0.4-1.3-0.9-1.8c-0.4-0.5-1.1-0.9-1.8-1.2c-0.8-0.3-1.7-0.5-2.9-0.5c-1.1,0-2.1,0.2-3,0.5c-0.9,0.3-1.6,0.7-2.2,1.2
					c-0.6,0.5-1.1,1.1-1.5,1.8c-0.4,0.7-0.6,1.4-0.7,2.2l-1.3,8.4c-0.1,0.8-0.1,1.5,0,2.2c0.1,0.7,0.4,1.3,0.9,1.8
					c0.4,0.5,1.1,0.9,1.8,1.2c0.8,0.3,1.7,0.5,2.9,0.5c1.1,0,2.1-0.2,3-0.5c0.9-0.3,1.6-0.7,2.2-1.2c0.6-0.5,1.1-1.1,1.5-1.8
					c0.4-0.7,0.6-1.4,0.7-2.2L193.9,147z"/>
				<path class="st1" d="M202,157.5c-0.2,1.3-0.5,2.4-0.9,3.6c0.4,0,0.8-0.1,1.3-0.3c0.4-0.2,0.9-0.5,1.3-0.9
					c0.4-0.4,0.8-0.9,1.1-1.5c0.3-0.6,0.5-1.3,0.7-2l2.7-16.7c0.1-0.6,0.2-1.2,0.4-1.8c0.1-0.6,0.3-1.2,0.5-1.7
					c-0.4,0-0.8,0.1-1.3,0.3c-0.4,0.2-0.9,0.5-1.3,0.9c-0.4,0.4-0.8,0.9-1.1,1.5c-0.3,0.6-0.5,1.3-0.7,2L202,157.5z"/>
				<path class="st1" d="M223.4,138.3c0.3,0,0.5-0.1,0.8-0.2c0.2-0.1,0.4-0.3,0.6-0.5c0.2-0.2,0.3-0.4,0.4-0.7
					c0.1-0.2,0.2-0.5,0.3-0.7h-12.7c-0.3,0-0.6,0.1-0.8,0.2c-0.2,0.1-0.4,0.3-0.6,0.5c-0.2,0.2-0.3,0.4-0.4,0.7
					c-0.1,0.3-0.2,0.5-0.3,0.7h5.6l-3.1,19.2c-0.2,1.3-0.5,2.4-0.9,3.6c0.4,0,0.8-0.1,1.3-0.3c0.4-0.2,0.9-0.5,1.3-0.9
					c0.4-0.4,0.8-0.9,1.1-1.5c0.3-0.6,0.5-1.3,0.7-2l3-18.1H223.4z"/>
				<path class="st1" d="M236.3,141.7c0.1-0.4,0.2-0.8,0.3-1.2c0.2-0.4,0.4-0.8,0.7-1.1c0.3-0.3,0.7-0.6,1.1-0.9
					c0.4-0.2,1-0.3,1.7-0.3c0.7,0,1.2,0.1,1.6,0.3c0.4,0.2,0.7,0.5,0.9,0.9c0.2,0.3,0.3,0.7,0.3,1.1c0,0.4,0,0.8-0.1,1.2L242,146
					c-0.1,0.4-0.2,0.8-0.3,1.2c-0.2,0.4-0.4,0.8-0.7,1.1c-0.3,0.3-0.7,0.6-1.1,0.9c-0.5,0.2-1,0.3-1.7,0.3c-0.7,0-1.2-0.1-1.6-0.3
					c-0.4-0.2-0.7-0.5-0.9-0.9c-0.2-0.3-0.3-0.7-0.3-1.1c0-0.4,0-0.8,0.1-1.2L236.3,141.7z M246,141.9c0.1-0.8,0.1-1.5,0-2.2
					c-0.1-0.7-0.4-1.3-0.9-1.8c-0.4-0.5-1.1-0.9-1.8-1.2c-0.8-0.3-1.7-0.5-2.9-0.5c-1.1,0-2.1,0.2-3,0.5c-0.9,0.3-1.6,0.7-2.2,1.2
					c-0.6,0.5-1.1,1.1-1.5,1.8c-0.4,0.7-0.6,1.4-0.7,2.2l-2.6,15.6c-0.2,1.3-0.5,2.4-0.9,3.6c0.4,0,0.8-0.1,1.3-0.3
					c0.4-0.2,0.9-0.5,1.3-0.9c0.4-0.4,0.8-0.9,1.1-1.5c0.3-0.6,0.5-1.3,0.7-2l0.9-5.5c0.9,0.4,1.9,0.6,3.1,0.6c1.1,0,2.1-0.2,3-0.5
					c0.9-0.3,1.6-0.7,2.2-1.2c0.6-0.5,1.1-1.1,1.5-1.8c0.4-0.7,0.6-1.4,0.7-2.2L246,141.9z"/>
				<path class="st1" d="M251.8,146.6c0.1-0.6,0.4-1.2,0.8-1.9c0.4-0.6,1-1.1,1.8-1.3c0.2,0,0.4-0.1,0.6-0.3
					c0.2-0.2,0.4-0.3,0.5-0.5c0.2-0.2,0.3-0.4,0.3-0.6c0-0.2,0.1-0.4,0.1-0.7c-1,0-1.8,0.1-2.6,0.3c-0.8,0.2-1.4,0.5-2,0.9
					c-0.3-0.4-0.7-0.7-1-0.9c-0.4-0.2-0.8-0.3-1.2-0.3c0,0.6,0,1.2,0,1.7c0,0.6-0.1,1.2-0.2,1.8l-2.1,12.6c-0.2,1.3-0.5,2.4-0.9,3.6
					c0.4,0,0.8-0.1,1.3-0.3c0.4-0.2,0.9-0.5,1.3-0.9c0.4-0.4,0.8-0.9,1.1-1.5c0.3-0.6,0.5-1.3,0.7-2L251.8,146.6z"/>
				<path class="st1" d="M259.8,146.9c0.1-0.4,0.2-0.8,0.3-1.2c0.2-0.4,0.4-0.8,0.7-1.1c0.3-0.3,0.7-0.6,1.1-0.9
					c0.5-0.2,1-0.3,1.7-0.3c0.7,0,1.2,0.1,1.6,0.3c0.4,0.2,0.7,0.5,0.8,0.9c0.2,0.3,0.3,0.7,0.3,1.1c0,0.4,0,0.8-0.1,1.2l-1.4,8.7
					c-0.1,0.4-0.2,0.8-0.3,1.2c-0.2,0.4-0.4,0.8-0.7,1.1c-0.3,0.3-0.7,0.6-1.1,0.9c-0.5,0.2-1,0.3-1.7,0.3c-0.7,0-1.2-0.1-1.6-0.3
					c-0.4-0.2-0.7-0.5-0.9-0.9c-0.2-0.3-0.3-0.7-0.3-1.1c0-0.4,0-0.8,0.1-1.2L259.8,146.9z M269.5,147c0.1-0.8,0.1-1.5,0-2.2
					c-0.1-0.7-0.4-1.3-0.9-1.8c-0.4-0.5-1.1-0.9-1.8-1.2c-0.8-0.3-1.7-0.5-2.9-0.5c-1.1,0-2.1,0.2-3,0.5c-0.9,0.3-1.6,0.7-2.2,1.2
					c-0.6,0.5-1.1,1.1-1.5,1.8c-0.4,0.7-0.6,1.4-0.7,2.2l-1.3,8.4c-0.1,0.8-0.1,1.5,0,2.2c0.1,0.7,0.4,1.3,0.9,1.8
					c0.4,0.5,1.1,0.9,1.8,1.2c0.8,0.3,1.7,0.5,2.9,0.5c1.1,0,2.1-0.2,3-0.5c0.9-0.3,1.6-0.7,2.2-1.2c0.6-0.5,1.1-1.1,1.5-1.8
					c0.4-0.7,0.6-1.4,0.7-2.2L269.5,147z"/>
				<path class="st1" d="M274.2,143.5l-2.3,14c-0.2,1.3-0.5,2.4-0.9,3.6c0.4,0,0.8-0.1,1.3-0.3c0.4-0.2,0.9-0.5,1.3-0.9
					c0.4-0.4,0.8-0.9,1.1-1.5c0.3-0.6,0.5-1.3,0.7-2l2.1-13h2.6c0.2,0,0.4-0.1,0.6-0.2c0.2-0.1,0.4-0.3,0.6-0.5
					c0.2-0.2,0.3-0.4,0.4-0.7c0.1-0.2,0.2-0.5,0.2-0.7h-4l0.7-3.9c0.1-0.4,0.2-0.8,0.3-1.2c0.2-0.4,0.4-0.8,0.7-1.1
					c0.3-0.3,0.7-0.6,1.1-0.9c0.5-0.2,1-0.3,1.7-0.3c0.2,0,0.3-0.1,0.5-0.2c0.2-0.1,0.3-0.3,0.4-0.5c0.1-0.2,0.2-0.4,0.3-0.6
					c0.1-0.2,0.1-0.4,0.2-0.7h-1c-1.1,0-2.1,0.2-3,0.5c-0.9,0.3-1.6,0.7-2.2,1.2c-0.6,0.5-1.1,1.1-1.5,1.8c-0.4,0.7-0.6,1.4-0.7,2.2
					l-0.6,3.8h-1c-0.2,0-0.4,0.1-0.6,0.2c-0.2,0.1-0.4,0.3-0.6,0.5c-0.2,0.2-0.3,0.4-0.4,0.7c-0.1,0.2-0.2,0.5-0.2,0.7H274.2z"/>
				<path class="st1" d="M286.8,151.5c-0.4-0.2-0.7-0.5-0.9-0.9c-0.2-0.3-0.3-0.7-0.3-1.1c0-0.4,0-0.8,0.1-1.2l0.2-1.5
					c0.1-0.4,0.2-0.8,0.3-1.2c0.2-0.4,0.4-0.8,0.7-1.1c0.3-0.3,0.7-0.6,1.1-0.9c0.5-0.2,1-0.3,1.7-0.3c0.7,0,1.2,0.1,1.6,0.3
					c0.4,0.2,0.7,0.5,0.8,0.9c0.2,0.3,0.3,0.7,0.3,1.1c0,0.4,0,0.8-0.1,1.2l-0.2,1.5c-0.1,0.4-0.2,0.8-0.3,1.2
					c-0.2,0.4-0.4,0.8-0.7,1.1c-0.3,0.3-0.7,0.6-1.1,0.9c-0.5,0.2-1,0.3-1.7,0.3C287.7,151.9,287.2,151.8,286.8,151.5z M294.6,154.4
					c0.1-0.5,0.2-1,0.4-1.6c-0.3,0-0.6,0.1-1,0.2c-0.4,0.1-0.8,0.3-1.2,0.6c-0.4,0.2-0.7,0.5-1.1,0.9c-0.3,0.3-0.5,0.7-0.6,1.1v0.1
					c-0.1,0.5-0.2,0.9-0.3,1.4c-0.1,0.4-0.3,0.8-0.6,1.1c-0.3,0.3-0.6,0.6-1.1,0.8c-0.5,0.2-1.1,0.3-1.8,0.3c-0.7,0-1.2-0.1-1.6-0.3
					c-0.4-0.2-0.7-0.5-0.9-0.9c-0.2-0.3-0.3-0.7-0.3-1.1c0-0.4,0-0.8,0.1-1.2l0.5-2.8c0.3,0.3,0.8,0.6,1.4,0.8
					c0.6,0.2,1.2,0.3,1.7,0.3c1.1,0,2.1-0.2,3-0.5c0.9-0.3,1.6-0.7,2.2-1.2c0.6-0.5,1.1-1.1,1.5-1.8c0.4-0.7,0.6-1.4,0.7-2.2
					l0.2-1.1c0.1-0.8,0.1-1.5,0-2.2c-0.1-0.7-0.4-1.3-0.9-1.8c-0.4-0.5-1.1-0.9-1.8-1.2c-0.8-0.3-1.7-0.5-2.9-0.5
					c-1.1,0-2.1,0.2-3,0.5c-0.9,0.3-1.6,0.7-2.2,1.2c-0.6,0.5-1.1,1.1-1.5,1.8c-0.4,0.7-0.6,1.4-0.7,2.2l-1.3,8.4
					c-0.1,0.8-0.1,1.5,0,2.2c0.1,0.7,0.4,1.3,0.9,1.8c0.4,0.5,1.1,0.9,1.8,1.2c0.8,0.3,1.7,0.5,2.9,0.5c1,0,2-0.1,2.9-0.4
					c0.9-0.3,1.6-0.6,2.2-1.1c0.6-0.5,1.1-1,1.5-1.6c0.4-0.6,0.6-1.3,0.7-2C294.4,155.4,294.5,154.9,294.6,154.4z"/>
				<path class="st1" d="M301.9,158.8c-0.4-0.2-0.7-0.4-0.9-0.8c-0.2-0.3-0.3-0.7-0.3-1.1c0-0.4,0-0.9,0.1-1.4v-0.1
					c0.1-0.4,0-0.7-0.2-1.1c-0.2-0.3-0.5-0.6-0.8-0.9c-0.3-0.2-0.7-0.4-1-0.6c-0.4-0.1-0.7-0.2-0.9-0.2c0,0.6-0.1,1.1-0.1,1.6
					c-0.1,0.5-0.1,1-0.2,1.7c-0.1,0.7-0.1,1.3,0.1,2c0.2,0.6,0.5,1.2,1,1.6c0.5,0.5,1.1,0.8,1.9,1.1c0.8,0.3,1.7,0.4,2.7,0.4
					c1.1,0,2.1-0.2,3-0.5c0.9-0.3,1.6-0.7,2.2-1.2c0.6-0.5,1.1-1.1,1.5-1.8c0.4-0.7,0.6-1.4,0.7-2.2l0.4-2.5c0-0.3-0.2-0.6-0.6-0.9
					c-0.4-0.3-1-0.5-1.7-0.7c-0.7-0.2-1.4-0.4-2.2-0.6c-0.8-0.2-1.6-0.4-2.2-0.6c-0.7-0.2-1.3-0.4-1.7-0.7c-0.4-0.2-0.6-0.5-0.6-0.8
					l0.3-1.6c0.1-0.4,0.2-0.8,0.3-1.2c0.2-0.4,0.4-0.8,0.7-1.1c0.3-0.3,0.7-0.6,1.1-0.9c0.5-0.2,1-0.3,1.7-0.3
					c0.7,0,1.3,0.1,1.7,0.3c0.4,0.2,0.7,0.4,0.9,0.8c0.2,0.3,0.3,0.7,0.3,1.1c0,0.4,0,0.9-0.1,1.4v0.1c-0.1,0.4,0,0.7,0.2,1.1
					c0.2,0.3,0.5,0.6,0.8,0.9c0.3,0.2,0.7,0.4,1,0.6c0.4,0.1,0.7,0.2,0.9,0.2c0-0.6,0.1-1.1,0.1-1.6c0.1-0.5,0.1-1,0.2-1.7
					c0.1-0.7,0.1-1.3-0.1-2c-0.2-0.6-0.5-1.2-1-1.6c-0.5-0.5-1.1-0.8-1.9-1.1c-0.8-0.3-1.7-0.4-2.7-0.4c-1.1,0-2.1,0.2-3,0.5
					c-0.9,0.3-1.6,0.7-2.2,1.2c-0.6,0.5-1.1,1.1-1.5,1.8c-0.4,0.7-0.6,1.4-0.7,2.2l-0.4,2.5c-0.1,0.3,0.1,0.6,0.6,0.9
					c0.4,0.3,1,0.5,1.7,0.7c0.7,0.2,1.4,0.4,2.2,0.6c0.8,0.2,1.6,0.4,2.2,0.6c0.7,0.2,1.3,0.4,1.7,0.7c0.4,0.2,0.6,0.5,0.6,0.8
					l-0.3,1.6c-0.1,0.4-0.2,0.8-0.3,1.2c-0.2,0.4-0.4,0.8-0.7,1.1c-0.3,0.3-0.7,0.6-1.1,0.9c-0.5,0.2-1,0.3-1.7,0.3
					C302.8,159.1,302.3,159,301.9,158.8z"/>
				<path class="st1" d="M318.2,158.8c-0.4-0.2-0.7-0.4-0.9-0.8c-0.2-0.3-0.3-0.7-0.3-1.1c0-0.4,0-0.9,0.1-1.4v-0.1
					c0.1-0.4,0-0.7-0.2-1.1c-0.2-0.3-0.5-0.6-0.8-0.9c-0.3-0.2-0.7-0.4-1-0.6c-0.4-0.1-0.7-0.2-0.9-0.2c0,0.6-0.1,1.1-0.1,1.6
					c-0.1,0.5-0.1,1-0.2,1.7c-0.1,0.7-0.1,1.3,0.1,2c0.2,0.6,0.5,1.2,1,1.6c0.5,0.5,1.1,0.8,1.9,1.1c0.8,0.3,1.7,0.4,2.7,0.4
					c1.1,0,2.1-0.2,3-0.5c0.9-0.3,1.6-0.7,2.2-1.2c0.6-0.5,1.1-1.1,1.5-1.8c0.4-0.7,0.6-1.4,0.7-2.2l0.4-2.5c0-0.3-0.2-0.6-0.6-0.9
					c-0.4-0.3-1-0.5-1.7-0.7c-0.7-0.2-1.4-0.4-2.2-0.6c-0.8-0.2-1.6-0.4-2.2-0.6c-0.7-0.2-1.3-0.4-1.7-0.7c-0.4-0.2-0.6-0.5-0.6-0.8
					l0.3-1.6c0.1-0.4,0.2-0.8,0.3-1.2c0.2-0.4,0.4-0.8,0.7-1.1c0.3-0.3,0.7-0.6,1.1-0.9c0.5-0.2,1-0.3,1.7-0.3
					c0.7,0,1.3,0.1,1.7,0.3c0.4,0.2,0.7,0.4,0.9,0.8c0.2,0.3,0.3,0.7,0.3,1.1c0,0.4,0,0.9-0.1,1.4v0.1c-0.1,0.4,0,0.7,0.2,1.1
					c0.2,0.3,0.5,0.6,0.8,0.9c0.3,0.2,0.7,0.4,1,0.6c0.4,0.1,0.7,0.2,0.9,0.2c0-0.6,0.1-1.1,0.1-1.6c0.1-0.5,0.1-1,0.2-1.7
					c0.1-0.7,0.1-1.3-0.1-2c-0.2-0.6-0.5-1.2-1-1.6c-0.5-0.5-1.1-0.8-1.9-1.1c-0.8-0.3-1.7-0.4-2.7-0.4c-1.1,0-2.1,0.2-3,0.5
					c-0.9,0.3-1.6,0.7-2.2,1.2c-0.6,0.5-1.1,1.1-1.5,1.8c-0.4,0.7-0.6,1.4-0.7,2.2l-0.4,2.5c-0.1,0.3,0.1,0.6,0.6,0.9
					c0.4,0.3,1,0.5,1.7,0.7c0.7,0.2,1.4,0.4,2.2,0.6c0.8,0.2,1.6,0.4,2.2,0.6c0.7,0.2,1.3,0.4,1.7,0.7c0.4,0.2,0.6,0.5,0.6,0.8
					l-0.3,1.6c-0.1,0.4-0.2,0.8-0.3,1.2c-0.2,0.4-0.4,0.8-0.7,1.1c-0.3,0.3-0.7,0.6-1.1,0.9c-0.5,0.2-1,0.3-1.7,0.3
					C319.1,159.1,318.6,159,318.2,158.8z"/>
				<path class="st1" d="M332.7,140.5c2.2-0.1,3.4-0.9,3.7-2.5l0.4-2.7c-2.2,0.1-3.4,1-3.7,2.5L332.7,140.5z M335.8,141.3
					c-0.3,0-0.7,0.1-1,0.2c-0.4,0.1-0.8,0.2-1.1,0.4c-0.4,0.2-0.7,0.4-0.9,0.6c-0.3,0.2-0.4,0.5-0.5,0.7l-2.3,14.2
					c-0.2,1.3-0.5,2.4-0.9,3.6c0.4,0,0.8-0.1,1.3-0.3c0.4-0.2,0.9-0.5,1.3-0.9c0.4-0.4,0.8-0.9,1.1-1.5c0.3-0.6,0.5-1.2,0.7-2
					L335.8,141.3z"/>
				<path class="st1" d="M341.5,146.9c0.1-0.4,0.2-0.8,0.3-1.2c0.2-0.4,0.4-0.8,0.7-1.1c0.3-0.3,0.7-0.6,1.1-0.9
					c0.5-0.2,1-0.3,1.7-0.3c0.7,0,1.2,0.1,1.6,0.3c0.4,0.2,0.7,0.5,0.8,0.9c0.2,0.3,0.3,0.7,0.3,1.1c0,0.4,0,0.8-0.1,1.2l-1.4,8.7
					c-0.1,0.4-0.2,0.8-0.3,1.2c-0.2,0.4-0.4,0.8-0.7,1.1c-0.3,0.3-0.7,0.6-1.1,0.9c-0.5,0.2-1,0.3-1.7,0.3c-0.7,0-1.2-0.1-1.6-0.3
					c-0.4-0.2-0.7-0.5-0.9-0.9c-0.2-0.3-0.3-0.7-0.3-1.1c0-0.4,0-0.8,0.1-1.2L341.5,146.9z M351.2,147c0.1-0.8,0.1-1.5,0-2.2
					c-0.1-0.7-0.4-1.3-0.9-1.8c-0.4-0.5-1.1-0.9-1.8-1.2c-0.8-0.3-1.7-0.5-2.9-0.5c-1.1,0-2.1,0.2-3,0.5c-0.9,0.3-1.6,0.7-2.2,1.2
					c-0.6,0.5-1.1,1.1-1.5,1.8c-0.4,0.7-0.6,1.4-0.7,2.2l-1.3,8.4c-0.1,0.8-0.1,1.5,0,2.2c0.1,0.7,0.4,1.3,0.9,1.8
					c0.4,0.5,1.1,0.9,1.8,1.2c0.8,0.3,1.7,0.5,2.9,0.5c1.1,0,2.1-0.2,3-0.5c0.9-0.3,1.6-0.7,2.2-1.2c0.6-0.5,1.1-1.1,1.5-1.8
					c0.4-0.7,0.6-1.4,0.7-2.2L351.2,147z"/>
				<path class="st1" d="M357.9,146.6c0.1-0.4,0.2-0.8,0.4-1.2c0.2-0.4,0.4-0.7,0.7-1.1c0.3-0.3,0.7-0.6,1.1-0.8
					c0.4-0.2,1-0.3,1.6-0.3c0.7,0,1.2,0.1,1.6,0.3c0.4,0.2,0.7,0.5,0.8,0.9c0.2,0.3,0.3,0.7,0.3,1.1c0,0.4,0,0.8-0.1,1.2l-1.7,10.7
					c-0.2,1.3-0.5,2.4-0.9,3.6c0.4,0,0.8-0.1,1.3-0.3c0.4-0.2,0.9-0.5,1.3-0.9c0.4-0.4,0.8-0.9,1.1-1.5c0.3-0.6,0.5-1.2,0.7-2
					l1.5-9.5c0.1-0.8,0.1-1.5,0-2.2c-0.1-0.7-0.4-1.3-0.9-1.8c-0.4-0.5-1.1-0.9-1.8-1.2c-0.8-0.3-1.7-0.5-2.9-0.5
					c-1,0-1.9,0.1-2.6,0.3c-0.8,0.2-1.4,0.5-2,0.9c-0.3-0.4-0.7-0.7-1-0.9c-0.4-0.2-0.8-0.3-1.2-0.3c0,0.6,0,1.2,0,1.7
					c0,0.6-0.1,1.2-0.2,1.8l-2.1,12.6c-0.2,1.3-0.5,2.4-0.9,3.6c0.4,0,0.8-0.1,1.3-0.3c0.4-0.2,0.9-0.5,1.3-0.9
					c0.4-0.4,0.8-0.9,1.1-1.5c0.3-0.6,0.5-1.2,0.7-2L357.9,146.6z"/>
				<path class="st1" d="M373,154.1c0.1-0.4,0.2-0.8,0.3-1.2c0.2-0.4,0.4-0.8,0.7-1.1c0.3-0.3,0.7-0.6,1.1-0.9
					c0.5-0.2,1-0.3,1.7-0.3c0.7,0,1.2,0.1,1.6,0.3c0.4,0.2,0.7,0.5,0.8,0.9c0.2,0.3,0.3,0.7,0.3,1.1c0,0.4,0,0.8-0.1,1.2l-0.2,1.5
					c-0.1,0.5-0.2,0.9-0.3,1.4c-0.1,0.4-0.3,0.8-0.6,1.1c-0.3,0.3-0.6,0.6-1.1,0.8c-0.5,0.2-1,0.3-1.8,0.3c-0.7,0-1.2-0.1-1.6-0.3
					c-0.4-0.2-0.7-0.5-0.9-0.9c-0.2-0.3-0.3-0.7-0.3-1.1c0-0.4,0-0.8,0.1-1.2L373,154.1z M370.6,148c-0.1,0.5-0.2,1-0.4,1.6
					c0.3,0,0.6-0.1,1-0.2c0.4-0.1,0.8-0.3,1.2-0.6c0.4-0.2,0.7-0.5,1.1-0.9c0.3-0.3,0.5-0.7,0.6-1.1v-0.1c0.1-0.5,0.2-0.9,0.3-1.4
					c0.1-0.4,0.3-0.8,0.6-1.1c0.3-0.3,0.7-0.6,1.1-0.8c0.5-0.2,1-0.3,1.8-0.3c0.7,0,1.2,0.1,1.6,0.3c0.4,0.2,0.7,0.5,0.8,0.9
					c0.2,0.3,0.3,0.7,0.3,1.1c0,0.4,0,0.8-0.1,1.2l-0.5,2.8c-0.3-0.3-0.8-0.6-1.4-0.8c-0.6-0.2-1.2-0.3-1.7-0.3
					c-1.1,0-2.1,0.2-3,0.5c-0.9,0.3-1.6,0.7-2.2,1.2c-0.6,0.5-1.1,1.1-1.5,1.8c-0.4,0.7-0.6,1.4-0.7,2.2l-0.2,1.1
					c-0.1,0.8-0.1,1.5,0,2.2c0.1,0.7,0.4,1.3,0.9,1.8c0.4,0.5,1.1,0.9,1.8,1.2c0.8,0.3,1.7,0.5,2.9,0.5c0.9,0,1.8-0.1,2.6-0.3
					c0.8-0.2,1.5-0.5,2-0.9c0.2,0.4,0.4,0.7,0.8,0.9c0.3,0.2,0.7,0.3,1.1,0.3l2.3-14c0.1-0.8,0.1-1.5,0-2.2
					c-0.1-0.7-0.4-1.3-0.9-1.8c-0.4-0.5-1.1-0.9-1.8-1.2c-0.8-0.3-1.7-0.5-2.9-0.5c-1,0-2,0.1-2.9,0.4c-0.9,0.3-1.6,0.6-2.2,1.1
					c-0.6,0.5-1.1,1-1.5,1.6c-0.4,0.6-0.6,1.3-0.7,2C370.8,147,370.7,147.6,370.6,148z"/>
				<path class="st1" d="M392.3,135.4c0.2-1.3,0.5-2.4,0.9-3.6c-0.4,0-0.8,0.1-1.3,0.3c-0.4,0.2-0.9,0.5-1.3,0.9
					c-0.4,0.4-0.8,0.9-1.1,1.5c-0.3,0.6-0.5,1.3-0.7,2l-3.4,21.1c-0.2,1.3-0.5,2.4-0.9,3.6c0.4,0,0.8-0.1,1.3-0.3
					c0.4-0.2,0.9-0.5,1.3-0.9c0.4-0.4,0.8-0.9,1.1-1.5c0.3-0.6,0.5-1.3,0.7-2L392.3,135.4z"/>
				<path class="st1" d="M396.6,158.8c-0.4-0.2-0.7-0.4-0.8-0.8c-0.2-0.3-0.3-0.7-0.3-1.1c0-0.4,0-0.9,0.1-1.4v-0.1
					c0.1-0.4,0-0.7-0.2-1.1c-0.2-0.3-0.5-0.6-0.8-0.9c-0.3-0.2-0.7-0.4-1-0.6c-0.4-0.1-0.7-0.2-0.9-0.2c0,0.6-0.1,1.1-0.1,1.6
					c-0.1,0.5-0.1,1-0.2,1.7c-0.1,0.7-0.1,1.3,0.1,2c0.2,0.6,0.5,1.2,1,1.6c0.5,0.5,1.1,0.8,1.9,1.1c0.8,0.3,1.7,0.4,2.7,0.4
					c1.1,0,2.1-0.2,3-0.5c0.9-0.3,1.6-0.7,2.2-1.2c0.6-0.5,1.1-1.1,1.5-1.8c0.4-0.7,0.6-1.4,0.7-2.2l0.4-2.5c0-0.3-0.2-0.6-0.6-0.9
					c-0.4-0.3-1-0.5-1.7-0.7c-0.7-0.2-1.4-0.4-2.2-0.6c-0.8-0.2-1.6-0.4-2.2-0.6c-0.7-0.2-1.3-0.4-1.7-0.7c-0.4-0.2-0.6-0.5-0.6-0.8
					l0.3-1.6c0.1-0.4,0.2-0.8,0.3-1.2c0.2-0.4,0.4-0.8,0.7-1.1c0.3-0.3,0.7-0.6,1.1-0.9c0.5-0.2,1-0.3,1.7-0.3
					c0.7,0,1.3,0.1,1.7,0.3c0.4,0.2,0.7,0.4,0.9,0.8c0.2,0.3,0.3,0.7,0.3,1.1c0,0.4,0,0.9-0.1,1.4v0.1c-0.1,0.4,0,0.7,0.2,1.1
					c0.2,0.3,0.5,0.6,0.8,0.9c0.3,0.2,0.7,0.4,1,0.6c0.4,0.1,0.7,0.2,0.9,0.2c0-0.6,0.1-1.1,0.1-1.6c0.1-0.5,0.1-1,0.2-1.7
					c0.1-0.7,0.1-1.3-0.1-2c-0.2-0.6-0.5-1.2-1-1.6c-0.5-0.5-1.1-0.8-1.9-1.1c-0.8-0.3-1.7-0.4-2.7-0.4c-1.1,0-2.1,0.2-3,0.5
					c-0.9,0.3-1.6,0.7-2.2,1.2c-0.6,0.5-1.1,1.1-1.5,1.8c-0.4,0.7-0.6,1.4-0.7,2.2l-0.4,2.5c-0.1,0.3,0.1,0.6,0.6,0.9
					c0.4,0.3,1,0.5,1.7,0.7c0.7,0.2,1.4,0.4,2.2,0.6c0.8,0.2,1.6,0.4,2.2,0.6c0.7,0.2,1.2,0.4,1.7,0.7c0.4,0.2,0.6,0.5,0.6,0.8
					l-0.3,1.6c-0.1,0.4-0.2,0.8-0.3,1.2c-0.2,0.4-0.4,0.8-0.7,1.1c-0.3,0.3-0.7,0.6-1.1,0.9c-0.5,0.2-1,0.3-1.7,0.3
					C397.6,159.1,397,159,396.6,158.8z"/>
				<path class="st1" d="M420.8,141.7c0.1-0.4,0.2-0.8,0.3-1.2c0.2-0.4,0.4-0.8,0.7-1.1c0.3-0.3,0.7-0.6,1.1-0.9
					c0.4-0.2,1-0.3,1.7-0.3c0.7,0,1.3,0.1,1.7,0.3c0.4,0.2,0.7,0.4,0.9,0.8c0.2,0.3,0.3,0.7,0.3,1.1c0,0.4,0,0.9-0.1,1.4l0,0.1
					c-0.1,0.4,0,0.7,0.2,1.1c0.2,0.3,0.5,0.6,0.8,0.9c0.3,0.2,0.7,0.4,1,0.6c0.4,0.1,0.7,0.2,0.9,0.2c0-0.6,0.1-1.1,0.1-1.6
					c0.1-0.5,0.1-1,0.2-1.7c0.1-0.7,0.1-1.3-0.1-2c-0.2-0.6-0.5-1.2-1-1.6c-0.5-0.5-1.1-0.8-1.9-1.1c-0.8-0.3-1.7-0.4-2.7-0.4
					c-1.1,0-2.1,0.2-3,0.5c-0.9,0.3-1.6,0.7-2.2,1.2c-0.6,0.5-1.1,1.1-1.5,1.8c-0.4,0.7-0.6,1.4-0.7,2.2l-2.2,13.5
					c-0.1,0.8-0.1,1.5,0,2.2c0.1,0.7,0.4,1.3,0.9,1.8c0.4,0.5,1.1,0.9,1.8,1.2c0.8,0.3,1.7,0.5,2.9,0.5c1.1,0,2-0.1,2.9-0.4
					c0.9-0.3,1.6-0.6,2.2-1.1c0.6-0.5,1.1-1,1.5-1.6c0.4-0.6,0.6-1.3,0.7-2c0.1-0.6,0.2-1.2,0.3-1.7c0.1-0.5,0.2-1,0.4-1.6
					c-0.3,0-0.6,0.1-1,0.2c-0.4,0.1-0.8,0.3-1.2,0.6c-0.4,0.2-0.8,0.5-1.1,0.9c-0.3,0.3-0.5,0.7-0.6,1.1v0.1
					c-0.1,0.5-0.2,0.9-0.3,1.4c-0.1,0.4-0.3,0.8-0.6,1.1c-0.3,0.3-0.6,0.6-1.1,0.8c-0.5,0.2-1.1,0.3-1.8,0.3c-0.7,0-1.2-0.1-1.6-0.3
					c-0.4-0.2-0.7-0.5-0.9-0.9c-0.2-0.3-0.3-0.7-0.3-1.1c0-0.4,0-0.8,0.1-1.2L420.8,141.7z"/>
				<path class="st1" d="M435.1,154.1c0.1-0.4,0.2-0.8,0.3-1.2c0.2-0.4,0.4-0.8,0.7-1.1c0.3-0.3,0.7-0.6,1.1-0.9
					c0.5-0.2,1-0.3,1.7-0.3s1.2,0.1,1.6,0.3c0.4,0.2,0.7,0.5,0.8,0.9c0.2,0.3,0.3,0.7,0.3,1.1c0,0.4,0,0.8-0.1,1.2l-0.2,1.5
					c-0.1,0.5-0.2,0.9-0.3,1.4c-0.1,0.4-0.3,0.8-0.6,1.1c-0.3,0.3-0.6,0.6-1.1,0.8c-0.5,0.2-1,0.3-1.8,0.3c-0.7,0-1.2-0.1-1.6-0.3
					c-0.4-0.2-0.7-0.5-0.9-0.9c-0.2-0.3-0.3-0.7-0.3-1.1c0-0.4,0-0.8,0.1-1.2L435.1,154.1z M432.7,148c-0.1,0.5-0.2,1-0.4,1.6
					c0.3,0,0.6-0.1,1-0.2c0.4-0.1,0.8-0.3,1.2-0.6c0.4-0.2,0.7-0.5,1.1-0.9c0.3-0.3,0.5-0.7,0.6-1.1v-0.1c0.1-0.5,0.2-0.9,0.3-1.4
					c0.1-0.4,0.3-0.8,0.6-1.1c0.3-0.3,0.7-0.6,1.1-0.8c0.5-0.2,1-0.3,1.8-0.3c0.7,0,1.2,0.1,1.6,0.3c0.4,0.2,0.7,0.5,0.8,0.9
					c0.2,0.3,0.3,0.7,0.3,1.1c0,0.4,0,0.8-0.1,1.2l-0.5,2.8c-0.3-0.3-0.8-0.6-1.4-0.8c-0.6-0.2-1.2-0.3-1.7-0.3
					c-1.1,0-2.1,0.2-3,0.5c-0.9,0.3-1.6,0.7-2.2,1.2c-0.6,0.5-1.1,1.1-1.5,1.8c-0.4,0.7-0.6,1.4-0.7,2.2l-0.2,1.1
					c-0.1,0.8-0.1,1.5,0,2.2c0.1,0.7,0.4,1.3,0.9,1.8c0.4,0.5,1.1,0.9,1.8,1.2c0.8,0.3,1.7,0.5,2.9,0.5c0.9,0,1.8-0.1,2.6-0.3
					c0.8-0.2,1.5-0.5,2.1-0.9c0.2,0.4,0.4,0.7,0.8,0.9c0.3,0.2,0.7,0.3,1.1,0.3l2.3-14c0.1-0.8,0.1-1.5,0-2.2
					c-0.1-0.7-0.4-1.3-0.9-1.8c-0.4-0.5-1.1-0.9-1.8-1.2c-0.8-0.3-1.7-0.5-2.9-0.5c-1.1,0-2,0.1-2.9,0.4c-0.9,0.3-1.6,0.6-2.2,1.1
					c-0.6,0.5-1.1,1-1.5,1.6c-0.4,0.6-0.6,1.3-0.7,2C432.9,147,432.8,147.6,432.7,148z"/>
				<path class="st1" d="M452.7,145.7c0.1-0.8,0.4-1.4,0.8-1.8c0.4-0.4,0.9-0.6,1.6-0.6c0.6,0,1,0.2,1.3,0.6c0.3,0.4,0.3,1,0.2,1.8
					l-1.9,11.8c-0.2,1.3-0.5,2.4-0.9,3.6c0.4,0,0.8-0.1,1.3-0.3c0.4-0.2,0.9-0.5,1.3-0.9c0.4-0.4,0.8-0.9,1.1-1.5
					c0.3-0.6,0.5-1.3,0.7-2l1.7-10.7c0.1-0.8,0.4-1.4,0.8-1.8c0.4-0.4,0.9-0.6,1.5-0.6c1.3,0,1.8,0.8,1.5,2.5l-1.9,11.7
					c-0.2,1.3-0.5,2.4-0.9,3.6c0.4,0,0.8-0.1,1.2-0.3c0.4-0.2,0.9-0.5,1.3-0.9c0.4-0.4,0.8-0.9,1.1-1.5c0.3-0.6,0.5-1.3,0.7-2
					L467,146c0.2-1.5,0-2.6-0.8-3.4c-0.8-0.8-2-1.2-3.6-1.2c-1.5,0-2.7,0.3-3.7,1c-0.8-0.6-1.9-1-3.4-1c-1.4,0-2.5,0.3-3.6,0.9
					c-0.3-0.3-0.6-0.5-1-0.7c-0.3-0.1-0.7-0.2-1-0.2c0,0.6,0,1.2,0,1.7c0,0.6-0.1,1.2-0.2,1.8l-2.1,12.6c-0.2,1.3-0.5,2.4-0.9,3.6
					c0.4,0,0.8-0.1,1.3-0.3c0.4-0.2,0.9-0.5,1.3-0.9c0.4-0.4,0.8-0.9,1.1-1.5c0.3-0.6,0.5-1.3,0.7-2L452.7,145.7z"/>
				<path class="st1" d="M473.4,146.6c0.1-0.4,0.2-0.8,0.4-1.2c0.2-0.4,0.4-0.7,0.7-1.1c0.3-0.3,0.7-0.6,1.1-0.8
					c0.4-0.2,1-0.3,1.6-0.3c0.7,0,1.2,0.1,1.6,0.3c0.4,0.2,0.7,0.5,0.8,0.9c0.2,0.3,0.3,0.7,0.3,1.1c0,0.4,0,0.8-0.1,1.2l-1.4,8.7
					c-0.1,0.4-0.2,0.8-0.3,1.2c-0.2,0.4-0.4,0.8-0.7,1.1c-0.3,0.3-0.7,0.6-1.1,0.9c-0.5,0.2-1,0.3-1.7,0.3c-0.7,0-1.2-0.1-1.6-0.3
					c-0.4-0.2-0.7-0.5-0.9-0.9c-0.2-0.3-0.3-0.7-0.3-1.1c0-0.4,0-0.8,0.1-1.2L473.4,146.6z M466,170.5c0.4,0,0.8-0.1,1.2-0.3
					c0.4-0.2,0.9-0.5,1.3-0.9c0.4-0.4,0.8-0.9,1.1-1.5c0.3-0.6,0.6-1.3,0.7-2l0.9-5.4c0.4,0.2,0.9,0.3,1.4,0.4
					c0.5,0.1,1.1,0.1,1.7,0.1c1.1,0,2.1-0.2,3-0.5c0.9-0.3,1.6-0.7,2.2-1.2c0.6-0.5,1.1-1.1,1.5-1.8c0.4-0.7,0.6-1.4,0.7-2.2
					l1.3-8.4c0.1-0.8,0.1-1.5,0-2.2c-0.1-0.7-0.4-1.3-0.9-1.8c-0.4-0.5-1.1-0.9-1.8-1.2c-0.8-0.3-1.7-0.5-2.9-0.5
					c-1,0-1.8,0.1-2.6,0.3c-0.8,0.2-1.4,0.5-2,0.9c-0.3-0.4-0.7-0.7-1.1-0.9c-0.4-0.2-0.8-0.3-1.2-0.3c0,0.6,0,1.2,0,1.7
					c0,0.6-0.1,1.2-0.2,1.8l-3.6,22.1C466.7,168.2,466.4,169.4,466,170.5z"/>
				<path class="st0" d="M226.6,49.8c-1,0.5-2.6,1.2-4.3,2.7c-1.4,1.2-2.6,2.8-3.7,4.6c-1.1,1.8-1.8,3.9-2.2,6.3l-8.5,49.7
					c-0.4,2.5-1.3,4.5-2.7,5.8c-1.3,1.3-3.1,2-5.2,2c-2,0-3.5-0.7-4.3-2c-0.9-1.3-1.1-3.2-0.8-5.7L204,60c0.4-1.9,0.8-3.8,1.3-5.7
					c0.5-1.9,1.1-3.7,1.8-5.5c-1.3,0-2.7,0.3-4.2,0.9c-1.5,0.6-2.9,1.5-4.3,2.7c-1.4,1.2-2.6,2.8-3.7,4.6c-1.1,1.8-1.8,3.9-2.2,6.3
					l-8.6,49.8c-0.4,2.5-1.2,4.4-2.6,5.7c-1.3,1.3-3.1,2-5.2,2c-4.2,0-5.9-2.6-5-7.8l9-53c0,0,0,0,0-0.1c0.4-2.1,0.6-2.6,0.5-2.7
					c-0.2-0.1-0.6,1.5-2.2,2.7c-0.7,0.6-1.5,0.8-2,1c-0.5,0.2-1.6,0.6-3,0.5c-2-0.1-2.5-0.9-3.4-0.6c-0.5,0.2-1.1,0.7-1.4,2.4
					l-8.5,49.1c-0.8,4.7,0.1,8.3,2.8,10.8c2.6,2.5,6.7,3.7,12.1,3.7c4.9,0,9-1,12.3-3c2.6,2,6.4,3,11.4,3c5.4,0,9.9-1.2,13.3-3.7
					c3.4-2.5,5.6-6.1,6.4-10.8l9-52.5c0.4-1.9,0.8-3.8,1.2-5.7c0.3-1.1,0.4-1.4,0.5-1.8c0.8-2.1,2-3.6,2.9-4.5
					C229.8,48.4,227.9,49.1,226.6,49.8"/>
				<path class="st2" d="M226.6,49.8c-1,0.5-2.6,1.2-4.3,2.7c-1.4,1.2-2.6,2.8-3.7,4.6c-1.1,1.8-1.8,3.9-2.2,6.3l-8.5,49.7
					c-0.4,2.5-1.3,4.5-2.7,5.8c-1.3,1.3-3.1,2-5.2,2c-2,0-3.5-0.7-4.3-2c-0.9-1.3-1.1-3.2-0.8-5.7L204,60c0.4-1.9,0.8-3.8,1.3-5.7
					c0.5-1.9,1.1-3.7,1.8-5.5c-1.3,0-2.7,0.3-4.2,0.9c-1.5,0.6-2.9,1.5-4.3,2.7c-1.4,1.2-2.6,2.8-3.7,4.6c-1.1,1.8-1.8,3.9-2.2,6.3
					l-8.6,49.8c-0.4,2.5-1.2,4.4-2.6,5.7c-1.3,1.3-3.1,2-5.2,2c-4.2,0-5.9-2.6-5-7.8l9-53c0,0,0,0,0-0.1c0.4-2.1,0.6-2.6,0.5-2.7
					c-0.2-0.1-0.6,1.5-2.2,2.7c-0.7,0.6-1.5,0.8-2,1c-0.5,0.2-1.6,0.6-3,0.5c-2-0.1-2.5-0.9-3.4-0.6c-0.5,0.2-1.1,0.7-1.4,2.4
					l-8.5,49.1c-0.8,4.7,0.1,8.3,2.8,10.8c2.6,2.5,6.7,3.7,12.1,3.7c4.9,0,9-1,12.3-3c2.6,2,6.4,3,11.4,3c5.4,0,9.9-1.2,13.3-3.7
					c3.4-2.5,5.6-6.1,6.4-10.8l9-52.5c0.4-1.9,0.8-3.8,1.2-5.7c0.3-1.1,0.4-1.4,0.5-1.8c0.8-2.1,2-3.6,2.9-4.5
					C229.8,48.4,227.9,49.1,226.6,49.8z"/>
				<path class="st0" d="M243.7,63.8c-0.5,0.2-0.9,0.4-1.4,0.6c-2.1,1.2-4.1,3.3-4.6,5.6c-1.6,8-6,33.5-6,33.5
					c-1,8.8-3.7,16.6-10.2,23.1c3.7-0.2,6.4-0.5,7.2-0.7c0.9-0.2,1.6-0.4,1.6-0.4c0.2-0.1,0.4-0.1,0.6-0.2c1.5-0.6,2.9-1.4,4.3-2.6
					c1.4-1.2,2.6-2.6,3.6-4.4c1-1.7,1.8-3.7,2.2-6c3-16.7,6-33.4,9.1-50C248.9,62.5,246,63,243.7,63.8"/>
				<path class="st2" d="M243.7,63.8c-0.5,0.2-0.9,0.4-1.4,0.6c-2.1,1.2-4.1,3.3-4.6,5.6c-1.6,8-6,33.5-6,33.5
					c-1,8.8-3.7,16.6-10.2,23.1c3.7-0.2,6.4-0.5,7.2-0.7c0.9-0.2,1.6-0.4,1.6-0.4c0.2-0.1,0.4-0.1,0.6-0.2c1.5-0.6,2.9-1.4,4.3-2.6
					c1.4-1.2,2.6-2.6,3.6-4.4c1-1.7,1.8-3.7,2.2-6c3-16.7,6-33.4,9.1-50C248.9,62.5,246,63,243.7,63.8z"/>
				<path class="st0" d="M300.9,79.2c-0.4,2.4-1.3,4.7-2.4,6.8c-1.2,2.2-2.8,4.1-4.8,5.7c-2,1.6-4.5,2.9-7.4,3.9
					c-2.9,1-6.2,1.5-10,1.5c-4.1,0-7.5-0.6-10.4-1.8l-3,17.2c-0.4,2.4-1.2,4.5-2.2,6.3c-1.1,1.8-2.3,3.3-3.6,4.6
					c-0.6,0.5-2.1,1.7-4.3,2.7c-3.2,1.4-6.2,1.6-8,1.5c1.4-1,3.8-3.1,5.4-6.6c0.9-2,1.2-3.8,1.4-5.1l8.5-49.1
					c0.4-2.4,1.2-4.7,2.4-6.8c1.2-2.2,2.8-4.1,4.8-5.7c2-1.6,4.5-2.9,7.4-3.9c3.5-1.2,7.2-1.8,10.9-1.2c3.4,0.5,6.2,2.4,9.3,3.6
					c2.7,1.1,4.1,1.7,5.4,1.5c0.8-0.1,2.1-1,3.3-2.1c0.8-0.7,1.3-1.3,1.6-1.2c0.4,0.2,0,1.7-0.2,2.2c-0.8,2.8-1.5,5.5-1.9,8.4
					C302.2,67.4,302,73.4,300.9,79.2 M268.4,79.8c-0.2,1.3-0.3,2.6-0.3,3.9c0,1.3,0.4,2.5,1,3.6c0.6,1.1,1.6,2,2.8,2.7
					c1.3,0.7,3,1.1,5.3,1.1c2.2,0,4.1-0.4,5.7-1.1c1.5-0.7,2.8-1.6,3.7-2.7c1-1.1,1.7-2.3,2.2-3.6c0.5-1.3,0.9-2.6,1.1-3.9l2.4-13.6
					c0.2-1.3,0.3-2.5,0.2-3.9c-0.1-1.3-0.4-2.5-1-3.6c-0.6-1.1-1.6-2-2.8-2.7c-1.3-0.7-3-1.1-5.3-1.1c-2.2,0-4.1,0.4-5.6,1.1
					c-1.5,0.7-2.7,1.6-3.7,2.7c-1,1.1-1.7,2.3-2.2,3.6c-0.5,1.3-0.9,2.6-1.1,3.9L268.4,79.8z"/>
				<path class="st2" d="M300.9,79.2c-0.4,2.4-1.3,4.7-2.4,6.8c-1.2,2.2-2.8,4.1-4.8,5.7c-2,1.6-4.5,2.9-7.4,3.9
					c-2.9,1-6.2,1.5-10,1.5c-4.1,0-7.5-0.6-10.4-1.8l-3,17.2c-0.4,2.4-1.2,4.5-2.2,6.3c-1.1,1.8-2.3,3.3-3.6,4.6
					c-0.6,0.5-2.1,1.7-4.3,2.7c-3.2,1.4-6.2,1.6-8,1.5c1.4-1,3.8-3.1,5.4-6.6c0.9-2,1.2-3.8,1.4-5.1l8.5-49.1
					c0.4-2.4,1.2-4.7,2.4-6.8c1.2-2.2,2.8-4.1,4.8-5.7c2-1.6,4.5-2.9,7.4-3.9c3.5-1.2,7.2-1.8,10.9-1.2c3.4,0.5,6.2,2.4,9.3,3.6
					c2.7,1.1,4.1,1.7,5.4,1.5c0.8-0.1,2.1-1,3.3-2.1c0.8-0.7,1.3-1.3,1.6-1.2c0.4,0.2,0,1.7-0.2,2.2c-0.8,2.8-1.5,5.5-1.9,8.4
					C302.2,67.4,302,73.4,300.9,79.2z M268.4,79.8c-0.2,1.3-0.3,2.6-0.3,3.9c0,1.3,0.4,2.5,1,3.6c0.6,1.1,1.6,2,2.8,2.7
					c1.3,0.7,3,1.1,5.3,1.1c2.2,0,4.1-0.4,5.7-1.1c1.5-0.7,2.8-1.6,3.7-2.7c1-1.1,1.7-2.3,2.2-3.6c0.5-1.3,0.9-2.6,1.1-3.9l2.4-13.6
					c0.2-1.3,0.3-2.5,0.2-3.9c-0.1-1.3-0.4-2.5-1-3.6c-0.6-1.1-1.6-2-2.8-2.7c-1.3-0.7-3-1.1-5.3-1.1c-2.2,0-4.1,0.4-5.6,1.1
					c-1.5,0.7-2.7,1.6-3.7,2.7c-1,1.1-1.7,2.3-2.2,3.6c-0.5,1.3-0.9,2.6-1.1,3.9L268.4,79.8z"/>
				<path class="st0" d="M339.2,109.7c-0.2,1.3-0.3,2.6-0.3,3.9c0,1.3,0.4,2.5,1,3.6c0.6,1.1,1.6,2,2.8,2.7c1.3,0.7,3,1.1,5.3,1.1
					c2.4,0,4.3-0.3,5.9-0.9c1.5-0.6,2.7-1.4,3.6-2.4c0.9-1,1.6-2.2,2.1-3.5c0.5-1.3,0.9-2.8,1.1-4.2v-0.4c0.2-1.2,0.8-2.3,1.9-3.4
					c1-1,2.2-2,3.5-2.7c1.3-0.8,2.6-1.4,4-1.8c1.4-0.4,2.5-0.6,3.4-0.6c-0.5,1.9-0.9,3.6-1.2,5.1c-0.3,1.5-0.6,3.3-1,5.2
					c-0.4,2.2-1.2,4.2-2.4,6.1c-1.3,1.9-2.9,3.6-5,5.1c-2.1,1.5-4.5,2.6-7.4,3.4c-2.9,0.8-6,1.2-9.5,1.2c-3.8,0-6.9-0.5-9.5-1.5
					c-2.6-1-4.6-2.3-6.1-3.9c-1.5-1.6-2.5-3.5-2.9-5.7c-0.5-2.2-0.5-4.4-0.1-6.8l7.3-42.4c0.4-2.4,1.2-4.7,2.4-6.8
					c1.2-2.2,2.8-4.1,4.8-5.7c2-1.6,4.5-2.9,7.4-3.9c2.9-1,6.2-1.5,10-1.5c3.5,0,6.5,0.4,9.1,1.2c2.6,0.8,4.6,2,6.2,3.4
					c1.6,1.5,2.6,3.1,3.3,5.1c0.6,1.9,0.7,4,0.4,6.1c-0.4,1.9-0.6,3.7-0.8,5.2c-0.2,1.5-0.3,3.2-0.5,5.1c-0.9,0-1.9-0.2-3.2-0.6
					c-1.2-0.4-2.4-1-3.4-1.8c-1.1-0.8-1.9-1.7-2.6-2.7c-0.7-1-0.9-2.2-0.7-3.4l0.1-0.4c0.2-1.5,0.3-2.9,0.3-4.2
					c0-1.3-0.3-2.5-0.9-3.5c-0.6-1-1.5-1.8-2.8-2.4c-1.3-0.6-3.2-0.9-5.5-0.9c-2.2,0-4.1,0.4-5.6,1.1c-1.5,0.7-2.7,1.6-3.7,2.7
					c-1,1.1-1.7,2.3-2.2,3.6c-0.5,1.3-0.9,2.6-1.1,3.9L339.2,109.7z"/>
				<path class="st2" d="M339.2,109.7c-0.2,1.3-0.3,2.6-0.3,3.9c0,1.3,0.4,2.5,1,3.6c0.6,1.1,1.6,2,2.8,2.7c1.3,0.7,3,1.1,5.3,1.1
					c2.4,0,4.3-0.3,5.9-0.9c1.5-0.6,2.7-1.4,3.6-2.4c0.9-1,1.6-2.2,2.1-3.5c0.5-1.3,0.9-2.8,1.1-4.2v-0.4c0.2-1.2,0.8-2.3,1.9-3.4
					c1-1,2.2-2,3.5-2.7c1.3-0.8,2.6-1.4,4-1.8c1.4-0.4,2.5-0.6,3.4-0.6c-0.5,1.9-0.9,3.6-1.2,5.1c-0.3,1.5-0.6,3.3-1,5.2
					c-0.4,2.2-1.2,4.2-2.4,6.1c-1.3,1.9-2.9,3.6-5,5.1c-2.1,1.5-4.5,2.6-7.4,3.4c-2.9,0.8-6,1.2-9.5,1.2c-3.8,0-6.9-0.5-9.5-1.5
					c-2.6-1-4.6-2.3-6.1-3.9c-1.5-1.6-2.5-3.5-2.9-5.7c-0.5-2.2-0.5-4.4-0.1-6.8l7.3-42.4c0.4-2.4,1.2-4.7,2.4-6.8
					c1.2-2.2,2.8-4.1,4.8-5.7c2-1.6,4.5-2.9,7.4-3.9c2.9-1,6.2-1.5,10-1.5c3.5,0,6.5,0.4,9.1,1.2c2.6,0.8,4.6,2,6.2,3.4
					c1.6,1.5,2.6,3.1,3.3,5.1c0.6,1.9,0.7,4,0.4,6.1c-0.4,1.9-0.6,3.7-0.8,5.2c-0.2,1.5-0.3,3.2-0.5,5.1c-0.9,0-1.9-0.2-3.2-0.6
					c-1.2-0.4-2.4-1-3.4-1.8c-1.1-0.8-1.9-1.7-2.6-2.7c-0.7-1-0.9-2.2-0.7-3.4l0.1-0.4c0.2-1.5,0.3-2.9,0.3-4.2
					c0-1.3-0.3-2.5-0.9-3.5c-0.6-1-1.5-1.8-2.8-2.4c-1.3-0.6-3.2-0.9-5.5-0.9c-2.2,0-4.1,0.4-5.6,1.1c-1.5,0.7-2.7,1.6-3.7,2.7
					c-1,1.1-1.7,2.3-2.2,3.6c-0.5,1.3-0.9,2.6-1.1,3.9L339.2,109.7z"/>
				<path class="st0" d="M387.3,80.9c0.4-2.2,1.2-4.2,2.4-6.1c1.3-1.9,2.9-3.6,5-5.1c2.1-1.5,4.5-2.6,7.4-3.4c2.9-0.8,6-1.2,9.5-1.2
					c3.8,0,6.9,0.5,9.5,1.5c2.6,1,4.6,2.3,6.1,3.9c1.5,1.6,2.5,3.5,2.9,5.7c0.5,2.2,0.5,4.4,0.1,6.8l-7.5,44.1
					c-1.3,0-2.5-0.3-3.7-0.9c-1.2-0.6-2-1.5-2.6-2.8c-2,1.2-4.2,2.1-6.8,2.7c-2.6,0.6-5.4,0.9-8.5,0.9c-3.8,0-6.9-0.5-9.5-1.5
					c-2.6-1-4.6-2.3-6.1-3.9c-1.5-1.6-2.5-3.5-2.9-5.7c-0.5-2.2-0.5-4.4-0.1-6.8l0.5-3.5c0.4-2.4,1.2-4.7,2.4-6.8
					c1.2-2.2,2.8-4.1,4.8-5.7c2-1.6,4.5-2.9,7.4-3.9c2.9-1,6.2-1.5,10-1.5c1.7,0,3.5,0.3,5.5,0.9c2,0.6,3.6,1.5,4.7,2.5l1.5-8.9
					c0.2-1.3,0.3-2.5,0.2-3.9c-0.1-1.3-0.4-2.5-1-3.6c-0.6-1.1-1.5-2-2.8-2.7c-1.3-0.7-3-1.1-5.3-1.1c-2.4,0-4.3,0.3-5.9,0.9
					c-1.5,0.6-2.8,1.4-3.7,2.4c-0.9,1-1.6,2.2-2.1,3.5c-0.4,1.3-0.8,2.8-1.1,4.2v0.4c-0.2,1.2-0.9,2.3-1.9,3.4c-1.1,1-2.2,2-3.5,2.7
					c-1.3,0.8-2.6,1.4-4,1.8c-1.4,0.4-2.5,0.6-3.4,0.6c0.5-1.9,0.9-3.6,1.2-5.1C386.6,84.6,387,82.9,387.3,80.9 M393.3,109.7
					c-0.2,1.3-0.3,2.6-0.3,3.9c0,1.3,0.4,2.5,1,3.6c0.6,1.1,1.6,2,2.8,2.7c1.3,0.7,3,1.1,5.3,1.1c2.4,0,4.3-0.3,5.9-0.9
					c1.5-0.6,2.7-1.4,3.6-2.4c0.9-1,1.6-2.2,2.1-3.5c0.5-1.3,0.9-2.8,1.1-4.2l0.8-4.7c0.2-1.3,0.3-2.5,0.2-3.9
					c-0.1-1.3-0.4-2.5-1-3.6c-0.6-1.1-1.5-2-2.8-2.7c-1.3-0.7-3-1.1-5.3-1.1c-2.2,0-4.1,0.4-5.7,1.1c-1.5,0.7-2.8,1.6-3.7,2.7
					c-1,1.1-1.7,2.3-2.2,3.6c-0.5,1.3-0.9,2.6-1.1,3.9L393.3,109.7z"/>
				<path class="st2" d="M387.3,80.9c0.4-2.2,1.2-4.2,2.4-6.1c1.3-1.9,2.9-3.6,5-5.1c2.1-1.5,4.5-2.6,7.4-3.4c2.9-0.8,6-1.2,9.5-1.2
					c3.8,0,6.9,0.5,9.5,1.5c2.6,1,4.6,2.3,6.1,3.9c1.5,1.6,2.5,3.5,2.9,5.7c0.5,2.2,0.5,4.4,0.1,6.8l-7.5,44.1
					c-1.3,0-2.5-0.3-3.7-0.9c-1.2-0.6-2-1.5-2.6-2.8c-2,1.2-4.2,2.1-6.8,2.7c-2.6,0.6-5.4,0.9-8.5,0.9c-3.8,0-6.9-0.5-9.5-1.5
					c-2.6-1-4.6-2.3-6.1-3.9c-1.5-1.6-2.5-3.5-2.9-5.7c-0.5-2.2-0.5-4.4-0.1-6.8l0.5-3.5c0.4-2.4,1.2-4.7,2.4-6.8
					c1.2-2.2,2.8-4.1,4.8-5.7c2-1.6,4.5-2.9,7.4-3.9c2.9-1,6.2-1.5,10-1.5c1.7,0,3.5,0.3,5.5,0.9c2,0.6,3.6,1.5,4.7,2.5l1.5-8.9
					c0.2-1.3,0.3-2.5,0.2-3.9c-0.1-1.3-0.4-2.5-1-3.6c-0.6-1.1-1.5-2-2.8-2.7c-1.3-0.7-3-1.1-5.3-1.1c-2.4,0-4.3,0.3-5.9,0.9
					c-1.5,0.6-2.8,1.4-3.7,2.4c-0.9,1-1.6,2.2-2.1,3.5c-0.4,1.3-0.8,2.8-1.1,4.2v0.4c-0.2,1.2-0.9,2.3-1.9,3.4c-1.1,1-2.2,2-3.5,2.7
					c-1.3,0.8-2.6,1.4-4,1.8c-1.4,0.4-2.5,0.6-3.4,0.6c0.5-1.9,0.9-3.6,1.2-5.1C386.6,84.6,387,82.9,387.3,80.9z M393.3,109.7
					c-0.2,1.3-0.3,2.6-0.3,3.9c0,1.3,0.4,2.5,1,3.6c0.6,1.1,1.6,2,2.8,2.7c1.3,0.7,3,1.1,5.3,1.1c2.4,0,4.3-0.3,5.9-0.9
					c1.5-0.6,2.7-1.4,3.6-2.4c0.9-1,1.6-2.2,2.1-3.5c0.5-1.3,0.9-2.8,1.1-4.2l0.8-4.7c0.2-1.3,0.3-2.5,0.2-3.9
					c-0.1-1.3-0.4-2.5-1-3.6c-0.6-1.1-1.5-2-2.8-2.7c-1.3-0.7-3-1.1-5.3-1.1c-2.2,0-4.1,0.4-5.7,1.1c-1.5,0.7-2.8,1.6-3.7,2.7
					c-1,1.1-1.7,2.3-2.2,3.6c-0.5,1.3-0.9,2.6-1.1,3.9L393.3,109.7z"/>
				<path class="st0" d="M499.4,146.1c3.3-11.8,10.8-63.6,12-69.9c0.1-0.5,0.5-2.7,0.8-5.7c0.1-1.9,0.1-3.7,0-5.5
					c1.3,0,2.6,0.3,3.9,1c1.3,0.7,2.5,1.6,3.5,2.9c2-1.3,4.2-2.2,6.7-2.9c2.5-0.7,5.4-1,8.6-1c3.8,0,6.9,0.5,9.5,1.5
					c2.6,1,4.6,2.3,6.1,3.9c1.5,1.6,2.5,3.5,2.9,5.7c0.5,2.2,0.5,4.4,0.1,6.8l-4.5,26.2c-0.4,2.4-1.3,4.7-2.4,6.8
					c-1.2,2.2-2.8,4.1-4.8,5.7c-2,1.6-4.5,2.9-7.4,3.9c-2.9,1-6.2,1.5-10,1.5c-2.1,0-4-0.1-5.8-0.4c-1.7-0.3-3.3-0.7-4.8-1.3
					l-2.8,17c-0.4,2.4-1.2,4.5-2.3,6.3c-0.8,1.4-1.8,3.1-3.7,4.6c-1.6,1.2-3,1.7-4.2,2.1c-1.6,0.5-4.2,1.2-7.7,1
					c1.2-1.1,2.7-2.7,4.1-4.9C498.5,149.2,499.1,147.3,499.4,146.1 M516.6,109.7c-0.2,1.3-0.3,2.6-0.3,3.9c0,1.3,0.4,2.5,1,3.6
					c0.6,1.1,1.6,2,2.8,2.7c1.3,0.7,3,1.1,5.3,1.1c2.2,0,4.1-0.4,5.6-1.1c1.5-0.7,2.8-1.6,3.8-2.7c1-1.1,1.7-2.3,2.2-3.6
					c0.5-1.3,0.9-2.6,1.1-3.9l4.7-27.4c0.2-1.3,0.3-2.5,0.2-3.9c-0.1-1.3-0.4-2.5-1-3.6c-0.6-1.1-1.5-2-2.8-2.7
					c-1.3-0.7-3-1.1-5.3-1.1c-2.1,0-3.9,0.3-5.4,0.9c-1.5,0.6-2.7,1.5-3.7,2.5c-1,1-1.8,2.1-2.3,3.3c-0.6,1.2-1,2.4-1.2,3.6
					L516.6,109.7z"/>
				<path class="st2" d="M499.4,146.1c3.3-11.8,10.8-63.6,12-69.9c0.1-0.5,0.5-2.7,0.8-5.7c0.1-1.9,0.1-3.7,0-5.5
					c1.3,0,2.6,0.3,3.9,1c1.3,0.7,2.5,1.6,3.5,2.9c2-1.3,4.2-2.2,6.7-2.9c2.5-0.7,5.4-1,8.6-1c3.8,0,6.9,0.5,9.5,1.5
					c2.6,1,4.6,2.3,6.1,3.9c1.5,1.6,2.5,3.5,2.9,5.7c0.5,2.2,0.5,4.4,0.1,6.8l-4.5,26.2c-0.4,2.4-1.3,4.7-2.4,6.8
					c-1.2,2.2-2.8,4.1-4.8,5.7c-2,1.6-4.5,2.9-7.4,3.9c-2.9,1-6.2,1.5-10,1.5c-2.1,0-4-0.1-5.8-0.4c-1.7-0.3-3.3-0.7-4.8-1.3
					l-2.8,17c-0.4,2.4-1.2,4.5-2.3,6.3c-0.8,1.4-1.8,3.1-3.7,4.6c-1.6,1.2-3,1.7-4.2,2.1c-1.6,0.5-4.2,1.2-7.7,1
					c1.2-1.1,2.7-2.7,4.1-4.9C498.5,149.2,499.1,147.3,499.4,146.1z M516.6,109.7c-0.2,1.3-0.3,2.6-0.3,3.9c0,1.3,0.4,2.5,1,3.6
					c0.6,1.1,1.6,2,2.8,2.7c1.3,0.7,3,1.1,5.3,1.1c2.2,0,4.1-0.4,5.6-1.1c1.5-0.7,2.8-1.6,3.8-2.7c1-1.1,1.7-2.3,2.2-3.6
					c0.5-1.3,0.9-2.6,1.1-3.9l4.7-27.4c0.2-1.3,0.3-2.5,0.2-3.9c-0.1-1.3-0.4-2.5-1-3.6c-0.6-1.1-1.5-2-2.8-2.7
					c-1.3-0.7-3-1.1-5.3-1.1c-2.1,0-3.9,0.3-5.4,0.9c-1.5,0.6-2.7,1.5-3.7,2.5c-1,1-1.8,2.1-2.3,3.3c-0.6,1.2-1,2.4-1.2,3.6
					L516.6,109.7z"/>
			</g>
			<g>
				<path class="st0" d="M611.5,51.8l5-13.7c0.9-2.4,6.1-4.5,9.7-4l-6.4,17.8h10.6l4.9-13.7c0.9-2.4,6.2-4.5,9.7-4l-6.3,17.8h9
					c-0.6,3.6-4.5,8.1-6.9,8.1h-5L630.2,76h9c-0.7,3.6-4.5,8.1-6.9,8.1h-5l-5.6,15.9c-1,2.5-6.2,4.8-9.7,4l7-19.9h-10.5l-5.7,15.9
					c-0.9,2.5-6.1,4.8-9.6,4l7-19.9h-8.1c0.6-3.6,4.5-8.1,6.9-8.1h3.9l5.7-16.1h-9.1c0.6-3.6,4.5-8.1,7-8.1H611.5z M611.3,76h10.6
					l5.6-16.1h-10.5L611.3,76z"/>
			</g>
			<g>
				<path class="st2" d="M616.9,59.9h10.5L621.9,76h-10.6L616.9,59.9z M606.6,51.8c-0.6,0-1.3,0.3-2.1,0.8c-0.8,0.5-1.5,1.2-2.2,1.9
					c-0.7,0.8-1.3,1.6-1.8,2.6c-0.5,1-0.8,1.9-1,2.8h9.1L603,76h-3.9c-0.6,0-1.3,0.3-2,0.8c-0.7,0.5-1.4,1.2-2.1,1.9
					c-0.7,0.8-1.3,1.6-1.8,2.6c-0.5,1-0.8,1.9-1,2.8h8.1l-7,19.9c0.9,0.2,1.8,0.2,2.8,0.1c1-0.2,2-0.5,2.9-0.9
					c0.9-0.4,1.8-0.9,2.5-1.4c0.7-0.6,1.2-1.1,1.4-1.8l5.7-15.9H619l-7,19.9c0.9,0.2,1.8,0.2,2.8,0.1c1-0.2,2-0.5,2.9-0.9
					c0.9-0.4,1.8-0.9,2.5-1.4c0.7-0.6,1.2-1.1,1.5-1.8l5.6-15.9h5c0.6,0,1.3-0.3,2-0.8c0.7-0.5,1.4-1.2,2.1-1.9
					c0.7-0.8,1.2-1.6,1.8-2.6c0.5-1,0.9-1.9,1.1-2.8h-9l5.6-16.1h5c0.6,0,1.3-0.3,2-0.8c0.7-0.5,1.4-1.2,2.1-1.9
					c0.7-0.8,1.3-1.6,1.8-2.6c0.5-1,0.8-1.9,1-2.8h-9l6.3-17.8c-0.9-0.1-1.9-0.1-2.9,0.1c-1,0.2-2,0.5-2.9,0.9
					c-0.9,0.4-1.8,0.9-2.5,1.4c-0.7,0.5-1.2,1.1-1.4,1.7l-4.9,13.7h-10.6l6.4-17.8c-0.9-0.1-1.9-0.1-2.9,0.1c-1,0.2-2,0.5-2.9,0.9
					c-0.9,0.4-1.8,0.9-2.5,1.4c-0.7,0.5-1.2,1.1-1.4,1.7l-5,13.7H606.6z"/>
				<path class="st0" d="M668.2,40.6c-2.3,1.5-4.5,2.2-6.9,2.2c-2.9,0-5.5-1.2-7.9-3.6l18.7-12c1-0.7,1.9-1.3,2.7-1.7
					c0.8-0.5,1.6-0.8,2.4-1c0.8-0.2,1.6-0.4,2.5-0.5c0.9-0.1,1.8-0.1,2.9-0.1L671,90.1c-0.1,1.4-0.6,3.9-2.4,6.6
					c-0.5,0.7-1.8,2.5-4.2,4.1c-1.9,1.2-3.6,1.7-4.6,2c-2.7,0.7-5.2,0.7-7,0.4c0.9-0.9,1.8-1.9,2.7-3.2c1.7-2.3,2.7-4.6,3.4-6.4
					L668.2,40.6z"/>
				<path class="st2" d="M668.2,40.6c-2.3,1.5-4.5,2.2-6.9,2.2c-2.9,0-5.5-1.2-7.9-3.6l18.7-12c1-0.7,1.9-1.3,2.7-1.7
					c0.8-0.5,1.6-0.8,2.4-1c0.8-0.2,1.6-0.4,2.5-0.5c0.9-0.1,1.8-0.1,2.9-0.1L671,90.1c-0.1,1.4-0.6,3.9-2.4,6.6
					c-0.5,0.7-1.8,2.5-4.2,4.1c-1.9,1.2-3.6,1.7-4.6,2c-2.7,0.7-5.2,0.7-7,0.4c0.9-0.9,1.8-1.9,2.7-3.2c1.7-2.3,2.7-4.6,3.4-6.4
					L668.2,40.6z"/>
				<path class="st0" d="M737,34.4c-0.5-2.2-1.6-4.2-3.1-5.9c-1.6-1.7-3.8-3.1-6.5-4.1c-2.8-1-6.1-1.5-10.2-1.5
					c-4,0-7.6,0.5-10.7,1.5c-3.1,1-5.7,2.4-7.9,4.1c-2.2,1.7-3.9,3.7-5.2,5.9c-1.3,2.3-2.1,4.6-2.6,7.1L683,85.6
					c-0.5,2.5-0.4,4.8,0.1,7.1c0.5,2.3,1.5,4.2,3.1,5.9c1.6,1.7,3.8,3.1,6.5,4.1c2.8,1,6.1,1.5,10.2,1.5c4,0,7.6-0.5,10.7-1.5
					c3.1-1,5.7-2.4,7.9-4.1c2.2-1.7,3.9-3.7,5.2-5.9c1.3-2.2,2.2-4.6,2.6-7.1l7.8-44.2C737.5,39,737.5,36.6,737,34.4 M725.7,40.9
					c-0.4,3.9-1.4,7.8-2.1,11.5c-1,5.5-2,11-3,16.6c-1,5.7-2,11.4-3,17.2c0,0,0,0.1,0,0.1c-0.2,1.3-0.6,2.7-1.2,4
					c-0.5,1.4-1.3,2.6-2.4,3.7c-1,1.1-2.4,2.1-4,2.8c-1.6,0.7-3.6,1.1-6,1.1c-2.4,0-4.3-0.4-5.6-1.1c-1.4-0.7-2.4-1.7-3-2.8
					c-1.4-2.4-1.1-5-0.7-8.3c1.1-8.4,2.6-16.8,4.2-25.1c0.9-4.8,1.7-9.7,2.6-14.6c0.9-4.3,1.5-9.4,4.6-12.8c1-1.1,2.4-2.1,4-2.8
					c1.6-0.7,3.6-1.1,6-1.1c2.4,0,4.3,0.4,5.6,1.1c1.4,0.7,2.4,1.7,3,2.8c0.7,1.1,1,2.4,1.1,3.7C725.9,38.2,725.8,39.5,725.7,40.9"
					/>
				<path class="st2" d="M737,34.4c-0.5-2.2-1.6-4.2-3.1-5.9c-1.6-1.7-3.8-3.1-6.5-4.1c-2.8-1-6.1-1.5-10.2-1.5
					c-4,0-7.6,0.5-10.7,1.5c-3.1,1-5.7,2.4-7.9,4.1c-2.2,1.7-3.9,3.7-5.2,5.9c-1.3,2.3-2.1,4.6-2.6,7.1L683,85.6
					c-0.5,2.5-0.4,4.8,0.1,7.1c0.5,2.3,1.5,4.2,3.1,5.9c1.6,1.7,3.8,3.1,6.5,4.1c2.8,1,6.1,1.5,10.2,1.5c4,0,7.6-0.5,10.7-1.5
					c3.1-1,5.7-2.4,7.9-4.1c2.2-1.7,3.9-3.7,5.2-5.9c1.3-2.2,2.2-4.6,2.6-7.1l7.8-44.2C737.5,39,737.5,36.6,737,34.4z M725.7,40.9
					c-0.4,3.9-1.4,7.8-2.1,11.5c-1,5.5-2,11-3,16.6c-1,5.7-2,11.4-3,17.2c0,0,0,0.1,0,0.1c-0.2,1.3-0.6,2.7-1.2,4
					c-0.5,1.4-1.3,2.6-2.4,3.7c-1,1.1-2.4,2.1-4,2.8c-1.6,0.7-3.6,1.1-6,1.1c-2.4,0-4.3-0.4-5.6-1.1c-1.4-0.7-2.4-1.7-3-2.8
					c-1.4-2.4-1.1-5-0.7-8.3c1.1-8.4,2.6-16.8,4.2-25.1c0.9-4.8,1.7-9.7,2.6-14.6c0.9-4.3,1.5-9.4,4.6-12.8c1-1.1,2.4-2.1,4-2.8
					c1.6-0.7,3.6-1.1,6-1.1c2.4,0,4.3,0.4,5.6,1.1c1.4,0.7,2.4,1.7,3,2.8c0.7,1.1,1,2.4,1.1,3.7C725.9,38.2,725.8,39.5,725.7,40.9z"
					/>
				<path class="st0" d="M181.8,59.1c1.8-4.1,1.5-8.2-0.8-10.2c-0.5-0.4-1.3-1-2.6-1.2c0,0-9.4,1.1-11.7-3.7
					c-0.9,3.8-1.4,8.8,1.5,11.9c1.7,1.8,5.6,3.4,7.9,2c2.2-1.4,1.4-4.8,1.4-4.8c0.8-0.2,1.6,0,2.1,0.5c0.8,0.9,0,2.7-0.3,3.2
					c-0.3,0.6-0.7,1-0.9,1.3c-0.8,0.9-1.6,1.4-2.2,1.7C178.2,59.5,180,59.3,181.8,59.1"/>
				<path class="st0" d="M239.5,70c1.6-0.6,2.9-0.5,4.6-0.7c1.5-0.2,3-0.4,4.6-0.6l1.7-6.7c0,0,0,0,0-0.1c0.6-2,0.8-2.6,0.7-2.6
					c-0.2-0.1-0.7,1.5-2.4,2.5c-0.8,0.5-1.5,0.7-2,0.9c-0.5,0.1-1.6,0.4-3,0.3c-2-0.2-2.5-1.1-3.4-0.8c-0.5,0.2-1.1,0.6-1.5,2.3
					c-0.4,2.1-0.7,4.3-1.1,6.4C238,70.7,238.7,70.3,239.5,70"/>
				<path class="st2" d="M239.5,70c1.6-0.6,2.9-0.5,4.6-0.7c1.5-0.2,3-0.4,4.6-0.6l1.7-6.7c0,0,0,0,0-0.1c0.6-2,0.8-2.6,0.7-2.6
					c-0.2-0.1-0.7,1.5-2.4,2.5c-0.8,0.5-1.5,0.7-2,0.9c-0.5,0.1-1.6,0.4-3,0.3c-2-0.2-2.5-1.1-3.4-0.8c-0.5,0.2-1.1,0.6-1.5,2.3
					c-0.4,2.1-0.7,4.3-1.1,6.4C238,70.7,238.7,70.3,239.5,70z"/>
				<path class="st0" d="M251.9,61.2c2.1-4,2.1-8.1,0-10.2c-0.4-0.4-1.2-1.1-2.5-1.4c0,0-9.5,0.3-11.3-4.6
					c-1.1,3.7-2.1,8.7,0.6,11.9c1.6,1.9,5.3,3.8,7.8,2.6c2.4-1.2,1.8-4.7,1.8-4.7c0.8-0.1,1.6,0.1,2,0.7c0.8,1-0.2,2.7-0.5,3.2
					c-0.3,0.6-0.7,1-1,1.2c-0.8,0.8-1.7,1.3-2.3,1.5C248.3,61.3,250.1,61.2,251.9,61.2"/>
				<path class="st0" d="M539.1,64.7c0.1,0.2,0.2,0.4,0.3,0.7c1.1,0.2,2.1,0.9,2.8,2.4c0.1,0.2,0.2,0.3,0.2,0.5
					c1.5,0.4,2.9,1.4,3.4,3.2c0.8,3,1.8,5.8,2.5,8.8c0.2,0.7,0.2,1.4,0.1,2c0.9,0.4,1.9,1.1,3,1.9c0.9,0.7,1.6,1.5,2.2,2.1
					c0.2-0.8,0.5-1.9,0.7-3.3c0.8-3.7,0.6-4,1.2-6.9c1.4-7,1.8-8.4,1.8-8.4c0.2-0.6,0.5-2,0.2-2.2c-0.3-0.1-0.8,0.5-1.6,1.2
					c-1.2,1.1-2.6,1.9-3.3,2.1c-1.8,0.3-3.2-0.5-5.4-1.5C545.4,66.4,542.7,65.4,539.1,64.7"/>
				<path class="st3" d="M539.1,64.7c0.1,0.2,0.2,0.4,0.3,0.7c1.1,0.2,2.1,0.9,2.8,2.4c0.1,0.2,0.2,0.3,0.2,0.5
					c1.5,0.4,2.9,1.4,3.4,3.2c0.8,3,1.8,5.8,2.5,8.8c0.2,0.7,0.2,1.4,0.1,2c0.9,0.4,1.9,1.1,3,1.9c0.9,0.7,1.6,1.5,2.2,2.1
					c0.2-0.8,0.5-1.9,0.7-3.3c0.8-3.7,0.6-4,1.2-6.9c1.4-7,1.8-8.4,1.8-8.4c0.2-0.6,0.5-2,0.2-2.2c-0.3-0.1-0.8,0.5-1.6,1.2
					c-1.2,1.1-2.6,1.9-3.3,2.1c-1.8,0.3-3.2-0.5-5.4-1.5C545.4,66.4,542.7,65.4,539.1,64.7z"/>
				<path class="st0" d="M482.2,117.4c-1.8,6.3-1,11.2,1.3,12.2c0.7,0.3,1.5,0.2,3.4-0.4c2.4-0.8,5.7-1.9,9.6-3.6
					c-0.5,0-1.2-0.1-1.7-0.6c-0.5-0.4-0.8-1.1-0.8-3.1c0-1.9,0.4-3.2,0.7-4.6c0.3-1.1,0.6-2.8,0.9-4.9
					C491,114,486.6,115.7,482.2,117.4"/>
				<path class="st3" d="M482.2,117.4c-1.8,6.3-1,11.2,1.3,12.2c0.7,0.3,1.5,0.2,3.4-0.4c2.4-0.8,5.7-1.9,9.6-3.6
					c-0.5,0-1.2-0.1-1.7-0.6c-0.5-0.4-0.8-1.1-0.8-3.1c0-1.9,0.4-3.2,0.7-4.6c0.3-1.1,0.6-2.8,0.9-4.9
					C491,114,486.6,115.7,482.2,117.4z"/>
				<path class="st0" d="M497.3,70.3c-2.6-2.5-6.6-3.7-12.1-3.7c-4.9,0-8.9,1-12.2,3c-2.6-2-6.4-3-11.4-3c-4.5,0-8.4,0.9-11.8,2.8
					c-0.9-1-2-1.7-3.2-2.1c-1.2-0.4-2.3-0.7-3.4-0.7c0.1,1.8,0.1,3.6,0,5.5c-0.1,1.9-0.4,3.8-0.8,5.7l-6.8,39.6
					c-0.7,3.9-1.6,7.7-2.9,11.2c1.3,0,2.7-0.3,4.2-0.9c1.5-0.6,2.9-1.5,4.3-2.7c1.4-1.2,2.6-2.8,3.6-4.6c1-1.8,1.8-3.9,2.2-6.3
					l5.8-33.6c0.4-2.5,1.3-4.4,2.7-5.7c1.3-1.3,3.1-2,5.2-2c2,0,3.5,0.7,4.3,2c0.8,1.3,1.1,3.2,0.7,5.7l-6.3,37
					c-0.7,3.9-1.6,7.7-2.9,11.2c1.3,0,2.7-0.3,4.2-0.9c1.5-0.6,2.9-1.5,4.3-2.7c1.4-1.2,2.6-2.8,3.6-4.6c1-1.8,1.8-3.9,2.2-6.3
					l5.8-33.6c0.4-2.5,1.3-4.4,2.6-5.7c1.3-1.3,3-2,5.1-2c4.2,0,5.9,2.6,5,7.8l-6.3,36.9c0,0.1,0,0.1,0,0.2c0.4-0.1,0.9-0.2,1.4-0.2
					c2.6-0.1,5.2-0.7,8,0.1c0.2,0.1,0.3,0.1,0.4,0.1c0.1-0.5,0.2-1.1,0.6-1.8c0.3-0.7,0.7-1.2,1-1.6c1.9-11,3.9-22.1,5.8-33.1
					C500.9,76.4,500,72.8,497.3,70.3"/>
				<path class="st2" d="M497.3,70.3c-2.6-2.5-6.6-3.7-12.1-3.7c-4.9,0-8.9,1-12.2,3c-2.6-2-6.4-3-11.4-3c-4.5,0-8.4,0.9-11.8,2.8
					c-0.9-1-2-1.7-3.2-2.1c-1.2-0.4-2.3-0.7-3.4-0.7c0.1,1.8,0.1,3.6,0,5.5c-0.1,1.9-0.4,3.8-0.8,5.7l-6.8,39.6
					c-0.7,3.9-1.6,7.7-2.9,11.2c1.3,0,2.7-0.3,4.2-0.9c1.5-0.6,2.9-1.5,4.3-2.7c1.4-1.2,2.6-2.8,3.6-4.6c1-1.8,1.8-3.9,2.2-6.3
					l5.8-33.6c0.4-2.5,1.3-4.4,2.7-5.7c1.3-1.3,3.1-2,5.2-2c2,0,3.5,0.7,4.3,2c0.8,1.3,1.1,3.2,0.7,5.7l-6.3,37
					c-0.7,3.9-1.6,7.7-2.9,11.2c1.3,0,2.7-0.3,4.2-0.9c1.5-0.6,2.9-1.5,4.3-2.7c1.4-1.2,2.6-2.8,3.6-4.6c1-1.8,1.8-3.9,2.2-6.3
					l5.8-33.6c0.4-2.5,1.3-4.4,2.6-5.7c1.3-1.3,3-2,5.1-2c4.2,0,5.9,2.6,5,7.8l-6.3,36.9c0,0.1,0,0.1,0,0.2c0.4-0.1,0.9-0.2,1.4-0.2
					c2.6-0.1,5.2-0.7,8,0.1c0.2,0.1,0.3,0.1,0.4,0.1c0.1-0.5,0.2-1.1,0.6-1.8c0.3-0.7,0.7-1.2,1-1.6c1.9-11,3.9-22.1,5.8-33.1
					C500.9,76.4,500,72.8,497.3,70.3z"/>
				<path class="st0" d="M490.3,66.6c0.8,0.3,1.9,0.6,3.1,0.7c3.8,0.3,6.8-1.4,8.1-2.2c0,0,1.5,4.3-0.1,14.3
					C497.6,75.1,493.9,70.8,490.3,66.6"/>
				<path class="st3" d="M490.3,66.6c0.8,0.3,1.9,0.6,3.1,0.7c3.8,0.3,6.8-1.4,8.1-2.2c0,0,1.5,4.3-0.1,14.3
					C497.6,75.1,493.9,70.8,490.3,66.6z"/>
				<path class="st0" d="M420.2,67.4c1,0.3,2.3,0.5,3.8,0.5c3.7,0,6.6-1.3,8.1-2.2c0.2,1,0.4,2.2,0.6,3.4c0.4,4.4-0.2,8.2-1,10.9
					c-0.8-1.8-2.1-4.2-4.2-6.6C424.8,70.3,422.1,68.5,420.2,67.4"/>
				<path class="st3" d="M420.2,67.4c1,0.3,2.3,0.5,3.8,0.5c3.7,0,6.6-1.3,8.1-2.2c0.2,1,0.4,2.2,0.6,3.4c0.4,4.4-0.2,8.2-1,10.9
					c-0.8-1.8-2.1-4.2-4.2-6.6C424.8,70.3,422.1,68.5,420.2,67.4z"/>
				<path class="st0" d="M750,153.4c-4.5-9.2-15.5-11.3-24.1-5.6c-8.9,6-23.7,4.9-31.2-2.4c-4.2-4.1-5-10.9-1.9-16
					c2.7-4.5,7.1-5.8,12.3-3.7c-9.6,2.6-13.6,7.8-10.7,14.4c2.9,6.6,9,8.2,15.5,8.5c6,0.3,11-1.5,13.5-7.7
					c4.4-10.5,1.1-17.2-11.5-22.7c0.3-3.9-0.2-7.5-1.6-10.6c-4.8,2.2-12.1,0.8-16.6,0c-6.9-1.3-15.4-6.4-14.6-14.5
					c0.1-1.4,0.8-3.5-0.2-4.7c-2.1,1-2.7,4.2-3.7,6.1c-1.9,3.5-2.1,4.9-3.9,7c-1.7,1.9-3.4,3-4.5,3.7c-1.1,0.7-3.7,2.1-7.6,2.8
					c-6.1,1.1-14.1,0.3-14.6-2.2c-0.2-0.7,0.7-1.6,2.3-3.5c2.5-2.9,4-3.3,5.7-5.7c0.3-0.4,1-1.4,1.9-3.8c1.5-3.8,4.5-13.7,1.9-15.2
					c-1.6-0.9-4.9,1.7-9.9,5.7c-3.9,3.1-5.5,6.2-7.3,6.2c-0.4,0-0.6-0.1-1-0.3c-1.7-0.7-4.3-1.3-8.3-1.2c-0.9,3.7-2,6.6-2.8,8.5
					c0,0-1.4,3.3-4.6,8.9c-0.1,0.1-0.1,0.2-0.1,0.2c-0.2,0.4-0.3,0.7-0.6,1c-0.4,0.9-1.2,1.8-2,2.3c-0.9,0.5-1.8,0.6-2.8,0.6
					c0,0,0,0,0,0c0.1,0,0.1,0,0.2,0c-0.1,0-0.2,0-0.2,0c-1.1,0.6-2.5,0.8-3.7,0.5c-0.1,0-0.2-0.1-0.3-0.1c0.8,4.9,3.9,8.3,9,9.8
					c4.7,1.4,8.5,0.2,11.5-3.5c4.5-5.5,2.1-10.1-2-14.7c5.3,1.7,7.5,5.3,6.9,10.5c-0.6,6.1-4.1,9.8-10.1,11
					c-4.4,0.8-8.1,0.3-11.1-1.4c-4.2-2.4-5.5-6.8-7.9-14.2c-1.2-3.6-1.8-6.7-2.2-8.8c-0.6,1.6-1.8,3.9-4,5.9
					c-0.3,0.3-6.2,5.6-11.1,3.5c-1.5-0.6-3.4-2.1-3.3-3.5c0-0.6,0.6-2.3,0.6-2.4c0.1-0.3,0.2-0.6,0.3-0.9c0-0.1,0-0.1,0.1-0.2
					c-0.1,0.3,0.1-0.4,0.2-0.7c-1.7,0.5-3.4,0.9-4.9,0.7c-13-2-20.9,5.5-19.2,18.5c0.1,1,0.2,2,0.3,3.2c-1.8,0.4-3.3,0.6-4.7,0.9
					c-8.4,2.1-13.3,9.7-11.4,17.4c2,7.6,13,13.5,21.4,11.3c5.6-1.5,8.2-5.1,7.7-11c-0.4-4.4-2.6-7.5-7.1-7.8
					c-5.6-0.3-8.7,2.9-9.2,8.6c-2.6-5.8,0.8-11,7-11.8c6.4-0.7,12.9,3.9,14,9.8c1.2,6.4-2.9,13.4-9.2,15.1
					c-9.6,2.5-17.5-0.7-24.8-7.2c-11-9.7-31.1-11-42.8-2.8c-10.4,7.3-20.6,14.8-30,21.6c1.6-0.2,5.1,0.1,8.1-1.1
					c7.1-2.9,14.3-5.9,20.9-9.9c16.1-9.8,31.2-9,45.9,2.8c4.5,3.6,9.2,7.2,14.3,9.8c13.8,7,27.5,6.6,41-1.8
					c-8.3-8.3-9.2-13.7-4.1-23.4c6.5-12.5,14.4-15.8,31.3-12.9c11.4-14.9,30.3-14.1,40.1,1.6c1.1,1.8,3.2,3.2,5.2,4.3
					c6.9,3.8,11.2,13.3,8.8,20.3c-2.4,7.2-8.1,9.7-17.9,7.8c-0.3-0.1-0.8,0.3-1.6,0.6c-12,25.7-35.3,30.5-62.7,30.7
					c22.9,8.2,47.1,3.1,63.6-10.8c7.6-6.4,16.4-11.8,25.5-15.5c9.7-3.9,19.5-0.1,27.9,5.6c3.8,2.6,4.1,4.9,2.3,8.7
					c-1.8-7.3-5.7-10.1-12.5-7.3c-3.6,1.5-7.5,5.3-8.8,9c-2.1,5.9,1.1,11.3,6.1,15.1c7.4,5.7,20.6,6.7,28.1,2.1
					c7.9-4.9,12.2-15.9,9.7-26.1c-1-3.9-0.7-6.7,1.5-10.5C751.5,162.6,751.7,156.8,750,153.4"/>
				<path class="st0" d="M667.6,159.2c-10.8,25.5-33,32.1-57.8,32.7c-22,0.5-43.2-3.7-61.6-17c-2.6-1.9-5.4-3.6-7.9-5.5
					c-6.9-5.2-14.5-6.4-22.6-3.9c-5.9,1.8-11.8,4.1-17.5,6.5c-12.5,5.4-24.2,2.8-35.8-3.1c17.2,3.4,31.9-2.2,45.8-11.8
					c11.7-8,25.8-6.5,38.1,3.8c10.1,8.5,20.9,15.6,34.5,15.5c7.1-0.1,14.3-1.8,21-4c4.1-1.3,7.3-3.4,12.1-2.1
					c4.9,1.3,9.3-0.7,12.1-5.2c2.7-4.4,3.6-9.3,0.4-13.3c-2.1-2.7-6.1-4.9-9.4-5.1c-2.2-0.1-4.5,3.8-6.8,5.9
					c0.4,0.4,0.8,0.8,1.1,1.2c2.2-1.2,4.8-3.8,6.4-3.2c2.7,1,5.9,3.6,6.6,6.1c1.2,4.5-1.1,8.5-6.2,9.7c-8.4,2-17.5-7-16-15.5
					c2.2-11.8,13-19.6,24.7-17.1c4.3,0.9,6.4-0.1,9.2-3.1c9.7-10.7,26.9-8.1,33.7,4.6c1.1,2,3.3,3.5,5.4,4.6
					c5.3,2.8,8.1,7.1,7.5,13.1C683.8,161.2,678.1,163.4,667.6,159.2"/>
				<path class="st0" d="M722.9,23.1c0.1,0.2,0.2,0.4,0.3,0.7c1.1,0.2,2.1,0.9,2.8,2.4c0.1,0.2,0.2,0.3,0.2,0.5
					c1.5,0.4,2.9,1.4,3.4,3.2c0.8,3,1.8,5.8,2.5,8.8c0.2,0.7,0.2,1.4,0.1,2c0.9,0.4,1.9,1.1,3,1.9c0.9,0.7,1.6,1.5,2.2,2.1
					c0.2-0.8,0.4-1.9,0.7-3.3c0.8-3.7,0.6-4,1.2-6.9c1.4-7,1.8-8.4,1.8-8.4c0.2-0.6,0.5-2,0.2-2.2c-0.3-0.1-0.8,0.5-1.6,1.2
					c-1.2,1.1-2.6,1.9-3.3,2.1c-1.8,0.3-3.2-0.5-5.4-1.5C729.2,24.7,726.5,23.7,722.9,23.1"/>
				<path class="st3" d="M722.9,23.1c0.1,0.2,0.2,0.4,0.3,0.7c1.1,0.2,2.1,0.9,2.8,2.4c0.1,0.2,0.2,0.3,0.2,0.5
					c1.5,0.4,2.9,1.4,3.4,3.2c0.8,3,1.8,5.8,2.5,8.8c0.2,0.7,0.2,1.4,0.1,2c0.9,0.4,1.9,1.1,3,1.9c0.9,0.7,1.6,1.5,2.2,2.1
					c0.2-0.8,0.4-1.9,0.7-3.3c0.8-3.7,0.6-4,1.2-6.9c1.4-7,1.8-8.4,1.8-8.4c0.2-0.6,0.5-2,0.2-2.2c-0.3-0.1-0.8,0.5-1.6,1.2
					c-1.2,1.1-2.6,1.9-3.3,2.1c-1.8,0.3-3.2-0.5-5.4-1.5C729.2,24.7,726.5,23.7,722.9,23.1z"/>
				<path class="st0" d="M120.2,55c-0.5-0.3,0.4-1.7-0.1-3.8c-0.4-1.8-1.6-3.1-2.7-3.9c1,2.7,1.3,5.6,0.6,8.4
					c-0.8,3.2-2.7,5.7-5.1,7.8c-3.2,2.7-9.4,2.7-9.8-2.6c-0.1-1.9,1-3.8,2.7-4.5c1.9-0.9,4.1-0.3,6.2,0.2c-1.3-2-4-3-6.4-2.3
					c-2.3,0.6-4.1,2.9-4.2,5.3c-0.1,3,1.7,5.3,3.1,7.8c2,3.5,1.2,7.9,0.9,11.8c-0.4,6.2,0.2,12.1,2.5,17.9
					c2.3,5.9,5.8,11.2,9.7,16.2c0.4,0.5,0.8,1,1.2,1.5c-0.4-0.5-2.4-0.8-3-1c-1.2-0.5-2.4-1.1-2.8-1.3c-1.5-0.8-9.3-6.2-12.7-20.5
					c-1.9-7.9-1.4-14.2-1.9-14.2c-0.4,0-0.6,4-0.6,6.3c0,3.2,0.2,5.7,0.3,6.3c0.9,5.2,3.4,9.9,4.2,15c-0.2-1.6-2.6-3.3-3.6-4.4
					c-1.3-1.5-2.4-3.3-3.5-4.9c-2.1-3.2-4-6.6-5.5-10.2c-3-7.1-4.5-14.7-4.3-22.4c0.1-3,0.5-6.1,1.1-9.1C89,42.4,100,34.2,112.3,34
					c5.6-0.1,10.2,1.4,12.6,7c0.6,1.3,2.1,4.6,0.9,8.2C124.6,53,121,55.5,120.2,55"/>
				<path class="st0" d="M136.5,85.7c-5.2,3.4-5.8,8.8-5.5,14.6c0.6,10.1,4.8,19.9,12.4,26.8c3.5,3.2,6.6,6.9,9.4,10.7
					c-18.4-9.5-29.9-24.5-34.7-44.3c-3.3-13.5,8-29.2,21.8-30.3c5.2-0.4,10.2,2.6,13.8,6.1c2.9,2.8,5.6,6.8,5.4,11
					c-0.1,2.7-1.8,4.5-3.8,6.1c-2.2,1.8-4.1,3.6-5.5,6.1c-1.2,2.3-2.2,4.9-4.4,6.4c-2.3,1.4-5.9,1.2-7.6-1c-1.7-2.2-1.3-5.4-1.3-7.9
					C136.5,88.7,136.5,87.5,136.5,85.7"/>
				<path class="st0" d="M124,55c1.4,0.2,3.6,0.3,6.3-0.2c2.7-0.6,5.6-1.1,7-3.5c1.2-2,0.7-4.3,0.3-5.5c-0.5,0.1-1,0.2-1.5,0.3
					c0.1,0.2,0.5,2.1-0.7,3.3c-0.7,0.8-1.6,0.9-1.9,0.9c-2.3,0.3-4.6-1.8-5.7-3.8c-2-3.7-2.2-9.5,0.6-12.8c2-2.4,5.5-3.2,8.6-2.9
					c3.5,0.4,7.5,1.9,10.3,3.9c3.5,2.5,6.3,6.2,7.6,10.3c1.2,3.8,1.4,9.2-1.3,12.4c-1.7,2-4.2,2.8-6.7,3c-5.8,0.4-12.3,1-17,3.9
					c-16.7,10.6-19.7,23.9-10.3,41.3c3.3,6.1,7.4,11.9,10.8,18c-9.3-8.9-18.4-17.9-21.4-31.3c-2.4-10.9-1.7-20.8,6.6-29.3
					c0.8-0.8,1.5-1.6,1.8-2C120,58.3,122.3,56.3,124,55"/>
			</g>
		</g>
	</g>
</g>
<g class="st4">
	
		<image style="display:inline;overflow:visible;opacity:0.9;" width="639" height="199" xlink:href="644B50F9.png"  transform="matrix(1 0 0 1 92.8301 221)">
	</image>
	<g class="st5">
		
			<image style="overflow:visible;" width="8192" height="4606" xlink:href="644B50FF.png"  transform="matrix(0.1442 0 0 0.1442 -124.5498 -68.9673)">
		</image>
	</g>
</g>
</svg>
