<svg id="Layer_1" data-name="Layer 1" xmlns="http://www.w3.org/2000/svg" viewBox="0 0 665.72 183.98"><defs><style>.cls-1{fill:#fff;}.cls-2,.cls-3,.cls-4{fill:none;stroke:#fff;stroke-miterlimit:10;}.cls-2{stroke-width:0.25px;}.cls-3{stroke-width:3px;}</style></defs><title>Poster (5)</title><g id="logo2"><path class="cls-1" d="M107.49,167.29a2,2,0,0,0,1.56-.64,3.42,3.42,0,0,0,.8-1.85L112.41,149a6.47,6.47,0,0,1,.67-2,5.59,5.59,0,0,1,1.11-1.46,4.62,4.62,0,0,1,1.31-.87,3.24,3.24,0,0,1,1.26-.28,13.86,13.86,0,0,0-.54,1.74q-0.21.89-.38,1.81l-2.72,16.72a5.15,5.15,0,0,1-1.92,3.43,6.42,6.42,0,0,1-4,1.19,5.35,5.35,0,0,1-3.44-1,6.66,6.66,0,0,1-3.7,1,5,5,0,0,1-3.66-1.19,3.73,3.73,0,0,1-.84-3.43L98.12,149a6.48,6.48,0,0,1,.67-2,5.59,5.59,0,0,1,1.11-1.46,4.62,4.62,0,0,1,1.31-.87,3.24,3.24,0,0,1,1.26-.28,13.86,13.86,0,0,0-.54,1.74q-0.21.89-.38,1.81L98.84,164.8q-0.39,2.49,1.51,2.49a2.05,2.05,0,0,0,1.56-.64,3.21,3.21,0,0,0,.77-1.81L105.27,149a6.47,6.47,0,0,1,.67-2,5.58,5.58,0,0,1,1.11-1.46,4.63,4.63,0,0,1,1.31-.87,3.24,3.24,0,0,1,1.26-.28,13.78,13.78,0,0,0-.54,1.74q-0.21.89-.38,1.81L106,164.83a2.73,2.73,0,0,0,.23,1.81A1.42,1.42,0,0,0,107.49,167.29Z" transform="translate(-88.59 -29.52)"/><path class="cls-1" d="M118.25,154.56a5.24,5.24,0,0,1,.74-2,5.85,5.85,0,0,1,1.51-1.62,7.2,7.2,0,0,1,2.23-1.08,9.89,9.89,0,0,1,2.87-.39,7.8,7.8,0,0,1,2.87.46,4.62,4.62,0,0,1,1.84,1.24,4,4,0,0,1,.89,1.81,5.78,5.78,0,0,1,0,2.17l-2.26,14a2.29,2.29,0,0,1-1.11-.28,1.77,1.77,0,0,1-.79-0.89,7,7,0,0,1-2,.87,10.23,10.23,0,0,1-2.57.3,7.79,7.79,0,0,1-2.87-.46,4.59,4.59,0,0,1-1.84-1.24,4,4,0,0,1-.88-1.81,5.76,5.76,0,0,1,0-2.17l0.16-1.1a7.34,7.34,0,0,1,.74-2.17,6.08,6.08,0,0,1,1.46-1.81,7,7,0,0,1,2.23-1.25,9.06,9.06,0,0,1,3-.46,5.4,5.4,0,0,1,1.67.3,3.49,3.49,0,0,1,1.41.8L128,155a5.77,5.77,0,0,0,.07-1.23,2.82,2.82,0,0,0-.29-1.14,2.11,2.11,0,0,0-.84-0.85,3.15,3.15,0,0,0-1.59-.34,4.69,4.69,0,0,0-1.77.28,2.88,2.88,0,0,0-1.74,1.88,12,12,0,0,0-.33,1.35v0.14a2,2,0,0,1-.57,1.07,5.6,5.6,0,0,1-1.07.87,5.14,5.14,0,0,1-1.21.57,3.55,3.55,0,0,1-1,.2q0.23-.89.36-1.62Zm1.8,9.18A6.54,6.54,0,0,0,120,165a2.49,2.49,0,0,0,.29,1.14,2.21,2.21,0,0,0,.85.85,3.14,3.14,0,0,0,1.59.34,4.67,4.67,0,0,0,1.77-.28,2.83,2.83,0,0,0,1.1-.76,3.33,3.33,0,0,0,.62-1.12,10.16,10.16,0,0,0,.34-1.35l0.23-1.49a5.77,5.77,0,0,0,.07-1.23,2.82,2.82,0,0,0-.29-1.14,2.11,2.11,0,0,0-.84-0.85,3.15,3.15,0,0,0-1.59-.34,3.86,3.86,0,0,0-1.7.34,3.51,3.51,0,0,0-1.13.85,3.7,3.7,0,0,0-.67,1.14,6.63,6.63,0,0,0-.33,1.23Z" transform="translate(-88.59 -29.52)"/><path class="cls-1" d="M144.41,154.13a6.22,6.22,0,0,1,.69-2,6.11,6.11,0,0,1,1.11-1.46,4.41,4.41,0,0,1,1.29-.87,3.25,3.25,0,0,1,1.26-.28,19.91,19.91,0,0,0-.89,3.56l-3.25,20a7.34,7.34,0,0,1-.74,2.17,6.1,6.1,0,0,1-1.46,1.81,7,7,0,0,1-2.23,1.25,9.07,9.07,0,0,1-3,.46,8.61,8.61,0,0,1-2.74-.39,4.8,4.8,0,0,1-1.87-1.08,3.76,3.76,0,0,1-1-1.62,4.33,4.33,0,0,1-.11-2q0.16-.93.25-1.65t0.15-1.62a2.82,2.82,0,0,1,.93.2,3.89,3.89,0,0,1,1,.57,3,3,0,0,1,.79.87,1.52,1.52,0,0,1,.2,1.07v0.14a7.46,7.46,0,0,0-.13,1.35,2.3,2.3,0,0,0,.26,1.12,1.85,1.85,0,0,0,.85.76,4,4,0,0,0,1.67.28,3.85,3.85,0,0,0,1.7-.34,3.5,3.5,0,0,0,1.13-.85,3.71,3.71,0,0,0,.67-1.14,6.66,6.66,0,0,0,.33-1.23l0.72-4.52a7.08,7.08,0,0,1-1.52.43,10.66,10.66,0,0,1-1.79.14,7.79,7.79,0,0,1-2.87-.46,4.59,4.59,0,0,1-1.84-1.24,4,4,0,0,1-.88-1.81,5.76,5.76,0,0,1,0-2.17l1.51-9.42a6.22,6.22,0,0,1,.69-2,6.11,6.11,0,0,1,1.11-1.46,4.41,4.41,0,0,1,1.29-.87,3.25,3.25,0,0,1,1.26-.28,19.91,19.91,0,0,0-.89,3.56l-1.74,10.67a6.54,6.54,0,0,0-.08,1.23,2.49,2.49,0,0,0,.29,1.14,2.21,2.21,0,0,0,.85.85,3.14,3.14,0,0,0,1.59.34,3.85,3.85,0,0,0,1.71-.34,3.49,3.49,0,0,0,1.13-.85,3.7,3.7,0,0,0,.67-1.14,6.64,6.64,0,0,0,.33-1.23Z" transform="translate(-88.59 -29.52)"/><path class="cls-1" d="M155.36,167.29a3.85,3.85,0,0,0,1.71-.34,3.49,3.49,0,0,0,1.13-.85,3.7,3.7,0,0,0,.67-1.14,6.64,6.64,0,0,0,.33-1.23l0.26-1.64a0.86,0.86,0,0,0-.59-0.8,8.62,8.62,0,0,0-1.69-.69q-1-.32-2.25-0.62t-2.25-.64a8.92,8.92,0,0,1-1.7-.73,0.87,0.87,0,0,1-.57-0.89l0.39-2.52a7.33,7.33,0,0,1,.74-2.17,6.08,6.08,0,0,1,1.46-1.81,7,7,0,0,1,2.23-1.24,9.05,9.05,0,0,1,3-.46,8.61,8.61,0,0,1,2.74.39,4.8,4.8,0,0,1,1.87,1.08,3.77,3.77,0,0,1,1,1.62,4.35,4.35,0,0,1,.11,2q-0.16.93-.25,1.65t-0.15,1.62a2.81,2.81,0,0,1-.93-0.2,3.87,3.87,0,0,1-1-.57,3,3,0,0,1-.79-0.87,1.52,1.52,0,0,1-.2-1.07V155a7.51,7.51,0,0,0,.13-1.35,2.3,2.3,0,0,0-.26-1.12,1.84,1.84,0,0,0-.85-0.76,4,4,0,0,0-1.67-.28,3.85,3.85,0,0,0-1.7.34,3.5,3.5,0,0,0-1.13.85,3.7,3.7,0,0,0-.67,1.14,6.63,6.63,0,0,0-.33,1.23l-0.26,1.64a0.85,0.85,0,0,0,.59.82,9.47,9.47,0,0,0,1.69.68q1,0.32,2.25.62t2.25,0.64a8.52,8.52,0,0,1,1.69.73,0.93,0.93,0,0,1,.59.89l-0.39,2.52a7.33,7.33,0,0,1-.74,2.17,6.07,6.07,0,0,1-1.46,1.81,7,7,0,0,1-2.23,1.24,9,9,0,0,1-3,.46,8.59,8.59,0,0,1-2.74-.39,4.79,4.79,0,0,1-1.87-1.08,3.75,3.75,0,0,1-1-1.62,4.33,4.33,0,0,1-.11-2q0.16-.92.25-1.65t0.15-1.62a2.84,2.84,0,0,1,.93.2,3.91,3.91,0,0,1,1,.57,3,3,0,0,1,.79.87,1.52,1.52,0,0,1,.2,1.07v0.14a7.43,7.43,0,0,0-.13,1.35,2.3,2.3,0,0,0,.26,1.12,1.84,1.84,0,0,0,.85.76A3.93,3.93,0,0,0,155.36,167.29Z" transform="translate(-88.59 -29.52)"/><path class="cls-1" d="M179.52,151.64l-2.13,13a6.47,6.47,0,0,1-.67,2,5.79,5.79,0,0,1-1.1,1.46,4.41,4.41,0,0,1-1.29.87,3.24,3.24,0,0,1-1.26.28,19.89,19.89,0,0,0,.89-3.56l2.29-14h-3.61l0.34-.73a4.68,4.68,0,0,1,.41-0.69,1.91,1.91,0,0,1,.54-0.52,1.42,1.42,0,0,1,.77-0.2h1.87l0.79-4.84a6.23,6.23,0,0,1,.69-2,6.11,6.11,0,0,1,1.11-1.46,4.42,4.42,0,0,1,1.29-.87,3.25,3.25,0,0,1,1.26-.28,19.92,19.92,0,0,0-.89,3.56l-1,5.9h3.61l-0.33.73a3.33,3.33,0,0,1-.41.69,2,2,0,0,1-.57.52,1.44,1.44,0,0,1-.75.2h-1.87Z" transform="translate(-88.59 -29.52)"/><path class="cls-1" d="M195.71,163.55a7.33,7.33,0,0,1-.74,2.17,6.07,6.07,0,0,1-1.46,1.81,7,7,0,0,1-2.23,1.24,9,9,0,0,1-3,.46,7.79,7.79,0,0,1-2.87-.46,4.59,4.59,0,0,1-1.84-1.24,4,4,0,0,1-.88-1.81,5.76,5.76,0,0,1,0-2.17L184,155.2a7.33,7.33,0,0,1,.74-2.17,6.08,6.08,0,0,1,1.46-1.81,7,7,0,0,1,2.23-1.24,9.05,9.05,0,0,1,3-.46,7.8,7.8,0,0,1,2.87.46,4.62,4.62,0,0,1,1.84,1.24A4,4,0,0,1,197,153a5.78,5.78,0,0,1,0,2.17Zm-9.8.18a6.54,6.54,0,0,0-.08,1.23,2.49,2.49,0,0,0,.29,1.14,2.21,2.21,0,0,0,.85.85,3.14,3.14,0,0,0,1.59.34,3.85,3.85,0,0,0,1.71-.34,3.49,3.49,0,0,0,1.13-.85,3.7,3.7,0,0,0,.67-1.14,6.64,6.64,0,0,0,.33-1.23l1.41-8.71a5.77,5.77,0,0,0,.07-1.23,2.82,2.82,0,0,0-.29-1.14,2.11,2.11,0,0,0-.84-0.85,3.15,3.15,0,0,0-1.59-.34,3.85,3.85,0,0,0-1.7.34,3.5,3.5,0,0,0-1.13.85,3.7,3.7,0,0,0-.67,1.14,6.63,6.63,0,0,0-.33,1.23Z" transform="translate(-88.59 -29.52)"/><path class="cls-1" d="M207.91,149a6.48,6.48,0,0,1,.67-2,5.59,5.59,0,0,1,1.11-1.46,4.62,4.62,0,0,1,1.31-.87,3.24,3.24,0,0,1,1.26-.28,13.86,13.86,0,0,0-.54,1.74q-0.21.89-.38,1.81l-2.72,16.72a6.47,6.47,0,0,1-.67,2,5.82,5.82,0,0,1-1.1,1.46,4.41,4.41,0,0,1-1.29.87,3.24,3.24,0,0,1-1.26.28,19.89,19.89,0,0,0,.88-3.56Z" transform="translate(-88.59 -29.52)"/><path class="cls-1" d="M222.72,146.48l-3,18.14a6.47,6.47,0,0,1-.67,2,5.79,5.79,0,0,1-1.1,1.46,4.41,4.41,0,0,1-1.29.87,3.24,3.24,0,0,1-1.26.28,19.89,19.89,0,0,0,.89-3.56l3.11-19.2h-5.57l0.34-.73a3.94,3.94,0,0,1,.43-0.69,2.14,2.14,0,0,1,.56-0.52,1.42,1.42,0,0,1,.77-0.2h12.69l-0.34.73a4,4,0,0,1-.43.69,2,2,0,0,1-.57.52,1.44,1.44,0,0,1-.75.2h-3.84Z" transform="translate(-88.59 -29.52)"/><path class="cls-1" d="M248.49,154a7.33,7.33,0,0,1-.74,2.17,6.08,6.08,0,0,1-1.46,1.81,7,7,0,0,1-2.23,1.24,9,9,0,0,1-3,.46,7.88,7.88,0,0,1-3.15-.57L237,164.62a6.47,6.47,0,0,1-.67,2,5.82,5.82,0,0,1-1.1,1.46,4.41,4.41,0,0,1-1.29.87,3.24,3.24,0,0,1-1.26.28,19.89,19.89,0,0,0,.88-3.56L236.1,150a7.34,7.34,0,0,1,.74-2.17,6.08,6.08,0,0,1,1.46-1.81,7,7,0,0,1,2.23-1.24,9.05,9.05,0,0,1,3-.46,7.8,7.8,0,0,1,2.87.46,4.61,4.61,0,0,1,1.84,1.24,4,4,0,0,1,.89,1.81,5.79,5.79,0,0,1,0,2.17Zm-9.8.18a6.54,6.54,0,0,0-.08,1.23,2.49,2.49,0,0,0,.29,1.14,2.21,2.21,0,0,0,.85.85,3.14,3.14,0,0,0,1.59.34,3.85,3.85,0,0,0,1.7-.34,3.49,3.49,0,0,0,1.13-.85,3.7,3.7,0,0,0,.67-1.14,6.63,6.63,0,0,0,.33-1.23l0.72-4.34a5.74,5.74,0,0,0,.07-1.23,2.66,2.66,0,0,0-.31-1.14,2.22,2.22,0,0,0-.85-0.85,3.14,3.14,0,0,0-1.59-.34,3.75,3.75,0,0,0-1.69.34,3.55,3.55,0,0,0-1.11.85,3.71,3.71,0,0,0-.67,1.14,6.58,6.58,0,0,0-.33,1.23Z" transform="translate(-88.59 -29.52)"/><path class="cls-1" d="M253.31,164.62a6.47,6.47,0,0,1-.67,2,5.82,5.82,0,0,1-1.1,1.46,4.41,4.41,0,0,1-1.29.87,3.24,3.24,0,0,1-1.26.28,19.89,19.89,0,0,0,.88-3.56l2.07-12.62a18,18,0,0,0,.23-1.81,11.66,11.66,0,0,0,0-1.74,2.46,2.46,0,0,1,1.18.32,3.3,3.3,0,0,1,1,.92,6.82,6.82,0,0,1,2-.92,9.64,9.64,0,0,1,2.59-.32,5.58,5.58,0,0,1-.1.69,1.51,1.51,0,0,1-.33.62,1.87,1.87,0,0,1-.49.48,1.92,1.92,0,0,1-.59.3,3.05,3.05,0,0,0-1.84,1.3,5.26,5.26,0,0,0-.75,1.87Z" transform="translate(-88.59 -29.52)"/><path class="cls-1" d="M271.31,163.55a7.33,7.33,0,0,1-.74,2.17,6.07,6.07,0,0,1-1.46,1.81,7,7,0,0,1-2.23,1.24,9,9,0,0,1-3,.46,7.79,7.79,0,0,1-2.87-.46,4.59,4.59,0,0,1-1.84-1.24,4,4,0,0,1-.88-1.81,5.76,5.76,0,0,1,0-2.17l1.34-8.36a7.33,7.33,0,0,1,.74-2.17,6.08,6.08,0,0,1,1.46-1.81A7,7,0,0,1,264,150a9.05,9.05,0,0,1,3-.46,7.8,7.8,0,0,1,2.87.46,4.62,4.62,0,0,1,1.84,1.24,4,4,0,0,1,.89,1.81,5.78,5.78,0,0,1,0,2.17Zm-9.8.18a6.54,6.54,0,0,0-.08,1.23,2.49,2.49,0,0,0,.29,1.14,2.21,2.21,0,0,0,.85.85,3.14,3.14,0,0,0,1.59.34,3.85,3.85,0,0,0,1.71-.34,3.49,3.49,0,0,0,1.13-.85,3.7,3.7,0,0,0,.67-1.14,6.64,6.64,0,0,0,.33-1.23l1.41-8.71a5.77,5.77,0,0,0,.07-1.23,2.82,2.82,0,0,0-.29-1.14,2.11,2.11,0,0,0-.84-0.85,3.15,3.15,0,0,0-1.59-.34,3.85,3.85,0,0,0-1.7.34,3.5,3.5,0,0,0-1.13.85,3.7,3.7,0,0,0-.67,1.14,6.63,6.63,0,0,0-.33,1.23Z" transform="translate(-88.59 -29.52)"/><path class="cls-1" d="M274.88,151.64a2.34,2.34,0,0,1,.2-0.73,3.35,3.35,0,0,1,.41-0.69,2.13,2.13,0,0,1,.56-0.52,1.19,1.19,0,0,1,.64-0.2h1l0.62-3.77a7.34,7.34,0,0,1,.74-2.17,6.09,6.09,0,0,1,1.46-1.81,7,7,0,0,1,2.23-1.24,9.05,9.05,0,0,1,3-.46h1a5.54,5.54,0,0,1-.18.66,2.92,2.92,0,0,1-.29.62,2.1,2.1,0,0,1-.41.48,0.71,0.71,0,0,1-.46.2,3.85,3.85,0,0,0-1.7.34,3.5,3.5,0,0,0-1.13.85,3.71,3.71,0,0,0-.67,1.14,6.64,6.64,0,0,0-.33,1.23l-0.66,3.95h4a4,4,0,0,1-.21.73,2.84,2.84,0,0,1-.39.69,2.13,2.13,0,0,1-.56.52,1.19,1.19,0,0,1-.64.2h-2.56l-2.13,13a6.47,6.47,0,0,1-.67,2,5.79,5.79,0,0,1-1.1,1.46,4.41,4.41,0,0,1-1.29.87,3.24,3.24,0,0,1-1.26.28,19.89,19.89,0,0,0,.89-3.56l2.29-14h-2.46Z" transform="translate(-88.59 -29.52)"/><path class="cls-1" d="M297.44,164.19a5.25,5.25,0,0,1-.74,2,5.85,5.85,0,0,1-1.51,1.62,7.19,7.19,0,0,1-2.23,1.08,9.88,9.88,0,0,1-2.87.39,7.79,7.79,0,0,1-2.87-.46,4.59,4.59,0,0,1-1.84-1.24,4,4,0,0,1-.88-1.81,5.77,5.77,0,0,1,0-2.17l1.34-8.36a7.32,7.32,0,0,1,.74-2.17,6.08,6.08,0,0,1,1.46-1.81,7,7,0,0,1,2.23-1.24,9.05,9.05,0,0,1,3-.46,7.81,7.81,0,0,1,2.87.46,4.62,4.62,0,0,1,1.84,1.24,4,4,0,0,1,.89,1.81,5.78,5.78,0,0,1,0,2.17l-0.16,1.1a7.33,7.33,0,0,1-.74,2.17,6,6,0,0,1-1.48,1.81,7.17,7.17,0,0,1-2.25,1.25,9.06,9.06,0,0,1-3,.46,5.24,5.24,0,0,1-1.66-.3,3.47,3.47,0,0,1-1.39-.8l-0.46,2.84a6.54,6.54,0,0,0-.08,1.23,2.5,2.5,0,0,0,.29,1.14,2.21,2.21,0,0,0,.85.85,3.14,3.14,0,0,0,1.59.34,4.67,4.67,0,0,0,1.77-.28,2.83,2.83,0,0,0,1.1-.76,3.33,3.33,0,0,0,.62-1.12,10.16,10.16,0,0,0,.34-1.35v-0.14a2,2,0,0,1,.57-1.07,5.61,5.61,0,0,1,1.07-.87,5.16,5.16,0,0,1,1.21-.57,3.58,3.58,0,0,1,1-.2q-0.23.89-.36,1.62Zm-5.9-4.16a3.85,3.85,0,0,0,1.71-.34,3.48,3.48,0,0,0,1.13-.85,3.69,3.69,0,0,0,.67-1.14,6.65,6.65,0,0,0,.33-1.23L295.6,155a5.77,5.77,0,0,0,.07-1.23,2.82,2.82,0,0,0-.29-1.14,2.11,2.11,0,0,0-.84-0.85,3.15,3.15,0,0,0-1.59-.34,3.85,3.85,0,0,0-1.7.34,3.5,3.5,0,0,0-1.13.85,3.7,3.7,0,0,0-.67,1.14,6.63,6.63,0,0,0-.33,1.23l-0.23,1.46a6.54,6.54,0,0,0-.08,1.23,2.49,2.49,0,0,0,.29,1.14,2.21,2.21,0,0,0,.85.85A3.14,3.14,0,0,0,291.53,160Z" transform="translate(-88.59 -29.52)"/><path class="cls-1" d="M306.68,167.29a3.85,3.85,0,0,0,1.71-.34,3.49,3.49,0,0,0,1.13-.85,3.7,3.7,0,0,0,.67-1.14,6.64,6.64,0,0,0,.33-1.23l0.26-1.64a0.86,0.86,0,0,0-.59-0.8,8.62,8.62,0,0,0-1.69-.69q-1-.32-2.25-0.62t-2.25-.64a8.92,8.92,0,0,1-1.7-.73,0.87,0.87,0,0,1-.57-0.89l0.39-2.52a7.33,7.33,0,0,1,.74-2.17,6.08,6.08,0,0,1,1.46-1.81,7,7,0,0,1,2.23-1.24,9.05,9.05,0,0,1,3-.46,8.61,8.61,0,0,1,2.74.39,4.8,4.8,0,0,1,1.87,1.08,3.77,3.77,0,0,1,1,1.62,4.35,4.35,0,0,1,.11,2q-0.16.93-.25,1.65t-0.15,1.62a2.81,2.81,0,0,1-.93-0.2,3.87,3.87,0,0,1-1-.57,3,3,0,0,1-.79-0.87,1.52,1.52,0,0,1-.2-1.07V155a7.51,7.51,0,0,0,.13-1.35,2.3,2.3,0,0,0-.26-1.12,1.84,1.84,0,0,0-.85-0.76,4,4,0,0,0-1.67-.28,3.85,3.85,0,0,0-1.7.34,3.5,3.5,0,0,0-1.13.85,3.7,3.7,0,0,0-.67,1.14,6.63,6.63,0,0,0-.33,1.23l-0.26,1.64a0.85,0.85,0,0,0,.59.82,9.47,9.47,0,0,0,1.69.68q1,0.32,2.25.62t2.25,0.64a8.52,8.52,0,0,1,1.69.73,0.93,0.93,0,0,1,.59.89l-0.39,2.52a7.33,7.33,0,0,1-.74,2.17,6.07,6.07,0,0,1-1.46,1.81,7,7,0,0,1-2.23,1.24,9,9,0,0,1-3,.46,8.59,8.59,0,0,1-2.74-.39,4.79,4.79,0,0,1-1.87-1.08,3.75,3.75,0,0,1-1-1.62,4.33,4.33,0,0,1-.11-2q0.16-.92.25-1.65t0.15-1.62a2.84,2.84,0,0,1,.93.2,3.91,3.91,0,0,1,1,.57,3,3,0,0,1,.79.87,1.52,1.52,0,0,1,.2,1.07v0.14a7.43,7.43,0,0,0-.13,1.35,2.3,2.3,0,0,0,.26,1.12,1.84,1.84,0,0,0,.85.76A3.93,3.93,0,0,0,306.68,167.29Z" transform="translate(-88.59 -29.52)"/><path class="cls-1" d="M323,167.29a3.85,3.85,0,0,0,1.71-.34,3.49,3.49,0,0,0,1.13-.85,3.7,3.7,0,0,0,.67-1.14,6.64,6.64,0,0,0,.33-1.23l0.26-1.64a0.86,0.86,0,0,0-.59-0.8,8.62,8.62,0,0,0-1.69-.69q-1-.32-2.25-0.62t-2.25-.64a8.92,8.92,0,0,1-1.7-.73,0.87,0.87,0,0,1-.57-0.89l0.39-2.52a7.33,7.33,0,0,1,.74-2.17,6.08,6.08,0,0,1,1.46-1.81,7,7,0,0,1,2.23-1.24,9.05,9.05,0,0,1,3-.46,8.61,8.61,0,0,1,2.74.39A4.8,4.8,0,0,1,330.5,151a3.77,3.77,0,0,1,1,1.62,4.35,4.35,0,0,1,.11,2q-0.16.93-.25,1.65t-0.15,1.62a2.81,2.81,0,0,1-.93-0.2,3.87,3.87,0,0,1-1-.57,3,3,0,0,1-.79-0.87,1.52,1.52,0,0,1-.2-1.07V155a7.51,7.51,0,0,0,.13-1.35,2.3,2.3,0,0,0-.26-1.12,1.84,1.84,0,0,0-.85-0.76,4,4,0,0,0-1.67-.28,3.85,3.85,0,0,0-1.7.34,3.5,3.5,0,0,0-1.13.85,3.7,3.7,0,0,0-.67,1.14,6.63,6.63,0,0,0-.33,1.23l-0.26,1.64a0.85,0.85,0,0,0,.59.82,9.47,9.47,0,0,0,1.69.68q1,0.32,2.25.62t2.25,0.64a8.52,8.52,0,0,1,1.69.73,0.93,0.93,0,0,1,.59.89l-0.39,2.52a7.33,7.33,0,0,1-.74,2.17,6.07,6.07,0,0,1-1.46,1.81,7,7,0,0,1-2.23,1.24,9,9,0,0,1-3,.46,8.59,8.59,0,0,1-2.74-.39,4.79,4.79,0,0,1-1.87-1.08,3.75,3.75,0,0,1-1-1.62,4.33,4.33,0,0,1-.11-2q0.16-.92.25-1.65t0.15-1.62a2.84,2.84,0,0,1,.93.2,3.91,3.91,0,0,1,1,.57,3,3,0,0,1,.79.87,1.52,1.52,0,0,1,.2,1.07v0.14a7.43,7.43,0,0,0-.13,1.35,2.3,2.3,0,0,0,.26,1.12,1.84,1.84,0,0,0,.85.76A3.93,3.93,0,0,0,323,167.29Z" transform="translate(-88.59 -29.52)"/><path class="cls-1" d="M336.51,164.62a6.47,6.47,0,0,1-.67,2,5.82,5.82,0,0,1-1.1,1.46,4.41,4.41,0,0,1-1.29.87,3.24,3.24,0,0,1-1.26.28,19.89,19.89,0,0,0,.88-3.56l2.33-14.23a1.32,1.32,0,0,1,.46-0.75,4.08,4.08,0,0,1,.93-0.62,6.24,6.24,0,0,1,1.13-.43,4.05,4.05,0,0,1,1-.16Zm-0.26-18.56q0.39-2.31,3.7-2.52l-0.43,2.67q-0.39,2.31-3.7,2.49Z" transform="translate(-88.59 -29.52)"/><path class="cls-1" d="M353,163.55a7.33,7.33,0,0,1-.74,2.17,6.07,6.07,0,0,1-1.46,1.81,7,7,0,0,1-2.23,1.24,9,9,0,0,1-3,.46,7.79,7.79,0,0,1-2.87-.46,4.59,4.59,0,0,1-1.84-1.24,4,4,0,0,1-.88-1.81,5.76,5.76,0,0,1,0-2.17l1.34-8.36a7.33,7.33,0,0,1,.74-2.17,6.08,6.08,0,0,1,1.46-1.81,7,7,0,0,1,2.23-1.24,9.05,9.05,0,0,1,3-.46,7.8,7.8,0,0,1,2.87.46,4.62,4.62,0,0,1,1.84,1.24,4,4,0,0,1,.89,1.81,5.78,5.78,0,0,1,0,2.17Zm-9.8.18a6.54,6.54,0,0,0-.08,1.23,2.49,2.49,0,0,0,.29,1.14,2.21,2.21,0,0,0,.85.85,3.14,3.14,0,0,0,1.59.34,3.85,3.85,0,0,0,1.71-.34,3.49,3.49,0,0,0,1.13-.85,3.7,3.7,0,0,0,.67-1.14,6.64,6.64,0,0,0,.33-1.23l1.41-8.71a5.77,5.77,0,0,0,.07-1.23,2.82,2.82,0,0,0-.29-1.14,2.11,2.11,0,0,0-.84-0.85,3.15,3.15,0,0,0-1.59-.34,3.85,3.85,0,0,0-1.7.34,3.5,3.5,0,0,0-1.13.85,3.7,3.7,0,0,0-.67,1.14,6.63,6.63,0,0,0-.33,1.23Z" transform="translate(-88.59 -29.52)"/><path class="cls-1" d="M359.39,164.62a6.47,6.47,0,0,1-.67,2,5.82,5.82,0,0,1-1.1,1.46,4.41,4.41,0,0,1-1.29.87,3.24,3.24,0,0,1-1.26.28,19.89,19.89,0,0,0,.88-3.56L358,153.06a18,18,0,0,0,.23-1.81,11.66,11.66,0,0,0,0-1.74,2.57,2.57,0,0,1,1.18.3,3.1,3.1,0,0,1,1,.91,7.84,7.84,0,0,1,2-.91,9.3,9.3,0,0,1,2.62-.34,7.68,7.68,0,0,1,2.85.46,4.63,4.63,0,0,1,1.82,1.24,4,4,0,0,1,.89,1.81,5.78,5.78,0,0,1,0,2.17l-1.54,9.46a6.49,6.49,0,0,1-.67,2,5.8,5.8,0,0,1-1.1,1.46,4.4,4.4,0,0,1-1.29.87,3.24,3.24,0,0,1-1.26.28,19.89,19.89,0,0,0,.89-3.56l1.74-10.7a5.77,5.77,0,0,0,.07-1.23,2.82,2.82,0,0,0-.29-1.14,2.11,2.11,0,0,0-.84-0.85,3.15,3.15,0,0,0-1.59-.34,3.94,3.94,0,0,0-1.62.3,3.37,3.37,0,0,0-1.11.78,3.92,3.92,0,0,0-.7,1.07,4.84,4.84,0,0,0-.36,1.16Z" transform="translate(-88.59 -29.52)"/><path class="cls-1" d="M374.08,154.56a5.24,5.24,0,0,1,.74-2,5.85,5.85,0,0,1,1.51-1.62,7.2,7.2,0,0,1,2.23-1.08,9.89,9.89,0,0,1,2.87-.39,7.8,7.8,0,0,1,2.87.46,4.62,4.62,0,0,1,1.84,1.24A4,4,0,0,1,387,153a5.78,5.78,0,0,1,0,2.17l-2.26,14a2.29,2.29,0,0,1-1.11-.28,1.77,1.77,0,0,1-.79-0.89,7,7,0,0,1-2,.87,10.23,10.23,0,0,1-2.57.3,7.79,7.79,0,0,1-2.87-.46,4.59,4.59,0,0,1-1.84-1.24,4,4,0,0,1-.88-1.81,5.76,5.76,0,0,1,0-2.17l0.16-1.1a7.34,7.34,0,0,1,.74-2.17,6.08,6.08,0,0,1,1.46-1.81,7,7,0,0,1,2.23-1.25,9.06,9.06,0,0,1,3-.46,5.4,5.4,0,0,1,1.67.3,3.49,3.49,0,0,1,1.41.8l0.46-2.84a5.77,5.77,0,0,0,.07-1.23,2.82,2.82,0,0,0-.29-1.14,2.11,2.11,0,0,0-.84-0.85,3.15,3.15,0,0,0-1.59-.34,4.69,4.69,0,0,0-1.77.28,2.88,2.88,0,0,0-1.74,1.88,12,12,0,0,0-.33,1.35v0.14a2,2,0,0,1-.57,1.07,5.6,5.6,0,0,1-1.07.87,5.14,5.14,0,0,1-1.21.57,3.55,3.55,0,0,1-1,.2q0.23-.89.36-1.62Zm1.8,9.18a6.54,6.54,0,0,0-.08,1.23,2.49,2.49,0,0,0,.29,1.14,2.21,2.21,0,0,0,.85.85,3.14,3.14,0,0,0,1.59.34,4.67,4.67,0,0,0,1.77-.28,2.83,2.83,0,0,0,1.1-.76,3.33,3.33,0,0,0,.62-1.12,10.16,10.16,0,0,0,.34-1.35l0.23-1.49a5.77,5.77,0,0,0,.07-1.23,2.82,2.82,0,0,0-.29-1.14,2.11,2.11,0,0,0-.84-0.85,3.15,3.15,0,0,0-1.59-.34,3.86,3.86,0,0,0-1.7.34,3.51,3.51,0,0,0-1.13.85,3.7,3.7,0,0,0-.67,1.14,6.63,6.63,0,0,0-.33,1.23Z" transform="translate(-88.59 -29.52)"/><path class="cls-1" d="M392,164.62a6.47,6.47,0,0,1-.67,2,5.82,5.82,0,0,1-1.1,1.46A4.41,4.41,0,0,1,389,169a3.24,3.24,0,0,1-1.26.28,19.89,19.89,0,0,0,.88-3.56L392,144.63a6.47,6.47,0,0,1,.67-2,5.78,5.78,0,0,1,1.1-1.46,4.4,4.4,0,0,1,1.29-.87,3.24,3.24,0,0,1,1.26-.28,19.92,19.92,0,0,0-.89,3.56Z" transform="translate(-88.59 -29.52)"/><path class="cls-1" d="M401.42,167.29a3.85,3.85,0,0,0,1.71-.34,3.49,3.49,0,0,0,1.13-.85,3.7,3.7,0,0,0,.67-1.14,6.64,6.64,0,0,0,.33-1.23l0.26-1.64a0.86,0.86,0,0,0-.59-0.8,8.62,8.62,0,0,0-1.69-.69q-1-.32-2.25-0.62t-2.25-.64a8.92,8.92,0,0,1-1.7-.73,0.87,0.87,0,0,1-.57-0.89l0.39-2.52a7.33,7.33,0,0,1,.74-2.17,6.08,6.08,0,0,1,1.46-1.81,7,7,0,0,1,2.23-1.24,9.05,9.05,0,0,1,3-.46,8.61,8.61,0,0,1,2.74.39,4.8,4.8,0,0,1,1.87,1.08,3.77,3.77,0,0,1,1,1.62,4.35,4.35,0,0,1,.11,2q-0.16.93-.25,1.65t-0.15,1.62a2.81,2.81,0,0,1-.93-0.2,3.87,3.87,0,0,1-1-.57,3,3,0,0,1-.79-0.87,1.52,1.52,0,0,1-.2-1.07V155a7.51,7.51,0,0,0,.13-1.35,2.3,2.3,0,0,0-.26-1.12,1.84,1.84,0,0,0-.85-0.76,4,4,0,0,0-1.67-.28,3.85,3.85,0,0,0-1.7.34,3.5,3.5,0,0,0-1.13.85,3.7,3.7,0,0,0-.67,1.14,6.63,6.63,0,0,0-.33,1.23l-0.26,1.64a0.85,0.85,0,0,0,.59.82,9.47,9.47,0,0,0,1.69.68q1,0.32,2.25.62t2.25,0.64a8.52,8.52,0,0,1,1.69.73,0.93,0.93,0,0,1,.59.89l-0.39,2.52a7.33,7.33,0,0,1-.74,2.17,6.07,6.07,0,0,1-1.46,1.81,7,7,0,0,1-2.23,1.24,9,9,0,0,1-3,.46,8.59,8.59,0,0,1-2.74-.39,4.79,4.79,0,0,1-1.87-1.08,3.75,3.75,0,0,1-1-1.62,4.33,4.33,0,0,1-.11-2q0.16-.92.25-1.65t0.15-1.62a2.84,2.84,0,0,1,.93.2,3.91,3.91,0,0,1,1,.57,3,3,0,0,1,.79.87,1.52,1.52,0,0,1,.2,1.07v0.14a7.43,7.43,0,0,0-.13,1.35,2.3,2.3,0,0,0,.26,1.12,1.84,1.84,0,0,0,.85.76A3.93,3.93,0,0,0,401.42,167.29Z" transform="translate(-88.59 -29.52)"/><path class="cls-1" d="M421.65,163.73a6.59,6.59,0,0,0-.08,1.23,2.48,2.48,0,0,0,.29,1.14,2.21,2.21,0,0,0,.85.85,3.14,3.14,0,0,0,1.59.34,4.67,4.67,0,0,0,1.77-.28,2.83,2.83,0,0,0,1.1-.76,3.34,3.34,0,0,0,.62-1.12,10.31,10.31,0,0,0,.34-1.35v-0.14a2,2,0,0,1,.57-1.07,5.63,5.63,0,0,1,1.06-.87,5.17,5.17,0,0,1,1.21-.57,3.59,3.59,0,0,1,1-.2q-0.23.89-.36,1.62l-0.29,1.65a5.23,5.23,0,0,1-.74,2,5.85,5.85,0,0,1-1.51,1.62,7.2,7.2,0,0,1-2.23,1.08,9.89,9.89,0,0,1-2.87.39,7.79,7.79,0,0,1-2.87-.46,4.59,4.59,0,0,1-1.84-1.24,4,4,0,0,1-.88-1.81,5.76,5.76,0,0,1,0-2.17L420.6,150a7.34,7.34,0,0,1,.74-2.17,6.09,6.09,0,0,1,1.46-1.81,7,7,0,0,1,2.23-1.24,9.06,9.06,0,0,1,3-.46,8.6,8.6,0,0,1,2.74.39,4.81,4.81,0,0,1,1.87,1.08,3.78,3.78,0,0,1,1,1.62,4.35,4.35,0,0,1,.11,2q-0.16.93-.25,1.65t-0.15,1.62a3,3,0,0,1-1-.2,3.56,3.56,0,0,1-1-.57,3.38,3.38,0,0,1-.79-0.87,1.48,1.48,0,0,1-.21-1.07l0-.14a9.75,9.75,0,0,0,.1-1.35,2.3,2.3,0,0,0-.26-1.12,1.85,1.85,0,0,0-.85-0.76,4,4,0,0,0-1.67-.28,3.75,3.75,0,0,0-1.69.34,3.57,3.57,0,0,0-1.11.85,3.72,3.72,0,0,0-.67,1.14,6.51,6.51,0,0,0-.33,1.23Z" transform="translate(-88.59 -29.52)"/><path class="cls-1" d="M436.17,154.56a5.24,5.24,0,0,1,.74-2,5.83,5.83,0,0,1,1.51-1.62,7.2,7.2,0,0,1,2.23-1.08,9.9,9.9,0,0,1,2.87-.39,7.81,7.81,0,0,1,2.87.46,4.63,4.63,0,0,1,1.84,1.24,4,4,0,0,1,.88,1.81,5.82,5.82,0,0,1,0,2.17l-2.26,14a2.3,2.3,0,0,1-1.12-.28,1.78,1.78,0,0,1-.79-0.89,7,7,0,0,1-2,.87,10.21,10.21,0,0,1-2.57.3,7.79,7.79,0,0,1-2.87-.46,4.59,4.59,0,0,1-1.84-1.24,4,4,0,0,1-.88-1.81,5.75,5.75,0,0,1,0-2.17l0.16-1.1a7.34,7.34,0,0,1,.74-2.17,6.09,6.09,0,0,1,1.46-1.81,7,7,0,0,1,2.23-1.25,9.07,9.07,0,0,1,3-.46,5.41,5.41,0,0,1,1.67.3,3.47,3.47,0,0,1,1.41.8l0.46-2.84a5.71,5.71,0,0,0,.07-1.23,2.82,2.82,0,0,0-.29-1.14,2.11,2.11,0,0,0-.84-0.85,3.14,3.14,0,0,0-1.59-.34,4.69,4.69,0,0,0-1.77.28,2.88,2.88,0,0,0-1.74,1.88,12,12,0,0,0-.33,1.35v0.14a2,2,0,0,1-.57,1.07,5.61,5.61,0,0,1-1.06.87,5.17,5.17,0,0,1-1.21.57,3.56,3.56,0,0,1-1,.2q0.23-.89.36-1.62Zm1.8,9.18a6.67,6.67,0,0,0-.08,1.23,2.51,2.51,0,0,0,.29,1.14,2.21,2.21,0,0,0,.85.85,3.14,3.14,0,0,0,1.59.34,4.67,4.67,0,0,0,1.77-.28,2.85,2.85,0,0,0,1.1-.76,3.32,3.32,0,0,0,.62-1.12,10,10,0,0,0,.35-1.35l0.23-1.49a5.71,5.71,0,0,0,.07-1.23,2.85,2.85,0,0,0-.29-1.14,2.12,2.12,0,0,0-.84-0.85,3.16,3.16,0,0,0-1.59-.34,3.86,3.86,0,0,0-1.7.34,3.51,3.51,0,0,0-1.13.85,3.7,3.7,0,0,0-.67,1.14,6.51,6.51,0,0,0-.33,1.23Z" transform="translate(-88.59 -29.52)"/><path class="cls-1" d="M454.13,164.62a6.47,6.47,0,0,1-.67,2,5.8,5.8,0,0,1-1.1,1.46,4.4,4.4,0,0,1-1.29.87,3.23,3.23,0,0,1-1.26.28,19.85,19.85,0,0,0,.88-3.56l2.07-12.62a18,18,0,0,0,.23-1.81,11.53,11.53,0,0,0,0-1.74,2.69,2.69,0,0,1,1,.21,2.65,2.65,0,0,1,1,.68,7,7,0,0,1,3.57-.89,5.34,5.34,0,0,1,3.44,1,6.6,6.6,0,0,1,3.67-1,4.93,4.93,0,0,1,3.64,1.19,3.77,3.77,0,0,1,.82,3.43l-1.71,10.49a6.47,6.47,0,0,1-.67,2,5.8,5.8,0,0,1-1.1,1.46,4.42,4.42,0,0,1-1.29.87,3.16,3.16,0,0,1-1.24.28,20.53,20.53,0,0,0,.85-3.56l1.9-11.74q0.39-2.49-1.51-2.49a2,2,0,0,0-1.53.64,3.41,3.41,0,0,0-.8,1.81l-1.74,10.7a6.47,6.47,0,0,1-.67,2,5.8,5.8,0,0,1-1.1,1.46,4.42,4.42,0,0,1-1.29.87,3.24,3.24,0,0,1-1.26.28,19.93,19.93,0,0,0,.89-3.56l1.9-11.77a2.82,2.82,0,0,0-.21-1.81,1.38,1.38,0,0,0-1.29-.64,2,2,0,0,0-1.56.64,3.38,3.38,0,0,0-.8,1.81Z" transform="translate(-88.59 -29.52)"/><path class="cls-1" d="M470,175.15l3.61-22.09a18,18,0,0,0,.23-1.81,11.53,11.53,0,0,0,0-1.74,2.46,2.46,0,0,1,1.18.32,3.31,3.31,0,0,1,1,.92,6.83,6.83,0,0,1,2-.92,9.64,9.64,0,0,1,2.59-.32,7.81,7.81,0,0,1,2.87.46,4.62,4.62,0,0,1,1.84,1.24,4,4,0,0,1,.88,1.81,5.8,5.8,0,0,1,0,2.17L485,163.55a7.33,7.33,0,0,1-.74,2.17,6.06,6.06,0,0,1-1.46,1.81,7,7,0,0,1-2.23,1.24,9,9,0,0,1-3,.46,9.8,9.8,0,0,1-1.74-.14,6.5,6.5,0,0,1-1.44-.43l-0.85,5.41a6.2,6.2,0,0,1-.69,2,6.12,6.12,0,0,1-1.12,1.46,4.42,4.42,0,0,1-1.29.87,3.19,3.19,0,0,1-1.23.28A26.27,26.27,0,0,0,470,175.15Zm5.15-11.42a6.5,6.5,0,0,0-.08,1.23,2.5,2.5,0,0,0,.29,1.14,2.21,2.21,0,0,0,.85.85,3.14,3.14,0,0,0,1.59.34,3.85,3.85,0,0,0,1.71-.34,3.49,3.49,0,0,0,1.13-.85,3.71,3.71,0,0,0,.67-1.14,6.64,6.64,0,0,0,.33-1.23L483,155a5.71,5.71,0,0,0,.07-1.23,2.8,2.8,0,0,0-.29-1.14,2.1,2.1,0,0,0-.84-0.85,3.14,3.14,0,0,0-1.59-.34,4,4,0,0,0-1.62.3,3.37,3.37,0,0,0-1.11.78,3.93,3.93,0,0,0-.71,1.07,4.86,4.86,0,0,0-.36,1.16Z" transform="translate(-88.59 -29.52)"/><path class="cls-2" d="M106.18,166.65a2.73,2.73,0,0,1-.23-1.81l2.75-16.93q0.16-.92.38-1.81a13.87,13.87,0,0,1,.54-1.74,3.25,3.25,0,0,0-1.26.28,4.65,4.65,0,0,0-1.31.87,5.57,5.57,0,0,0-1.12,1.46,6.46,6.46,0,0,0-.67,2l-2.59,15.86a3.2,3.2,0,0,1-.77,1.81,2,2,0,0,1-1.56.64q-1.9,0-1.51-2.49l2.72-16.89q0.16-.92.38-1.81a13.81,13.81,0,0,1,.54-1.74,3.24,3.24,0,0,0-1.26.28,4.63,4.63,0,0,0-1.31.87A5.58,5.58,0,0,0,98.79,147a6.4,6.4,0,0,0-.67,2l-2.56,15.65a3.73,3.73,0,0,0,.84,3.43,5,5,0,0,0,3.65,1.19,6.65,6.65,0,0,0,3.7-1,5.34,5.34,0,0,0,3.44,1,6.43,6.43,0,0,0,4-1.19,5.15,5.15,0,0,0,1.92-3.43l2.72-16.72q0.16-.92.38-1.81a13.8,13.8,0,0,1,.54-1.74,3.25,3.25,0,0,0-1.26.28,4.65,4.65,0,0,0-1.31.87,5.61,5.61,0,0,0-1.11,1.46,6.43,6.43,0,0,0-.67,2l-2.56,15.83a3.4,3.4,0,0,1-.8,1.85,2,2,0,0,1-1.56.64A1.41,1.41,0,0,1,106.18,166.65Z" transform="translate(-88.59 -29.52)"/><path class="cls-2" d="M120.28,162.27a6.55,6.55,0,0,1,.33-1.23,3.72,3.72,0,0,1,.67-1.14,3.49,3.49,0,0,1,1.13-.85,3.83,3.83,0,0,1,1.7-.34,3.13,3.13,0,0,1,1.59.34,2.09,2.09,0,0,1,.83.85,2.78,2.78,0,0,1,.3,1.14,5.78,5.78,0,0,1-.06,1.23l-0.23,1.49a9.86,9.86,0,0,1-.34,1.35,3.31,3.31,0,0,1-.62,1.12,2.85,2.85,0,0,1-1.1.77,4.68,4.68,0,0,1-1.77.28,3.14,3.14,0,0,1-1.59-.34,2.22,2.22,0,0,1-.85-0.85A2.49,2.49,0,0,1,120,165a6.58,6.58,0,0,1,.08-1.23Zm-2.33-6.06q-0.13.73-.36,1.62a3.58,3.58,0,0,0,1-.2,5.2,5.2,0,0,0,1.21-.57,5.72,5.72,0,0,0,1.07-.87,2.06,2.06,0,0,0,.57-1.07V155a12.22,12.22,0,0,1,.33-1.35,3,3,0,0,1,.62-1.12,3,3,0,0,1,1.11-.76,4.7,4.7,0,0,1,1.77-.28,3.14,3.14,0,0,1,1.59.34,2.11,2.11,0,0,1,.84.85,2.8,2.8,0,0,1,.3,1.14,5.78,5.78,0,0,1-.07,1.23l-0.46,2.84a3.48,3.48,0,0,0-1.41-.8,5.37,5.37,0,0,0-1.67-.3,9.07,9.07,0,0,0-3,.46,7,7,0,0,0-2.23,1.25,6.09,6.09,0,0,0-1.46,1.81,7.35,7.35,0,0,0-.74,2.17l-0.16,1.1a5.73,5.73,0,0,0,0,2.17,4,4,0,0,0,.88,1.81,4.63,4.63,0,0,0,1.84,1.25,7.82,7.82,0,0,0,2.87.46,10.22,10.22,0,0,0,2.57-.3,7,7,0,0,0,2-.87,1.78,1.78,0,0,0,.79.89,2.29,2.29,0,0,0,1.11.29l2.26-14a5.79,5.79,0,0,0,0-2.17,4,4,0,0,0-.89-1.81,4.59,4.59,0,0,0-1.83-1.25,7.82,7.82,0,0,0-2.87-.46,9.9,9.9,0,0,0-2.87.39,7.15,7.15,0,0,0-2.23,1.08A5.86,5.86,0,0,0,119,152.6a5.24,5.24,0,0,0-.74,2Z" transform="translate(-88.59 -29.52)"/><path class="cls-2" d="M142.86,163.73a6.66,6.66,0,0,1-.33,1.23,3.71,3.71,0,0,1-.67,1.14,3.5,3.5,0,0,1-1.13.85,3.85,3.85,0,0,1-1.7.34,3.14,3.14,0,0,1-1.59-.34,2.21,2.21,0,0,1-.85-0.85,2.49,2.49,0,0,1-.29-1.14,6.47,6.47,0,0,1,.08-1.23l1.74-10.67a19.93,19.93,0,0,1,.89-3.56,3.27,3.27,0,0,0-1.26.28,4.43,4.43,0,0,0-1.3.87,6.09,6.09,0,0,0-1.11,1.46,6.24,6.24,0,0,0-.69,2l-1.51,9.42a5.76,5.76,0,0,0,0,2.17,4,4,0,0,0,.88,1.81,4.62,4.62,0,0,0,1.84,1.25,7.81,7.81,0,0,0,2.87.46,10.48,10.48,0,0,0,1.79-.14,7.08,7.08,0,0,0,1.52-.43l-0.72,4.52a6.77,6.77,0,0,1-.33,1.23,3.74,3.74,0,0,1-.67,1.14,3.48,3.48,0,0,1-1.13.85,3.84,3.84,0,0,1-1.7.34,3.94,3.94,0,0,1-1.67-.28,1.83,1.83,0,0,1-.85-0.77,2.3,2.3,0,0,1-.26-1.12,7.57,7.57,0,0,1,.13-1.35v-0.14a1.52,1.52,0,0,0-.2-1.07,3,3,0,0,0-.79-0.87,3.93,3.93,0,0,0-1-.57,2.79,2.79,0,0,0-.93-0.19q-0.07.89-.15,1.62t-0.25,1.65a4.33,4.33,0,0,0,.11,2,3.77,3.77,0,0,0,1,1.62,4.81,4.81,0,0,0,1.87,1.08,8.61,8.61,0,0,0,2.74.39,9.1,9.1,0,0,0,3-.46,7,7,0,0,0,2.23-1.25,6.06,6.06,0,0,0,1.46-1.81,7.31,7.31,0,0,0,.74-2.17l3.24-20a19.88,19.88,0,0,1,.89-3.56,3.27,3.27,0,0,0-1.26.28,4.42,4.42,0,0,0-1.29.87,6.07,6.07,0,0,0-1.11,1.46,6.24,6.24,0,0,0-.69,2Z" transform="translate(-88.59 -29.52)"/><path class="cls-2" d="M153.68,167a1.82,1.82,0,0,1-.85-0.77,2.29,2.29,0,0,1-.26-1.12,7.55,7.55,0,0,1,.13-1.35v-0.14a1.53,1.53,0,0,0-.2-1.07,3,3,0,0,0-.79-0.87,3.9,3.9,0,0,0-1-.57,2.81,2.81,0,0,0-.93-0.2c0,0.59-.09,1.13-0.15,1.62s-0.14,1-.24,1.65a4.29,4.29,0,0,0,.11,2,3.74,3.74,0,0,0,1,1.62,4.77,4.77,0,0,0,1.87,1.08,8.56,8.56,0,0,0,2.74.39,9.1,9.1,0,0,0,3-.46,7,7,0,0,0,2.23-1.25,6.07,6.07,0,0,0,1.46-1.81,7.36,7.36,0,0,0,.74-2.17L162.9,161a0.93,0.93,0,0,0-.59-0.89,8.62,8.62,0,0,0-1.69-.73q-1-.34-2.25-0.64t-2.24-.62a9.41,9.41,0,0,1-1.69-.67,0.85,0.85,0,0,1-.59-0.82l0.26-1.64a6.4,6.4,0,0,1,.33-1.23,3.69,3.69,0,0,1,.67-1.14,3.49,3.49,0,0,1,1.13-.85,3.86,3.86,0,0,1,1.71-.34,3.94,3.94,0,0,1,1.67.28,1.85,1.85,0,0,1,.85.76,2.31,2.31,0,0,1,.26,1.12,7.51,7.51,0,0,1-.13,1.35v0.14a1.53,1.53,0,0,0,.2,1.07,3,3,0,0,0,.79.87,3.88,3.88,0,0,0,1,.57,2.82,2.82,0,0,0,.93.19q0.07-.89.15-1.62t0.25-1.65a4.36,4.36,0,0,0-.11-2,3.76,3.76,0,0,0-1-1.62A4.78,4.78,0,0,0,161,149.9a8.64,8.64,0,0,0-2.74-.39,9,9,0,0,0-3,.46,7,7,0,0,0-2.23,1.24,6.06,6.06,0,0,0-1.46,1.81,7.31,7.31,0,0,0-.74,2.17l-0.39,2.52a0.87,0.87,0,0,0,.57.89,8.88,8.88,0,0,0,1.7.73q1,0.34,2.25.64t2.25,0.62a8.54,8.54,0,0,1,1.69.7,0.86,0.86,0,0,1,.59.8l-0.26,1.64a6.51,6.51,0,0,1-.33,1.23,3.67,3.67,0,0,1-.67,1.14,3.48,3.48,0,0,1-1.13.85,3.84,3.84,0,0,1-1.71.34A3.94,3.94,0,0,1,153.68,167Z" transform="translate(-88.59 -29.52)"/><path class="cls-2" d="M181.38,151.64a1.45,1.45,0,0,0,.75-0.2,2,2,0,0,0,.57-0.52,3.23,3.23,0,0,0,.41-0.69l0.33-.73h-3.61l1-5.9a20,20,0,0,1,.88-3.56,3.25,3.25,0,0,0-1.26.29,4.4,4.4,0,0,0-1.29.87,6.07,6.07,0,0,0-1.12,1.46,6.14,6.14,0,0,0-.69,2l-0.79,4.84H174.7a1.44,1.44,0,0,0-.77.19,1.9,1.9,0,0,0-.54.52,4.49,4.49,0,0,0-.41.69l-0.34.73h3.61l-2.29,14a19.93,19.93,0,0,1-.89,3.56,3.25,3.25,0,0,0,1.26-.28,4.44,4.44,0,0,0,1.3-.87,5.76,5.76,0,0,0,1.1-1.46,6.49,6.49,0,0,0,.67-2l2.13-13h1.87Z" transform="translate(-88.59 -29.52)"/><path class="cls-2" d="M187.32,155a6.79,6.79,0,0,1,.33-1.23,3.72,3.72,0,0,1,.67-1.14,3.5,3.5,0,0,1,1.13-.85,3.84,3.84,0,0,1,1.7-.34,3.14,3.14,0,0,1,1.59.34,2.11,2.11,0,0,1,.84.85,2.8,2.8,0,0,1,.29,1.14,5.82,5.82,0,0,1-.06,1.23l-1.41,8.71a6.46,6.46,0,0,1-.33,1.23,3.71,3.71,0,0,1-.67,1.14,3.5,3.5,0,0,1-1.13.85,3.85,3.85,0,0,1-1.7.34A3.14,3.14,0,0,1,187,167a2.22,2.22,0,0,1-.85-0.85,2.48,2.48,0,0,1-.29-1.14,6.51,6.51,0,0,1,.08-1.23Zm9.74,0.18a5.77,5.77,0,0,0,0-2.17,4,4,0,0,0-.88-1.81,4.6,4.6,0,0,0-1.84-1.24,7.81,7.81,0,0,0-2.87-.46,9,9,0,0,0-3,.46,7,7,0,0,0-2.23,1.24,6.09,6.09,0,0,0-1.46,1.81,7.34,7.34,0,0,0-.74,2.17l-1.34,8.36a5.75,5.75,0,0,0,0,2.17,4,4,0,0,0,.88,1.81,4.62,4.62,0,0,0,1.84,1.24,7.8,7.8,0,0,0,2.87.46,9,9,0,0,0,3-.46,7,7,0,0,0,2.23-1.24,6.09,6.09,0,0,0,1.46-1.81,7.33,7.33,0,0,0,.74-2.17Z" transform="translate(-88.59 -29.52)"/><path class="cls-2" d="M205.18,165.69a19.85,19.85,0,0,1-.89,3.56,3.26,3.26,0,0,0,1.26-.28,4.46,4.46,0,0,0,1.3-.87,5.78,5.78,0,0,0,1.1-1.46,6.46,6.46,0,0,0,.67-2l2.72-16.72q0.16-.92.38-1.81a13.77,13.77,0,0,1,.54-1.74,3.24,3.24,0,0,0-1.26.28,4.61,4.61,0,0,0-1.31.87,5.57,5.57,0,0,0-1.12,1.46,6.47,6.47,0,0,0-.67,2Z" transform="translate(-88.59 -29.52)"/><path class="cls-2" d="M226.56,146.48a1.45,1.45,0,0,0,.75-0.2,2,2,0,0,0,.57-0.52,3.89,3.89,0,0,0,.43-0.69l0.34-.73H216a1.43,1.43,0,0,0-.77.2,2.16,2.16,0,0,0-.56.52,4.07,4.07,0,0,0-.43.69l-0.34.73h5.57l-3.11,19.2a19.8,19.8,0,0,1-.88,3.56,3.25,3.25,0,0,0,1.26-.28,4.44,4.44,0,0,0,1.29-.87,5.81,5.81,0,0,0,1.1-1.46,6.46,6.46,0,0,0,.67-2l3-18.14h3.83Z" transform="translate(-88.59 -29.52)"/><path class="cls-2" d="M239.41,149.86a6.6,6.6,0,0,1,.33-1.23,3.69,3.69,0,0,1,.67-1.14,3.57,3.57,0,0,1,1.12-.85,3.75,3.75,0,0,1,1.69-.34,3.16,3.16,0,0,1,1.59.34,2.24,2.24,0,0,1,.85.85,2.7,2.7,0,0,1,.31,1.14,5.78,5.78,0,0,1-.07,1.23l-0.72,4.34a6.57,6.57,0,0,1-.33,1.23,3.69,3.69,0,0,1-.67,1.14,3.47,3.47,0,0,1-1.13.85,3.85,3.85,0,0,1-1.7.34,3.14,3.14,0,0,1-1.59-.34,2.2,2.2,0,0,1-.85-0.85,2.49,2.49,0,0,1-.3-1.14,6.46,6.46,0,0,1,.08-1.23Zm9.74,0.18a5.78,5.78,0,0,0,0-2.17,4,4,0,0,0-.89-1.81,4.61,4.61,0,0,0-1.84-1.25,7.8,7.8,0,0,0-2.87-.46,9.07,9.07,0,0,0-3,.46,7,7,0,0,0-2.23,1.25,6,6,0,0,0-1.46,1.81,7.34,7.34,0,0,0-.74,2.17l-2.56,15.65a19.85,19.85,0,0,1-.88,3.56,3.25,3.25,0,0,0,1.26-.28,4.45,4.45,0,0,0,1.3-.87,5.79,5.79,0,0,0,1.1-1.46,6.51,6.51,0,0,0,.67-2l0.92-5.48a7.88,7.88,0,0,0,3.15.57,9.06,9.06,0,0,0,3-.46,6.92,6.92,0,0,0,2.23-1.24,6.08,6.08,0,0,0,1.46-1.81,7.34,7.34,0,0,0,.74-2.17Z" transform="translate(-88.59 -29.52)"/><path class="cls-2" d="M254.91,154.77a5.29,5.29,0,0,1,.75-1.87,3.05,3.05,0,0,1,1.83-1.3,2,2,0,0,0,.59-0.3,1.81,1.81,0,0,0,.49-0.48,1.51,1.51,0,0,0,.33-0.62,5.38,5.38,0,0,0,.1-0.69,9.64,9.64,0,0,0-2.59.32,6.81,6.81,0,0,0-2,.93,3.27,3.27,0,0,0-1-.93,2.45,2.45,0,0,0-1.18-.32,11.66,11.66,0,0,1,0,1.74q-0.07.89-.23,1.81l-2.06,12.62a19.81,19.81,0,0,1-.89,3.56,3.25,3.25,0,0,0,1.26-.28,4.45,4.45,0,0,0,1.3-.87,5.78,5.78,0,0,0,1.1-1.46,6.47,6.47,0,0,0,.67-2Z" transform="translate(-88.59 -29.52)"/><path class="cls-2" d="M262.91,155a6.75,6.75,0,0,1,.33-1.23,3.72,3.72,0,0,1,.67-1.14,3.49,3.49,0,0,1,1.13-.85,3.83,3.83,0,0,1,1.7-.34,3.14,3.14,0,0,1,1.59.34,2.12,2.12,0,0,1,.84.85,2.83,2.83,0,0,1,.3,1.14,5.76,5.76,0,0,1-.07,1.23L268,163.73a6.5,6.5,0,0,1-.33,1.23,3.71,3.71,0,0,1-.67,1.14,3.51,3.51,0,0,1-1.13.85,3.85,3.85,0,0,1-1.7.34,3.15,3.15,0,0,1-1.59-.34,2.22,2.22,0,0,1-.85-0.85,2.51,2.51,0,0,1-.29-1.14,6.55,6.55,0,0,1,.08-1.23Zm9.74,0.18a5.81,5.81,0,0,0,0-2.17,4,4,0,0,0-.89-1.81,4.6,4.6,0,0,0-1.84-1.24,7.8,7.8,0,0,0-2.87-.46,9,9,0,0,0-3,.46,7,7,0,0,0-2.23,1.24,6.07,6.07,0,0,0-1.46,1.81,7.3,7.3,0,0,0-.74,2.17l-1.34,8.36a5.76,5.76,0,0,0,0,2.17,4,4,0,0,0,.88,1.81,4.62,4.62,0,0,0,1.84,1.24,7.79,7.79,0,0,0,2.87.46,9.05,9.05,0,0,0,3-.46,7,7,0,0,0,2.23-1.24,6.1,6.1,0,0,0,1.46-1.81,7.38,7.38,0,0,0,.74-2.17Z" transform="translate(-88.59 -29.52)"/><path class="cls-2" d="M277.34,151.64l-2.29,14a19.89,19.89,0,0,1-.88,3.56,3.25,3.25,0,0,0,1.26-.28,4.46,4.46,0,0,0,1.3-.87,5.78,5.78,0,0,0,1.1-1.46,6.44,6.44,0,0,0,.67-2l2.13-13h2.56a1.19,1.19,0,0,0,.64-0.2,2.14,2.14,0,0,0,.56-0.52,2.82,2.82,0,0,0,.39-0.69,4,4,0,0,0,.21-0.73h-4l0.66-3.95a6.61,6.61,0,0,1,.33-1.23,3.68,3.68,0,0,1,.67-1.14,3.48,3.48,0,0,1,1.13-.85,3.85,3.85,0,0,1,1.7-.34,0.71,0.71,0,0,0,.46-0.2,2.12,2.12,0,0,0,.41-0.48,3,3,0,0,0,.29-0.62,5.48,5.48,0,0,0,.18-0.66h-1a9,9,0,0,0-3,.46,7,7,0,0,0-2.23,1.25,6.05,6.05,0,0,0-1.46,1.81,7.3,7.3,0,0,0-.74,2.17l-0.62,3.77h-1a1.19,1.19,0,0,0-.64.19,2.12,2.12,0,0,0-.56.52,3.29,3.29,0,0,0-.41.69,2.33,2.33,0,0,0-.2.73h2.46Z" transform="translate(-88.59 -29.52)"/><path class="cls-2" d="M289.94,159.69a2.21,2.21,0,0,1-.85-0.85,2.5,2.5,0,0,1-.29-1.14,6.61,6.61,0,0,1,.08-1.23l0.23-1.46a6.56,6.56,0,0,1,.33-1.23,3.69,3.69,0,0,1,.67-1.14,3.49,3.49,0,0,1,1.13-.85,3.84,3.84,0,0,1,1.7-.34,3.15,3.15,0,0,1,1.59.34,2.11,2.11,0,0,1,.84.85,2.81,2.81,0,0,1,.29,1.14,5.77,5.77,0,0,1-.06,1.23l-0.23,1.46a6.77,6.77,0,0,1-.33,1.23,3.72,3.72,0,0,1-.67,1.14,3.46,3.46,0,0,1-1.13.85,3.83,3.83,0,0,1-1.7.34A3.13,3.13,0,0,1,289.94,159.69Zm7.79,2.85c0.09-.49.21-1,0.36-1.62a3.55,3.55,0,0,0-1,.2,5.13,5.13,0,0,0-1.21.57,5.62,5.62,0,0,0-1.07.87,2.05,2.05,0,0,0-.57,1.07v0.14a9.85,9.85,0,0,1-.34,1.35,3.29,3.29,0,0,1-.62,1.12,2.82,2.82,0,0,1-1.1.77,4.69,4.69,0,0,1-1.77.28,3.13,3.13,0,0,1-1.59-.34,2.2,2.2,0,0,1-.85-0.85,2.5,2.5,0,0,1-.29-1.14,6.55,6.55,0,0,1,.08-1.23l0.46-2.84a3.46,3.46,0,0,0,1.39.8,5.24,5.24,0,0,0,1.66.3,9,9,0,0,0,3-.46,7.13,7.13,0,0,0,2.25-1.25,5.9,5.9,0,0,0,1.48-1.81,7.33,7.33,0,0,0,.74-2.17l0.16-1.1a5.78,5.78,0,0,0,0-2.17,4,4,0,0,0-.89-1.81,4.61,4.61,0,0,0-1.83-1.25,7.82,7.82,0,0,0-2.87-.46,9.06,9.06,0,0,0-3,.46,7,7,0,0,0-2.23,1.25,6.11,6.11,0,0,0-1.46,1.81,7.38,7.38,0,0,0-.74,2.17l-1.34,8.36a5.77,5.77,0,0,0,0,2.17,4,4,0,0,0,.88,1.81,4.61,4.61,0,0,0,1.84,1.25,7.83,7.83,0,0,0,2.87.46,9.85,9.85,0,0,0,2.87-.39,7.16,7.16,0,0,0,2.23-1.08,5.83,5.83,0,0,0,1.51-1.62,5.24,5.24,0,0,0,.74-2Z" transform="translate(-88.59 -29.52)"/><path class="cls-2" d="M305,167a1.84,1.84,0,0,1-.85-0.77,2.3,2.3,0,0,1-.26-1.12,7.46,7.46,0,0,1,.13-1.35v-0.14a1.52,1.52,0,0,0-.2-1.07,3,3,0,0,0-.79-0.87,3.9,3.9,0,0,0-1-.57,2.81,2.81,0,0,0-.93-0.2q-0.07.89-.15,1.62t-0.24,1.65a4.3,4.3,0,0,0,.11,2,3.73,3.73,0,0,0,1,1.62,4.77,4.77,0,0,0,1.87,1.08,8.57,8.57,0,0,0,2.74.39,9.1,9.1,0,0,0,3-.46,7,7,0,0,0,2.23-1.25,6,6,0,0,0,1.46-1.81,7.32,7.32,0,0,0,.74-2.17l0.39-2.53a0.93,0.93,0,0,0-.59-0.89,8.67,8.67,0,0,0-1.69-.73q-1-.34-2.25-0.64t-2.25-.62a9.47,9.47,0,0,1-1.69-.67,0.85,0.85,0,0,1-.59-0.82l0.26-1.64a6.55,6.55,0,0,1,.33-1.23,3.71,3.71,0,0,1,.67-1.14,3.48,3.48,0,0,1,1.13-.85,3.85,3.85,0,0,1,1.71-.34,3.93,3.93,0,0,1,1.67.28,1.86,1.86,0,0,1,.85.76,2.32,2.32,0,0,1,.26,1.12,7.42,7.42,0,0,1-.13,1.35v0.14a1.53,1.53,0,0,0,.2,1.07,3,3,0,0,0,.79.87,3.88,3.88,0,0,0,1,.57,2.83,2.83,0,0,0,.93.19q0.07-.89.15-1.62t0.25-1.65a4.37,4.37,0,0,0-.12-2,3.76,3.76,0,0,0-1-1.62,4.78,4.78,0,0,0-1.87-1.09,8.65,8.65,0,0,0-2.74-.39,9,9,0,0,0-3,.46,7,7,0,0,0-2.23,1.24,6.09,6.09,0,0,0-1.46,1.81,7.36,7.36,0,0,0-.74,2.17l-0.39,2.52a0.87,0.87,0,0,0,.57.89,8.9,8.9,0,0,0,1.7.73q1,0.34,2.25.64t2.25,0.62a8.57,8.57,0,0,1,1.69.7,0.86,0.86,0,0,1,.59.8l-0.26,1.64a6.58,6.58,0,0,1-.33,1.23,3.67,3.67,0,0,1-.67,1.14,3.47,3.47,0,0,1-1.13.85,3.84,3.84,0,0,1-1.7.34A3.94,3.94,0,0,1,305,167Z" transform="translate(-88.59 -29.52)"/><path class="cls-2" d="M321.33,167a1.82,1.82,0,0,1-.85-0.77,2.28,2.28,0,0,1-.26-1.12,7.51,7.51,0,0,1,.13-1.35v-0.14a1.53,1.53,0,0,0-.2-1.07,3,3,0,0,0-.79-0.87,3.9,3.9,0,0,0-1-.57,2.81,2.81,0,0,0-.93-0.2c0,0.59-.09,1.13-0.15,1.62s-0.14,1-.25,1.65a4.31,4.31,0,0,0,.11,2,3.75,3.75,0,0,0,1,1.62,4.77,4.77,0,0,0,1.87,1.08,8.57,8.57,0,0,0,2.74.39,9.1,9.1,0,0,0,3-.46,7,7,0,0,0,2.23-1.25,6,6,0,0,0,1.46-1.81,7.39,7.39,0,0,0,.74-2.17l0.39-2.53a0.93,0.93,0,0,0-.59-0.89,8.63,8.63,0,0,0-1.69-.73q-1-.34-2.25-0.64t-2.25-.62a9.42,9.42,0,0,1-1.69-.67,0.85,0.85,0,0,1-.59-0.82l0.26-1.64a6.44,6.44,0,0,1,.33-1.23,3.67,3.67,0,0,1,.67-1.14,3.48,3.48,0,0,1,1.13-.85,3.86,3.86,0,0,1,1.71-.34,3.94,3.94,0,0,1,1.67.28,1.85,1.85,0,0,1,.85.76,2.31,2.31,0,0,1,.26,1.12,7.47,7.47,0,0,1-.13,1.35v0.14a1.53,1.53,0,0,0,.2,1.07,3,3,0,0,0,.79.87,3.89,3.89,0,0,0,1,.57,2.83,2.83,0,0,0,.94.19c0-.59.09-1.13,0.15-1.62s0.14-1,.25-1.65a4.35,4.35,0,0,0-.12-2,3.75,3.75,0,0,0-1-1.62,4.78,4.78,0,0,0-1.87-1.09,8.65,8.65,0,0,0-2.74-.39,9,9,0,0,0-3,.46,7,7,0,0,0-2.23,1.24,6.08,6.08,0,0,0-1.46,1.81,7.34,7.34,0,0,0-.74,2.17l-0.39,2.52a0.87,0.87,0,0,0,.57.89,8.89,8.89,0,0,0,1.7.73q1,0.34,2.25.64t2.24,0.62a8.51,8.51,0,0,1,1.69.7,0.86,0.86,0,0,1,.59.8l-0.26,1.64a6.63,6.63,0,0,1-.33,1.23,3.66,3.66,0,0,1-.67,1.14,3.46,3.46,0,0,1-1.13.85,3.84,3.84,0,0,1-1.7.34A3.94,3.94,0,0,1,321.33,167Z" transform="translate(-88.59 -29.52)"/><path class="cls-2" d="M335.82,148.69q3.31-.18,3.71-2.49l0.43-2.67q-3.31.21-3.7,2.53ZM339,149.5a4.08,4.08,0,0,0-1,.16,6.32,6.32,0,0,0-1.13.43,4.07,4.07,0,0,0-.94.62,1.31,1.31,0,0,0-.46.75l-2.33,14.22a19.88,19.88,0,0,1-.88,3.56,3.22,3.22,0,0,0,1.26-.28,4.42,4.42,0,0,0,1.3-.87,5.78,5.78,0,0,0,1.1-1.46,6.45,6.45,0,0,0,.67-2Z" transform="translate(-88.59 -29.52)"/><path class="cls-2" d="M344.64,155a6.71,6.71,0,0,1,.33-1.23,3.7,3.7,0,0,1,.67-1.14,3.48,3.48,0,0,1,1.13-.85,3.84,3.84,0,0,1,1.71-.34,3.14,3.14,0,0,1,1.59.34,2.12,2.12,0,0,1,.84.85,2.8,2.8,0,0,1,.29,1.14,5.82,5.82,0,0,1-.06,1.23l-1.41,8.71a6.46,6.46,0,0,1-.33,1.23,3.68,3.68,0,0,1-.67,1.14,3.5,3.5,0,0,1-1.13.85,3.85,3.85,0,0,1-1.71.34,3.15,3.15,0,0,1-1.59-.34,2.21,2.21,0,0,1-.85-0.85,2.49,2.49,0,0,1-.3-1.14,6.58,6.58,0,0,1,.08-1.23Zm9.74,0.18a5.76,5.76,0,0,0,0-2.17,4,4,0,0,0-.89-1.81,4.59,4.59,0,0,0-1.83-1.24,7.81,7.81,0,0,0-2.87-.46,9,9,0,0,0-3,.46,7,7,0,0,0-2.23,1.24,6.08,6.08,0,0,0-1.46,1.81,7.31,7.31,0,0,0-.74,2.17L340,163.55a5.78,5.78,0,0,0,0,2.17,4,4,0,0,0,.88,1.81,4.63,4.63,0,0,0,1.84,1.24,7.79,7.79,0,0,0,2.87.46,9,9,0,0,0,3-.46,7,7,0,0,0,2.23-1.24,6.07,6.07,0,0,0,1.46-1.81,7.36,7.36,0,0,0,.74-2.17Z" transform="translate(-88.59 -29.52)"/><path class="cls-2" d="M361,154.73a4.87,4.87,0,0,1,.36-1.16,3.91,3.91,0,0,1,.71-1.07,3.38,3.38,0,0,1,1.11-.78,4,4,0,0,1,1.62-.3,3.15,3.15,0,0,1,1.59.34,2.12,2.12,0,0,1,.84.85,2.81,2.81,0,0,1,.29,1.14,5.74,5.74,0,0,1-.06,1.23l-1.74,10.7a19.83,19.83,0,0,1-.89,3.56,3.23,3.23,0,0,0,1.26-.29,4.44,4.44,0,0,0,1.29-.87,5.84,5.84,0,0,0,1.1-1.46,6.51,6.51,0,0,0,.67-2l1.54-9.46a5.79,5.79,0,0,0,0-2.17,4,4,0,0,0-.89-1.81,4.61,4.61,0,0,0-1.82-1.25,7.67,7.67,0,0,0-2.85-.46,9.29,9.29,0,0,0-2.62.34,7.89,7.89,0,0,0-2,.91,3.09,3.09,0,0,0-1-.91,2.58,2.58,0,0,0-1.18-.3,11.52,11.52,0,0,1,0,1.74q-0.07.89-.23,1.81l-2.07,12.62a19.62,19.62,0,0,1-.89,3.56,3.22,3.22,0,0,0,1.26-.29,4.41,4.41,0,0,0,1.3-.87,5.82,5.82,0,0,0,1.1-1.46,6.46,6.46,0,0,0,.67-2Z" transform="translate(-88.59 -29.52)"/><path class="cls-2" d="M376.11,162.27a6.52,6.52,0,0,1,.33-1.23,3.68,3.68,0,0,1,.67-1.14,3.46,3.46,0,0,1,1.13-.85,3.82,3.82,0,0,1,1.7-.34,3.13,3.13,0,0,1,1.59.34,2.1,2.1,0,0,1,.84.85,2.81,2.81,0,0,1,.3,1.14,5.78,5.78,0,0,1-.06,1.23l-0.23,1.49a10.07,10.07,0,0,1-.34,1.35,3.3,3.3,0,0,1-.62,1.12,2.84,2.84,0,0,1-1.1.77,4.68,4.68,0,0,1-1.77.28,3.14,3.14,0,0,1-1.59-.34,2.21,2.21,0,0,1-.85-0.85,2.5,2.5,0,0,1-.29-1.14,6.54,6.54,0,0,1,.08-1.23Zm-2.33-6.06q-0.13.73-.36,1.62a3.57,3.57,0,0,0,1-.2,5.2,5.2,0,0,0,1.21-.57,5.73,5.73,0,0,0,1.07-.87,2.05,2.05,0,0,0,.57-1.07V155a12,12,0,0,1,.33-1.35,2.88,2.88,0,0,1,1.74-1.88,4.71,4.71,0,0,1,1.77-.28,3.14,3.14,0,0,1,1.59.34,2.12,2.12,0,0,1,.84.85,2.82,2.82,0,0,1,.29,1.14,5.68,5.68,0,0,1-.07,1.23l-0.46,2.84a3.48,3.48,0,0,0-1.41-.8,5.36,5.36,0,0,0-1.67-.3,9.06,9.06,0,0,0-3,.46,7,7,0,0,0-2.23,1.25,6.1,6.1,0,0,0-1.46,1.81,7.31,7.31,0,0,0-.74,2.17l-0.16,1.1a5.74,5.74,0,0,0,0,2.17,4,4,0,0,0,.88,1.81,4.61,4.61,0,0,0,1.84,1.25,7.81,7.81,0,0,0,2.87.46,10.22,10.22,0,0,0,2.57-.3,7,7,0,0,0,2-.87,1.78,1.78,0,0,0,.79.89,2.28,2.28,0,0,0,1.12.29l2.26-14a5.8,5.8,0,0,0,0-2.17,4,4,0,0,0-.88-1.81,4.63,4.63,0,0,0-1.84-1.25,7.83,7.83,0,0,0-2.87-.46,9.92,9.92,0,0,0-2.87.39,7.16,7.16,0,0,0-2.23,1.08,5.85,5.85,0,0,0-1.51,1.62,5.2,5.2,0,0,0-.74,2Z" transform="translate(-88.59 -29.52)"/><path class="cls-2" d="M395.49,143.57a20,20,0,0,1,.88-3.56,3.27,3.27,0,0,0-1.26.29,4.37,4.37,0,0,0-1.29.87,5.74,5.74,0,0,0-1.1,1.46,6.4,6.4,0,0,0-.67,2l-3.44,21.05a19.93,19.93,0,0,1-.88,3.56A3.25,3.25,0,0,0,389,169a4.46,4.46,0,0,0,1.3-.87,5.83,5.83,0,0,0,1.1-1.46,6.51,6.51,0,0,0,.67-2Z" transform="translate(-88.59 -29.52)"/><path class="cls-2" d="M399.75,167a1.82,1.82,0,0,1-.85-0.77,2.27,2.27,0,0,1-.27-1.12,7.51,7.51,0,0,1,.13-1.35v-0.14a1.52,1.52,0,0,0-.2-1.07,3.06,3.06,0,0,0-.78-0.87,3.93,3.93,0,0,0-1-.57,2.81,2.81,0,0,0-.93-0.2c0,0.59-.09,1.13-0.15,1.62s-0.13,1-.25,1.65a4.33,4.33,0,0,0,.12,2,3.74,3.74,0,0,0,1,1.62,4.77,4.77,0,0,0,1.87,1.08,8.58,8.58,0,0,0,2.74.39,9.11,9.11,0,0,0,3-.46,7,7,0,0,0,2.23-1.25,6,6,0,0,0,1.46-1.81,7.4,7.4,0,0,0,.74-2.17L409,161a0.93,0.93,0,0,0-.59-0.89,8.62,8.62,0,0,0-1.69-.73q-1-.34-2.24-0.64c-0.81-.2-1.56-0.41-2.25-0.62a9.54,9.54,0,0,1-1.69-.67,0.85,0.85,0,0,1-.59-0.82l0.26-1.64a6.55,6.55,0,0,1,.33-1.23,3.72,3.72,0,0,1,.67-1.14,3.49,3.49,0,0,1,1.13-.85,3.86,3.86,0,0,1,1.71-.34,4,4,0,0,1,1.67.28,1.85,1.85,0,0,1,.85.76,2.33,2.33,0,0,1,.26,1.12,7.59,7.59,0,0,1-.13,1.35v0.14a1.52,1.52,0,0,0,.2,1.07,3,3,0,0,0,.79.87,3.84,3.84,0,0,0,1,.57,2.84,2.84,0,0,0,.93.19c0-.59.09-1.13,0.15-1.62s0.14-1,.25-1.65a4.31,4.31,0,0,0-.12-2,3.75,3.75,0,0,0-1-1.62A4.77,4.77,0,0,0,407,149.9a8.66,8.66,0,0,0-2.74-.39,9.05,9.05,0,0,0-3,.46,7,7,0,0,0-2.23,1.24A6.09,6.09,0,0,0,397.6,153a7.34,7.34,0,0,0-.74,2.17l-0.39,2.52a0.87,0.87,0,0,0,.57.89,8.88,8.88,0,0,0,1.7.73q1,0.34,2.25.64t2.24,0.62a8.61,8.61,0,0,1,1.69.7,0.86,0.86,0,0,1,.59.8l-0.26,1.64a6.65,6.65,0,0,1-.33,1.23,3.68,3.68,0,0,1-.67,1.14,3.48,3.48,0,0,1-1.13.85,3.84,3.84,0,0,1-1.7.34A3.94,3.94,0,0,1,399.75,167Z" transform="translate(-88.59 -29.52)"/><path class="cls-2" d="M423.91,149.86a6.46,6.46,0,0,1,.33-1.23,3.7,3.7,0,0,1,.67-1.14,3.57,3.57,0,0,1,1.12-.85,3.75,3.75,0,0,1,1.69-.34,3.92,3.92,0,0,1,1.67.29,1.83,1.83,0,0,1,.85.76,2.32,2.32,0,0,1,.26,1.12,10.22,10.22,0,0,1-.1,1.35l0,0.14a1.48,1.48,0,0,0,.21,1.07,3.43,3.43,0,0,0,.79.87,3.56,3.56,0,0,0,1,.57,2.93,2.93,0,0,0,1,.2c0-.59.09-1.13,0.15-1.62s0.14-1,.25-1.65a4.35,4.35,0,0,0-.11-2,3.8,3.8,0,0,0-1-1.62,4.79,4.79,0,0,0-1.87-1.09,8.62,8.62,0,0,0-2.74-.39,9.08,9.08,0,0,0-3,.46,7,7,0,0,0-2.23,1.25,6,6,0,0,0-1.46,1.81,7.31,7.31,0,0,0-.74,2.17l-2.2,13.51a5.74,5.74,0,0,0,0,2.17,4,4,0,0,0,.88,1.81,4.61,4.61,0,0,0,1.84,1.24,7.81,7.81,0,0,0,2.87.46,9.83,9.83,0,0,0,2.87-.39,7.17,7.17,0,0,0,2.23-1.08,5.82,5.82,0,0,0,1.51-1.62,5.27,5.27,0,0,0,.74-2l0.29-1.65c0.09-.48.21-1,0.36-1.62a3.58,3.58,0,0,0-1,.2,5.08,5.08,0,0,0-1.21.57,5.47,5.47,0,0,0-1.07.87,2.05,2.05,0,0,0-.57,1.07v0.14a9.7,9.7,0,0,1-.34,1.35,3.32,3.32,0,0,1-.62,1.12,2.84,2.84,0,0,1-1.1.77,4.69,4.69,0,0,1-1.77.28,3.13,3.13,0,0,1-1.59-.34,2.24,2.24,0,0,1-.86-0.85,2.52,2.52,0,0,1-.29-1.14,6.51,6.51,0,0,1,.08-1.23Z" transform="translate(-88.59 -29.52)"/><path class="cls-2" d="M438.2,162.27a6.45,6.45,0,0,1,.33-1.23,3.64,3.64,0,0,1,.67-1.14,3.51,3.51,0,0,1,1.13-.85,3.82,3.82,0,0,1,1.7-.34,3.14,3.14,0,0,1,1.59.34,2.08,2.08,0,0,1,.83.85,2.85,2.85,0,0,1,.3,1.14,5.71,5.71,0,0,1-.07,1.23l-0.23,1.49a9.85,9.85,0,0,1-.34,1.35,3.33,3.33,0,0,1-.62,1.12,2.86,2.86,0,0,1-1.1.77,4.68,4.68,0,0,1-1.77.28A3.14,3.14,0,0,1,439,167a2.2,2.2,0,0,1-.85-0.85,2.49,2.49,0,0,1-.3-1.14,6.76,6.76,0,0,1,.08-1.23Zm-2.33-6.06c-0.09.49-.21,1-0.36,1.62a3.6,3.6,0,0,0,1-.2,5.22,5.22,0,0,0,1.21-.57,5.63,5.63,0,0,0,1.06-.87,2.07,2.07,0,0,0,.57-1.07V155a11.78,11.78,0,0,1,.33-1.35,2.87,2.87,0,0,1,1.74-1.88,4.69,4.69,0,0,1,1.77-.28,3.12,3.12,0,0,1,1.59.34,2.14,2.14,0,0,1,.84.85,2.87,2.87,0,0,1,.29,1.14,5.71,5.71,0,0,1-.07,1.23l-0.46,2.84a3.48,3.48,0,0,0-1.41-.8,5.38,5.38,0,0,0-1.67-.3,9.07,9.07,0,0,0-3,.46,7,7,0,0,0-2.23,1.25,6,6,0,0,0-1.46,1.81,7.28,7.28,0,0,0-.74,2.17l-0.17,1.1a5.77,5.77,0,0,0,0,2.17,4,4,0,0,0,.89,1.81,4.62,4.62,0,0,0,1.83,1.25,7.82,7.82,0,0,0,2.87.46,10.23,10.23,0,0,0,2.57-.3,7,7,0,0,0,2-.87,1.77,1.77,0,0,0,.79.89,2.29,2.29,0,0,0,1.11.29l2.26-14a5.81,5.81,0,0,0,0-2.17,4,4,0,0,0-.89-1.81,4.62,4.62,0,0,0-1.84-1.25,7.82,7.82,0,0,0-2.87-.46,9.92,9.92,0,0,0-2.87.39,7.14,7.14,0,0,0-2.23,1.08,5.79,5.79,0,0,0-1.51,1.62,5.24,5.24,0,0,0-.74,2Z" transform="translate(-88.59 -29.52)"/><path class="cls-2" d="M455.87,153.92a3.41,3.41,0,0,1,.8-1.82,2,2,0,0,1,1.56-.64,1.37,1.37,0,0,1,1.29.64,2.82,2.82,0,0,1,.22,1.82l-1.9,11.77a19.91,19.91,0,0,1-.88,3.56,3.22,3.22,0,0,0,1.26-.29,4.4,4.4,0,0,0,1.29-.87,5.77,5.77,0,0,0,1.1-1.46,6.45,6.45,0,0,0,.67-2l1.74-10.7a3.43,3.43,0,0,1,.8-1.82,2,2,0,0,1,1.53-.64q1.9,0,1.51,2.49L465,165.69a20.77,20.77,0,0,1-.85,3.56,3.14,3.14,0,0,0,1.23-.29,4.44,4.44,0,0,0,1.29-.87,5.78,5.78,0,0,0,1.1-1.46,6.42,6.42,0,0,0,.67-2l1.71-10.49a3.77,3.77,0,0,0-.82-3.43,4.93,4.93,0,0,0-3.64-1.19,6.58,6.58,0,0,0-3.67,1,5.35,5.35,0,0,0-3.45-1,7,7,0,0,0-3.57.89,2.71,2.71,0,0,0-2-.89,11.55,11.55,0,0,1,0,1.74,17.47,17.47,0,0,1-.23,1.81l-2.06,12.62a20.07,20.07,0,0,1-.88,3.56,3.22,3.22,0,0,0,1.26-.29,4.43,4.43,0,0,0,1.29-.87,5.77,5.77,0,0,0,1.1-1.46,6.42,6.42,0,0,0,.67-2Z" transform="translate(-88.59 -29.52)"/><path class="cls-2" d="M476.59,154.77a4.84,4.84,0,0,1,.36-1.15,4,4,0,0,1,.7-1.07,3.43,3.43,0,0,1,1.12-.78,4,4,0,0,1,1.62-.3,3.12,3.12,0,0,1,1.59.34,2.12,2.12,0,0,1,.84.85,2.8,2.8,0,0,1,.29,1.14A5.78,5.78,0,0,1,483,155l-1.41,8.71a6.58,6.58,0,0,1-.33,1.23,3.74,3.74,0,0,1-.67,1.14,3.5,3.5,0,0,1-1.13.85,3.86,3.86,0,0,1-1.7.34,3.14,3.14,0,0,1-1.59-.34,2.22,2.22,0,0,1-.85-0.85,2.47,2.47,0,0,1-.3-1.14,6.67,6.67,0,0,1,.08-1.23Zm-7.44,23.94a3.17,3.17,0,0,0,1.23-.28,4.41,4.41,0,0,0,1.3-.87,6.16,6.16,0,0,0,1.8-3.47l0.85-5.41a6.51,6.51,0,0,0,1.44.43,9.86,9.86,0,0,0,1.74.14,9,9,0,0,0,3-.46,7,7,0,0,0,2.23-1.24,6,6,0,0,0,1.46-1.81,7.33,7.33,0,0,0,.74-2.17l1.34-8.36a5.83,5.83,0,0,0,0-2.17,4,4,0,0,0-.89-1.81,4.6,4.6,0,0,0-1.84-1.24,7.8,7.8,0,0,0-2.87-.46,9.62,9.62,0,0,0-2.59.32,6.72,6.72,0,0,0-2,.92,3.29,3.29,0,0,0-1-.92,2.45,2.45,0,0,0-1.18-.32,11.81,11.81,0,0,1,0,1.74,18.09,18.09,0,0,1-.23,1.81L470,175.15A26.24,26.24,0,0,1,469.15,178.7Z" transform="translate(-88.59 -29.52)"/><path class="cls-1" d="M229.7,57.92a16.77,16.77,0,0,0-8,7.31,19.58,19.58,0,0,0-2.23,6.31L211,121.24a10.48,10.48,0,0,1-2.66,5.81,7,7,0,0,1-5.16,2,4.78,4.78,0,0,1-4.35-2q-1.31-2-.76-5.7l9.13-53.16q0.54-2.9,1.25-5.69A41.94,41.94,0,0,1,210.19,57a11.29,11.29,0,0,0-4.18.89,15.42,15.42,0,0,0-4.35,2.74A17.69,17.69,0,0,0,198,65.24a19.59,19.59,0,0,0-2.23,6.31l-8.59,49.81a9.84,9.84,0,0,1-2.55,5.7,7,7,0,0,1-5.16,2q-6.3,0-5-7.82l9-53V68.13c0.42-2.07.61-2.63,0.51-2.68s-0.63,1.54-2.16,2.72a6.78,6.78,0,0,1-2,1,7.9,7.9,0,0,1-3,.51c-2-.08-2.53-0.95-3.44-0.57-0.46.2-1.06,0.74-1.36,2.43l-8.48,49.13q-1.2,7,2.77,10.78t12.12,3.74q7.39,0,12.28-3,3.91,3,11.41,3,8.15,0,13.31-3.74a16,16,0,0,0,6.36-10.78l9-52.49q0.54-2.9,1.25-5.69c0.27-1.07.37-1.44,0.51-1.85a12.07,12.07,0,0,1,2.85-4.46,21.13,21.13,0,0,0-5.76,1.73" transform="translate(-88.59 -29.52)"/><path class="cls-3" d="M229.7,57.92a16.77,16.77,0,0,0-8,7.31,19.58,19.58,0,0,0-2.23,6.31L211,121.24a10.48,10.48,0,0,1-2.66,5.81,7,7,0,0,1-5.16,2,4.78,4.78,0,0,1-4.35-2q-1.31-2-.76-5.7l9.13-53.16q0.54-2.9,1.25-5.69A41.94,41.94,0,0,1,210.19,57a11.29,11.29,0,0,0-4.18.89,15.42,15.42,0,0,0-4.35,2.74A17.69,17.69,0,0,0,198,65.24a19.59,19.59,0,0,0-2.23,6.31l-8.59,49.81a9.84,9.84,0,0,1-2.55,5.7,7,7,0,0,1-5.16,2q-6.3,0-5-7.82l9-53V68.13c0.42-2.07.61-2.63,0.51-2.68s-0.63,1.54-2.16,2.72a6.78,6.78,0,0,1-2,1,7.9,7.9,0,0,1-3,.51c-2-.08-2.53-0.95-3.44-0.57-0.46.2-1.06,0.74-1.36,2.43l-8.48,49.13q-1.2,7,2.77,10.78t12.12,3.74q7.39,0,12.28-3,3.91,3,11.41,3,8.15,0,13.31-3.74a16,16,0,0,0,6.36-10.78l9-52.49q0.54-2.9,1.25-5.69c0.27-1.07.37-1.44,0.51-1.85a12.07,12.07,0,0,1,2.85-4.46A21.13,21.13,0,0,0,229.7,57.92Z" transform="translate(-88.59 -29.52)"/><path class="cls-1" d="M246.86,72a9.33,9.33,0,0,0-1.36.62c-2.09,1.17-4.1,3.27-4.56,5.57-1.62,8-6,33.49-6,33.49-1,8.8-3.73,16.59-10.23,23.1a59.36,59.36,0,0,0,7.17-.73c0.86-.19,1.61-0.44,1.61-0.44l0.55-.2a14.8,14.8,0,0,0,4.29-2.61,17.68,17.68,0,0,0,3.64-4.37,18.14,18.14,0,0,0,2.23-6l9.06-50a40.19,40.19,0,0,0-6.4,1.61" transform="translate(-88.59 -29.52)"/><path class="cls-3" d="M246.86,72a9.33,9.33,0,0,0-1.36.62c-2.09,1.17-4.1,3.27-4.56,5.57-1.62,8-6,33.49-6,33.49-1,8.8-3.73,16.59-10.23,23.1a59.36,59.36,0,0,0,7.17-.73c0.86-.19,1.61-0.44,1.61-0.44l0.55-.2a14.8,14.8,0,0,0,4.29-2.61,17.68,17.68,0,0,0,3.64-4.37,18.14,18.14,0,0,0,2.23-6l9.06-50A40.19,40.19,0,0,0,246.86,72Z" transform="translate(-88.59 -29.52)"/><path class="cls-1" d="M304.09,87.41a22.23,22.23,0,0,1-2.45,6.81,19.35,19.35,0,0,1-4.84,5.7,23.48,23.48,0,0,1-7.39,3.91,31.52,31.52,0,0,1-10,1.45A27.38,27.38,0,0,1,269,103.49l-3,17.2a19.64,19.64,0,0,1-2.23,6.31,18.36,18.36,0,0,1-3.64,4.58,16.78,16.78,0,0,1-4.29,2.74,17.69,17.69,0,0,1-8,1.47,17.13,17.13,0,0,0,5.37-6.63,16.83,16.83,0,0,0,1.39-5.11L263,74.9a22.15,22.15,0,0,1,2.45-6.81,19.27,19.27,0,0,1,4.84-5.7,26,26,0,0,1,18.3-5.14c3.44,0.54,6.17,2.37,9.32,3.64,2.73,1.09,4.09,1.73,5.37,1.5a9.33,9.33,0,0,0,3.34-2.08c0.83-.71,1.33-1.34,1.6-1.2s0,1.67-.17,2.16a67.16,67.16,0,0,0-1.91,8.36c-0.83,5.9-1,11.89-2,17.76m-32.5.56a19.53,19.53,0,0,0-.27,3.85,7.51,7.51,0,0,0,1,3.57,7.15,7.15,0,0,0,2.83,2.68,10.88,10.88,0,0,0,5.27,1.06A13.35,13.35,0,0,0,286,98.07a11.31,11.31,0,0,0,6-6.25A20,20,0,0,0,293.11,88l2.39-13.62a17.13,17.13,0,0,0,.22-3.85,8,8,0,0,0-1-3.57,7.18,7.18,0,0,0-2.82-2.68,10.91,10.91,0,0,0-5.27-1.06,13,13,0,0,0-5.6,1.06,11.74,11.74,0,0,0-3.69,2.68,11.54,11.54,0,0,0-2.23,3.57A20,20,0,0,0,274,74.34Z" transform="translate(-88.59 -29.52)"/><path class="cls-3" d="M304.09,87.41a22.23,22.23,0,0,1-2.45,6.81,19.35,19.35,0,0,1-4.84,5.7,23.48,23.48,0,0,1-7.39,3.91,31.52,31.52,0,0,1-10,1.45A27.38,27.38,0,0,1,269,103.49l-3,17.2a19.64,19.64,0,0,1-2.23,6.31,18.36,18.36,0,0,1-3.64,4.58,16.78,16.78,0,0,1-4.29,2.74,17.69,17.69,0,0,1-8,1.47,17.13,17.13,0,0,0,5.37-6.63,16.83,16.83,0,0,0,1.39-5.11L263,74.9a22.15,22.15,0,0,1,2.45-6.81,19.27,19.27,0,0,1,4.84-5.7,26,26,0,0,1,18.3-5.14c3.44,0.54,6.17,2.37,9.32,3.64,2.73,1.09,4.09,1.73,5.37,1.5a9.33,9.33,0,0,0,3.34-2.08c0.83-.71,1.33-1.34,1.6-1.2s0,1.67-.17,2.16a67.16,67.16,0,0,0-1.91,8.36C305.3,75.55,305.16,81.53,304.09,87.41Zm-32.5.56a19.53,19.53,0,0,0-.27,3.85,7.51,7.51,0,0,0,1,3.57,7.15,7.15,0,0,0,2.83,2.68,10.88,10.88,0,0,0,5.27,1.06A13.35,13.35,0,0,0,286,98.07a11.31,11.31,0,0,0,6-6.25A20,20,0,0,0,293.11,88l2.39-13.62a17.13,17.13,0,0,0,.22-3.85,8,8,0,0,0-1-3.57,7.18,7.18,0,0,0-2.82-2.68,10.91,10.91,0,0,0-5.27-1.06,13,13,0,0,0-5.6,1.06,11.74,11.74,0,0,0-3.69,2.68,11.54,11.54,0,0,0-2.23,3.57A20,20,0,0,0,274,74.34Z" transform="translate(-88.59 -29.52)"/><path class="cls-1" d="M342.34,117.89a19.4,19.4,0,0,0-.27,3.85,7.5,7.5,0,0,0,1,3.57,7.12,7.12,0,0,0,2.83,2.68,10.88,10.88,0,0,0,5.27,1.06,16.28,16.28,0,0,0,5.87-.89,9.42,9.42,0,0,0,3.64-2.4,10.32,10.32,0,0,0,2.06-3.52,30.48,30.48,0,0,0,1.14-4.24v-0.45a6.33,6.33,0,0,1,1.9-3.35,18.49,18.49,0,0,1,3.53-2.74,17.61,17.61,0,0,1,4-1.79,12.48,12.48,0,0,1,3.37-.61q-0.76,2.79-1.2,5.08l-1,5.19a16,16,0,0,1-2.45,6.14,18.79,18.79,0,0,1-5,5.08,24.41,24.41,0,0,1-7.39,3.41,34.47,34.47,0,0,1-9.51,1.23,27.14,27.14,0,0,1-9.51-1.45,15.3,15.3,0,0,1-6.09-3.91,12.2,12.2,0,0,1-2.93-5.7,17.2,17.2,0,0,1-.05-6.81l7.28-42.44a22.15,22.15,0,0,1,2.45-6.81,19.28,19.28,0,0,1,4.84-5.7,23.47,23.47,0,0,1,7.39-3.91,31.57,31.57,0,0,1,10-1.45,30,30,0,0,1,9.07,1.23,16.17,16.17,0,0,1,6.2,3.41,11.75,11.75,0,0,1,3.26,5.08,13,13,0,0,1,.38,6.14q-0.55,2.9-.82,5.19t-0.49,5.08a10.28,10.28,0,0,1-3.15-.61,12,12,0,0,1-3.42-1.79A10.85,10.85,0,0,1,372,78a4.43,4.43,0,0,1-.7-3.35l0.11-.45a29.2,29.2,0,0,0,.33-4.24,6.94,6.94,0,0,0-.87-3.52,6,6,0,0,0-2.83-2.4,13.73,13.73,0,0,0-5.54-.89,13,13,0,0,0-5.6,1.06,11.73,11.73,0,0,0-3.69,2.68,11.5,11.5,0,0,0-2.23,3.57,19.87,19.87,0,0,0-1.09,3.85Z" transform="translate(-88.59 -29.52)"/><path class="cls-3" d="M342.34,117.89a19.4,19.4,0,0,0-.27,3.85,7.5,7.5,0,0,0,1,3.57,7.12,7.12,0,0,0,2.83,2.68,10.88,10.88,0,0,0,5.27,1.06,16.28,16.28,0,0,0,5.87-.89,9.42,9.42,0,0,0,3.64-2.4,10.32,10.32,0,0,0,2.06-3.52,30.48,30.48,0,0,0,1.14-4.24v-0.45a6.33,6.33,0,0,1,1.9-3.35,18.49,18.49,0,0,1,3.53-2.74,17.61,17.61,0,0,1,4-1.79,12.48,12.48,0,0,1,3.37-.61q-0.76,2.79-1.2,5.08l-1,5.19a16,16,0,0,1-2.45,6.14,18.79,18.79,0,0,1-5,5.08,24.41,24.41,0,0,1-7.39,3.41,34.47,34.47,0,0,1-9.51,1.23,27.14,27.14,0,0,1-9.51-1.45,15.3,15.3,0,0,1-6.09-3.91,12.2,12.2,0,0,1-2.93-5.7,17.2,17.2,0,0,1-.05-6.81l7.28-42.44a22.15,22.15,0,0,1,2.45-6.81,19.28,19.28,0,0,1,4.84-5.7,23.47,23.47,0,0,1,7.39-3.91,31.57,31.57,0,0,1,10-1.45,30,30,0,0,1,9.07,1.23,16.17,16.17,0,0,1,6.2,3.41,11.75,11.75,0,0,1,3.26,5.08,13,13,0,0,1,.38,6.14q-0.55,2.9-.82,5.19t-0.49,5.08a10.28,10.28,0,0,1-3.15-.61,12,12,0,0,1-3.42-1.79A10.85,10.85,0,0,1,372,78a4.43,4.43,0,0,1-.7-3.35l0.11-.45a29.2,29.2,0,0,0,.33-4.24,6.94,6.94,0,0,0-.87-3.52,6,6,0,0,0-2.83-2.4,13.73,13.73,0,0,0-5.54-.89,13,13,0,0,0-5.6,1.06,11.73,11.73,0,0,0-3.69,2.68,11.5,11.5,0,0,0-2.23,3.57,19.87,19.87,0,0,0-1.09,3.85Z" transform="translate(-88.59 -29.52)"/><path class="cls-1" d="M390.48,89.08a15.93,15.93,0,0,1,2.45-6.14,18.8,18.8,0,0,1,5-5.08,24.43,24.43,0,0,1,7.39-3.41,34.47,34.47,0,0,1,9.51-1.23,27.19,27.19,0,0,1,9.51,1.45,15.34,15.34,0,0,1,6.09,3.91,12.23,12.23,0,0,1,2.93,5.7,17.2,17.2,0,0,1,.05,6.81l-7.5,44.11a8,8,0,0,1-3.69-.89,5.67,5.67,0,0,1-2.61-2.79,24,24,0,0,1-6.79,2.74,35.68,35.68,0,0,1-8.53.95,27.15,27.15,0,0,1-9.51-1.45,15.31,15.31,0,0,1-6.09-3.91,12.21,12.21,0,0,1-2.94-5.7,17.19,17.19,0,0,1-.05-6.81l0.54-3.46a22.18,22.18,0,0,1,2.44-6.81,19.38,19.38,0,0,1,4.84-5.7,23.51,23.51,0,0,1,7.39-3.91,31.56,31.56,0,0,1,10-1.45,18.8,18.8,0,0,1,5.54.95,11.71,11.71,0,0,1,4.67,2.51l1.52-8.93a17.18,17.18,0,0,0,.21-3.85,8.5,8.5,0,0,0-1-3.57,6.8,6.8,0,0,0-2.77-2.68,10.91,10.91,0,0,0-5.27-1.06,16.33,16.33,0,0,0-5.87.89,10,10,0,0,0-3.69,2.4,9.27,9.27,0,0,0-2.06,3.52,35.74,35.74,0,0,0-1.09,4.24v0.45a6.33,6.33,0,0,1-1.9,3.35A18.47,18.47,0,0,1,395.7,97a17.52,17.52,0,0,1-4,1.79,12.37,12.37,0,0,1-3.37.61q0.76-2.79,1.19-5.08l1-5.19m6,28.81a19.54,19.54,0,0,0-.27,3.85,7.49,7.49,0,0,0,1,3.57A7.11,7.11,0,0,0,400,128a10.87,10.87,0,0,0,5.27,1.06,16.3,16.3,0,0,0,5.87-.89,9.41,9.41,0,0,0,3.64-2.4,10.32,10.32,0,0,0,2.06-3.52A30.42,30.42,0,0,0,418,118l0.76-4.69a17.16,17.16,0,0,0,.22-3.85,8.46,8.46,0,0,0-1-3.57,6.78,6.78,0,0,0-2.77-2.68,10.9,10.9,0,0,0-5.27-1.06,13.37,13.37,0,0,0-5.65,1.06,11.29,11.29,0,0,0-6,6.25,19.86,19.86,0,0,0-1.09,3.85Z" transform="translate(-88.59 -29.52)"/><path class="cls-3" d="M390.48,89.08a15.93,15.93,0,0,1,2.45-6.14,18.8,18.8,0,0,1,5-5.08,24.43,24.43,0,0,1,7.39-3.41,34.47,34.47,0,0,1,9.51-1.23,27.19,27.19,0,0,1,9.51,1.45,15.34,15.34,0,0,1,6.09,3.91,12.23,12.23,0,0,1,2.93,5.7,17.2,17.2,0,0,1,.05,6.81l-7.5,44.11a8,8,0,0,1-3.69-.89,5.67,5.67,0,0,1-2.61-2.79,24,24,0,0,1-6.79,2.74,35.68,35.68,0,0,1-8.53.95,27.15,27.15,0,0,1-9.51-1.45,15.31,15.31,0,0,1-6.09-3.91,12.21,12.21,0,0,1-2.94-5.7,17.19,17.19,0,0,1-.05-6.81l0.54-3.46a22.18,22.18,0,0,1,2.44-6.81,19.38,19.38,0,0,1,4.84-5.7,23.51,23.51,0,0,1,7.39-3.91,31.56,31.56,0,0,1,10-1.45,18.8,18.8,0,0,1,5.54.95,11.71,11.71,0,0,1,4.67,2.51l1.52-8.93a17.18,17.18,0,0,0,.21-3.85,8.5,8.5,0,0,0-1-3.57,6.8,6.8,0,0,0-2.77-2.68,10.91,10.91,0,0,0-5.27-1.06,16.33,16.33,0,0,0-5.87.89,10,10,0,0,0-3.69,2.4,9.27,9.27,0,0,0-2.06,3.52,35.74,35.74,0,0,0-1.09,4.24v0.45a6.33,6.33,0,0,1-1.9,3.35A18.47,18.47,0,0,1,395.7,97a17.52,17.52,0,0,1-4,1.79,12.37,12.37,0,0,1-3.37.61q0.76-2.79,1.19-5.08Zm6,28.81a19.54,19.54,0,0,0-.27,3.85,7.49,7.49,0,0,0,1,3.57A7.11,7.11,0,0,0,400,128a10.87,10.87,0,0,0,5.27,1.06,16.3,16.3,0,0,0,5.87-.89,9.41,9.41,0,0,0,3.64-2.4,10.32,10.32,0,0,0,2.06-3.52A30.42,30.42,0,0,0,418,118l0.76-4.69a17.16,17.16,0,0,0,.22-3.85,8.46,8.46,0,0,0-1-3.57,6.78,6.78,0,0,0-2.77-2.68,10.9,10.9,0,0,0-5.27-1.06,13.37,13.37,0,0,0-5.65,1.06,11.29,11.29,0,0,0-6,6.25,19.86,19.86,0,0,0-1.09,3.85Z" transform="translate(-88.59 -29.52)"/><path class="cls-1" d="M502.55,154.29c3.33-11.8,10.78-63.58,12-69.89a48.51,48.51,0,0,0,.76-5.7,34.56,34.56,0,0,0,0-5.47,8.5,8.5,0,0,1,3.91,1,10.78,10.78,0,0,1,3.48,2.9,23.25,23.25,0,0,1,6.74-2.9,33.73,33.73,0,0,1,8.59-1,27.21,27.21,0,0,1,9.51,1.45,15.35,15.35,0,0,1,6.09,3.91,12.24,12.24,0,0,1,2.93,5.7,17.22,17.22,0,0,1,.05,6.81l-4.45,26.24a22.22,22.22,0,0,1-2.45,6.81,19.25,19.25,0,0,1-4.84,5.7,23.47,23.47,0,0,1-7.39,3.91,31.52,31.52,0,0,1-10,1.45,34.24,34.24,0,0,1-5.76-.45,22.38,22.38,0,0,1-4.78-1.34l-2.83,17a18.78,18.78,0,0,1-2.28,6.31,14.62,14.62,0,0,1-3.69,4.58,13.57,13.57,0,0,1-4.21,2.14,20,20,0,0,1-7.74,1,20.94,20.94,0,0,0,6.31-10.16m17.15-36.39a19.73,19.73,0,0,0-.27,3.85,7.52,7.52,0,0,0,1,3.57,7.12,7.12,0,0,0,2.83,2.68,10.88,10.88,0,0,0,5.27,1.06,13.36,13.36,0,0,0,5.65-1.06,11.29,11.29,0,0,0,6-6.25,19.85,19.85,0,0,0,1.09-3.85l4.67-27.36a17.18,17.18,0,0,0,.22-3.85,8.48,8.48,0,0,0-1-3.57,6.81,6.81,0,0,0-2.77-2.68,10.91,10.91,0,0,0-5.27-1.06,13.72,13.72,0,0,0-5.38.95A11.19,11.19,0,0,0,528,82.77a12.25,12.25,0,0,0-2.34,3.35,14.65,14.65,0,0,0-1.2,3.63Z" transform="translate(-88.59 -29.52)"/><path class="cls-3" d="M502.55,154.29c3.33-11.8,10.78-63.58,12-69.89a48.51,48.51,0,0,0,.76-5.7,34.56,34.56,0,0,0,0-5.47,8.5,8.5,0,0,1,3.91,1,10.78,10.78,0,0,1,3.48,2.9,23.25,23.25,0,0,1,6.74-2.9,33.73,33.73,0,0,1,8.59-1,27.21,27.21,0,0,1,9.51,1.45,15.35,15.35,0,0,1,6.09,3.91,12.24,12.24,0,0,1,2.93,5.7,17.22,17.22,0,0,1,.05,6.81l-4.45,26.24a22.22,22.22,0,0,1-2.45,6.81,19.25,19.25,0,0,1-4.84,5.7,23.47,23.47,0,0,1-7.39,3.91,31.52,31.52,0,0,1-10,1.45,34.24,34.24,0,0,1-5.76-.45,22.38,22.38,0,0,1-4.78-1.34l-2.83,17a18.78,18.78,0,0,1-2.28,6.31,14.62,14.62,0,0,1-3.69,4.58,13.57,13.57,0,0,1-4.21,2.14,20,20,0,0,1-7.74,1A20.94,20.94,0,0,0,502.55,154.29Zm17.15-36.39a19.73,19.73,0,0,0-.27,3.85,7.52,7.52,0,0,0,1,3.57,7.12,7.12,0,0,0,2.83,2.68,10.88,10.88,0,0,0,5.27,1.06,13.36,13.36,0,0,0,5.65-1.06,11.29,11.29,0,0,0,6-6.25,19.85,19.85,0,0,0,1.09-3.85l4.67-27.36a17.18,17.18,0,0,0,.22-3.85,8.48,8.48,0,0,0-1-3.57,6.81,6.81,0,0,0-2.77-2.68,10.91,10.91,0,0,0-5.27-1.06,13.72,13.72,0,0,0-5.38.95A11.19,11.19,0,0,0,528,82.77a12.25,12.25,0,0,0-2.34,3.35,14.65,14.65,0,0,0-1.2,3.63Z" transform="translate(-88.59 -29.52)"/><path class="cls-1" d="M614.61,60l5-13.75a3.54,3.54,0,0,1,1.4-1.71,14.1,14.1,0,0,1,2.48-1.4,12.15,12.15,0,0,1,2.95-.88,9.17,9.17,0,0,1,2.89-.05L622.88,60h10.65l4.86-13.75a3.54,3.54,0,0,1,1.4-1.71,14.14,14.14,0,0,1,2.48-1.4,12.15,12.15,0,0,1,2.95-.88,9.17,9.17,0,0,1,2.89-.05L641.79,60h9a8.78,8.78,0,0,1-1,2.79A12.83,12.83,0,0,1,648,65.38a13.39,13.39,0,0,1-2.12,1.91,3.54,3.54,0,0,1-2,.78h-5l-5.58,16.12h9A11.31,11.31,0,0,1,641.23,87a14.18,14.18,0,0,1-1.76,2.58,11.87,11.87,0,0,1-2.07,1.91,3.54,3.54,0,0,1-2,.77h-5l-5.58,15.92a4.66,4.66,0,0,1-1.5,1.76,12.3,12.3,0,0,1-2.48,1.45,12.16,12.16,0,0,1-2.89.88,7.16,7.16,0,0,1-2.84-.05l7-19.95H611.61l-5.68,15.92a3.8,3.8,0,0,1-1.39,1.76,12.28,12.28,0,0,1-2.48,1.45,12.14,12.14,0,0,1-2.89.88,7.16,7.16,0,0,1-2.84-.05l7-19.95h-8.06a8.78,8.78,0,0,1,1-2.79,12.84,12.84,0,0,1,1.81-2.58A13.4,13.4,0,0,1,600.19,85a3.55,3.55,0,0,1,2-.78h3.93l5.68-16.12h-9.1a8.78,8.78,0,0,1,1-2.79,12.82,12.82,0,0,1,1.81-2.58,12.25,12.25,0,0,1,2.17-1.91,3.77,3.77,0,0,1,2.07-.78h4.86Zm-0.21,24.19h10.65l5.58-16.12H620.09Z" transform="translate(-88.59 -29.52)"/><path class="cls-3" d="M620.09,68.07h10.54L625,84.19H614.4ZM609.75,60a3.77,3.77,0,0,0-2.07.77,12.37,12.37,0,0,0-2.17,1.91,12.87,12.87,0,0,0-1.81,2.58,8.82,8.82,0,0,0-1,2.79h9.1l-5.68,16.12h-3.93a3.54,3.54,0,0,0-2,.78,13.45,13.45,0,0,0-2.12,1.91,12.9,12.9,0,0,0-1.81,2.58,8.81,8.81,0,0,0-1,2.79h8.06l-7,19.95a7.18,7.18,0,0,0,2.84.05,12.13,12.13,0,0,0,2.89-.88,12.3,12.3,0,0,0,2.48-1.45,3.82,3.82,0,0,0,1.4-1.76l5.69-15.92h10.54l-7,19.95a7.18,7.18,0,0,0,2.84.05,12.68,12.68,0,0,0,5.37-2.33,4.68,4.68,0,0,0,1.5-1.76l5.58-15.92h5a3.56,3.56,0,0,0,2-.77,11.9,11.9,0,0,0,2.06-1.91A14,14,0,0,0,641.22,87a11.34,11.34,0,0,0,1.09-2.79h-9l5.58-16.12h5a3.55,3.55,0,0,0,2-.77A13.45,13.45,0,0,0,648,65.38a12.73,12.73,0,0,0,1.81-2.58,8.73,8.73,0,0,0,1-2.79h-9l6.3-17.78a9.16,9.16,0,0,0-2.89.05,12.18,12.18,0,0,0-2.95.88,14.11,14.11,0,0,0-2.48,1.4,3.53,3.53,0,0,0-1.39,1.7L633.52,60H622.88l6.41-17.78a9.16,9.16,0,0,0-2.89.05,12.23,12.23,0,0,0-2.95.88,14.29,14.29,0,0,0-2.48,1.4,3.53,3.53,0,0,0-1.4,1.7l-5,13.75h-4.86Z" transform="translate(-88.59 -29.52)"/><path class="cls-1" d="M671.34,48.74a12.4,12.4,0,0,1-6.86,2.21,11,11,0,0,1-7.91-3.61l18.72-12q1.51-1,2.73-1.74a11.07,11.07,0,0,1,2.44-1,13.55,13.55,0,0,1,2.5-.47c0.85-.08,1.82-0.12,2.91-0.12L674.13,98.27a14.44,14.44,0,0,1-2.38,6.57,14.62,14.62,0,0,1-4.21,4.06,15.31,15.31,0,0,1-4.65,2,18.5,18.5,0,0,1-7,.42,26.34,26.34,0,0,0,6.06-9.51Z" transform="translate(-88.59 -29.52)"/><path class="cls-3" d="M671.34,48.74a12.4,12.4,0,0,1-6.86,2.21,11,11,0,0,1-7.91-3.61l18.72-12q1.51-1,2.73-1.74a11.07,11.07,0,0,1,2.44-1,13.55,13.55,0,0,1,2.5-.47c0.85-.08,1.82-0.12,2.91-0.12L674.13,98.27a14.44,14.44,0,0,1-2.38,6.57,14.62,14.62,0,0,1-4.21,4.06,15.31,15.31,0,0,1-4.65,2,18.5,18.5,0,0,1-7,.42,26.34,26.34,0,0,0,6.06-9.51Z" transform="translate(-88.59 -29.52)"/><path class="cls-1" d="M740.17,42.53A12.62,12.62,0,0,0,737,36.6a16.49,16.49,0,0,0-6.51-4.07A29.83,29.83,0,0,0,720.35,31a34.62,34.62,0,0,0-10.7,1.51,25.36,25.36,0,0,0-7.91,4.07,20.31,20.31,0,0,0-5.18,5.93A22.83,22.83,0,0,0,694,49.62l-7.79,44.19a17.38,17.38,0,0,0,.06,7.09,12.56,12.56,0,0,0,3.14,5.93,16.44,16.44,0,0,0,6.51,4.07A29.77,29.77,0,0,0,706,112.41a34.6,34.6,0,0,0,10.7-1.51,25.33,25.33,0,0,0,7.91-4.07,20.22,20.22,0,0,0,5.17-5.93,22.67,22.67,0,0,0,2.62-7.09l7.79-44.19a17.41,17.41,0,0,0-.06-7.09m-11.33,6.52c-0.39,3.87-1.45,7.82-2.11,11.52-1,5.52-2,11-3,16.55l-3,17.15,0,0.11a20.47,20.47,0,0,1-1.16,4,11.91,11.91,0,0,1-2.38,3.72,12.34,12.34,0,0,1-4,2.79,14.64,14.64,0,0,1-6,1.1,11.91,11.91,0,0,1-5.64-1.1,7.57,7.57,0,0,1-3-2.79c-1.41-2.4-1.12-5-.68-8.33,1.11-8.43,2.65-16.79,4.25-25.14,0.93-4.85,1.65-9.73,2.62-14.57,0.88-4.35,1.49-9.41,4.62-12.78a12.5,12.5,0,0,1,4-2.79,14.23,14.23,0,0,1,6-1.1,11.94,11.94,0,0,1,5.64,1.1,7.59,7.59,0,0,1,3,2.79,8.16,8.16,0,0,1,1.1,3.72,25.78,25.78,0,0,1-.11,4" transform="translate(-88.59 -29.52)"/><path class="cls-3" d="M740.17,42.53A12.62,12.62,0,0,0,737,36.6a16.49,16.49,0,0,0-6.51-4.07A29.83,29.83,0,0,0,720.35,31a34.62,34.62,0,0,0-10.7,1.51,25.36,25.36,0,0,0-7.91,4.07,20.31,20.31,0,0,0-5.18,5.93A22.83,22.83,0,0,0,694,49.62l-7.79,44.19a17.38,17.38,0,0,0,.06,7.09,12.56,12.56,0,0,0,3.14,5.93,16.44,16.44,0,0,0,6.51,4.07A29.77,29.77,0,0,0,706,112.41a34.6,34.6,0,0,0,10.7-1.51,25.33,25.33,0,0,0,7.91-4.07,20.22,20.22,0,0,0,5.17-5.93,22.67,22.67,0,0,0,2.62-7.09l7.79-44.19A17.41,17.41,0,0,0,740.17,42.53Zm-11.33,6.52c-0.39,3.87-1.45,7.82-2.11,11.52-1,5.52-2,11-3,16.55l-3,17.15,0,0.11a20.47,20.47,0,0,1-1.16,4,11.91,11.91,0,0,1-2.38,3.72,12.34,12.34,0,0,1-4,2.79,14.64,14.64,0,0,1-6,1.1,11.91,11.91,0,0,1-5.64-1.1,7.57,7.57,0,0,1-3-2.79c-1.41-2.4-1.12-5-.68-8.33,1.11-8.43,2.65-16.79,4.25-25.14,0.93-4.85,1.65-9.73,2.62-14.57,0.88-4.35,1.49-9.41,4.62-12.78a12.5,12.5,0,0,1,4-2.79,14.23,14.23,0,0,1,6-1.1,11.94,11.94,0,0,1,5.64,1.1,7.59,7.59,0,0,1,3,2.79,8.16,8.16,0,0,1,1.1,3.72A25.78,25.78,0,0,1,728.83,49.05Z" transform="translate(-88.59 -29.52)"/><path class="cls-1" d="M185,67.23c1.83-4.12,1.46-8.23-.79-10.18a5.33,5.33,0,0,0-2.65-1.19s-9.43,1.08-11.67-3.69C169,55.94,168.45,61,171.38,64c1.69,1.77,5.62,3.4,7.94,2s1.41-4.8,1.41-4.8a2.17,2.17,0,0,1,2.09.51c0.85,0.9,0,2.69-.29,3.21a5.61,5.61,0,0,1-.89,1.3,7.37,7.37,0,0,1-2.15,1.7l5.5-.66" transform="translate(-88.59 -29.52)"/><path class="cls-1" d="M242.68,78.17a20.74,20.74,0,0,1,4.56-.7c1.52-.22,3-0.44,4.58-0.62l1.67-6.66,0-.07c0.58-2,.81-2.58.72-2.63S253.48,69,251.86,70a6.78,6.78,0,0,1-2,.85,7.89,7.89,0,0,1-3,.27c-2-.23-2.45-1.14-3.38-0.83-0.47.16-1.11,0.65-1.55,2.31l-1.09,6.44a10.68,10.68,0,0,1,1.91-.91" transform="translate(-88.59 -29.52)"/><path class="cls-3" d="M242.68,78.17a20.74,20.74,0,0,1,4.56-.7c1.52-.22,3-0.44,4.58-0.62l1.67-6.66,0-.07c0.58-2,.81-2.58.72-2.63S253.48,69,251.86,70a6.78,6.78,0,0,1-2,.85,7.89,7.89,0,0,1-3,.27c-2-.23-2.45-1.14-3.38-0.83-0.47.16-1.11,0.65-1.55,2.31l-1.09,6.44A10.68,10.68,0,0,1,242.68,78.17Z" transform="translate(-88.59 -29.52)"/><path class="cls-1" d="M255.09,69.34c2.14-4,2.1-8.09,0-10.21a5.33,5.33,0,0,0-2.55-1.39s-9.49.34-11.35-4.58c-1.14,3.7-2.1,8.66.58,11.94,1.55,1.89,5.34,3.83,7.76,2.56S251.31,63,251.31,63a2.17,2.17,0,0,1,2,.67c0.78,1-.25,2.68-0.54,3.18a5.71,5.71,0,0,1-1,1.23,7.4,7.4,0,0,1-2.28,1.52l5.53-.23" transform="translate(-88.59 -29.52)"/><path class="cls-1" d="M542.23,72.91a5.06,5.06,0,0,1,.32.67,4,4,0,0,1,2.8,2.35l0.24,0.5a4.45,4.45,0,0,1,3.4,3.16c0.82,3,1.84,5.85,2.53,8.84a5,5,0,0,1,.07,2,16.51,16.51,0,0,1,5.15,4c0.18-.76.45-1.91,0.74-3.32,0.77-3.73.61-4,1.18-6.87,1.41-7,1.79-8.42,1.79-8.42,0.16-.59.53-2,0.17-2.16s-0.77.48-1.6,1.2a9.29,9.29,0,0,1-3.34,2.08c-1.76.32-3.18-.47-5.37-1.5a32,32,0,0,0-8.09-2.54" transform="translate(-88.59 -29.52)"/><path class="cls-4" d="M542.23,72.91a5.06,5.06,0,0,1,.32.67,4,4,0,0,1,2.8,2.35l0.24,0.5a4.45,4.45,0,0,1,3.4,3.16c0.82,3,1.84,5.85,2.53,8.84a5,5,0,0,1,.07,2,16.51,16.51,0,0,1,5.15,4c0.18-.76.45-1.91,0.74-3.32,0.77-3.73.61-4,1.18-6.87,1.41-7,1.79-8.42,1.79-8.42,0.16-.59.53-2,0.17-2.16s-0.77.48-1.6,1.2a9.29,9.29,0,0,1-3.34,2.08c-1.76.32-3.18-.47-5.37-1.5A32,32,0,0,0,542.23,72.91Z" transform="translate(-88.59 -29.52)"/><path class="cls-1" d="M485.33,125.59c-1.77,6.29-1,11.17,1.34,12.2,0.72,0.32,1.46.16,3.35-.43a91.74,91.74,0,0,0,9.6-3.63,2.64,2.64,0,0,1-1.75-.56c-0.46-.39-0.85-1.08-0.83-3.11a19.51,19.51,0,0,1,.71-4.65c0.26-1.13.6-2.82,0.86-4.94l-13.3,5.12" transform="translate(-88.59 -29.52)"/><path class="cls-4" d="M485.33,125.59c-1.77,6.29-1,11.17,1.34,12.2,0.72,0.32,1.46.16,3.35-.43a91.74,91.74,0,0,0,9.6-3.63,2.64,2.64,0,0,1-1.75-.56c-0.46-.39-0.85-1.08-0.83-3.11a19.51,19.51,0,0,1,.71-4.65c0.26-1.13.6-2.82,0.86-4.94Z" transform="translate(-88.59 -29.52)"/><path class="cls-1" d="M500.49,78.49q-3.91-3.74-12.06-3.74a22.81,22.81,0,0,0-12.17,3q-3.91-3-11.41-3A24.31,24.31,0,0,0,453,77.54a8.85,8.85,0,0,0-3.15-2.12,9.36,9.36,0,0,0-3.37-.67,34.58,34.58,0,0,1,0,5.47,54.73,54.73,0,0,1-.76,5.7l-6.85,39.64a59.7,59.7,0,0,1-2.94,11.17,11.25,11.25,0,0,0,4.19-.89,14.68,14.68,0,0,0,4.29-2.74,18.33,18.33,0,0,0,3.64-4.58,19.65,19.65,0,0,0,2.23-6.31L456,88.6a10.36,10.36,0,0,1,2.66-5.69,7,7,0,0,1,5.16-2,4.65,4.65,0,0,1,4.29,2q1.25,2,.71,5.69l-6.3,37a59.93,59.93,0,0,1-2.93,11.17,11.25,11.25,0,0,0,4.18-.89,14.67,14.67,0,0,0,4.29-2.74,18.29,18.29,0,0,0,3.64-4.58,19.61,19.61,0,0,0,2.23-6.31l5.76-33.62a10.46,10.46,0,0,1,2.64-5.69,6.83,6.83,0,0,1,5.08-2q6.3,0,5,7.82l-6.3,36.85,0,0.21a5.12,5.12,0,0,1,1.38-.23c2.6-.08,5.19-0.74,8,0.08l0.38,0.12a6.82,6.82,0,0,1,.56-1.83,7,7,0,0,1,1-1.56l5.8-33.08q1.2-7-2.72-10.78" transform="translate(-88.59 -29.52)"/><path class="cls-3" d="M500.49,78.49q-3.91-3.74-12.06-3.74a22.81,22.81,0,0,0-12.17,3q-3.91-3-11.41-3A24.31,24.31,0,0,0,453,77.54a8.85,8.85,0,0,0-3.15-2.12,9.36,9.36,0,0,0-3.37-.67,34.58,34.58,0,0,1,0,5.47,54.73,54.73,0,0,1-.76,5.7l-6.85,39.64a59.7,59.7,0,0,1-2.94,11.17,11.25,11.25,0,0,0,4.19-.89,14.68,14.68,0,0,0,4.29-2.74,18.33,18.33,0,0,0,3.64-4.58,19.65,19.65,0,0,0,2.23-6.31L456,88.6a10.36,10.36,0,0,1,2.66-5.69,7,7,0,0,1,5.16-2,4.65,4.65,0,0,1,4.29,2q1.25,2,.71,5.69l-6.3,37a59.93,59.93,0,0,1-2.93,11.17,11.25,11.25,0,0,0,4.18-.89,14.67,14.67,0,0,0,4.29-2.74,18.29,18.29,0,0,0,3.64-4.58,19.61,19.61,0,0,0,2.23-6.31l5.76-33.62a10.46,10.46,0,0,1,2.64-5.69,6.83,6.83,0,0,1,5.08-2q6.3,0,5,7.82l-6.3,36.85,0,0.21a5.12,5.12,0,0,1,1.38-.23c2.6-.08,5.19-0.74,8,0.08l0.38,0.12a6.82,6.82,0,0,1,.56-1.83,7,7,0,0,1,1-1.56l5.8-33.08Q504.41,82.23,500.49,78.49Z" transform="translate(-88.59 -29.52)"/><path class="cls-1" d="M493.41,74.76a11.93,11.93,0,0,0,3.05.66,13.05,13.05,0,0,0,8.07-2.19s1.52,4.32-.15,14.3l-11-12.77" transform="translate(-88.59 -29.52)"/><path class="cls-4" d="M493.41,74.76a11.93,11.93,0,0,0,3.05.66,13.05,13.05,0,0,0,8.07-2.19s1.52,4.32-.15,14.3Z" transform="translate(-88.59 -29.52)"/><path class="cls-1" d="M423.33,75.52a15.41,15.41,0,0,0,3.75.48,16.16,16.16,0,0,0,8.06-2.19,28.8,28.8,0,0,1,.55,3.41,29.36,29.36,0,0,1-1,10.92,27.86,27.86,0,0,0-11.37-12.61" transform="translate(-88.59 -29.52)"/><path class="cls-4" d="M423.33,75.52a15.41,15.41,0,0,0,3.75.48,16.16,16.16,0,0,0,8.06-2.19,28.8,28.8,0,0,1,.55,3.41,29.36,29.36,0,0,1-1,10.92A27.86,27.86,0,0,0,423.33,75.52Z" transform="translate(-88.59 -29.52)"/><path class="cls-1" d="M753.18,161.57c-4.49-9.24-15.5-11.31-24.05-5.58-8.93,6-23.68,4.88-31.19-2.36a13,13,0,0,1-1.88-16c2.71-4.45,7.14-5.79,12.25-3.71-9.56,2.59-13.64,7.81-10.72,14.4s9,8.16,15.5,8.45c6,0.27,11-1.55,13.53-7.69,4.4-10.47,1.09-17.17-11.45-22.73a22.12,22.12,0,0,0-1.58-10.62c-4.81,2.18-12.06.81-16.61,0-6.95-1.28-15.41-6.38-14.6-14.51,0.14-1.43.81-3.46-.18-4.69-2.1,1-2.7,4.22-3.74,6.1-1.94,3.52-2.06,4.92-3.89,7a17.72,17.72,0,0,1-4.54,3.68,22.76,22.76,0,0,1-7.58,2.84c-6.1,1.15-14.06.26-14.58-2.23-0.15-.72.67-1.61,2.26-3.46,2.46-2.86,4-3.28,5.68-5.68A16.4,16.4,0,0,0,657.7,101c1.45-3.77,4.48-13.68,1.89-15.16-1.61-.92-4.9,1.7-9.95,5.74-3.93,3.14-5.47,6.19-7.28,6.18a2.46,2.46,0,0,1-1-.29,21,21,0,0,0-8.34-1.2,48.42,48.42,0,0,1-2.84,8.53s-1.45,3.26-4.59,8.87l-0.11.19a4.21,4.21,0,0,1-.56,1,5,5,0,0,1-2,2.26,4.52,4.52,0,0,1-2.75.57l0,0,0.18,0h-0.22a5.11,5.11,0,0,1-3.66.5c-0.12,0-.22-0.09-0.34-0.13,0.84,4.92,3.92,8.29,9,9.77q7,2,11.54-3.51c4.47-5.48,2.13-10.15-2-14.67,5.25,1.67,7.47,5.27,6.91,10.52-0.64,6.08-4.13,9.84-10.09,11-4.36.83-8.1,0.31-11.1-1.44-4.15-2.43-5.5-6.76-7.92-14.19a62.74,62.74,0,0,1-2.19-8.84,15.82,15.82,0,0,1-4,5.93c-0.35.31-6.24,5.55-11.13,3.55-1.5-.61-3.38-2.1-3.31-3.47a17.37,17.37,0,0,1,.58-2.4,7,7,0,0,1,.3-0.9l0.06-.17a2.53,2.53,0,0,1,.24-0.73,12,12,0,0,1-5,.68c-13-2-20.87,5.49-19.22,18.53,0.13,1,.21,2,0.32,3.15-1.85.36-3.31,0.58-4.74,0.94-8.36,2.09-13.35,9.74-11.37,17.37s13,13.52,21.36,11.32c5.57-1.47,8.2-5.15,7.67-11-0.4-4.41-2.63-7.52-7.11-7.78-5.65-.32-8.67,2.88-9.16,8.6-2.62-5.8.81-11,7-11.76s12.9,3.86,14,9.83c1.16,6.43-2.92,13.45-9.24,15.08-9.59,2.47-17.55-.73-24.8-7.18-11-9.74-31.07-11-42.78-2.84-10.4,7.25-20.6,14.8-30,21.59,1.58-.19,5.14.09,8.1-1.11,7.12-2.89,14.31-5.92,20.86-9.9,16.15-9.81,31.2-9,45.92,2.84a84,84,0,0,0,14.34,9.75c13.8,7,27.48,6.58,41-1.81-8.29-8.32-9.16-13.71-4.12-23.37,6.5-12.48,14.42-15.75,31.27-12.94,11.39-14.88,30.29-14.07,40.07,1.58a14.09,14.09,0,0,0,5.19,4.26c6.95,3.84,11.19,13.35,8.85,20.33-2.41,7.21-8.13,9.67-17.88,7.75a4.57,4.57,0,0,0-1.59.6c-12,25.66-35.3,30.52-62.7,30.66,22.89,8.2,47.13,3.07,63.65-10.81a96.61,96.61,0,0,1,25.54-15.52c9.71-3.91,19.47-.13,27.94,5.65,3.78,2.58,4.09,4.94,2.26,8.7-1.82-7.28-5.73-10.15-12.46-7.34-3.63,1.51-7.5,5.32-8.78,9-2.07,5.93,1.06,11.27,6.05,15.13,7.4,5.73,20.6,6.68,28.1,2.05,7.94-4.89,12.25-15.87,9.7-26.06A12.28,12.28,0,0,1,752.76,174c1.89-3.23,2.08-9.06.41-12.47" transform="translate(-88.59 -29.52)"/><path class="cls-1" d="M670.79,167.32C660,192.85,637.82,199.47,613,200c-22,.48-43.19-3.71-61.63-17-2.61-1.88-5.35-3.6-7.93-5.53a24,24,0,0,0-22.58-3.91,177.39,177.39,0,0,0-17.47,6.5c-12.5,5.36-24.22,2.82-35.84-3.05,17.24,3.41,31.87-2.22,45.81-11.78,11.68-8,25.79-6.48,38.08,3.84,10.13,8.5,20.92,15.57,34.49,15.47,7.05-.06,14.29-1.81,21-4,4-1.32,7.34-3.43,12.05-2.15,4.91,1.34,9.25-.65,12.11-5.25,2.73-4.4,3.63-9.29.43-13.28a14.55,14.55,0,0,0-9.4-5.12c-2.15-.12-4.53,3.82-6.8,5.95l1.13,1.21c2.16-1.18,4.85-3.78,6.35-3.22,2.67,1,5.92,3.58,6.58,6.1,1.18,4.53-1.14,8.52-6.18,9.7-8.37,2-17.54-7-16-15.46,2.2-11.81,13-19.57,24.68-17.05,4.25,0.91,6.41-.06,9.2-3.14,9.73-10.75,26.86-8.14,33.67,4.58,1.05,2,3.35,3.53,5.42,4.63,5.34,2.84,8.05,7.05,7.48,13.06-0.79,8.28-6.5,10.5-16.95,6.25" transform="translate(-88.59 -29.52)"/><path class="cls-1" d="M726,31.22a5.3,5.3,0,0,1,.32.67,4,4,0,0,1,2.8,2.35l0.24,0.5a4.45,4.45,0,0,1,3.4,3.16c0.82,3,1.84,5.85,2.53,8.84a5,5,0,0,1,.07,2,16.65,16.65,0,0,1,5.15,4c0.18-.76.45-1.91,0.74-3.32,0.77-3.73.61-4,1.18-6.87,1.41-7,1.79-8.42,1.79-8.42,0.16-.59.53-2,0.17-2.16s-0.77.48-1.6,1.2a9.32,9.32,0,0,1-3.34,2.08c-1.76.32-3.19-.47-5.37-1.5A32,32,0,0,0,726,31.22" transform="translate(-88.59 -29.52)"/><path class="cls-4" d="M726,31.22a5.3,5.3,0,0,1,.32.67,4,4,0,0,1,2.8,2.35l0.24,0.5a4.45,4.45,0,0,1,3.4,3.16c0.82,3,1.84,5.85,2.53,8.84a5,5,0,0,1,.07,2,16.65,16.65,0,0,1,5.15,4c0.18-.76.45-1.91,0.74-3.32,0.77-3.73.61-4,1.18-6.87,1.41-7,1.79-8.42,1.79-8.42,0.16-.59.53-2,0.17-2.16s-0.77.48-1.6,1.2a9.32,9.32,0,0,1-3.34,2.08c-1.76.32-3.19-.47-5.37-1.5A32,32,0,0,0,726,31.22Z" transform="translate(-88.59 -29.52)"/><path class="cls-1" d="M123.34,63.14c-0.52-.34.4-1.74-0.07-3.82a7.24,7.24,0,0,0-2.68-3.94,14.3,14.3,0,0,1,.62,8.45,14.77,14.77,0,0,1-5.12,7.79c-3.18,2.66-9.44,2.7-9.79-2.58A4.74,4.74,0,0,1,109,64.52c1.91-.88,4.13-0.33,6.16.23a5.79,5.79,0,0,0-10.59,3c-0.14,3,1.72,5.34,3.12,7.77,2,3.54,1.21,7.93.94,11.83A40,40,0,0,0,111,105.19a66.18,66.18,0,0,0,9.7,16.18L122,122.9c-0.39-.48-2.39-0.76-3-1-1.2-.46-2.43-1.08-2.78-1.26-1.48-.77-9.28-6.24-12.73-20.54-1.9-7.91-1.44-14.22-1.9-14.21s-0.58,4-.61,6.3a41.58,41.58,0,0,0,.33,6.29c0.88,5.18,3.41,9.86,4.22,15-0.25-1.57-2.58-3.26-3.56-4.37a43.19,43.19,0,0,1-3.51-4.94A66.05,66.05,0,0,1,92.91,94,52.51,52.51,0,0,1,88.62,71.6a55.33,55.33,0,0,1,1.07-9.06c2.41-12,13.47-20.19,25.79-20.38,5.57-.09,10.19,1.45,12.57,7,0.56,1.32,2.09,4.61.94,8.19-1.21,3.77-4.84,6.29-5.66,5.76" transform="translate(-88.59 -29.52)"/><path class="cls-1" d="M139.65,93.87c-5.24,3.41-5.84,8.76-5.51,14.56a39.2,39.2,0,0,0,12.38,26.81A70.15,70.15,0,0,1,155.93,146c-18.4-9.46-29.94-24.5-34.73-44.32-3.26-13.51,8-29.19,21.84-30.29,5.17-.41,10.24,2.57,13.83,6.06,2.86,2.78,5.62,6.79,5.4,11-0.14,2.69-1.77,4.5-3.76,6.11a21.24,21.24,0,0,0-5.49,6.1c-1.25,2.25-2.16,4.94-4.45,6.38s-5.93,1.22-7.64-1-1.26-5.37-1.28-7.91c0-1.19,0-2.38,0-4.2" transform="translate(-88.59 -29.52)"/><path class="cls-1" d="M127.13,63.14a19.41,19.41,0,0,0,6.28-.24c2.74-.56,5.61-1.15,7-3.55a7.15,7.15,0,0,0,.32-5.52l-1.53.3a3.8,3.8,0,0,1-.69,3.32,3.2,3.2,0,0,1-1.89.95c-2.27.32-4.6-1.76-5.69-3.79-2-3.67-2.23-9.49.6-12.79,2-2.39,5.47-3.22,8.6-2.88a22.65,22.65,0,0,1,10.35,3.94,20.71,20.71,0,0,1,7.59,10.27c1.22,3.8,1.38,9.15-1.29,12.41-1.68,2-4.2,2.77-6.74,3-5.78.43-12.33,1-17,3.94C116.31,83,113.28,96.37,122.74,113.78c3.33,6.14,7.42,11.87,10.83,18-9.29-8.94-18.39-17.94-21.38-31.32-2.43-10.88-1.65-20.83,6.64-29.27,0.82-.83,1.46-1.64,1.79-2a66.42,66.42,0,0,1,6.51-6.08" transform="translate(-88.59 -29.52)"/></g></svg>