<?xml version="1.0" encoding="utf-8"?>
<!-- Generator: Adobe Illustrator 22.0.1, SVG Export Plug-In . SVG Version: 6.00 Build 0)  -->
<svg version="1.1" id="Layer_1" xmlns="http://www.w3.org/2000/svg" xmlns:xlink="http://www.w3.org/1999/xlink" x="0px" y="0px"
	 viewBox="0 0 714.3 245.2" style="enable-background:new 0 0 714.3 245.2;" xml:space="preserve">
<style type="text/css">
	.st0{display:none;}
	.st1{fill:#FFFFFF;stroke:#FFFFFF;stroke-miterlimit:10;}
	.st2{font-family:'SNTAnouvong-BoldItalic';}
	.st3{font-size:41.2912px;}
	.st4{fill:#FFFFFF;}
	.st5{fill:#FFFFFF;stroke:#FFFFFF;stroke-width:3;stroke-miterlimit:10;}
	.st6{font-size:120px;}
</style>
<rect x="-285" y="-297.2" class="st0" width="1408.4" height="795"/>
<text transform="matrix(0.9218 0 0 1 90.6039 48.6715)" class="st1 st2 st3">Ways to IT Professionals Camp</text>
<path class="st4" d="M247.2,175.7c8.8,1.1,15.9,2.2,21.1,3.1c3.8,0.6,7.3,1.3,9.2,1.6c7,1.3,12.6,2.4,14.7,2.8
	c19.4,3.9,28.1,6.9,34.4,11.7c3.9,2.9,8.4,7.7,5.8,12.6c0,0-5.4,10.2,13,14.8c0,0-36-6.2-32.3-13.9c0,0,3.4-0.2,0.6-2.2
	c0,0-5.8-0.5-6.4,3.1c-3.8-1.3-9.3-3.9-10.1-7.9c-0.2-1.1,0-2.4,0.7-3.3c0.9-1.4,2.2-1.8,3.8-2.2c1.4-0.4,2.8-0.6,4.2-0.6
	c2.8-0.1,5.7,0.5,8.2,1.8c0.5,0.3,1.1,0.6,1.3,1.2c0.2,0.6-0.1,1.2-0.6,1.5c-0.2,0.2-2.9,1.1-2.9,1c0,0-0.3,1.6,3.1,1.5
	c1.6,0,3.2-0.3,4.8-0.7c0.3-0.1,0.7-0.2,0.9-0.3c1.7-1.1,0.6-4.6-0.9-5.4C317.1,194.2,298.3,183.2,247.2,175.7z"/>
<path class="st4" d="M256.3,174.4c0,0,18.9,1.4,21.9,3.8c0,0,44.3,0.1,63.7,18.1c0,0,10.3,0.1,12.5,3.2c0,0,1.7,2.7-2.7,1
	c0,0-5.6-3.1-11.5-1.2c0,0-5.4,3.1,0.8,5.9c6.2,2.8,11.1,3.2,11.1,3.2c0.8,0,2,0.1,3.4,0.2c1.9,0.2,2.8,0.3,3,0
	c0.3-0.5-1.2-1.6-1.3-1.8c-0.4-0.3-0.7-0.5-1-0.6c-0.4-0.5-0.5-1.1-0.3-1.5c0.2-0.3,0.7-0.4,1.7-0.3c3,0.4,4.1,2.8,4.1,2.8
	s8.2,1.9,13,0c0,0,9.2-2.5,15.9,0.8c0,0,0.3-4-11.5-4.5c0,0-3.5-0.2-5.9,0.2c-14.9-9.9-41.8-24.7-78.5-28.9
	C280.1,173,267.1,173.3,256.3,174.4z"/>
<path class="st4" d="M281.2,171.7c3.1,0.1,6.3-0.5,9.4-0.6c8.1-0.3,16.2-0.2,24.2,0.4c19.3,1.5,36.4,6.6,53,15.1
	c13.1,6.7,26.5,13.1,39,20.5c0.7,0.4,1.4,0.8,2.1,1.2c12.4,7.6,35.1,7.6,35.1,7.6s21.2,0.9,33.6-3.3c0,0,16.2,1.6,25.7-6.5
	c9.5-8.1,12.1-10.3,12.2-15.7c0.2-5.5-2.5-9.2-8.1-8.9c0,0-1.9-0.2,0.9,3.7c2.8,3.9-1.3,9-1.3,9s-11.2,5.8-15.3-4.8
	s3.2-22.2,3.2-22.2s5.1-7.8,12.7-9.4c0,0-2.2,4-0.7,5.4c0,0,4.5,2.6,2.8,4.6c0,0,5.2-1.2,4-4.6c0,0-7-22.3,42.4-22
	c0,0-23.2,6.2-22.9,27.3c0,0,2.2,33.5-30.9,48.4c0,0-11.1,6.8-28.3,3.2c0,0-39.7,3.4-55.8-4.4c-25.8-12.5-50.7-28.7-78.9-36.9
	C321.2,173.6,300.1,172.4,281.2,171.7z"/>
<path class="st4" d="M561.3,184.1c-2.8-0.5-3.8,0.1-4.2,0.7c-0.7,0.9,0.1,1.8-0.6,3.4c-0.7,1.6-2,1.9-1.9,2.8c0.1,0.4,0.5,0.9,2,1.4
	c1.1-0.1,2.7-0.3,4.3-1.1c2.1-1,2.3-1.9,3.6-2.2c1.3-0.3,3.2,0,8.1,4.1c1.5,1.3,2.6,2.3,3.4,3.1c2.9,3,4.2,4.1,4.8,4.6
	c1.9,1.7,5.7,3.3,13.5,2.2c-0.4,0.8-1.1,2-2.4,3.1c-1.4,1.3-2.8,1.9-3.1,2c-2.1,0.8-3.9,0.7-6.4,0.5c-6.4-0.6-7.7-2.2-10.7-2
	c-4.8,0.3-7.9,5-9,6.6c-8.9,12.1-34.8,24.5-52.7,28.9c-5.5,1.4-19.4,4.7-36.6,1.6c-21.7-3.9-35.2-15.7-40.3-20.6
	c2.4,0.7,9.4,2.5,14.5,2.5c1.6,0,5.4,0.1,7.3-0.1c0.6-0.1,1.3-0.1,2.6-0.1c0.6,0,0.9,0,1.2,0.1c0.9,0.2,1.3,0.7,1.9,1.2
	c0.4,0.3,1.1,0.7,2.6,1.3c2.4,1.1,5.7,2.1,7.2,2.5c12.9,3.3,26.9,1,26.9,1c5.7-0.9,18.3-2.9,28.9-12c4.7-4,7.6-8.2,9.2-11.1
	c3.9,1.7,8.4,1.4,11.2-0.8c2.4-1.9,2.8-4.5,2.8-5.3c-0.6,0.6-2.8,2.4-5.9,2.4c-3.9,0-6.4-3-7.3-4.1c-0.5-0.6-2.1-2.6-2.3-5.4
	c-0.5-5.7,5-9.7,5.8-10.3c5.1-3.7,11.2-3.4,13-3.2C556.9,181.8,559.8,183.3,561.3,184.1z"/>
<path class="st4" d="M707.9,151.2c-0.7,1-2.1,2.5-4.4,3.5c-1.5,0.6-2.8,0.7-6,1.1c-5.4,0.6-8.1,0.8-8.5,0.9c-3.1,0.8-3.3,2.2-9,6.9
	c-4,3.4-6,5-8.8,6.3c-5.1,2.2-10.2,2.3-12.2,2.2c-5.6-0.1-9.7-1.8-11.6-2.6c-2.3,0.5-2.9,1.2-3.1,1.7c-0.5,1.3,1.5,2.4,2.3,5.5
	c0.2,0.7,0.2,1.3,0.3,1.7c-2.2,0.5-5.3,1.5-8.8,3.1c-5.3,2.5-6.4,4.5-10.3,6.6c-12.1,6.6-25,6.7-37.1,0c-3.3-1.8-6.3-4.1-9.2-6.2
	c-7.2-5.4-8.6-5.5-16.6-1c-2.8-7.9,2.9-12.6,19.1-15.7c-9.8-7.3-23.4-3.3-34.4,10.3c-3.1-0.2-6.3-0.3-9.9-0.5
	c0.2-5.7,2.7-11.1,7.5-15.7c12.2-11.7,28.5-16.7,48.1-14.3c4.4,0.5,9,2.8,12.4,5.1c2.9,2,4.9,2.1,8,0.9c4.7-1.9,9.2-2.6,13.2,1.7
	c-8.3,0.9-7.4,10.3-17.8,9.2c-0.1,0.4-0.2,0.9-0.3,1.3c2,0.9,3.9,2.4,6,2.7c5.2,0.7,9.5-1,12.7-4.2c2.8-2.8,5.4-5.8,8.8-8.2
	c7.6-5.4,15-5.5,23.3-0.8c9.3,5.2,9.3,5.3,16.5-1.7c1.8-1.7,3.8-2.8,6-3.4c3-0.7,5.7-0.2,7.3,0.1c1.6,0.3,2.1,0.6,7.5,2.3
	c1.5,0.5,2.8,0.9,3.6,1.1C704.5,151.2,706.2,151.2,707.9,151.2z"/>
<path class="st4" d="M69.7,95.9C61,91,57.2,80.1,56.7,70.7c-0.2-3.4,0-6.8,0.5-10.2c0.5-2.9,0.9-6.3,3.6-8.2c0.5-0.3,0.1-2,0-2.4
	c-0.4-1.6-1.5-2-2.3-3.2c-0.5-0.8-0.6-2.2-0.3-3.1c0.1-0.2,0.7-1.1,0.6-1.2c0.6,1.2,1.4,2.4,2.3,3.4c0.6,0.7,1.4,1.5,2.2,2
	c1,0.5,2.3,0.5,3.2,1.2c1.4,1,1.1,3,1,4.5c0,0,2.6-0.7,2.9-0.9c0.5-0.4,0.7-1.1,0.4-1.7c2.1,3.5,3.5,9.4-1.8,10.7
	c-1.1,0.3-2.3-0.7-3-1.4c-0.7-0.7-0.8-2-1.6-2.5c-0.1-0.1-0.2-0.1-0.3-0.1c-0.2,0-0.3,0.3-0.3,0.5c-0.2,1.9-0.2,3.9-0.6,5.8
	c-0.4,2-1.4,3.9-1.8,5.9c-0.9,4.7,0.5,9.5,2.4,13.8c0.9,2,1.9,4.1,2.9,6.1c0.5,1,1,2,1.5,2.9C68.3,93.3,69,95.5,69.7,95.9z"/>
<path class="st4" d="M67.8,80.9c0,0-3.3-15.1,7.2-20.2s10.2-5.1,10-12.4c0,0,6.7,11.8-2.7,16.3c0,0-2,3.9,2.8,2.1
	c0,0,0.7,9.3-10.8,6.8c0,0-1.8-4.2,0.1-4.3c0,0,4.3,1.4,2.9-2.4c0,0-2.9-2.5-5.1,1.3C70,72,67.8,74.6,67.8,80.9z"/>
<path class="st4" d="M75.5,56.9c0,0,6-12.8-0.8-16.3c0,0,0.1,6-3,8.8c0,0,0.7-4.6-4-5.6c-4.6-1-7.1-5.8-7.1-5.8s-2.9-11.7,2.1-14.6
	c0,0,2.7,0,2.3-1.4c-0.4-1.4-1.4-1.6-1.4-1.6s-3.5-3.1-2.7-6.5c0.8-3.4,3.7-5.8,3.7-5.8s1-3.2,0-4.2c-1-1.1-1.5-4.4-0.7-5.3
	c0,0,1.2,3.2,2.4,4.3c0,0,3.2,4.9,0.2,6.9c-3,2,2.8,3.8,2.8,3.8s2.7,3.5,2.7,6.6c0,0-0.1,3.6-3.2,6.2c0,0-1,4.8,2.3,5.8
	c0,0,1.7,0.1,1.4-2.2c-0.3-2.3,2.7-5.2,2.7-5.2s-1.7,5.9,0.3,6.6c2,0.7,4.1,2.7,4.1,2.7s4.1,5.1,3.6,10.9S75.5,56.9,75.5,56.9z"/>
<path class="st1" d="M177.3,85.6c2.6-3,6.6-6.7,12.2-9.3c4-1.8,7.5-2.4,9.2-2.8c3.9-0.7,6.9-0.7,9.8-0.6c5.6,0.1,11.3-0.2,16.9,0.1
	c6.7,0.3,18.2,0.3,39.4-1.3c10.4-1,18.3-3.9,23.2-6.2c5.3-2.4,11.4-5.3,16.9-11.8c2.7-3.2,4.4-6.2,5.5-8.4
	c-2.2,3.3-5.7,7.8-11.1,11.9c-7.8,6-20,11.9-37.9,11.9c-35.7,0-59.5,1.3-59.5,1.3c-2.6,0.1-6.3,0.5-10.3,2.2
	C183.2,76.3,178.9,83,177.3,85.6z"/>
<path class="st1" d="M175.6,88.7c0,0-0.3-26.1,32.9-28c38.3-2.2,75.9,1.5,114,4.3c52.4,3.9,107.6,7.6,159.4-2.7
	c4.9-1,9.8-2.1,14.7-3.4c8.9-2.4,17.8-5.4,25.1-10.9c7.4-5.5,13.1-13.8,13.6-23c-1.1,2.5-2.8,5.8-5.4,9.4c-1.4,1.9-7.8,10.3-20,16.2
	c-5.5,2.7-11.9,3.9-24.7,6.3c-5.1,1-10.9,2-21,3.3c-15.2,2.1-27.5,3.3-31.3,3.6c-21.6,1.9-64.5,1.8-118-4c-16.8-1.8-34.4-3-69.4-5.5
	c0,0-9.6-0.7-24.8,0.2c-25.1,1.5-32.8,5.9-37.5,9.3c-3.3,2.4-9.3,7.3-10,15C173.1,83.2,174.5,86.7,175.6,88.7z"/>
<path class="st4" d="M95.1,161.7c0,0-2.8,17.1-28.3,8c0,0-13.1-5.2-15.1-8.5c0,0-2.8,5.1-8.2,1.4c2.5,0.2,4.7-0.7,5.6-2.4
	c0.2-0.4,0.5-1,0.5-1.9c0.3-0.4,1.1-1.2,2.3-1.6c2.6-0.8,4.9,1.4,4.9,1.5c0-0.1,0.9-1.7,0-3.2c-0.8-1.3-2.2-1.5-2.3-1.5
	c0.3-0.4,1-1.3,2.2-1.7c2.5-0.9,4.8,0.9,4.9,1c1.8,0.9,2.5,3.1,1.7,4.8c-0.7,1.6-2.4,2.5-4.2,2.2c0,0-1.7,0.9,1.4,2.1
	C63.6,163.2,84,173.4,95.1,161.7z"/>
<path class="st4" d="M56,150c0,0,3-1.1,4.2,0.2c0,0-0.3-12.6-18.8-10.5c0,0-5.6,1.3-6.2,5.3c0,0-5-2.6-6.4-0.7c0,0,2.9,1,2.6,2.3
	c0,0,0.1,1.8,3.7,1.2c0,0-0.7,5.9-7.7,0.8c-7-5.1-9.4-2.4-9.4-2.4s-3.3,6.2-6.6,2.3c0,0-4.7-3.1-11.5,2.4c0,0,8.6-1.3,12.3,2.2
	c0,0,6.2,4.5,10.6,0.7c0,0,9.1,11.6,18.3,6.1c0,0,5.5-2.3,7-6.8c0,0,2.8-1.9,3.9,0.1c0,0-0.1-5.2-6.3-3.4c0,0-3.8-2.3-0.7-3.3
	c3.1-0.9,6.4-0.6,6.4-0.6S55.6,146.9,56,150z"/>
<path class="st5" d="M136.7,80.2c-1.1,0.5-2.8,1.3-4.6,2.9c-1.5,1.3-2.8,2.9-3.9,4.8c-1.1,1.9-1.9,4.1-2.4,6.7l-8.9,52.5
	c-0.5,2.7-1.4,4.7-2.8,6.1c-1.4,1.4-3.2,2.1-5.4,2.1c-2.1,0-3.7-0.7-4.6-2.1c-0.9-1.4-1.2-3.4-0.8-6l9.6-56.1c0.4-2,0.8-4,1.3-6
	c0.5-2,1.1-3.9,1.9-5.8c-1.4,0-2.9,0.3-4.4,0.9c-1.6,0.6-3.1,1.6-4.6,2.9s-2.8,2.9-3.9,4.8c-1.1,1.9-1.9,4.1-2.4,6.7l-9.1,52.6
	c-0.4,2.6-1.3,4.6-2.7,6c-1.4,1.4-3.2,2.1-5.4,2.1c-4.4,0-6.2-2.8-5.3-8.3l9.5-56c0,0,0,0,0-0.1c0.4-2.2,0.6-2.8,0.5-2.8
	c-0.2-0.1-0.7,1.6-2.3,2.9c-0.8,0.6-1.5,0.9-2.1,1.1c-0.5,0.2-1.7,0.6-3.2,0.5c-2.1-0.1-2.7-1-3.6-0.6c-0.5,0.2-1.1,0.8-1.4,2.6
	l-8.9,51.9c-0.8,5,0.1,8.7,2.9,11.4c2.8,2.6,7.1,3.9,12.8,3.9c5.2,0,9.5-1.1,13-3.2c2.8,2.1,6.8,3.2,12,3.2c5.7,0,10.4-1.3,14.1-3.9
	c3.6-2.6,5.9-6.4,6.7-11.4l9.5-55.4c0.4-2,0.8-4,1.3-6c0.3-1.1,0.4-1.5,0.5-2c0.8-2.2,2.1-3.8,3-4.7
	C140.1,78.7,138.1,79.5,136.7,80.2z"/>
<path class="st5" d="M154.8,95.1c-0.5,0.2-0.9,0.4-1.4,0.7c-2.2,1.2-4.3,3.5-4.8,5.9c-1.7,8.4-6.3,35.3-6.3,35.3
	c-1,9.3-3.9,17.5-10.8,24.4c3.9-0.2,6.7-0.6,7.6-0.8c0.9-0.2,1.7-0.5,1.7-0.5c0.2-0.1,0.4-0.1,0.6-0.2c1.6-0.6,3.1-1.5,4.5-2.8
	c1.5-1.2,2.7-2.8,3.8-4.6c1.1-1.8,1.9-4,2.4-6.4c3.2-17.6,6.4-35.2,9.6-52.8C160.3,93.6,157.2,94.2,154.8,95.1z"/>
<path class="st5" d="M215.2,111.3c-0.5,2.5-1.3,4.9-2.6,7.2c-1.3,2.3-3,4.3-5.1,6c-2.1,1.7-4.7,3.1-7.8,4.1c-3.1,1-6.6,1.5-10.6,1.5
	c-4.3,0-8-0.6-11-1.9l-3.2,18.2c-0.5,2.5-1.2,4.7-2.4,6.7c-1.1,1.9-2.4,3.5-3.8,4.8c-0.6,0.5-2.2,1.8-4.5,2.9
	c-3.4,1.5-6.5,1.6-8.5,1.6c1.4-1.1,4-3.3,5.7-7c0.9-2.1,1.3-4,1.5-5.4l8.9-51.9c0.5-2.5,1.3-4.9,2.6-7.2c1.3-2.3,3-4.3,5.1-6
	c2.1-1.7,4.7-3.1,7.8-4.1c3.7-1.2,7.6-1.9,11.5-1.3c3.6,0.6,6.5,2.5,9.8,3.8c2.9,1.2,4.3,1.8,5.7,1.6c0.8-0.1,2.2-1.1,3.5-2.2
	c0.9-0.8,1.4-1.4,1.7-1.3c0.4,0.2,0,1.8-0.2,2.3c-0.8,2.9-1.6,5.8-2,8.8C216.5,98.8,216.3,105.1,215.2,111.3z M180.9,111.9
	c-0.2,1.3-0.3,2.7-0.3,4.1c0,1.4,0.4,2.6,1,3.8c0.6,1.1,1.6,2.1,3,2.8c1.3,0.7,3.2,1.1,5.6,1.1c2.4,0,4.4-0.4,6-1.1
	c1.6-0.7,2.9-1.7,4-2.8c1-1.1,1.8-2.4,2.4-3.8c0.5-1.4,0.9-2.7,1.1-4.1l2.5-14.4c0.2-1.3,0.3-2.7,0.2-4.1c-0.1-1.4-0.4-2.6-1.1-3.8
	c-0.7-1.1-1.6-2.1-3-2.8c-1.3-0.7-3.2-1.1-5.6-1.1c-2.4,0-4.3,0.4-5.9,1.1c-1.6,0.7-2.9,1.7-3.9,2.8c-1,1.1-1.8,2.4-2.4,3.8
	c-0.5,1.4-0.9,2.7-1.1,4.1L180.9,111.9z"/>
<path class="st5" d="M255.6,143.5c-0.2,1.3-0.3,2.7-0.3,4.1c0,1.4,0.4,2.6,1,3.8c0.6,1.1,1.6,2.1,3,2.8c1.3,0.7,3.2,1.1,5.6,1.1
	c2.5,0,4.6-0.3,6.2-0.9c1.6-0.6,2.9-1.5,3.8-2.5c1-1.1,1.7-2.3,2.2-3.7c0.5-1.4,0.9-2.9,1.2-4.5v-0.5c0.2-1.3,0.9-2.4,2-3.5
	c1.1-1.1,2.4-2.1,3.7-2.9s2.8-1.5,4.2-1.9c1.5-0.4,2.6-0.6,3.6-0.6c-0.5,2-1,3.8-1.3,5.4c-0.3,1.6-0.7,3.4-1,5.5
	c-0.4,2.3-1.2,4.4-2.6,6.5c-1.3,2-3.1,3.8-5.3,5.4c-2.2,1.5-4.8,2.7-7.8,3.6c-3,0.9-6.4,1.3-10,1.3c-4,0-7.3-0.5-10-1.5
	c-2.7-1-4.9-2.4-6.4-4.1c-1.6-1.7-2.6-3.7-3.1-6c-0.5-2.3-0.5-4.7-0.1-7.2l7.7-44.8c0.5-2.5,1.3-4.9,2.6-7.2c1.3-2.3,3-4.3,5.1-6
	c2.1-1.7,4.7-3.1,7.8-4.1c3.1-1,6.6-1.5,10.6-1.5c3.7,0,6.9,0.4,9.6,1.3c2.7,0.9,4.9,2.1,6.5,3.6c1.6,1.5,2.8,3.3,3.4,5.4
	c0.6,2,0.8,4.2,0.4,6.5c-0.4,2-0.7,3.9-0.9,5.5c-0.2,1.6-0.4,3.4-0.5,5.4c-0.9,0-2-0.2-3.3-0.6c-1.3-0.4-2.5-1.1-3.6-1.9
	c-1.1-0.8-2-1.8-2.8-2.9c-0.7-1.1-1-2.3-0.7-3.5l0.1-0.5c0.2-1.6,0.3-3.1,0.3-4.5c0-1.4-0.3-2.7-0.9-3.7c-0.6-1.1-1.6-1.9-3-2.5
	c-1.4-0.6-3.3-0.9-5.9-0.9c-2.4,0-4.3,0.4-5.9,1.1c-1.6,0.7-2.9,1.7-3.9,2.8c-1,1.1-1.8,2.4-2.4,3.8c-0.5,1.4-0.9,2.7-1.1,4.1
	L255.6,143.5z"/>
<path class="st5" d="M306.4,113.1c0.4-2.3,1.2-4.4,2.6-6.5c1.3-2,3.1-3.8,5.3-5.4c2.2-1.5,4.8-2.7,7.8-3.6c3-0.9,6.4-1.3,10-1.3
	c4,0,7.3,0.5,10,1.5c2.7,1,4.9,2.4,6.4,4.1c1.6,1.7,2.6,3.7,3.1,6c0.5,2.3,0.5,4.7,0.1,7.2l-7.9,46.6c-1.4,0-2.7-0.3-3.9-0.9
	c-1.2-0.6-2.1-1.6-2.8-2.9c-2.1,1.3-4.5,2.2-7.2,2.9c-2.7,0.7-5.7,1-9,1c-4,0-7.3-0.5-10-1.5c-2.7-1-4.9-2.4-6.4-4.1
	c-1.6-1.7-2.6-3.7-3.1-6c-0.5-2.3-0.5-4.7-0.1-7.2l0.6-3.7c0.5-2.5,1.3-4.9,2.6-7.2c1.3-2.3,3-4.3,5.1-6c2.1-1.7,4.7-3.1,7.8-4.1
	c3.1-1,6.6-1.5,10.6-1.5c1.8,0,3.7,0.3,5.9,1c2.1,0.7,3.8,1.6,4.9,2.7l1.6-9.4c0.2-1.3,0.3-2.7,0.2-4.1c-0.1-1.4-0.4-2.6-1-3.8
	c-0.6-1.1-1.6-2.1-2.9-2.8c-1.3-0.7-3.2-1.1-5.6-1.1c-2.5,0-4.6,0.3-6.2,0.9c-1.6,0.6-2.9,1.5-3.9,2.5c-1,1.1-1.7,2.3-2.2,3.7
	c-0.5,1.4-0.8,2.9-1.1,4.5v0.5c-0.2,1.3-0.9,2.4-2,3.5c-1.1,1.1-2.4,2.1-3.7,2.9c-1.4,0.8-2.8,1.5-4.2,1.9c-1.5,0.4-2.6,0.6-3.6,0.6
	c0.5-2,1-3.8,1.3-5.4C305.7,116.9,306,115.1,306.4,113.1z M312.7,143.5c-0.2,1.3-0.3,2.7-0.3,4.1c0,1.4,0.4,2.6,1,3.8
	c0.6,1.1,1.6,2.1,3,2.8c1.3,0.7,3.2,1.1,5.6,1.1c2.5,0,4.6-0.3,6.2-0.9c1.6-0.6,2.9-1.5,3.8-2.5c1-1.1,1.7-2.3,2.2-3.7
	c0.5-1.4,0.9-2.9,1.2-4.5l0.8-5c0.2-1.3,0.3-2.7,0.2-4.1c-0.1-1.4-0.4-2.6-1-3.8c-0.6-1.1-1.6-2.1-2.9-2.8c-1.3-0.7-3.2-1.1-5.6-1.1
	c-2.4,0-4.4,0.4-6,1.1c-1.6,0.7-2.9,1.7-4,2.8c-1,1.1-1.8,2.4-2.4,3.8c-0.5,1.4-0.9,2.7-1.1,4.1L312.7,143.5z"/>
<path class="st5" d="M424.7,181.9c3.5-12.5,11.4-67.1,12.7-73.8c0.1-0.6,0.6-2.9,0.8-6c0.2-2,0.2-3.9,0-5.8c1.4,0,2.8,0.4,4.1,1.1
	c1.4,0.7,2.6,1.7,3.7,3.1c2.1-1.3,4.4-2.4,7.1-3.1c2.7-0.7,5.7-1.1,9.1-1.1c4,0,7.3,0.5,10,1.5c2.7,1,4.9,2.4,6.4,4.1
	c1.6,1.7,2.6,3.7,3.1,6c0.5,2.3,0.5,4.7,0.1,7.2l-4.7,27.7c-0.5,2.5-1.3,4.9-2.6,7.2c-1.3,2.3-3,4.3-5.1,6c-2.1,1.7-4.7,3.1-7.8,4.1
	c-3.1,1-6.6,1.5-10.6,1.5c-2.2,0-4.2-0.2-6.1-0.5c-1.8-0.3-3.5-0.8-5-1.4l-3,17.9c-0.5,2.5-1.3,4.7-2.4,6.7
	c-0.9,1.5-1.9,3.3-3.9,4.8c-1.6,1.3-3.2,1.8-4.4,2.3c-1.7,0.6-4.5,1.3-8.2,1.1c1.3-1.2,2.9-2.8,4.3-5.2
	C423.7,185.1,424.3,183.1,424.7,181.9z M442.8,143.5c-0.2,1.3-0.3,2.7-0.3,4.1c0,1.4,0.4,2.6,1,3.8c0.6,1.1,1.6,2.1,3,2.8
	c1.3,0.7,3.2,1.1,5.6,1.1c2.4,0,4.4-0.4,6-1.1c1.6-0.7,2.9-1.7,4-2.8c1-1.1,1.8-2.4,2.4-3.8c0.5-1.4,0.9-2.7,1.1-4.1l4.9-28.9
	c0.2-1.3,0.3-2.7,0.2-4.1c-0.1-1.4-0.4-2.6-1-3.8c-0.6-1.1-1.6-2.1-2.9-2.8c-1.3-0.7-3.2-1.1-5.6-1.1c-2.2,0-4.1,0.3-5.7,1
	c-1.6,0.7-2.9,1.5-3.9,2.6c-1,1.1-1.9,2.2-2.5,3.5c-0.6,1.3-1,2.6-1.3,3.8L442.8,143.5z"/>
<text transform="matrix(1 0 0 1 514.4667 137.6851)" class="st5 st2 st6">#</text>
<path class="st5" d="M602.8,70.5c-2.4,1.6-4.8,2.3-7.2,2.3c-3,0-5.8-1.3-8.3-3.8L607,56.4c1.1-0.7,2-1.4,2.9-1.8
	c0.9-0.5,1.7-0.9,2.6-1.1c0.9-0.2,1.7-0.4,2.6-0.5c0.9-0.1,1.9-0.1,3.1-0.1l-12.4,70c-0.2,1.4-0.6,4.2-2.5,6.9
	c-0.5,0.7-1.9,2.7-4.4,4.3c-2,1.3-3.8,1.8-4.9,2.1c-2.9,0.7-5.5,0.7-7.4,0.4c0.9-0.9,1.9-2,2.8-3.3c1.8-2.4,2.9-4.8,3.6-6.7
	L602.8,70.5z"/>
<path class="st5" d="M675.5,63.9c-0.5-2.4-1.6-4.5-3.3-6.3c-1.7-1.8-4-3.2-6.9-4.3c-2.9-1.1-6.5-1.6-10.7-1.6c-4.3,0-8,0.5-11.3,1.6
	c-3.3,1.1-6.1,2.5-8.3,4.3c-2.3,1.8-4.1,3.9-5.5,6.3c-1.3,2.4-2.3,4.9-2.8,7.5l-8.2,46.6c-0.5,2.6-0.5,5.1,0.1,7.5
	c0.5,2.4,1.6,4.5,3.3,6.3c1.7,1.8,4,3.2,6.9,4.3c2.9,1.1,6.5,1.6,10.7,1.6c4.3,0,8-0.5,11.3-1.6c3.3-1.1,6.1-2.5,8.3-4.3
	c2.3-1.8,4.1-3.9,5.5-6.3c1.3-2.4,2.3-4.9,2.8-7.5l8.2-46.6C676,68.8,676,66.3,675.5,63.9z M663.5,70.8c-0.4,4.1-1.5,8.3-2.2,12.2
	c-1,5.8-2.2,11.6-3.2,17.5c-1.1,6-2.1,12.1-3.2,18.1c0,0,0,0.1,0,0.1c-0.2,1.4-0.7,2.8-1.2,4.2c-0.6,1.4-1.4,2.7-2.5,3.9
	c-1.1,1.2-2.5,2.2-4.2,2.9c-1.7,0.8-3.8,1.2-6.4,1.2c-2.5,0-4.5-0.4-6-1.2c-1.4-0.8-2.5-1.8-3.2-2.9c-1.5-2.5-1.2-5.2-0.7-8.8
	c1.2-8.9,2.8-17.7,4.5-26.5c1-5.1,1.7-10.3,2.8-15.4c0.9-4.6,1.6-9.9,4.9-13.5c1.1-1.2,2.5-2.2,4.2-2.9c1.7-0.8,3.8-1.2,6.3-1.2
	c2.5,0,4.5,0.4,6,1.2c1.4,0.8,2.5,1.8,3.2,2.9c0.7,1.2,1.1,2.5,1.2,3.9C663.7,68,663.6,69.4,663.5,70.8z"/>
<path class="st4" d="M89.5,90c1.9-4.4,1.5-8.7-0.8-10.7c-0.5-0.4-1.4-1-2.8-1.3c0,0-10,1.1-12.3-3.9c-0.9,4-1.5,9.3,1.6,12.5
	c1.8,1.9,5.9,3.6,8.4,2.1c2.4-1.5,1.5-5.1,1.5-5.1c0.8-0.2,1.7,0,2.2,0.5c0.9,1,0,2.8-0.3,3.4c-0.3,0.7-0.7,1.1-0.9,1.4
	c-0.8,0.9-1.7,1.5-2.3,1.8C85.6,90.5,87.5,90.2,89.5,90z"/>
<path class="st5" d="M150.4,101.5c1.7-0.6,3.1-0.5,4.8-0.7c1.6-0.2,3.2-0.5,4.8-0.7l1.8-7c0,0,0,0,0-0.1c0.6-2.1,0.9-2.7,0.8-2.8
	c-0.2-0.1-0.8,1.6-2.5,2.7c-0.8,0.5-1.6,0.8-2.1,0.9c-0.5,0.1-1.7,0.5-3.2,0.3c-2.1-0.2-2.6-1.2-3.6-0.9c-0.5,0.2-1.2,0.7-1.6,2.4
	c-0.4,2.3-0.8,4.5-1.1,6.8C148.8,102.2,149.5,101.9,150.4,101.5z"/>
<path class="st4" d="M163.5,92.2c2.3-4.2,2.2-8.5,0-10.8c-0.5-0.5-1.3-1.1-2.7-1.5c0,0-10,0.4-12-4.8c-1.2,3.9-2.2,9.1,0.6,12.6
	c1.6,2,5.6,4,8.2,2.7c2.5-1.3,1.9-4.9,1.9-4.9c0.8-0.1,1.7,0.1,2.2,0.7c0.8,1-0.3,2.8-0.6,3.4c-0.4,0.6-0.8,1-1,1.3
	c-0.9,0.9-1.8,1.4-2.4,1.6C159.6,92.4,161.5,92.3,163.5,92.2z"/>
<path class="st1" d="M466.5,96c0.1,0.2,0.2,0.5,0.3,0.7c1.2,0.2,2.2,1,3,2.5c0.1,0.2,0.2,0.4,0.3,0.5c1.6,0.4,3.1,1.5,3.6,3.3
	c0.9,3.1,1.9,6.2,2.7,9.3c0.2,0.7,0.2,1.4,0.1,2.1c0.9,0.5,2,1.1,3.1,2c0.9,0.8,1.7,1.5,2.3,2.2c0.2-0.8,0.5-2,0.8-3.5
	c0.8-3.9,0.6-4.3,1.2-7.2c1.5-7.4,1.9-8.9,1.9-8.9c0.2-0.6,0.6-2.1,0.2-2.3c-0.3-0.1-0.8,0.5-1.7,1.3c-1.3,1.1-2.7,2-3.5,2.2
	c-1.9,0.3-3.4-0.5-5.7-1.6C473.2,97.8,470.3,96.7,466.5,96z"/>
<path class="st1" d="M406.5,151.6c-1.9,6.6-1,11.8,1.4,12.9c0.8,0.3,1.5,0.2,3.5-0.5c2.6-0.8,6-2,10.1-3.8c-0.5,0-1.2-0.1-1.8-0.6
	c-0.5-0.4-0.9-1.1-0.9-3.3c0-2,0.4-3.4,0.8-4.9c0.3-1.2,0.6-3,0.9-5.2C415.8,148,411.2,149.8,406.5,151.6z"/>
<path class="st5" d="M422.5,101.9c-2.8-2.6-7-3.9-12.7-3.9c-5.1,0-9.4,1.1-12.8,3.2c-2.8-2.1-6.8-3.2-12-3.2c-4.7,0-8.9,1-12.5,2.9
	c-1-1-2.1-1.8-3.3-2.2c-1.2-0.5-2.4-0.7-3.6-0.7c0.2,1.9,0.2,3.8,0,5.8c-0.2,2-0.4,4-0.8,6l-7.2,41.8c-0.7,4.2-1.7,8.1-3.1,11.8
	c1.4,0,2.8-0.3,4.4-0.9c1.6-0.6,3.1-1.6,4.5-2.9c1.5-1.3,2.7-2.9,3.8-4.8c1.1-1.9,1.9-4.1,2.4-6.7l6.1-35.5c0.5-2.6,1.4-4.6,2.8-6
	c1.4-1.4,3.2-2.1,5.4-2.1c2.1,0,3.7,0.7,4.5,2.1c0.9,1.4,1.1,3.4,0.7,6l-6.7,39c-0.7,4.2-1.7,8.1-3.1,11.8c1.4,0,2.8-0.3,4.4-0.9
	c1.6-0.6,3.1-1.6,4.5-2.9c1.5-1.3,2.7-2.9,3.8-4.8c1.1-1.9,1.9-4.1,2.4-6.7l6.1-35.5c0.5-2.6,1.4-4.6,2.8-6c1.4-1.4,3.2-2.1,5.4-2.1
	c4.4,0,6.2,2.8,5.3,8.3l-6.7,38.9c0,0.1,0,0.1,0,0.2c0.4-0.1,0.9-0.2,1.4-0.2c2.7-0.1,5.5-0.8,8.4,0.1c0.2,0.1,0.3,0.1,0.4,0.1
	c0.1-0.5,0.2-1.2,0.6-1.9c0.3-0.7,0.7-1.3,1.1-1.6c2-11.6,4.1-23.3,6.1-34.9C426.2,108.3,425.2,104.5,422.5,101.9z"/>
<path class="st1" d="M415,97.9c0.9,0.3,2,0.6,3.2,0.7c4.1,0.3,7.2-1.5,8.5-2.3c0,0,1.6,4.6-0.2,15.1
	C422.7,106.9,418.9,102.4,415,97.9z"/>
<path class="st1" d="M341,98.7c1.1,0.3,2.4,0.5,4,0.5c3.9,0,6.9-1.4,8.5-2.3c0.2,1.1,0.5,2.3,0.6,3.6c0.5,4.6-0.2,8.6-1.1,11.5
	c-0.9-1.9-2.2-4.4-4.4-7C345.9,101.9,343.1,99.9,341,98.7z"/>
<path class="st4" d="M678.8,96.3c0.2-0.7,0-1.6,0-2.3c0.1-1.8,0.4-3.7,0.8-5.4c1.1-4.6,3.6-9.1,8-11.3c1.5-0.8,3.2-1.3,4.9-1.4
	c1.5-0.1,2.9,0.3,4.4,0.4c2.2,0.2,5.5,0.3,6.9-1.9c0,0-0.5,8.3-8.3,6.6c0.6,0.1,0.3,2.1,0.1,2.4c-0.9,2-3.2,2.2-5.1,1.5
	c-2-0.7-2.5-2.4-1.6-4.2c0,0,1.9,1.6,3,0.3c0,0,1.3-3.2-2.2-3.1C689.9,77.9,682.8,79.7,678.8,96.3z"/>
<path class="st4" d="M676.2,95.1c0,0-5.2-22.4,12.1-29.7c0,0,2.7,0.1,3.5-6.3c0,0,2.7,5.9,2.2,7.9c0,0-1.9-0.7-1.5,1.8
	c0.4,2.5,2.2,0.9,2.2,0.9s1.8,6-4.2,4.1c0,0-2.1-1.2-1.3-5.4c-3.6,2.9-7,6.3-9.6,10.2c-1.6,2.4-2.1,4.9-2.6,7.6
	C676.4,89.2,676.1,92.1,676.2,95.1z"/>
<path class="st4" d="M696.5,72.5c0,0,7.3-2.9,7.3-6.5c0,0-1.2-4.2-3.1,0.6c-0.2,0.3-1.4,2-2.9,1.9c-0.7-0.1-1.4-0.6-1.3-0.8
	c0-0.1,0.2-0.1,0.8-0.2c0.3-0.1,0.6-0.2,0.8-0.2c0.1-0.3,0.7-1.8-0.1-3.3c-0.2-0.4-0.6-0.7-0.8-0.9c-0.5-0.7-1.6-2.6-1.4-5.1
	c0.2-1.9,1-3.2,1.5-3.9c0.7-1,1.8-2.7,3.9-3.4c1.6-0.6,3.1-0.3,3.9-0.1c-0.1-0.4-0.8-2.5,0.2-4.8c1.2-2.5,3.6-3.3,4-3.4
	c0,0,3.9-0.3,3.8-5.1c0,0,1.6,7.6-2.9,7.7c0,0,2.6,9.6-4.7,10c0,0-3.6,1.2-0.2,3.8c0,0,3.7-0.2,3.7-3.3c0,0,1.6,4.3-1.6,5.5
	c0,0,1.8,1.6,1.8,3.9c0,1.8-1,3-1.6,3.7C704.1,72.4,697.9,72.5,696.5,72.5z"/>
</svg>
